<?xml version="1.0" encoding="UTF-8" standalone="no"?>
<svg width="81px" height="10px" viewBox="0 0 81 10" version="1.1" xmlns="http://www.w3.org/2000/svg" xmlns:xlink="http://www.w3.org/1999/xlink" xmlns:sketch="http://www.bohemiancoding.com/sketch/ns">
    <!-- Generator: Sketch 3.5.1 (25234) - http://www.bohemiancoding.com/sketch -->
    <title>Fill 227</title>
    <desc>Created with Sketch.</desc>
    <defs></defs>
    <g id="Page-1" stroke="none" stroke-width="1" fill="none" fill-rule="evenodd" sketch:type="MSPage">
        <path d="M79.0158793,2.07003983 C66.1618793,1.07103983 52.9458793,2.07703983 40.0338793,1.74803983 C27.0488793,1.41703983 14.0838793,0.674039835 1.11387926,0.0020398346 C-0.403120737,-0.0769601654 -0.339120737,2.16403983 1.11387926,2.32303983 C14.0068793,3.74003983 26.9618793,4.50603983 39.9208793,5.00403983 C39.2208793,5.00203983 38.5178793,5.00403983 37.8188793,4.99903983 C26.3298793,4.90803983 14.8448793,4.98903983 3.35787926,5.21103983 C1.99587926,5.23703983 1.99087926,7.31703983 3.35787926,7.33003983 C14.8448793,7.44003983 26.3348793,7.63403983 37.8188793,7.92603983 C49.2508793,8.21603983 60.8468793,9.35003983 72.2678793,9.06003983 C74.4238793,9.00503983 74.3408793,5.98003983 72.2678793,5.76903983 C72.2188793,5.76403983 72.1678793,5.76103983 72.1178793,5.75603983 C74.4368793,5.64903983 76.7388793,5.47903983 79.0158793,5.22603983 C81.0158793,5.00303983 81.0718793,2.23003983 79.0158793,2.07003983" id="Fill-227" fill="#78C225" sketch:type="MSShapeGroup"></path>
    </g>
</svg>