<?xml version="1.0" encoding="UTF-8" standalone="no"?>
<svg width="46px" height="22px" viewBox="0 0 46 22" version="1.1" xmlns="http://www.w3.org/2000/svg" xmlns:xlink="http://www.w3.org/1999/xlink" xmlns:sketch="http://www.bohemiancoding.com/sketch/ns">
    <!-- Generator: Sketch 3.5.1 (25234) - http://www.bohemiancoding.com/sketch -->
    <title>Slice 15</title>
    <desc>Created with Sketch.</desc>
    <defs></defs>
    <g id="Page-1" stroke="none" stroke-width="1" fill="none" fill-rule="evenodd" sketch:type="MSPage">
        <path d="M12.5525997,1.33329213 L9.54169473,1.33329213 C9.54169473,1.33329213 6.15607314,1.0989239 5.28809314,4.51134342 C5.28809314,4.51134342 4.97378537,5.40657553 5.01693456,7.61172617 L1.7326,7.61172617 L1.7326,10.2161204 L5.2781007,10.2161204 L5.2781007,20.024158 L8.81769677,20.024158 L8.81769677,10.2256586 L12.3731899,10.2256586 L12.3731899,7.61172617 L8.8240556,7.61172617 L8.8240556,6.0397331 C8.8240556,5.02050384 9.51444261,4.04578638 11.0768974,4.04578638 L12.5525997,4.04578638 L12.5525997,1.33329213 L12.5525997,1.33329213 Z" id="Stroke-3" stroke="#78C225" stroke-width="2" stroke-linecap="round" stroke-linejoin="round" sketch:type="MSShapeGroup"></path>
        <path d="M23.0004,5.768 C23.0804004,7.51200872 23.216399,9.31599068 23.4084,11.18 C23.600401,13.0440093 23.8083989,14.8239915 24.0324,16.52 C24.0804002,17.2240035 23.8884022,17.5839999 23.4564,17.6 C23.3603995,17.6 23.2644005,17.5640004 23.1684,17.492 C23.0723995,17.4199996 22.9844004,17.3280006 22.9044,17.216 C22.8243996,17.1039994 22.7484004,16.9840006 22.6764,16.856 C22.6043996,16.7279994 22.5604001,16.6160005 22.5444,16.52 C22.4163994,15.7039959 22.2964006,14.8400046 22.1844,13.928 C22.0723994,13.0159954 21.9724004,12.1000046 21.8844,11.18 C21.7963996,10.2599954 21.7204003,9.3600044 21.6564,8.48 C21.5923997,7.5999956 21.5524001,6.79200368 21.5364,6.056 C21.5684002,5.67199808 21.6243996,5.34800132 21.7044,5.084 C21.7844004,4.81999868 21.9523987,4.69599992 22.2084,4.712 C22.4804014,4.72800008 22.6763994,4.835999 22.7964,5.036 C22.9164006,5.236001 22.9843999,5.47999856 23.0004,5.768 L23.0004,5.768 Z M29.1093231,7.208 C29.077323,7.3680008 28.9653241,7.45599992 28.7733231,7.472 C28.5813222,7.48800008 28.4213238,7.496 28.2933231,7.496 C27.8933211,7.51200008 27.4813253,7.55199968 27.0573231,7.616 C26.633321,7.68000032 26.1893255,7.77599936 25.7253231,7.904 C25.5333222,7.96800032 25.3253243,7.94400056 25.1013231,7.832 C24.877322,7.71999944 24.7413234,7.49600168 24.6933231,7.16 C24.6933231,7.03199936 24.7413227,6.9280004 24.8373231,6.848 C24.9333236,6.7679996 25.0453225,6.69600032 25.1733231,6.632 C25.3813242,6.53599952 25.6293217,6.45200036 25.9173231,6.38 C26.2053246,6.30799964 26.4973217,6.25600016 26.7933231,6.224 C27.0893246,6.19199984 27.3733218,6.17999996 27.6453231,6.188 C27.9173245,6.19600004 28.1413223,6.22399976 28.3173231,6.272 C28.5733244,6.3520004 28.7773224,6.4719992 28.9293231,6.632 C29.0813239,6.7920008 29.1413233,6.98399888 29.1093231,7.208 L29.1093231,7.208 Z M28.5573231,15.2 C28.6693237,15.4560013 28.7293231,15.7319985 28.7373231,16.028 C28.7453232,16.3240015 28.661324,16.5279994 28.4853231,16.64 C28.261322,16.7840007 28.0213244,16.7760008 27.7653231,16.616 C27.5093219,16.4559992 27.3173238,16.2400014 27.1893231,15.968 C27.0133223,15.6319983 26.8773236,15.2200024 26.7813231,14.732 C26.6853227,14.2439976 26.6133234,13.7600024 26.5653231,13.28 C26.5173229,12.7999976 26.4893232,12.3520021 26.4813231,11.936 C26.4733231,11.5199979 26.4693231,11.208001 26.4693231,11 C26.4853232,10.7759989 26.5493226,10.568001 26.6613231,10.376 C26.7733237,10.183999 26.9173223,10.0720002 27.0933231,10.04 C27.3813246,10.0560001 27.6133223,10.1879988 27.7893231,10.436 C27.965324,10.6840012 28.0453232,10.9919982 28.0293231,11.36 C28.0293231,11.6480014 28.0373231,11.9679982 28.0533231,12.32 C28.0693232,12.6720018 28.1013229,13.0239982 28.1493231,13.376 C28.1973234,13.7280018 28.2533228,14.0679984 28.3173231,14.396 C28.3813235,14.7240016 28.4613227,14.991999 28.5573231,15.2 L28.5573231,15.2 Z M36.5622463,9.152 C36.6262466,9.13599992 36.7222456,9.12400004 36.8502463,9.116 C36.9782469,9.10799996 37.1022457,9.11599988 37.2222463,9.14 C37.3422469,9.16400012 37.4462458,9.20399972 37.5342463,9.26 C37.6222467,9.31600028 37.6742462,9.3839996 37.6902463,9.464 C37.7222464,9.65600096 37.6942467,9.82799924 37.6062463,9.98 C37.5182458,10.1320008 37.3622474,10.2639994 37.1382463,10.376 C36.5302432,10.6640014 35.8982495,10.9879982 35.2422463,11.348 C34.586243,11.7080018 34.0262486,12.0319986 33.5622463,12.32 C33.8502477,12.512001 34.1822444,12.7279988 34.5582463,12.968 C34.9342481,13.2080012 35.3222443,13.4599987 35.7222463,13.724 C36.1222483,13.9880013 36.5222443,14.2679985 36.9222463,14.564 C37.3222483,14.8600015 37.6982445,15.1519986 38.0502463,15.44 C38.3702479,15.7120014 38.4262473,15.9599989 38.2182463,16.184 C38.1222458,16.2960006 37.9662473,16.3759998 37.7502463,16.424 C37.5342452,16.4720002 37.3302472,16.4480005 37.1382463,16.352 C36.7862445,16.1759991 36.4022483,15.9640012 35.9862463,15.716 C35.5702442,15.4679988 35.1462484,15.2120013 34.7142463,14.948 C34.2822441,14.6839987 33.8622483,14.4200013 33.4542463,14.156 C33.0462442,13.8919987 32.6742479,13.6480011 32.3382463,13.424 C32.4022466,13.9840028 32.462246,14.5439972 32.5182463,15.104 C32.5742465,15.6640028 32.626246,16.2239972 32.6742463,16.784 C32.7702467,17.0880015 32.7622468,17.335999 32.6502463,17.528 C32.5382457,17.720001 32.3542475,17.8080001 32.0982463,17.792 C31.8262449,17.7439998 31.6262469,17.6360008 31.4982463,17.468 C31.3702456,17.2999992 31.2742466,17.0800014 31.2102463,16.808 C31.1142458,16.1519967 31.0062469,15.3760045 30.8862463,14.48 C30.7662457,13.5839955 30.6422469,12.6560048 30.5142463,11.696 C30.3862456,10.7359952 30.2622469,9.80000456 30.1422463,8.888 C30.0222457,7.97599544 29.9142467,7.16800352 29.8182463,6.464 C29.7862461,6.23999888 29.7662463,5.99600132 29.7582463,5.732 C29.7502462,5.46799868 29.8342454,5.2960004 30.0102463,5.216 C30.2502475,5.11999952 30.498245,5.171999 30.7542463,5.372 C31.0102475,5.572001 31.2022456,5.871998 31.3302463,6.272 C31.4582469,7.00800368 31.5862456,7.80799568 31.7142463,8.672 C31.8422469,9.53600432 31.9702456,10.4479952 32.0982463,11.408 C32.4182479,11.215999 32.7902441,11.0040012 33.2142463,10.772 C33.6382484,10.5399988 34.0622441,10.3160011 34.4862463,10.1 C34.9102484,9.88399892 35.3062444,9.68800088 35.6742463,9.512 C36.0422481,9.33599912 36.3382451,9.21600032 36.5622463,9.152 L36.5622463,9.152 Z M44.5911694,11.36 C43.9671663,11.7280018 43.295173,12.011999 42.5751694,12.212 C41.8551658,12.412001 41.0791736,12.512 40.2471694,12.512 C40.2791696,13.0720028 40.439168,13.5159984 40.7271694,13.844 C41.0151708,14.1720016 41.3751672,14.3679997 41.8071694,14.432 C42.0631707,14.4640002 42.3231681,14.4560002 42.5871694,14.408 C42.8511707,14.3599998 43.0991682,14.2840005 43.3311694,14.18 C43.5631706,14.0759995 43.7751684,13.9600006 43.9671694,13.832 C44.1591704,13.7039994 44.3271687,13.5760006 44.4711694,13.448 C44.6151701,13.3199994 44.7671686,13.2360002 44.9271694,13.196 C45.0871702,13.1559998 45.207169,13.1519998 45.2871694,13.184 C45.5111705,13.2640004 45.5911697,13.503998 45.5271694,13.904 C45.2711681,14.4160026 44.9031718,14.8519982 44.4231694,15.212 C43.943167,15.5720018 43.4071724,15.7999995 42.8151694,15.896 C42.3031668,15.9920005 41.7751721,15.9680007 41.2311694,15.824 C40.6871667,15.6799993 40.1991716,15.4000021 39.7671694,14.984 C39.3991676,14.6159982 39.1191704,14.1840025 38.9271694,13.688 C38.7351684,13.1919975 38.6151696,12.6800026 38.5671694,12.152 C38.5191692,11.6559975 38.5631687,11.1840022 38.6991694,10.736 C38.8351701,10.2879978 39.047168,9.89200172 39.3351694,9.548 C39.6231708,9.20399828 39.9831672,8.92000112 40.4151694,8.696 C40.8471716,8.47199888 41.3511665,8.34400016 41.9271694,8.312 C42.6151728,8.26399976 43.2391666,8.39199848 43.7991694,8.696 C44.3591722,9.00000152 44.7511683,9.42399728 44.9751694,9.968 C45.10317,10.2720015 45.1391697,10.5359989 45.0831694,10.76 C45.0271691,10.9840011 44.8631708,11.1839991 44.5911694,11.36 L44.5911694,11.36 Z M41.8311694,9.728 C41.6711686,9.76000016 41.4991703,9.8159996 41.3151694,9.896 C41.1311685,9.9760004 40.9631702,10.0759994 40.8111694,10.196 C40.6591686,10.3160006 40.52317,10.4519992 40.4031694,10.604 C40.2831688,10.7560008 40.2151695,10.927999 40.1991694,11.12 C40.4711708,11.12 40.7711678,11.0960002 41.0991694,11.048 C41.427171,10.9999998 41.7471678,10.9400004 42.0591694,10.868 C42.371171,10.7959996 42.6591681,10.7120005 42.9231694,10.616 C43.1871707,10.5199995 43.4071685,10.4160006 43.5831694,10.304 C43.4551688,9.99999848 43.2191711,9.81200036 42.8751694,9.74 C42.5311677,9.66799964 42.1831712,9.66399968 41.8311694,9.728 L41.8311694,9.728 Z" id="like" fill="#78C225" sketch:type="MSShapeGroup"></path>
    </g>
</svg>