<?xml version="1.0" encoding="UTF-8" standalone="no"?>
<svg width="2105px" height="179px" viewBox="0 0 2105 179" version="1.1" xmlns="http://www.w3.org/2000/svg" xmlns:xlink="http://www.w3.org/1999/xlink" xmlns:sketch="http://www.bohemiancoding.com/sketch/ns">
    <!-- Generator: Sketch 3.5.1 (25234) - http://www.bohemiancoding.com/sketch -->
    <title>footer</title>
    <desc>Created with Sketch.</desc>
    <defs></defs>
    <g id="Page-1" stroke="none" stroke-width="1" fill="none" fill-rule="evenodd" sketch:type="MSPage">
        <path d="M883,6.5 C883,1.80557963 886.804955,-2 891.495996,-2 L1009.504,-2 C1014.19621,-2 1018,1.81513183 1018,6.5 C1018,11.1944204 1014.19505,15 1009.504,15 L891.495996,15 C886.803787,15 883,11.1848682 883,6.5 M950,39.5 C950,34.8055796 953.807535,31 958.506532,31 L1013.49347,31 C1018.1915,31 1022,34.8151318 1022,39.5 C1022,44.1944204 1018.19246,48 1013.49347,48 L958.506532,48 C953.808504,48 950,44.1848682 950,39.5 M1004,31 L962,31 L962,30.8401565 C965.653631,30.0992773 968.4,26.8706556 968.4,23 C968.4,19.1375499 965.651586,15.903227 962,15.1603965 L962,15 L1004,15 C999.578444,15.0000138 996,18.5817305 996,23 C996,27.4092792 999.58172,30.9999861 1004,31 Z" id="Rectangle-13" fill="#FFFFFF" sketch:type="MSShapeGroup"></path>
        <rect id="Rectangle-11" fill="#FFFFFF" sketch:type="MSShapeGroup" x="1031" y="-3" width="18" height="18" rx="100"></rect>
        <path d="M-101,178.097656 L-101,-11 L389.597656,-11 L1704.59766,-11 L2200.17969,-11 L2200.17969,178.097656 C2200.17969,178.097656 1823.05078,125.566406 1000.90234,125.566406 C178.753906,125.566406 -101,184.949219 -101,178.097656 Z" id="Rectangle-2" fill="#F2F6F6" sketch:type="MSShapeGroup" transform="translate(1049.589844, 83.824012) scale(1, -1) translate(-1049.589844, -83.824012) "></path>
    </g>
</svg>