<?xml version="1.0" encoding="UTF-8" standalone="no"?>
<svg width="11px" height="24px" viewBox="0 0 11 24" version="1.1" xmlns="http://www.w3.org/2000/svg" xmlns:xlink="http://www.w3.org/1999/xlink" xmlns:sketch="http://www.bohemiancoding.com/sketch/ns">
    <!-- Generator: Sketch 3.5.1 (25234) - http://www.bohemiancoding.com/sketch -->
    <title>left-bracket</title>
    <desc>Created with Sketch.</desc>
    <defs></defs>
    <g id="Page-1" stroke="none" stroke-width="1" fill="none" fill-rule="evenodd" sketch:type="MSPage">
        <path d="M9.38324048,1.45723615 C9.25839669,2.53276026 8.0407374,2.1585747 6.7456127,2.17033284 C4.92759655,2.18831588 3.2434157,2.41102891 1.61283815,1.81378449 C1.53260613,2.06312626 1.59174266,2.1523498 1.61283815,2.52653536 C1.71693229,2.44664916 1.78782696,2.44976161 1.82655966,2.59812169 C2.17100404,2.49091511 3.06220199,2.52376874 3.96515809,2.59812169 C4.73427887,2.66037067 5.57187353,2.54763085 6.03251601,2.66936219 C6.65950161,2.83570531 6.98008388,3.48309474 6.38906436,3.88114241 C4.93347562,3.76217769 3.38589671,3.64667124 1.82655966,3.5961804 C1.63946688,6.66713027 2.01365244,9.4264894 2.11152168,12.3642956 C2.19209953,14.7612273 2.10598844,18.8869516 2.32558902,21.5601997 C3.34163077,21.7265428 5.04033637,21.601699 6.7456127,21.4177187 C8.20673469,21.2603671 10.1613528,20.5534953 10.2384724,22.0595749 C7.82943668,22.8553244 4.62776394,22.4752597 1.89780017,23.1285282 C1.21202386,23.0067969 0.98619838,22.4247689 0.614779442,21.9879885 C1.0276977,21.4208311 0.93536171,20.4168933 0.828500954,19.4928418 C0.576046741,17.3217355 -0.0267309199,14.1670954 0.115750088,12.6496035 C0.0891213558,9.49496328 -0.130825054,5.88901797 0.115750088,3.16839155 C0.163128481,2.64550008 0.361979402,2.13160014 0.400712103,1.60006298 C0.430799112,1.20478193 0.243706333,0.771459839 0.543538938,0.459523264 C1.13455846,0.245801752 1.38078777,0.649382665 1.89780017,0.815725783 C3.39765485,1.29400548 5.42074683,1.10380025 7.10181522,1.02979312 C7.870936,0.996939492 8.82749539,0.76523494 9.24006782,1.31475514 C9.26392993,1.34449632 9.26116331,1.44859045 9.38324048,1.45723615 Z" id="Fill-58" fill="#78C224" sketch:type="MSShapeGroup"></path>
    </g>
</svg>