<?xml version="1.0" encoding="UTF-8" standalone="no"?>
<svg width="122px" height="29px" viewBox="0 0 122 29" version="1.1" xmlns="http://www.w3.org/2000/svg" xmlns:xlink="http://www.w3.org/1999/xlink" xmlns:sketch="http://www.bohemiancoding.com/sketch/ns">
    <!-- Generator: Sketch 3.5.1 (25234) - http://www.bohemiancoding.com/sketch -->
    <title>Slice 8</title>
    <desc>Created with Sketch.</desc>
    <defs></defs>
    <g id="Page-1" stroke="none" stroke-width="1" fill="none" fill-rule="evenodd" sketch:type="MSPage">
        <path d="M121.243414,25.8803726 C121.257703,25.9501851 121.211978,25.9607998 121.159312,25.9644742 C120.791062,26.5254233 120.06885,26.2588296 119.560566,26.7217963 C118.469696,26.595644 116.850129,26.8867333 115.100327,26.8899994 C114.413225,26.8899994 112.473991,26.8585634 112.07063,26.4690834 C111.73749,26.1502324 111.912633,25.4876266 112.154731,25.2912535 C112.544211,24.9789347 112.957779,25.2630836 113.417071,25.2912535 C114.795357,25.3753551 116.62232,24.982609 118.382328,25.0389489 C118.298227,20.5048142 118.087565,16.4863118 118.46643,12.4151439 C118.80651,8.75101113 119.721829,4.95705169 118.46643,1.72730747 C116.295712,2.08494316 113.185996,2.51647389 111.060595,2.98964714 C110.34859,2.69529174 109.725177,2.28131618 110.050968,1.55910438 C110.271837,1.2574003 110.958938,1.3378275 111.313308,1.39049303 C111.677884,0.633170879 112.487872,0.3212603 113.501173,0.212254902 C113.869423,0.303705124 113.739596,0.458027374 113.922089,0.633170879 C116.80767,0.867920333 119.020847,-0.902294681 120.654703,0.633170879 C120.711043,5.00236855 120.416279,10.2795363 120.822906,15.2762294 C121.12461,18.9546513 120.433834,22.7522851 121.243414,25.8803726" id="Fill-57" fill="#78C224" sketch:type="MSShapeGroup"></path>
        <path d="M11.4473057,1.69012384 C11.2949996,3.00223487 9.80948741,2.54573836 8.22946947,2.56008299 C6.01153773,2.58202182 3.95688156,2.85372584 1.96761998,2.12510341 C1.86973903,2.42929378 1.94188404,2.53814415 1.96761998,2.99464066 C2.09461207,2.89718161 2.18110171,2.90097871 2.22835458,3.08197409 C2.64856763,2.95118489 3.73580561,2.99126545 4.83738822,3.08197409 C5.77569527,3.15791621 6.79753865,3.0203766 7.35951032,3.16888563 C8.1244162,3.37181984 8.51551811,4.16161786 7.79448989,4.64722552 C6.01871005,4.50209169 4.13070462,4.36117687 2.22835458,4.29957938 C2.00010633,8.04605717 2.45660283,11.4124025 2.57600072,14.9964485 C2.67430357,17.920642 2.56925031,22.9539167 2.83715722,26.2152088 C4.07670134,26.418143 6.14907735,26.2658369 8.22946947,26.0413857 C10.0119997,25.8494209 12.3965822,24.987056 12.4906661,26.8244333 C9.55170611,27.7952267 5.64574987,27.3315579 2.31526612,28.1285282 C1.47863712,27.9800192 1.203136,27.2699604 0.750014694,26.7370999 C1.25376407,26.0451828 1.1411166,24.8204052 1.0107493,23.6930867 C0.702761821,21.0443944 -0.0326110168,17.1958166 0.141212052,15.3445166 C0.108725702,11.4959388 -0.159603113,7.09678071 0.141212052,3.77768827 C0.199012442,3.13977448 0.441605317,2.51283011 0.48885819,1.86436881 C0.525563547,1.38213636 0.297315294,0.853494846 0.66310316,0.472940457 C1.38413138,0.212205854 1.68452464,0.704563915 2.31526612,0.907498129 C4.14504925,1.49098673 6.61316807,1.25894137 8.66402714,1.16865463 C9.60233419,1.12857407 10.7693114,0.845900634 11.2726389,1.51630077 C11.30175,1.55258423 11.2983748,1.67957632 11.4473057,1.69012384 Z" id="Fill-58" fill="#78C224" sketch:type="MSShapeGroup"></path>
        <path d="M22.5994534,22.2160901 L19.0988766,22.2160901 L19.0988766,9.98055048 L22.5994534,9.98055048 L22.5994534,22.2160901 Z M20.9471742,8.6235999 C19.7636913,8.6235999 19,7.78661857 19,6.75145046 C19,5.69112954 19.7888441,4.878 20.9961788,4.878 C22.2035135,4.878 22.9429193,5.69112954 22.9676385,6.75145046 C22.9676385,7.78661857 22.2035135,8.6235999 20.9471742,8.6235999 L20.9471742,8.6235999 Z M33.1710048,22.2776711 L33.1710048,15.4760051 C33.1710048,13.9226025 32.3821607,12.8631489 31.0273785,12.8631489 C29.9922103,12.8631489 29.1305099,13.5778356 28.8594667,14.2682367 C28.7610238,14.5149944 28.7363047,14.8593277 28.7363047,15.2045283 L28.7363047,22.2776711 L25.2352941,22.2776711 L25.2352941,13.9473216 C25.2352941,12.4442246 25.2474369,11.1263042 25.1984323,10.0416978 L28.3898031,9.98055048 L28.562837,11.7785425 L28.6365608,11.7785425 C29.1296425,10.9905658 30.3369773,9.83180198 32.3583089,9.83180198 C34.8228503,9.83180198 36.6100006,11.4832139 36.6100006,15.031928 L36.6100006,22.2776711 L33.1710048,22.2776711 L33.1710048,22.2776711 Z" id="Stroke-5" stroke="#78C224" stroke-width="2" stroke-linecap="round" stroke-linejoin="round" sketch:type="MSShapeGroup"></path>
        <path d="M50.691,14.068 C50.5696661,14.1373337 50.4223342,14.1590001 50.249,14.133 C50.0756658,14.1069999 49.9283339,13.9986676 49.807,13.808 C49.5296653,13.4439982 49.1916687,13.262 48.793,13.262 C48.4289982,13.262 48.1040014,13.3443325 47.818,13.509 C47.5319986,13.6736675 47.2806677,13.890332 47.064,14.159 C46.8473322,14.427668 46.6696674,14.726665 46.531,15.056 C46.3923326,15.385335 46.2970003,15.714665 46.245,16.044 C46.1583329,16.6506697 46.2623319,17.1619979 46.557,17.578 C46.8516681,17.9940021 47.3109969,18.202 47.935,18.202 C48.4376692,18.2193334 49.0053302,18.1196677 49.638,17.903 C50.2706698,17.6863322 50.8643306,17.4046684 51.419,17.058 C51.6616679,16.9539995 51.886999,16.8933334 52.095,16.876 C52.303001,16.8586666 52.4763326,16.9626655 52.615,17.188 C52.7883342,17.4653347 52.7450013,17.7469986 52.485,18.033 C52.2249987,18.3190014 51.8783355,18.5746655 51.445,18.8 C51.0116645,19.0426679 50.556669,19.2549991 50.08,19.437 C49.6033309,19.6190009 49.1223358,19.7489996 48.637,19.827 C48.1516642,19.9050004 47.6706691,19.9093337 47.194,19.84 C46.7173309,19.7706663 46.2710021,19.6060013 45.855,19.346 C45.19633,18.8953311 44.7976674,18.2540042 44.659,17.422 C44.5203326,16.5899958 44.5809987,15.7320044 44.841,14.848 C44.9450005,14.518665 45.0923324,14.1850017 45.283,13.847 C45.4736676,13.5089983 45.703332,13.2013347 45.972,12.924 C46.240668,12.6466653 46.539665,12.4083343 46.869,12.209 C47.198335,12.0096657 47.5623313,11.8753337 47.961,11.806 C48.6023365,11.7019995 49.2176637,11.7669988 49.807,12.001 C50.3963363,12.2350012 50.7863324,12.6639969 50.977,13.288 C51.0116668,13.4266674 51.0116668,13.5696659 50.977,13.717 C50.9423332,13.8643341 50.8470008,13.9813329 50.691,14.068 L50.691,14.068 Z M59.103,11.676 C59.6230026,11.8666676 60.0606649,12.1526648 60.416,12.534 C60.7713351,12.9153352 61.0443324,13.3443309 61.235,13.821 C61.4256676,14.297669 61.5339999,14.7873308 61.56,15.29 C61.5860001,15.7926692 61.5296674,16.2606645 61.391,16.694 C61.2003324,17.1793358 60.9576681,17.6559977 60.663,18.124 C60.3683319,18.5920023 60.0303352,19.0079982 59.649,19.372 C59.2676648,19.7360018 58.8343358,20.0306655 58.349,20.256 C57.8636642,20.4813345 57.3263363,20.594 56.737,20.594 C56.0263298,20.594 55.4283358,20.429335 54.943,20.1 C54.4576642,19.770665 54.0763347,19.3460026 53.799,18.826 C53.5216653,18.3059974 53.3440004,17.71667 53.266,17.058 C53.1879996,16.39933 53.2009995,15.74067 53.305,15.082 C53.3743337,14.5966642 53.4913325,14.1243356 53.656,13.665 C53.8206675,13.2056644 54.0329987,12.7983351 54.293,12.443 C54.5530013,12.0876649 54.8519983,11.7973345 55.19,11.572 C55.5280017,11.3466655 55.9136645,11.234 56.347,11.234 C56.5896679,11.234 56.8929982,11.2816662 57.257,11.377 C57.6210018,11.4723338 57.9589984,11.6066658 58.271,11.78 C58.4963345,11.571999 58.773665,11.5373326 59.103,11.676 L59.103,11.676 Z M58.115,13.574 C57.9243324,13.4526661 57.7033346,13.2923343 57.452,13.093 C57.2006654,12.8936657 56.9796676,12.794 56.789,12.794 C56.580999,12.794 56.3773343,12.8893324 56.178,13.08 C55.9786657,13.2706676 55.8053341,13.4916654 55.658,13.743 C55.5106659,13.9943346 55.3850005,14.2499987 55.281,14.51 C55.1769995,14.7700013 55.1076668,14.9779992 55.073,15.134 C55.0209997,15.3940013 54.9863334,15.7059982 54.969,16.07 C54.9516666,16.4340018 54.9776663,16.7936649 55.047,17.149 C55.1163337,17.5043351 55.2506657,17.8249986 55.45,18.111 C55.6493343,18.3970014 55.9483313,18.6006661 56.347,18.722 C56.5896679,18.7913337 56.875665,18.7870004 57.205,18.709 C57.534335,18.6309996 57.8593317,18.488001 58.18,18.28 C58.5006683,18.071999 58.8039986,17.7946684 59.09,17.448 C59.3760014,17.1013316 59.5969992,16.7026689 59.753,16.252 C59.9263342,15.7493308 59.9306675,15.2250027 59.766,14.679 C59.6013325,14.1329973 59.2676692,13.7386679 58.765,13.496 C58.6436661,13.5826671 58.5223339,13.626 58.401,13.626 C58.2796661,13.626 58.1843337,13.6086668 58.115,13.574 L58.115,13.574 Z M64.291,12.17 C64.3430003,12.4300013 64.399333,12.7203317 64.46,13.041 C64.520667,13.3616683 64.5856663,13.6909983 64.655,14.029 C64.7243337,14.3670017 64.7849997,14.7093316 64.837,15.056 C64.8890003,15.4026684 64.9323332,15.7319984 64.967,16.044 C65.175001,15.5933311 65.4003321,15.1166692 65.643,14.614 C65.8856679,14.1113308 66.1499986,13.6476688 66.436,13.223 C66.7220014,12.7983312 67.0253317,12.4473347 67.346,12.17 C67.6666683,11.8926653 68.0176648,11.754 68.399,11.754 C68.9710029,11.754 69.451998,11.9619979 69.842,12.378 C70.2320019,12.7940021 70.561332,13.3096636 70.83,13.925 C71.098668,14.5403364 71.3109992,15.1859966 71.467,15.862 C71.6230008,16.5380034 71.7529995,17.1359974 71.857,17.656 C71.9610005,18.1240023 71.7530026,18.4706655 71.233,18.696 C70.9903321,18.8173339 70.8083339,18.8346671 70.687,18.748 C70.5656661,18.6613329 70.4963334,18.5746671 70.479,18.488 C70.3923329,18.279999 70.2840007,17.9160026 70.154,17.396 C70.0239993,16.8759974 69.8766675,16.347336 69.712,15.81 C69.5473325,15.272664 69.361001,14.8046687 69.153,14.406 C68.944999,14.0073313 68.7110013,13.8253332 68.451,13.86 C68.1389984,13.8773334 67.8616679,14.1113311 67.619,14.562 C67.410999,14.9260018 67.1986677,15.3289978 66.982,15.771 C66.7653323,16.2130022 66.553001,16.6636644 66.345,17.123 C66.136999,17.5823356 65.9333343,18.0416644 65.734,18.501 C65.5346657,18.9603356 65.3483342,19.3806648 65.175,19.762 C65.0536661,19.8833339 64.9020009,19.9656664 64.72,20.009 C64.5379991,20.0523335 64.3516676,20.0393337 64.161,19.97 C63.9876658,19.9179997 63.8490005,19.8313339 63.745,19.71 C63.6409995,19.5886661 63.589,19.4673339 63.589,19.346 C63.4329992,17.9939932 63.2726675,16.7633389 63.108,15.654 C62.9433325,14.5446611 62.7310013,13.4093391 62.471,12.248 C62.3496661,11.8493313 62.3279996,11.5330012 62.406,11.299 C62.4840004,11.0649988 62.7396645,10.9739997 63.173,11.026 C63.7796697,11.1300005 64.1523326,11.51133 64.291,12.17 L64.291,12.17 Z M74.315,12.17 C74.3670003,12.4300013 74.423333,12.7203317 74.484,13.041 C74.544667,13.3616683 74.6096663,13.6909983 74.679,14.029 C74.7483337,14.3670017 74.8089997,14.7093316 74.861,15.056 C74.9130003,15.4026684 74.9563332,15.7319984 74.991,16.044 C75.199001,15.5933311 75.4243321,15.1166692 75.667,14.614 C75.9096679,14.1113308 76.1739986,13.6476688 76.46,13.223 C76.7460014,12.7983312 77.0493317,12.4473347 77.37,12.17 C77.6906683,11.8926653 78.0416648,11.754 78.423,11.754 C78.9950029,11.754 79.475998,11.9619979 79.866,12.378 C80.256002,12.7940021 80.585332,13.3096636 80.854,13.925 C81.122668,14.5403364 81.3349992,15.1859966 81.491,15.862 C81.6470008,16.5380034 81.7769995,17.1359974 81.881,17.656 C81.9850005,18.1240023 81.7770026,18.4706655 81.257,18.696 C81.0143321,18.8173339 80.8323339,18.8346671 80.711,18.748 C80.5896661,18.6613329 80.5203334,18.5746671 80.503,18.488 C80.4163329,18.279999 80.3080006,17.9160026 80.178,17.396 C80.0479993,16.8759974 79.9006675,16.347336 79.736,15.81 C79.5713325,15.272664 79.385001,14.8046687 79.177,14.406 C78.968999,14.0073313 78.7350013,13.8253332 78.475,13.86 C78.1629984,13.8773334 77.8856679,14.1113311 77.643,14.562 C77.434999,14.9260018 77.2226677,15.3289978 77.006,15.771 C76.7893322,16.2130022 76.577001,16.6636644 76.369,17.123 C76.160999,17.5823356 75.9573343,18.0416644 75.758,18.501 C75.5586657,18.9603356 75.3723342,19.3806648 75.199,19.762 C75.0776661,19.8833339 74.9260009,19.9656664 74.744,20.009 C74.5619991,20.0523335 74.3756676,20.0393337 74.185,19.97 C74.0116658,19.9179997 73.8730005,19.8313339 73.769,19.71 C73.6649995,19.5886661 73.613,19.4673339 73.613,19.346 C73.4569992,17.9939932 73.2966675,16.7633389 73.132,15.654 C72.9673325,14.5446611 72.7550013,13.4093391 72.495,12.248 C72.3736661,11.8493313 72.3519996,11.5330012 72.43,11.299 C72.5080004,11.0649988 72.7636645,10.9739997 73.197,11.026 C73.8036697,11.1300005 74.1763326,11.51133 74.315,12.17 L74.315,12.17 Z M88.967,14.64 C88.2909966,15.0386687 87.5630039,15.3463323 86.783,15.563 C86.0029961,15.7796678 85.1623378,15.888 84.261,15.888 C84.2956668,16.4946697 84.4689984,16.9756649 84.781,17.331 C85.0930016,17.6863351 85.4829977,17.8986663 85.951,17.968 C86.2283347,18.0026668 86.5099986,17.9940003 86.796,17.942 C87.0820014,17.8899997 87.3506654,17.8076672 87.602,17.695 C87.8533346,17.5823328 88.082999,17.4566674 88.291,17.318 C88.499001,17.1793326 88.6809992,17.0406674 88.837,16.902 C88.9930008,16.7633326 89.1576658,16.6723335 89.331,16.629 C89.5043342,16.5856664 89.6343329,16.5813332 89.721,16.616 C89.9636679,16.7026671 90.0503337,16.9626645 89.981,17.396 C89.7036653,17.9506694 89.3050026,18.4229981 88.785,18.813 C88.2649974,19.203002 87.6843365,19.4499995 87.043,19.554 C86.4883306,19.6580005 85.9163363,19.6320008 85.327,19.476 C84.7376637,19.3199992 84.2090023,19.0166689 83.741,18.566 C83.3423313,18.1673313 83.039001,17.699336 82.831,17.162 C82.622999,16.624664 82.4930003,16.0700029 82.441,15.498 C82.3889997,14.960664 82.4366659,14.4493358 82.584,13.964 C82.7313341,13.4786642 82.9609984,13.0496685 83.273,12.677 C83.5850016,12.3043315 83.9749977,11.9966679 84.443,11.754 C84.9110023,11.5113321 85.4569969,11.3726668 86.081,11.338 C86.8263371,11.2859997 87.5023303,11.424665 88.109,11.754 C88.7156697,12.083335 89.1403321,12.5426637 89.383,13.132 C89.5216674,13.461335 89.560667,13.7473321 89.5,13.99 C89.439333,14.2326679 89.2616681,14.4493324 88.967,14.64 L88.967,14.64 Z M85.977,12.872 C85.8036658,12.9066668 85.6173343,12.9673329 85.418,13.054 C85.2186657,13.1406671 85.0366675,13.2489993 84.872,13.379 C84.7073325,13.5090006 84.5600006,13.6563325 84.43,13.821 C84.2999993,13.9856675 84.2263334,14.171999 84.209,14.38 C84.5036681,14.38 84.8286649,14.3540003 85.184,14.302 C85.5393351,14.2499997 85.8859983,14.1850004 86.224,14.107 C86.5620017,14.0289996 86.8739986,13.9380005 87.16,13.834 C87.4460014,13.7299995 87.6843324,13.6173339 87.875,13.496 C87.7363326,13.166665 87.4806685,12.9630004 87.108,12.885 C86.7353315,12.8069996 86.3583352,12.8026663 85.977,12.872 L85.977,12.872 Z M96.781,14.068 C96.6596661,14.1373337 96.5123342,14.1590001 96.339,14.133 C96.1656658,14.1069999 96.0183339,13.9986676 95.897,13.808 C95.6196653,13.4439982 95.2816687,13.262 94.883,13.262 C94.5189982,13.262 94.1940014,13.3443325 93.908,13.509 C93.6219986,13.6736675 93.3706677,13.890332 93.154,14.159 C92.9373323,14.427668 92.7596674,14.726665 92.621,15.056 C92.4823326,15.385335 92.3870003,15.714665 92.335,16.044 C92.2483329,16.6506697 92.3523319,17.1619979 92.647,17.578 C92.9416681,17.9940021 93.4009969,18.202 94.025,18.202 C94.5276692,18.2193334 95.0953302,18.1196677 95.728,17.903 C96.3606698,17.6863322 96.9543306,17.4046684 97.509,17.058 C97.7516679,16.9539995 97.976999,16.8933334 98.185,16.876 C98.393001,16.8586666 98.5663326,16.9626655 98.705,17.188 C98.8783342,17.4653347 98.8350013,17.7469986 98.575,18.033 C98.3149987,18.3190014 97.9683355,18.5746655 97.535,18.8 C97.1016645,19.0426679 96.6466691,19.2549991 96.17,19.437 C95.693331,19.6190009 95.2123358,19.7489996 94.727,19.827 C94.2416642,19.9050004 93.7606691,19.9093337 93.284,19.84 C92.807331,19.7706663 92.3610021,19.6060013 91.945,19.346 C91.28633,18.8953311 90.8876674,18.2540042 90.749,17.422 C90.6103326,16.5899958 90.6709987,15.7320044 90.931,14.848 C91.0350005,14.518665 91.1823324,14.1850017 91.373,13.847 C91.5636676,13.5089983 91.793332,13.2013347 92.062,12.924 C92.330668,12.6466653 92.629665,12.4083343 92.959,12.209 C93.288335,12.0096657 93.6523313,11.8753337 94.051,11.806 C94.6923365,11.7019995 95.3076637,11.7669988 95.897,12.001 C96.4863363,12.2350012 96.8763324,12.6639969 97.067,13.288 C97.1016668,13.4266674 97.1016668,13.5696659 97.067,13.717 C97.0323332,13.8643341 96.9370008,13.9813329 96.781,14.068 L96.781,14.068 Z M105.115,13.782 C105.444335,13.7646666 105.773665,13.8426658 106.103,14.016 C106.432335,14.1893342 106.597,14.4579982 106.597,14.822 C106.562333,15.1166681 106.402001,15.3029996 106.116,15.381 C105.829999,15.4590004 105.600334,15.498 105.427,15.498 C105.080332,15.498 104.707669,15.5066666 104.309,15.524 C103.910331,15.5413334 103.503002,15.5673332 103.087,15.602 C103.052333,16.1740029 103.022,16.7113308 102.996,17.214 C102.97,17.7166692 102.948333,18.162998 102.931,18.553 C102.913667,18.943002 102.905,19.2593321 102.905,19.502 C102.905,19.7446679 102.913667,19.8746666 102.931,19.892 C103.312335,19.8226663 103.723998,19.7056675 104.166,19.541 C104.608002,19.3763325 105.049998,19.1943343 105.492,18.995 C105.934002,18.7956657 106.367331,18.5876678 106.792,18.371 C107.216669,18.1543323 107.619665,17.9506676 108.001,17.76 C108.174334,17.6733329 108.334666,17.6473332 108.482,17.682 C108.629334,17.7166668 108.720333,17.7946661 108.755,17.916 C108.789667,18.1066676 108.763667,18.3406653 108.677,18.618 C108.590333,18.8953347 108.434334,19.1466655 108.209,19.372 C107.948999,19.580001 107.606669,19.818332 107.182,20.087 C106.757331,20.355668 106.302336,20.6113321 105.817,20.854 C105.331664,21.0966679 104.842002,21.3089991 104.348,21.491 C103.853998,21.6730009 103.416335,21.7813332 103.035,21.816 C102.462997,21.8680003 102.029668,21.7120018 101.735,21.348 C101.440332,20.9839982 101.275667,20.5246694 101.241,19.97 C101.206333,19.4153306 101.202,18.7740036 101.228,18.046 C101.254,17.3179964 101.284333,16.5466707 101.319,15.732 C100.989665,15.7666668 100.673335,15.7969999 100.37,15.823 C100.066665,15.8490001 99.7763347,15.8793332 99.499,15.914 C99.2736655,15.914 99.026668,15.8620005 98.758,15.758 C98.489332,15.6539995 98.355,15.4546681 98.355,15.16 C98.355,15.0559995 98.3983329,14.9173342 98.485,14.744 C98.5716671,14.5706658 98.7623319,14.4406671 99.057,14.354 C99.7676702,14.2326661 100.556329,14.1286671 101.423,14.042 C101.475,13.2273293 101.535666,12.4386705 101.605,11.676 C101.674334,10.9133295 101.735,10.2200031 101.787,9.596 C101.804333,9.38799896 101.864999,9.20600078 101.969,9.05 C102.073001,8.89399922 102.185666,8.816 102.307,8.816 C102.601668,8.79866658 102.883332,8.87233251 103.152,9.037 C103.420668,9.20166749 103.555,9.38799896 103.555,9.596 C103.485666,10.1853363 103.420667,10.8526629 103.36,11.598 C103.299333,12.3433371 103.243,13.1059961 103.191,13.886 C103.537668,13.8513332 103.871332,13.8296667 104.192,13.821 C104.512668,13.8123333 104.820332,13.7993334 105.115,13.782 L105.115,13.782 Z" id="connect" fill="#78C224" sketch:type="MSShapeGroup"></path>
    </g>
</svg>