<?xml version="1.0" encoding="UTF-8" standalone="no"?>
<svg width="68px" height="21px" viewBox="0 0 68 21" version="1.1" xmlns="http://www.w3.org/2000/svg" xmlns:xlink="http://www.w3.org/1999/xlink" xmlns:sketch="http://www.bohemiancoding.com/sketch/ns">
    <!-- Generator: Sketch 3.5.1 (25234) - http://www.bohemiancoding.com/sketch -->
    <title>Slice 14</title>
    <desc>Created with Sketch.</desc>
    <defs></defs>
    <g id="Page-1" stroke="none" stroke-width="1" fill="none" fill-rule="evenodd" sketch:type="MSPage">
        <path d="M4.95485342,19.2160901 L1.45427655,19.2160901 L1.45427655,6.98055048 L4.95485342,6.98055048 L4.95485342,19.2160901 Z M3.3025742,5.6235999 C2.11909126,5.6235999 1.3554,4.78661857 1.3554,3.75145046 C1.3554,2.69112954 2.14424407,1.878 3.35157881,1.878 C4.55891354,1.878 5.29831934,2.69112954 5.32303848,3.75145046 C5.32303848,4.78661857 4.55891354,5.6235999 3.3025742,5.6235999 L3.3025742,5.6235999 Z M15.5264048,19.2776711 L15.5264048,12.4760051 C15.5264048,10.9226025 14.7375607,9.8631489 13.3827785,9.8631489 C12.3476103,9.8631489 11.4859099,10.5778356 11.2148667,11.2682367 C11.1164238,11.5149944 11.0917047,11.8593277 11.0917047,12.2045283 L11.0917047,19.2776711 L7.59069413,19.2776711 L7.59069413,10.9473216 C7.59069413,9.44422456 7.60283687,8.1263042 7.55383226,7.04169782 L10.7452031,6.98055048 L10.918237,8.77854251 L10.9919608,8.77854251 C11.4850425,7.99056578 12.6923773,6.83180198 14.7137089,6.83180198 C17.1782503,6.83180198 18.9654006,8.48321386 18.9654006,12.031928 L18.9654006,19.2776711 L15.5264048,19.2776711 L15.5264048,19.2776711 Z" id="Stroke-5" stroke="#78C225" stroke-width="2" stroke-linecap="round" stroke-linejoin="round" sketch:type="MSShapeGroup"></path>
        <path d="M33.4724,9.824 C33.4403998,9.64799912 33.4084002,9.4800008 33.3764,9.32 C33.3443998,9.1599992 33.2644006,9.05600024 33.1364,9.008 C32.8643986,8.9279996 32.5764015,8.91999968 32.2724,8.984 C31.9683985,9.04800032 31.6884013,9.14799932 31.4324,9.284 C31.1763987,9.42000068 30.9604009,9.57199916 30.7844,9.74 C30.6083991,9.90800084 30.5124001,10.0559994 30.4964,10.184 C30.4483998,10.4240012 30.5123991,10.6559989 30.6884,10.88 C30.8644009,11.1040011 31.1203983,11.3279989 31.4564,11.552 C32.0164028,11.8880017 32.600397,12.2319982 33.2084,12.584 C33.816403,12.9360018 34.3283979,13.2959982 34.7444,13.664 C35.1604021,14.0320018 35.4443992,14.4359978 35.5964,14.876 C35.7484008,15.3160022 35.7124011,15.8159972 35.4884,16.376 C35.3123991,16.8080022 34.9844024,17.1599986 34.5044,17.432 C34.0243976,17.7040014 33.4964029,17.9159992 32.9204,18.068 C32.3443971,18.2200008 31.7684029,18.3239997 31.1924,18.38 C30.6163971,18.4360003 30.128402,18.464 29.7284,18.464 C29.6323995,18.464 29.5164007,18.4280004 29.3804,18.356 C29.2443993,18.2839996 29.1164006,18.2000005 28.9964,18.104 C28.8763994,18.0079995 28.7724004,17.9080005 28.6844,17.804 C28.5963996,17.6999995 28.5524,17.6080004 28.5524,17.528 C28.5524,17.2399986 28.6803987,17.0400006 28.9364,16.928 C29.1924013,16.8159994 29.4563986,16.76 29.7284,16.76 C30.1124019,16.76 30.5243978,16.7400002 30.9644,16.7 C31.4044022,16.6599998 31.824398,16.5960004 32.2244,16.508 C32.624402,16.4199996 32.9843984,16.3040007 33.3044,16.16 C33.6244016,16.0159993 33.8483994,15.8320011 33.9764,15.608 C34.0884006,15.415999 34.0204012,15.1880013 33.7724,14.924 C33.5243988,14.6599987 33.196402,14.3840014 32.7884,14.096 C32.380398,13.8079986 31.9404024,13.5280014 31.4684,13.256 C30.9963976,12.9839986 30.5924017,12.7360011 30.2564,12.512 C29.9203983,12.2879989 29.6324012,12.0200016 29.3924,11.708 C29.1523988,11.3959984 29.0004003,11.0080023 28.9364,10.544 C28.9203999,10.1279979 29.008399,9.72800192 29.2004,9.344 C29.392401,8.95999808 29.6443984,8.62000148 29.9564,8.324 C30.2684016,8.02799852 30.624398,7.79200088 31.0244,7.616 C31.424402,7.43999912 31.824398,7.352 32.2244,7.352 C32.9124034,7.38400016 33.4803978,7.57199828 33.9284,7.916 C34.3764022,8.26000172 34.6403996,8.76799664 34.7204,9.44 C34.7204,9.66400112 34.6844004,9.84799928 34.6124,9.992 C34.5403996,10.1360007 34.4164009,10.2239998 34.2404,10.256 C34.0163989,10.2880002 33.8364007,10.2600004 33.7004,10.172 C33.5643993,10.0839996 33.4884001,9.96800072 33.4724,9.824 L33.4724,9.824 Z M37.8773231,6.368 C37.8773231,6.75200192 37.8733232,7.1839976 37.8653231,7.664 C37.8573231,8.1440024 37.8573231,8.63999744 37.8653231,9.152 C37.8733232,9.66400256 37.8813231,10.1919973 37.8893231,10.736 C37.8973232,11.2800027 37.9093231,11.7999975 37.9253231,12.296 C38.0853239,11.9759984 38.277322,11.6600016 38.5013231,11.348 C38.7253243,11.0359984 38.9773217,10.7600012 39.2573231,10.52 C39.5373245,10.2799988 39.8333216,10.0880007 40.1453231,9.944 C40.4573247,9.79999928 40.7973213,9.728 41.1653231,9.728 C41.5653251,9.728 41.9213216,9.85599872 42.2333231,10.112 C42.5453247,10.3680013 42.817322,10.7079979 43.0493231,11.132 C43.2813243,11.5560021 43.4773223,12.0279974 43.6373231,12.548 C43.7973239,13.0680026 43.9293226,13.5959973 44.0333231,14.132 C44.1373237,14.6680027 44.2133229,15.1799976 44.2613231,15.668 C44.3093234,16.1560024 44.349323,16.5759982 44.3813231,16.928 C44.3813231,17.1840013 44.3173238,17.3919992 44.1893231,17.552 C44.0613225,17.7120008 43.909324,17.792 43.7333231,17.792 C43.6053225,17.792 43.4493241,17.7080008 43.2653231,17.54 C43.0813222,17.3719992 42.9493235,17.1680012 42.8693231,16.928 C42.8213229,16.735999 42.7733234,16.4560018 42.7253231,16.088 C42.6773229,15.7199982 42.6213235,15.3240021 42.5573231,14.9 C42.4933228,14.4759979 42.4133236,14.0480022 42.3173231,13.616 C42.2213227,13.1839978 42.1053238,12.7960017 41.9693231,12.452 C41.8333225,12.1079983 41.6693241,11.840001 41.4773231,11.648 C41.2853222,11.455999 41.0613244,11.3839998 40.8053231,11.432 C40.4053211,11.5120004 40.0573246,11.7919976 39.7613231,12.272 C39.4653217,12.7520024 39.2093242,13.295997 38.9933231,13.904 C38.7773221,14.512003 38.6013238,15.1279969 38.4653231,15.752 C38.3293225,16.3760031 38.2293235,16.8799981 38.1653231,17.264 C38.1013228,17.5520014 38.0173237,17.7479995 37.9133231,17.852 C37.8093226,17.9560005 37.6933238,18.008 37.5653231,18.008 C37.4373225,18.008 37.3213237,17.9440006 37.2173231,17.816 C37.1133226,17.6879994 37.0173236,17.5320009 36.9293231,17.348 C36.8413227,17.1639991 36.7653235,16.972001 36.7013231,16.772 C36.6373228,16.571999 36.5973232,16.4000007 36.5813231,16.256 C36.5013227,15.3919957 36.4373234,14.564004 36.3893231,13.772 C36.3413229,12.979996 36.3053233,12.184004 36.2813231,11.384 C36.257323,10.583996 36.2453231,9.7640042 36.2453231,8.924 C36.2453231,8.0839958 36.261323,7.1840048 36.2933231,6.224 C36.2933231,5.423996 36.5813203,5.0639996 37.1573231,5.144 C37.3493241,5.17600016 37.5173224,5.31599876 37.6613231,5.564 C37.8053239,5.81200124 37.8773231,6.07999856 37.8773231,6.368 L37.8773231,6.368 Z M51.1862463,8.12 C51.2502466,8.56800224 51.3022461,9.04399748 51.3422463,9.548 C51.3822465,10.0520025 51.4142461,10.5599974 51.4382463,11.072 C51.4622464,11.5840026 51.4742463,12.0799976 51.4742463,12.56 C51.4742463,13.0400024 51.4662463,13.4719981 51.4502463,13.856 C51.9622488,14.2080018 52.2702457,14.5199986 52.3742463,14.792 C52.4782468,15.0640014 52.4902467,15.303999 52.4102463,15.512 C52.3142458,15.8000014 52.1422475,15.948 51.8942463,15.956 C51.646245,15.964 51.3622479,15.8800009 51.0422463,15.704 C50.8182451,15.8640008 50.5622477,16.0359991 50.2742463,16.22 C49.9862448,16.4040009 49.6822479,16.5799992 49.3622463,16.748 C49.0422447,16.9160008 48.7222479,17.0639994 48.4022463,17.192 C48.0822447,17.3200006 47.7862476,17.4079998 47.5142463,17.456 C47.0022437,17.5360004 46.5422483,17.4400014 46.1342463,17.168 C45.7262442,16.8959986 45.450247,16.4880027 45.3062463,15.944 C45.2102458,15.5759982 45.186246,15.196002 45.2342463,14.804 C45.2822465,14.411998 45.4022453,14.0360018 45.5942463,13.676 C45.7862472,13.3159982 46.0462446,12.9920014 46.3742463,12.704 C46.7022479,12.4159986 47.090244,12.1920008 47.5382463,12.032 C47.6502468,11.9839998 47.8062453,11.9440002 48.0062463,11.912 C48.2062473,11.8799998 48.4142452,11.868 48.6302463,11.876 C48.8462473,11.884 49.0662451,11.9279996 49.2902463,12.008 C49.5142474,12.0880004 49.7222453,12.223999 49.9142463,12.416 C49.9142463,12.1439986 49.9102463,11.8440016 49.9022463,11.516 C49.8942462,11.1879984 49.8822463,10.8560017 49.8662463,10.52 C49.8502462,10.1839983 49.8302464,9.86800148 49.8062463,9.572 C49.7822461,9.27599852 49.7542464,9.02400104 49.7222463,8.816 C49.6902461,8.5759988 49.598247,8.42800028 49.4462463,8.372 C49.2942455,8.31599972 49.1062474,8.3279996 48.8822463,8.408 C48.4982443,8.53600064 48.0502488,8.78399816 47.5382463,9.152 C47.0262437,9.52000184 46.5382486,9.91199792 46.0742463,10.328 C45.9302455,10.4720007 45.7662472,10.5360001 45.5822463,10.52 C45.3982453,10.5039999 45.2422469,10.4320006 45.1142463,10.304 C44.9862456,10.1759994 44.9142463,10.0280008 44.8982463,9.86 C44.8822462,9.69199916 44.9462455,9.51200096 45.0902463,9.32 C45.3622476,9.03199856 45.6662446,8.73600152 46.0022463,8.432 C46.3382479,8.12799848 46.6902444,7.85200124 47.0582463,7.604 C47.4262481,7.35599876 47.8022443,7.1520008 48.1862463,6.992 C48.5702482,6.8319992 48.9542443,6.74400008 49.3382463,6.728 C49.8982491,6.71199992 50.3302447,6.83599868 50.6342463,7.1 C50.9382478,7.36400132 51.1222459,7.70399792 51.1862463,8.12 L51.1862463,8.12 Z M48.4022463,13.28 C48.1942452,13.3280002 47.9742474,13.4279992 47.7422463,13.58 C47.5102451,13.7320008 47.3022472,13.9159989 47.1182463,14.132 C46.9342453,14.3480011 46.7982467,14.5879987 46.7102463,14.852 C46.6222458,15.1160013 46.6182459,15.3759987 46.6982463,15.632 C46.7302464,15.7280005 46.7982457,15.7999998 46.9022463,15.848 C47.0062468,15.8960002 47.1222456,15.9040002 47.2502463,15.872 C47.6342482,15.7919996 48.0702438,15.6360012 48.5582463,15.404 C49.0462487,15.1719988 49.4342448,14.9200014 49.7222463,14.648 C49.7222463,14.5519995 49.6742467,14.4280008 49.5782463,14.276 C49.4822458,14.1239992 49.3702469,13.9720008 49.2422463,13.82 C49.1142456,13.6679992 48.974247,13.5360006 48.8222463,13.424 C48.6702455,13.3119994 48.5302469,13.2639999 48.4022463,13.28 L48.4022463,13.28 Z M60.0551694,8.72 C59.767168,8.8800008 59.467171,9.04799912 59.1551694,9.224 C58.8431678,9.40000088 58.531171,9.60399884 58.2191694,9.836 C57.9071678,10.0680012 57.6111708,10.3399984 57.3311694,10.652 C57.051168,10.9640016 56.7991705,11.3359978 56.5751694,11.768 C56.2551678,12.376003 56.03917,12.9959968 55.9271694,13.628 C55.8151688,14.2600032 55.7431696,14.879997 55.7111694,15.488 C55.7111694,15.7760014 55.6431701,16.0679985 55.5071694,16.364 C55.3711687,16.6600015 55.1831706,16.808 54.9431694,16.808 C54.6391679,16.808 54.3951703,16.6520016 54.2111694,16.34 C54.0271685,16.0279984 53.9031697,15.7280014 53.8391694,15.44 C53.567168,14.3039943 53.3431703,13.1800056 53.1671694,12.068 C52.9911685,10.9559944 52.83917,9.84800552 52.7111694,8.744 C52.7111694,8.51999888 52.7791687,8.37600032 52.9151694,8.312 C53.0511701,8.24799968 53.2071685,8.22399992 53.3831694,8.24 C53.5751704,8.25600008 53.7591685,8.3039996 53.9351694,8.384 C54.1111703,8.4640004 54.2151692,8.59199912 54.2471694,8.768 C54.3111697,9.36000296 54.3911689,9.97999676 54.4871694,10.628 C54.5831699,11.2760032 54.6791689,11.8319977 54.7751694,12.296 C54.8391697,11.7519973 55.015168,11.2240026 55.3031694,10.712 C55.5911708,10.1999974 55.9471673,9.73600208 56.3711694,9.32 C56.7951715,8.90399792 57.2751667,8.55200144 57.8111694,8.264 C58.3471721,7.97599856 58.8951666,7.78400048 59.4551694,7.688 C59.6951706,7.65599984 59.8951686,7.65599984 60.0551694,7.688 C60.2151702,7.72000016 60.3271691,7.7759996 60.3911694,7.856 C60.4551697,7.9360004 60.4671696,8.06399912 60.4271694,8.24 C60.3871692,8.41600088 60.2631704,8.57599928 60.0551694,8.72 L60.0551694,8.72 Z M66.3800925,11.36 C65.7560894,11.7280018 65.0840961,12.011999 64.3640925,12.212 C63.6440889,12.412001 62.8680967,12.512 62.0360925,12.512 C62.0680927,13.0720028 62.2280911,13.5159984 62.5160925,13.844 C62.804094,14.1720016 63.1640904,14.3679997 63.5960925,14.432 C63.8520938,14.4640002 64.1120912,14.4560002 64.3760925,14.408 C64.6400938,14.3599998 64.8880914,14.2840005 65.1200925,14.18 C65.3520937,14.0759995 65.5640916,13.9600006 65.7560925,13.832 C65.9480935,13.7039994 66.1160918,13.5760006 66.2600925,13.448 C66.4040932,13.3199994 66.5560917,13.2360002 66.7160925,13.196 C66.8760933,13.1559998 66.9960921,13.1519998 67.0760925,13.184 C67.3000936,13.2640004 67.3800928,13.503998 67.3160925,13.904 C67.0600912,14.4160026 66.6920949,14.8519982 66.2120925,15.212 C65.7320901,15.5720018 65.1960955,15.7999995 64.6040925,15.896 C64.09209,15.9920005 63.5640952,15.9680007 63.0200925,15.824 C62.4760898,15.6799993 61.9880947,15.4000021 61.5560925,14.984 C61.1880907,14.6159982 60.9080935,14.1840025 60.7160925,13.688 C60.5240916,13.1919975 60.4040928,12.6800026 60.3560925,12.152 C60.3080923,11.6559975 60.3520918,11.1840022 60.4880925,10.736 C60.6240932,10.2879978 60.8360911,9.89200172 61.1240925,9.548 C61.412094,9.20399828 61.7720904,8.92000112 62.2040925,8.696 C62.6360947,8.47199888 63.1400896,8.34400016 63.7160925,8.312 C64.404096,8.26399976 65.0280897,8.39199848 65.5880925,8.696 C66.1480953,9.00000152 66.5400914,9.42399728 66.7640925,9.968 C66.8920932,10.2720015 66.9280928,10.5359989 66.8720925,10.76 C66.8160922,10.9840011 66.6520939,11.1839991 66.3800925,11.36 L66.3800925,11.36 Z M63.6200925,9.728 C63.4600917,9.76000016 63.2880934,9.8159996 63.1040925,9.896 C62.9200916,9.9760004 62.7520933,10.0759994 62.6000925,10.196 C62.4480918,10.3160006 62.3120931,10.4519992 62.1920925,10.604 C62.0720919,10.7560008 62.0040926,10.927999 61.9880925,11.12 C62.2600939,11.12 62.5600909,11.0960002 62.8880925,11.048 C63.2160942,10.9999998 63.536091,10.9400004 63.8480925,10.868 C64.1600941,10.7959996 64.4480912,10.7120005 64.7120925,10.616 C64.9760938,10.5199995 65.1960916,10.4160006 65.3720925,10.304 C65.2440919,9.99999848 65.0080942,9.81200036 64.6640925,9.74 C64.3200908,9.66799964 63.9720943,9.66399968 63.6200925,9.728 L63.6200925,9.728 Z" id="share" fill="#78C225" sketch:type="MSShapeGroup"></path>
    </g>
</svg>