<?xml version="1.0" encoding="UTF-8" standalone="no"?>
<svg width="334px" height="152px" viewBox="0 0 334 152" version="1.1" xmlns="http://www.w3.org/2000/svg" xmlns:xlink="http://www.w3.org/1999/xlink" xmlns:sketch="http://www.bohemiancoding.com/sketch/ns">
    <!-- Generator: Sketch 3.5.1 (25234) - http://www.bohemiancoding.com/sketch -->
    <title>Slice 22</title>
    <desc>Created with Sketch.</desc>
    <defs></defs>
    <g id="Page-1" stroke="none" stroke-width="1" fill="none" fill-rule="evenodd" sketch:type="MSPage">
        <g id="Group" sketch:type="MSLayerGroup" transform="translate(72.000000, 0.000000)">
            <path d="M60,128 L69,128 L67.3674787,138.692906 L67.8720203,142.659864 L67.6346516,145 L65.8485316,144.96793 L64.5,144.96793 L61.4927885,144.96793" id="Path-21" fill="#C28F67" sketch:type="MSShapeGroup"></path>
            <path d="M58,112.975164 L60.2474975,111.605885 L66.1657533,111 L67.8234819,112.71248 C67.8234819,112.71248 68.8887545,116.997622 68.9886224,119.473832 C69.093571,122.076017 68.4379316,127.947664 68.4379316,127.947664 C68.4379316,127.947664 65.5260354,127.965526 64.0700873,127.974457 L59.9060794,128 C59.9060794,128 58.7909474,123.854166 58.6725524,121.687526 C58.5635068,119.691979 59.2237575,115.513439 59.2237575,115.513439" id="Path-20" fill="#B57B55" sketch:type="MSShapeGroup"></path>
            <path d="M31,127.885143 C31,127.885143 33.8193951,127 35.1669474,127 C36.59736,127 40,127.885143 40,127.885143 L39.4479187,130.011057 C39.4479187,130.011057 36.13676,129.826311 34.5798927,130.011057 C33.358795,130.155959 31,131 31,131" id="Path-21" fill="#DFDFDF" sketch:type="MSShapeGroup"></path>
            <path d="M35.1021426,127 C33.3640544,127 30.1525008,127.607697 30.1525008,127.607697 L30.3264358,140.552353 L29,144.290315 L29.4439389,145.392207 L30.7127523,146 L34.6937188,144.084491 L35.1021426,145.428593 L36.2743601,138.379523 L40,127.607697" id="Path-17" fill="#FFFFFF" sketch:type="MSShapeGroup"></path>
            <path d="M83,20.4236293 L88.7995728,16.8596728 L93.1990589,14.9385071 L100.062337,11.3835458 L101.015918,10.3869825 L101.652139,6.30651751 L101.168091,3.86032158 L102.905059,4.9108555 L102.938097,6.4054637 L105.035974,5.17976188 L108.329707,0 L109.160148,0.242394487 L106.654308,5.12626466 L111.068311,0.812400274 L111.799139,1.59355438 L108.116465,6.00163069 L112.392311,2.88174852 L112.900387,3.75238028 L109.193686,6.83628202 L109.193686,8.12921043 L113,6.5986218 L113,7.56819975 L109.92902,8.98185198 C109.92902,8.98185198 107.855435,11.3047362 106.654308,12.092739 C105.469731,12.8698849 102.771908,13.6772983 102.771908,13.6772983 C102.771908,13.6772983 98.1314543,18.3792386 95.449109,20.4236293 C93.6829126,21.769763 89.4262831,23.8488717 89.4262831,23.8488717 L85.2590603,27" id="Path-10" fill="#FFCBA2" sketch:type="MSShapeGroup"></path>
            <path d="M27,23.9189738 C27,23.9189738 24.758655,21.9331311 23.3814205,21.0663576 C21.736934,20.031387 17.9348369,18.2137414 17.9348369,18.2137414 L13.0876069,14.6819914 L13.3540272,11.2249174 L13.2294686,6.5504191 L12.7012913,6.5504191 L11.8169869,7.73888748 L11.5994082,10.2242824 L10.6196294,10.3049276 L8.80451056,9.10566421 L4.88453619,4 L4.10846889,4.72491745 L6.89514447,8.8996698 L6.84863442,9.57518415 L6.07133994,9.43789688 L1.82554984,5.54254509 L1.18803092,6.33845568 L5.45468305,10.8347727 L0.310721444,9.002032 L0,9.71132842 L5.13009449,12.6433833 L4.96602081,12.99746 L1.54980297,12.2400305 L1.47298163,12.9456439 L5.27661953,14.4218948 C5.27661953,14.4218948 7.26292968,16.5821692 7.45719194,16.5821692 C7.65145421,16.5821692 10.6196294,18.494412 10.6196294,18.494412 C10.6196294,18.494412 13.3666835,21.7135255 15.6659076,23.5758192 C17.4138753,24.9916137 21.2602435,27.3724917 21.2602435,27.3724917 L24.8789457,30 L25.8889131,24.3910338" id="Path-11" fill="#FFCBA2" sketch:type="MSShapeGroup"></path>
            <path d="M47.5108884,22 C47.5108884,22 46,22.152759 46,22.851888 C46,23.5510171 47.1423414,23.8819245 47.5108884,24.375 C47.8794353,24.8680755 47.2668782,25.0971521 48,25.5276693 C48.7331218,25.9581865 50,26 50,26" id="Path-9" fill="#B48159" sketch:type="MSShapeGroup"></path>
            <path d="M47.0916025,22.2645627 C47.4240477,23.9887141 49.0914584,27.521626 49.8980016,27.521626 L54.541298,27.521626 C57.1721606,27.521626 58.5630462,28.5979675 59.4084053,27.521626 C60.6578808,25.9307488 60.6307158,21.7938072 60.9632181,20.0829341 C61.1957232,18.8865914 60.2840513,13.5525857 59.4084053,12.7730746 C58.5327592,11.9935634 56.2752357,11 53.9999999,11 C52.5661635,11 52.1341007,12.1304189 50.8174817,12.7730746 C50.0621304,13.1417695 49.4007981,13.0854163 48.8614596,13.5811594 C47.1619092,15.143333 47.0916025,15.4812862 47.0916025,18.0010628" id="Oval-5" fill="#7F0505" sketch:type="MSShapeGroup"></path>
            <path d="M59.5688924,18 C59.7935487,16.7015711 60.4149787,13.8031572 59.5688921,12.9571289 C58.7228054,12.1111006 55.1984301,11 53,11" id="Oval-5" fill="#C82121" sketch:type="MSShapeGroup"></path>
            <path d="M60.3773024,21 L61,21.7362756 L60.7153892,23.2752508 C60.7153892,23.2752508 60.7153892,24.3404022 60.7153892,24.6996524 C60.7153892,25.0589025 60,24.9957221 60,24.9957221" id="Path-8" fill="#B48159" sketch:type="MSShapeGroup"></path>
            <path d="M34.1124484,113.196135 L31.5136849,119.049635 L30.9770981,127.88421 L31.010165,139.818521 L29.7751637,143.264731 L29,147 L31.0101651,147 L35.0764008,143.074972 L35.456671,144.314165 L36.406595,137.815283 L39.2899349,129.170468 L41.0049084,122.775728 L40.9097156,118.114357 L45,112 L41.8265726,112.825628" id="Path-17" fill="#C28F67" sketch:type="MSShapeGroup"></path>
            <path d="M39.8987503,72 L39.8661949,73.739114 L38.430304,75.7335979 L38.4303046,77.254871 L37.092573,80.4508139 L36.9988525,84.9593978 L37.0925727,88.058319 L36.031069,91.3751293 L36.0591851,97.3405902 L35.3760147,100.951251 L34.7214537,107.878721 L33.6599501,109.399447 L33.8794524,112.06259 C33.8794524,112.06259 32.0675292,115.378066 31.2894379,119.178385 C29.9205271,125.86436 27.8552935,135.518708 27.8828493,138.755039 C27.8890071,139.478252 26.8804941,141.324272 27.0117931,141.323201 C27.9281199,141.315726 35.7211626,143.398042 39.1627138,142.931996 C40.5203676,142.748147 43.1656729,126.297012 43.1656729,126.297012 C43.1656729,126.297012 45.1124167,118.836168 46.5336177,115.461525 C47.0049273,114.3424 46.5336177,111.996123 46.5336177,111.996123 L48.8432045,108.480416 L53.6627826,90.782931 L54.9768373,93.0287868 L55.9732301,98.2406316 L56.0057855,100.136166 L56.7215113,102.538442 L57.2383481,108.480416 L58.1264633,111.996123 L57.6005075,119.970413 C57.6005075,119.970413 57.049859,128.824367 56.721512,133.376467 C56.5182849,136.193946 56.1117509,139.886052 56.1117509,139.886052 C56.0532276,140.433064 56.4485111,140.947259 56.9936585,141.034382 L68.8674007,142.931996 L70.1318595,139.432987 C70.1318595,139.432987 70.7050459,136.374604 70.7050459,134.910698 C70.7050459,128.405649 71.4488881,114.542704 71.4488881,114.542704 L70.6162585,109.740773 L71.4488881,105.813908 L70.8875536,93.8008935 L72,84.2106255 L70.705046,74.8665396 L65.4626386,76.131895 L64.4336904,72.5542177 L50.9315811,73.8385633" id="Path-12" fill="#1E2935" sketch:type="MSShapeGroup"></path>
            <path d="M28.7826117,144.91608 L29.3810774,143 L27.1203823,144.753803 L25.7981783,147.210135 L23.7317082,148.13693 L22.065268,150.502044 L22,151.749361 C22,151.749361 32.1812865,152.313299 34.0724804,151.749361 C35.9636742,151.185422 36.0934981,148.571726 35.9636742,147.210135 C35.8041783,145.537345 35.0957147,143 35.0957147,143 L31.4075445,143.286757" id="Path-19" fill="#7F7F7F" sketch:type="MSShapeGroup"></path>
            <path d="M60.8834227,143.721808 L67.0366713,145.228232 L68.3955862,144.524504 L68.3955862,143 L72.3750828,147.263283 L76.2281568,149.013799 L77,150.493101 L75.9952731,151.458525 L63.4697116,152 L60,150.493101" id="Path-24" fill="#7F7F7F" sketch:type="MSShapeGroup"></path>
            <path d="M27.9031135,24.0113566 L26.0462441,24.6127288 L24,35.4294377 L24.7893937,37.5841884 L36.2570323,40.9087181 L24.4111426,72.4777644 L24.0662812,74.1165538 L29.9917178,78 L34.3762419,72.4258187 L48.6889872,75.7123879 L64.0976142,74.3817769 L65.2079484,77.8196882 L70.7456651,76.7118447 L70.5567887,75.3192983 L73.8409458,73.6380533 L73.5005695,49.3578983 L73.4058822,42.6568932 L74.5446225,38.0062479 L87,31.7737537 L83.8484053,21 L76.7892118,23.7466329 L75.9953329,24.6986391 L74.7858262,24.4429061 L67.4241314,26.4697903 L66.4129699,28.0516391 L59.7220605,26.8204243 L50.1302288,27.1046276 L46.6287891,28.94171 L40.9161499,26.9812564 L37.6369763,27.0761573 L36.304376,26.1241511 L34.7544931,26.4742856" id="Path-7" fill="#FFFFFF" sketch:type="MSShapeGroup"></path>
            <path d="M63,74.1026672 L64.3840539,78 L70.1202976,76.6697114 L69.8872948,75.0745342 L73,73.4238217 L71.5957221,72" id="Path-7" fill="#A2ADB1" sketch:type="MSShapeGroup"></path>
            <path d="M32.0000967,71.382905 C30.8946663,70.9298319 29.5,70 29.5,70 L26.6612046,71.382905 L24.3679428,72.298463 L24,73.6937003 C24,73.6937003 25.5871737,75.1919013 26.6612046,75.7535994 C27.6945145,76.2940012 30.3220224,77 30.3220224,77 C30.3220224,77 32.0676427,75.8871631 32.6758991,75.2700929 C33.6269686,74.3052422 35,72.2542373 35,72.2542373" id="Path-7" fill="#A3AEB2" sketch:type="MSShapeGroup"></path>
            <path d="M62.6061516,148 C61.3891888,148 60.6434149,148.265874 60.1643985,149.326611 C59.7607081,150.220545 60.1779839,150.715883 60.5834751,151.117243 C60.9889662,151.518603 62.6984054,151.834803 62.6984054,151.834803 L66.8983797,152 L76.0058442,151.168941 L77,150.215414 L75.3835498,149.812951 L70.9842929,150.313128 L66.8983797,149.678878 C66.8983797,149.678878 63.8231144,148 62.6061516,148 Z" id="Path-24" fill="#C7C7C7" sketch:type="MSShapeGroup"></path>
            <path d="M22.4885665,148.242269 C21.0473801,149.215417 23.2116646,151.386988 23.6406654,151.811381 C24.0696661,152.235774 29.8985604,151.811381 29.8985604,151.811381 L35.9180288,151.811381 C35.9180288,151.811381 36.1024643,150.929057 35.9180283,150.806781 C35.0835725,150.25356 32.8613534,149.784889 32.8613534,149.784889 L29.4684717,149.784889 C29.4684717,149.784889 24.0092478,147.215442 22.4885665,148.242269 Z" id="Path-24" fill="#C7C7C7" sketch:type="MSShapeGroup" transform="translate(29.000000, 150.000000) scale(-1, 1) translate(-29.000000, -150.000000) "></path>
        </g>
        <path d="M165.5,65.32 C165.406666,66.453339 165.296667,67.6099941 165.17,68.79 C165.043333,69.9700059 164.873334,71.0799948 164.66,72.12 C164.606666,72.3733346 164.533334,72.5533328 164.44,72.66 C164.346666,72.7666672 164.213334,72.8399998 164.04,72.88 C163.893333,72.9066668 163.690001,72.8600006 163.43,72.74 C163.169999,72.6199994 162.953334,72.4466678 162.78,72.22 C162.553332,71.9133318 162.310001,71.5766685 162.05,71.21 C161.789999,70.8433315 161.510001,70.4700019 161.21,70.09 C160.909999,69.7099981 160.596668,69.3333352 160.27,68.96 C159.943332,68.5866648 159.600002,68.2400016 159.24,67.92 C159.2,68.8000044 159.166667,69.6699957 159.14,70.53 C159.113333,71.3900043 159.113333,72.253329 159.14,73.12 C159.14,73.2400006 159.033334,73.3 158.82,73.3 C158.566665,73.3 158.360001,73.1700013 158.2,72.91 C158.039999,72.6499987 157.946667,72.386668 157.92,72.12 C157.88,71.853332 157.86,71.4700025 157.86,70.97 C157.86,70.4699975 157.87,69.9466694 157.89,69.4 C157.91,68.8533306 157.933333,68.3266692 157.96,67.82 C157.986667,67.3133308 158.013333,66.9133348 158.04,66.62 C158.066667,66.2999984 158.143333,66.0666674 158.27,65.92 C158.396667,65.7733326 158.519999,65.7066666 158.64,65.72 C158.906668,65.7466668 159.083333,65.8233327 159.17,65.95 C159.256667,66.0766673 159.306667,66.2333324 159.32,66.42 C159.800002,66.7666684 160.243331,67.139998 160.65,67.54 C161.056669,67.940002 161.429998,68.3466646 161.77,68.76 C162.110002,69.1733354 162.423332,69.5833313 162.71,69.99 C162.996668,70.3966687 163.266665,70.766665 163.52,71.1 C163.680001,70.299996 163.81,69.4066716 163.91,68.42 C164.01,67.4333284 164.113333,66.4000054 164.22,65.32 C164.206667,65.186666 164.286666,65.0566673 164.46,64.93 C164.633334,64.8033327 164.793333,64.7466666 164.94,64.76 C165.313335,64.7866668 165.5,64.9733316 165.5,65.32 L165.5,65.32 Z M170.806667,66.52 C171.206669,66.6666674 171.543332,66.8866652 171.816667,67.18 C172.090001,67.4733348 172.299999,67.8033315 172.446667,68.17 C172.593334,68.5366685 172.676667,68.9133314 172.696667,69.3 C172.716667,69.6866686 172.673334,70.046665 172.566667,70.38 C172.419999,70.7533352 172.233335,71.1199982 172.006667,71.48 C171.779999,71.8400018 171.520002,72.1599986 171.226667,72.44 C170.933332,72.7200014 170.600002,72.9466658 170.226667,73.12 C169.853332,73.2933342 169.440002,73.38 168.986667,73.38 C168.439997,73.38 167.980002,73.2533346 167.606667,73 C167.233332,72.7466654 166.940001,72.420002 166.726667,72.02 C166.513332,71.619998 166.376667,71.1666692 166.316667,70.66 C166.256666,70.1533308 166.266666,69.6466692 166.346667,69.14 C166.4,68.7666648 166.489999,68.4033351 166.616667,68.05 C166.743334,67.6966649 166.906666,67.3833347 167.106667,67.11 C167.306668,66.8366653 167.536665,66.6133342 167.796667,66.44 C168.056668,66.2666658 168.353332,66.18 168.686667,66.18 C168.873334,66.18 169.106665,66.2166663 169.386667,66.29 C169.666668,66.3633337 169.926666,66.466666 170.166667,66.6 C170.340001,66.4399992 170.553332,66.4133328 170.806667,66.52 L170.806667,66.52 Z M170.046667,67.98 C169.899999,67.8866662 169.730001,67.7633341 169.536667,67.61 C169.343332,67.4566659 169.173334,67.38 169.026667,67.38 C168.866666,67.38 168.710001,67.4533326 168.556667,67.6 C168.403333,67.7466674 168.270001,67.9166657 168.156667,68.11 C168.043333,68.3033343 167.946667,68.499999 167.866667,68.7 C167.786666,68.900001 167.733334,69.0599994 167.706667,69.18 C167.666667,69.380001 167.64,69.6199986 167.626667,69.9 C167.613333,70.1800014 167.633333,70.4566653 167.686667,70.73 C167.74,71.0033347 167.843333,71.2499989 167.996667,71.47 C168.150001,71.6900011 168.379999,71.8466662 168.686667,71.94 C168.873334,71.9933336 169.093332,71.9900003 169.346667,71.93 C169.600001,71.8699997 169.849999,71.7600008 170.096667,71.6 C170.343335,71.4399992 170.576666,71.226668 170.796667,70.96 C171.016668,70.693332 171.186666,70.3866684 171.306667,70.04 C171.440001,69.6533314 171.443334,69.2500021 171.316667,68.83 C171.189999,68.4099979 170.933335,68.1066676 170.546667,67.92 C170.453333,67.986667 170.360001,68.02 170.266667,68.02 C170.173333,68.02 170.1,68.0066668 170.046667,67.98 L170.046667,67.98 Z M177.993333,68.14 C178.246668,68.1266666 178.499999,68.186666 178.753333,68.32 C179.006668,68.453334 179.133333,68.6599986 179.133333,68.94 C179.106667,69.1666678 178.983335,69.3099997 178.763333,69.37 C178.543332,69.4300003 178.366667,69.46 178.233333,69.46 C177.966665,69.46 177.680002,69.4666666 177.373333,69.48 C177.066665,69.4933334 176.753335,69.5133332 176.433333,69.54 C176.406667,69.9800022 176.383334,70.3933314 176.363333,70.78 C176.343333,71.1666686 176.326667,71.5099985 176.313333,71.81 C176.3,72.1100015 176.293333,72.3533324 176.293333,72.54 C176.293333,72.7266676 176.3,72.8266666 176.313333,72.84 C176.606668,72.7866664 176.923332,72.6966673 177.263333,72.57 C177.603335,72.4433327 177.943332,72.3033341 178.283333,72.15 C178.623335,71.9966659 178.956665,71.8366675 179.283333,71.67 C179.610002,71.5033325 179.919999,71.3466674 180.213333,71.2 C180.346667,71.133333 180.47,71.1133332 180.583333,71.14 C180.696667,71.1666668 180.766667,71.2266662 180.793333,71.32 C180.82,71.4666674 180.8,71.6466656 180.733333,71.86 C180.666666,72.0733344 180.546668,72.2666658 180.373333,72.44 C180.173332,72.6000008 179.910002,72.7833323 179.583333,72.99 C179.256665,73.1966677 178.906669,73.3933324 178.533333,73.58 C178.159998,73.7666676 177.783335,73.9299993 177.403333,74.07 C177.023332,74.2100007 176.686668,74.2933332 176.393333,74.32 C175.953331,74.3600002 175.620001,74.2400014 175.393333,73.96 C175.166666,73.6799986 175.04,73.3266688 175.013333,72.9 C174.986667,72.4733312 174.983333,71.9800028 175.003333,71.42 C175.023334,70.8599972 175.046667,70.2666698 175.073333,69.64 C174.819999,69.6666668 174.576668,69.6899999 174.343333,69.71 C174.109999,69.7300001 173.886668,69.7533332 173.673333,69.78 C173.499999,69.78 173.310001,69.7400004 173.103333,69.66 C172.896666,69.5799996 172.793333,69.4266678 172.793333,69.2 C172.793333,69.1199996 172.826666,69.013334 172.893333,68.88 C172.96,68.746666 173.106666,68.646667 173.333333,68.58 C173.880003,68.4866662 174.486663,68.406667 175.153333,68.34 C175.193334,67.7133302 175.24,67.1066696 175.293333,66.52 C175.346667,65.9333304 175.393333,65.4000024 175.433333,64.92 C175.446667,64.7599992 175.493333,64.6200006 175.573333,64.5 C175.653334,64.3799994 175.74,64.32 175.833333,64.32 C176.060001,64.3066666 176.276666,64.3633327 176.483333,64.49 C176.690001,64.6166673 176.793333,64.7599992 176.793333,64.92 C176.74,65.3733356 176.69,65.8866638 176.643333,66.46 C176.596667,67.0333362 176.553334,67.619997 176.513333,68.22 C176.780001,68.1933332 177.036666,68.1766667 177.283333,68.17 C177.530001,68.1633333 177.766666,68.1533334 177.993333,68.14 L177.993333,68.14 Z M185.62,68.8 C185.099998,69.1066682 184.540003,69.3433325 183.94,69.51 C183.339997,69.6766675 182.693337,69.76 182,69.76 C182.026667,70.226669 182.159999,70.5966653 182.4,70.87 C182.640001,71.1433347 182.939998,71.3066664 183.3,71.36 C183.513335,71.3866668 183.729999,71.3800002 183.95,71.34 C184.170001,71.2999998 184.376666,71.2366671 184.57,71.15 C184.763335,71.0633329 184.939999,70.9666672 185.1,70.86 C185.260001,70.7533328 185.4,70.6466672 185.52,70.54 C185.640001,70.4333328 185.766666,70.3633335 185.9,70.33 C186.033334,70.2966665 186.133333,70.2933332 186.2,70.32 C186.386668,70.386667 186.453334,70.586665 186.4,70.92 C186.186666,71.3466688 185.880002,71.7099985 185.48,72.01 C185.079998,72.3100015 184.633336,72.4999996 184.14,72.58 C183.713331,72.6600004 183.273336,72.6400006 182.82,72.52 C182.366665,72.3999994 181.960002,72.1666684 181.6,71.82 C181.293332,71.5133318 181.060001,71.1533354 180.9,70.74 C180.739999,70.3266646 180.64,69.9000022 180.6,69.46 C180.56,69.0466646 180.596666,68.6533352 180.71,68.28 C180.823334,67.9066648 180.999999,67.5766681 181.24,67.29 C181.480001,67.0033319 181.779998,66.7666676 182.14,66.58 C182.500002,66.3933324 182.919998,66.2866668 183.4,66.26 C183.973336,66.2199998 184.493331,66.3266654 184.96,66.58 C185.426669,66.8333346 185.753333,67.1866644 185.94,67.64 C186.046667,67.8933346 186.076667,68.1133324 186.03,68.3 C185.983333,68.4866676 185.846668,68.6533326 185.62,68.8 L185.62,68.8 Z M183.32,67.44 C183.186666,67.4666668 183.043334,67.513333 182.89,67.58 C182.736666,67.646667 182.596668,67.7299995 182.47,67.83 C182.343333,67.9300005 182.230001,68.0433327 182.13,68.17 C182.03,68.2966673 181.973334,68.4399992 181.96,68.6 C182.186668,68.6 182.436666,68.5800002 182.71,68.54 C182.983335,68.4999998 183.249999,68.4500003 183.51,68.39 C183.770002,68.3299997 184.009999,68.2600004 184.23,68.18 C184.450001,68.0999996 184.633333,68.0133338 184.78,67.92 C184.673333,67.6666654 184.476668,67.5100003 184.19,67.45 C183.903332,67.3899997 183.613335,67.3866664 183.32,67.44 L183.32,67.44 Z M190.706667,67.52 C190.68,67.3733326 190.653334,67.233334 190.626667,67.1 C190.6,66.966666 190.533334,66.8800002 190.426667,66.84 C190.199999,66.773333 189.960002,66.7666664 189.706667,66.82 C189.453332,66.8733336 189.220001,66.9566661 189.006667,67.07 C188.793333,67.1833339 188.613334,67.3099993 188.466667,67.45 C188.32,67.5900007 188.24,67.7133328 188.226667,67.82 C188.186667,68.020001 188.24,68.2133324 188.386667,68.4 C188.533334,68.5866676 188.746666,68.7733324 189.026667,68.96 C189.493336,69.2400014 189.979998,69.5266652 190.486667,69.82 C190.993336,70.1133348 191.419999,70.4133318 191.766667,70.72 C192.113335,71.0266682 192.35,71.3633315 192.476667,71.73 C192.603334,72.0966685 192.573335,72.513331 192.386667,72.98 C192.24,73.3400018 191.966669,73.6333322 191.566667,73.86 C191.166665,74.0866678 190.726669,74.2633327 190.246667,74.39 C189.766665,74.5166673 189.286669,74.6033331 188.806667,74.65 C188.326665,74.6966669 187.920002,74.72 187.586667,74.72 C187.506667,74.72 187.410001,74.6900003 187.296667,74.63 C187.183333,74.5699997 187.076667,74.5000004 186.976667,74.42 C186.876666,74.3399996 186.790001,74.2566671 186.716667,74.17 C186.643333,74.0833329 186.606667,74.006667 186.606667,73.94 C186.606667,73.6999988 186.713333,73.5333338 186.926667,73.44 C187.140001,73.3466662 187.359999,73.3 187.586667,73.3 C187.906669,73.3 188.249998,73.2833335 188.616667,73.25 C188.983335,73.2166665 189.333332,73.1633337 189.666667,73.09 C190.000002,73.0166663 190.299999,72.9200006 190.566667,72.8 C190.833335,72.6799994 191.02,72.5266676 191.126667,72.34 C191.220001,72.1799992 191.163335,71.9900011 190.956667,71.77 C190.749999,71.5499989 190.476669,71.3200012 190.136667,71.08 C189.796665,70.8399988 189.430002,70.6066678 189.036667,70.38 C188.643332,70.1533322 188.306668,69.9466676 188.026667,69.76 C187.746666,69.5733324 187.506668,69.3500013 187.306667,69.09 C187.106666,68.8299987 186.980001,68.5066686 186.926667,68.12 C186.913334,67.7733316 186.986666,67.4400016 187.146667,67.12 C187.306668,66.7999984 187.516666,66.5166679 187.776667,66.27 C188.036668,66.0233321 188.333332,65.8266674 188.666667,65.68 C189.000002,65.5333326 189.333332,65.46 189.666667,65.46 C190.240003,65.4866668 190.713332,65.6433319 191.086667,65.93 C191.460002,66.2166681 191.68,66.6399972 191.746667,67.2 C191.746667,67.3866676 191.716667,67.5399994 191.656667,67.66 C191.596667,67.7800006 191.493334,67.8533332 191.346667,67.88 C191.159999,67.9066668 191.010001,67.8833337 190.896667,67.81 C190.783333,67.7366663 190.72,67.6400006 190.706667,67.52 L190.706667,67.52 Z M202.28,66.52 C202.680002,66.6666674 203.016666,66.8866652 203.29,67.18 C203.563335,67.4733348 203.773333,67.8033315 203.92,68.17 C204.066668,68.5366685 204.15,68.9133314 204.17,69.3 C204.190001,69.6866686 204.146668,70.046665 204.04,70.38 C203.893333,70.7533352 203.706668,71.1199982 203.48,71.48 C203.253333,71.8400018 202.993335,72.1599986 202.7,72.44 C202.406666,72.7200014 202.073336,72.9466658 201.7,73.12 C201.326665,73.2933342 200.913336,73.38 200.46,73.38 C199.913331,73.38 199.453336,73.2533346 199.08,73 C198.706665,72.7466654 198.413335,72.420002 198.2,72.02 C197.986666,71.619998 197.850001,71.1666692 197.79,70.66 C197.73,70.1533308 197.74,69.6466692 197.82,69.14 C197.873334,68.7666648 197.963333,68.4033351 198.09,68.05 C198.216668,67.6966649 198.379999,67.3833347 198.58,67.11 C198.780001,66.8366653 199.009999,66.6133342 199.27,66.44 C199.530002,66.2666658 199.826665,66.18 200.16,66.18 C200.346668,66.18 200.579999,66.2166663 200.86,66.29 C201.140002,66.3633337 201.399999,66.466666 201.64,66.6 C201.813335,66.4399992 202.026666,66.4133328 202.28,66.52 L202.28,66.52 Z M201.52,67.98 C201.373333,67.8866662 201.203335,67.7633341 201.01,67.61 C200.816666,67.4566659 200.646668,67.38 200.5,67.38 C200.34,67.38 200.183335,67.4533326 200.03,67.6 C199.876666,67.7466674 199.743334,67.9166657 199.63,68.11 C199.516667,68.3033343 199.420001,68.499999 199.34,68.7 C199.26,68.900001 199.206667,69.0599994 199.18,69.18 C199.14,69.380001 199.113334,69.6199986 199.1,69.9 C199.086667,70.1800014 199.106667,70.4566653 199.16,70.73 C199.213334,71.0033347 199.316666,71.2499989 199.47,71.47 C199.623335,71.6900011 199.853332,71.8466662 200.16,71.94 C200.346668,71.9933336 200.566666,71.9900003 200.82,71.93 C201.073335,71.8699997 201.323333,71.7600008 201.57,71.6 C201.816668,71.4399992 202.049999,71.226668 202.27,70.96 C202.490002,70.693332 202.66,70.3866684 202.78,70.04 C202.913334,69.6533314 202.916668,69.2500021 202.79,68.83 C202.663333,68.4099979 202.406669,68.1066676 202.02,67.92 C201.926667,67.986667 201.833334,68.02 201.74,68.02 C201.646667,68.02 201.573334,68.0066668 201.52,67.98 L201.52,67.98 Z M206.206667,66.9 C206.246667,67.100001 206.29,67.3233321 206.336667,67.57 C206.383334,67.8166679 206.433334,68.0699987 206.486667,68.33 C206.540001,68.5900013 206.586667,68.853332 206.626667,69.12 C206.666667,69.386668 206.7,69.6399988 206.726667,69.88 C206.886668,69.5333316 207.06,69.1666686 207.246667,68.78 C207.433335,68.3933314 207.636666,68.0366683 207.856667,67.71 C208.076668,67.3833317 208.309999,67.1133344 208.556667,66.9 C208.803335,66.6866656 209.073332,66.58 209.366667,66.58 C209.806669,66.58 210.176666,66.7399984 210.476667,67.06 C210.776669,67.3800016 211.03,67.7766643 211.236667,68.25 C211.443335,68.7233357 211.606667,69.2199974 211.726667,69.74 C211.846668,70.2600026 211.946667,70.719998 212.026667,71.12 C212.106668,71.4800018 211.946669,71.7466658 211.546667,71.92 C211.36,72.0133338 211.220001,72.026667 211.126667,71.96 C211.033333,71.893333 210.980001,71.826667 210.966667,71.76 C210.9,71.5999992 210.816668,71.320002 210.716667,70.92 C210.616667,70.519998 210.503335,70.1133354 210.376667,69.7 C210.25,69.2866646 210.106668,68.9266682 209.946667,68.62 C209.786666,68.3133318 209.606668,68.1733332 209.406667,68.2 C209.166666,68.2133334 208.953335,68.3933316 208.766667,68.74 C208.606666,69.0200014 208.443335,69.3299983 208.276667,69.67 C208.11,70.0100017 207.946668,70.3566649 207.786667,70.71 C207.626666,71.0633351 207.470001,71.4166649 207.316667,71.77 C207.163333,72.1233351 207.020001,72.4466652 206.886667,72.74 C206.793333,72.8333338 206.676668,72.8966665 206.536667,72.93 C206.396667,72.9633335 206.253335,72.9533336 206.106667,72.9 C205.973333,72.8599998 205.866668,72.7933338 205.786667,72.7 C205.706667,72.6066662 205.666667,72.5133338 205.666667,72.42 C205.546667,71.3799948 205.423335,70.4333376 205.296667,69.58 C205.17,68.7266624 205.006668,67.8533378 204.806667,66.96 C204.713333,66.6533318 204.696667,66.4100009 204.756667,66.23 C204.816668,66.0499991 205.013332,65.9799998 205.346667,66.02 C205.813336,66.1000004 206.1,66.3933308 206.206667,66.9 L206.206667,66.9 Z M221.080001,67.52 C221.053334,67.3733326 221.026668,67.233334 221.000001,67.1 C220.973334,66.966666 220.906668,66.8800002 220.800001,66.84 C220.573333,66.773333 220.333335,66.7666664 220.080001,66.82 C219.826666,66.8733336 219.593335,66.9566661 219.380001,67.07 C219.166666,67.1833339 218.986668,67.3099993 218.840001,67.45 C218.693333,67.5900007 218.613334,67.7133328 218.600001,67.82 C218.560001,68.020001 218.613333,68.2133324 218.760001,68.4 C218.906668,68.5866676 219.119999,68.7733324 219.400001,68.96 C219.86667,69.2400014 220.353332,69.5266652 220.860001,69.82 C221.36667,70.1133348 221.793332,70.4133318 222.140001,70.72 C222.486669,71.0266682 222.723333,71.3633315 222.850001,71.73 C222.976668,72.0966685 222.946668,72.513331 222.760001,72.98 C222.613333,73.3400018 222.340003,73.6333322 221.940001,73.86 C221.539999,74.0866678 221.100003,74.2633327 220.620001,74.39 C220.139998,74.5166673 219.660003,74.6033331 219.180001,74.65 C218.699998,74.6966669 218.293336,74.72 217.960001,74.72 C217.88,74.72 217.783335,74.6900003 217.670001,74.63 C217.556667,74.5699997 217.450001,74.5000004 217.350001,74.42 C217.25,74.3399996 217.163334,74.2566671 217.090001,74.17 C217.016667,74.0833329 216.980001,74.006667 216.980001,73.94 C216.980001,73.6999988 217.086666,73.5333338 217.300001,73.44 C217.513335,73.3466662 217.733333,73.3 217.960001,73.3 C218.280002,73.3 218.623332,73.2833335 218.990001,73.25 C219.356669,73.2166665 219.706666,73.1633337 220.040001,73.09 C220.373336,73.0166663 220.673333,72.9200006 220.940001,72.8 C221.206669,72.6799994 221.393334,72.5266676 221.500001,72.34 C221.593335,72.1799992 221.536668,71.9900011 221.330001,71.77 C221.123333,71.5499989 220.850002,71.3200012 220.510001,71.08 C220.169999,70.8399988 219.803336,70.6066678 219.410001,70.38 C219.016665,70.1533322 218.680002,69.9466676 218.400001,69.76 C218.119999,69.5733324 217.880002,69.3500013 217.680001,69.09 C217.48,68.8299987 217.353334,68.5066686 217.300001,68.12 C217.286667,67.7733316 217.36,67.4400016 217.520001,67.12 C217.680002,66.7999984 217.889999,66.5166679 218.150001,66.27 C218.410002,66.0233321 218.706666,65.8266674 219.040001,65.68 C219.373336,65.5333326 219.706666,65.46 220.040001,65.46 C220.613337,65.4866668 221.086666,65.6433319 221.460001,65.93 C221.833336,66.2166681 222.053334,66.6399972 222.120001,67.2 C222.120001,67.3866676 222.090001,67.5399994 222.030001,67.66 C221.97,67.7800006 221.866668,67.8533332 221.720001,67.88 C221.533333,67.9066668 221.383335,67.8833337 221.270001,67.81 C221.156667,67.7366663 221.093334,67.6400006 221.080001,67.52 L221.080001,67.52 Z M228.286667,66.1 C228.340001,66.4733352 228.383334,66.8699979 228.416667,67.29 C228.450001,67.7100021 228.476667,68.1333312 228.496667,68.56 C228.516668,68.9866688 228.526667,69.399998 228.526667,69.8 C228.526667,70.200002 228.520001,70.5599984 228.506667,70.88 C228.933336,71.1733348 229.19,71.4333322 229.276667,71.66 C229.363335,71.8866678 229.373334,72.0866658 229.306667,72.26 C229.226667,72.5000012 229.083335,72.6233333 228.876667,72.63 C228.67,72.6366667 228.433335,72.5666674 228.166667,72.42 C227.98,72.553334 227.766669,72.6966659 227.526667,72.85 C227.286666,73.0033341 227.033335,73.1499993 226.766667,73.29 C226.499999,73.4300007 226.233335,73.5533328 225.966667,73.66 C225.699999,73.7666672 225.453335,73.8399998 225.226667,73.88 C224.799999,73.946667 224.416669,73.8666678 224.076667,73.64 C223.736666,73.4133322 223.506668,73.0733356 223.386667,72.62 C223.306667,72.3133318 223.286667,71.9966683 223.326667,71.67 C223.366668,71.3433317 223.466667,71.0300015 223.626667,70.73 C223.786668,70.4299985 224.003333,70.1600012 224.276667,69.92 C224.550002,69.6799988 224.873332,69.493334 225.246667,69.36 C225.340001,69.3199998 225.47,69.2866668 225.636667,69.26 C225.803335,69.2333332 225.976667,69.2233333 226.156667,69.23 C226.336668,69.2366667 226.52,69.273333 226.706667,69.34 C226.893335,69.406667 227.066667,69.5199992 227.226667,69.68 C227.226667,69.4533322 227.223334,69.2033347 227.216667,68.93 C227.210001,68.6566653 227.200001,68.3800014 227.186667,68.1 C227.173334,67.8199986 227.156668,67.5566679 227.136667,67.31 C227.116667,67.0633321 227.093334,66.8533342 227.066667,66.68 C227.040001,66.479999 226.963335,66.3566669 226.836667,66.31 C226.71,66.2633331 226.553335,66.273333 226.366667,66.34 C226.046666,66.4466672 225.673336,66.6533318 225.246667,66.96 C224.819999,67.2666682 224.413336,67.5933316 224.026667,67.94 C223.906667,68.0600006 223.770002,68.1133334 223.616667,68.1 C223.463333,68.0866666 223.333335,68.0266672 223.226667,67.92 C223.12,67.8133328 223.060001,67.6900007 223.046667,67.55 C223.033334,67.4099993 223.086667,67.2600008 223.206667,67.1 C223.433335,66.8599988 223.686666,66.6133346 223.966667,66.36 C224.246669,66.1066654 224.539999,65.8766677 224.846667,65.67 C225.153336,65.4633323 225.466666,65.293334 225.786667,65.16 C226.106669,65.026666 226.426666,64.9533334 226.746667,64.94 C227.213336,64.9266666 227.573333,65.0299989 227.826667,65.25 C228.080002,65.4700011 228.233334,65.7533316 228.286667,66.1 L228.286667,66.1 Z M225.966667,70.4 C225.793333,70.4400002 225.610002,70.5233327 225.416667,70.65 C225.223333,70.7766673 225.050002,70.9299991 224.896667,71.11 C224.743333,71.2900009 224.630001,71.4899989 224.556667,71.71 C224.483334,71.9300011 224.48,72.1466656 224.546667,72.36 C224.573334,72.4400004 224.63,72.4999998 224.716667,72.54 C224.803335,72.5800002 224.9,72.5866668 225.006667,72.56 C225.326669,72.493333 225.689999,72.3633343 226.096667,72.17 C226.503336,71.9766657 226.826666,71.7666678 227.066667,71.54 C227.066667,71.4599996 227.026668,71.3566673 226.946667,71.23 C226.866667,71.1033327 226.773335,70.9766673 226.666667,70.85 C226.56,70.7233327 226.443335,70.6133338 226.316667,70.52 C226.19,70.4266662 226.073335,70.3866666 225.966667,70.4 L225.966667,70.4 Z M231.313334,64.14 C231.380001,65.5933406 231.493333,67.0966589 231.653334,68.65 C231.813335,70.2033411 231.986667,71.6866596 232.173334,73.1 C232.213334,73.6866696 232.053336,73.9866666 231.693334,74 C231.613334,74 231.533335,73.9700003 231.453334,73.91 C231.373334,73.8499997 231.300001,73.7733338 231.233334,73.68 C231.166667,73.5866662 231.103335,73.4866672 231.043334,73.38 C230.983334,73.2733328 230.946668,73.1800004 230.933334,73.1 C230.826667,72.4199966 230.726668,71.7000038 230.633334,70.94 C230.54,70.1799962 230.456668,69.4166705 230.383334,68.65 C230.310001,67.8833295 230.246668,67.133337 230.193334,66.4 C230.140001,65.666663 230.106668,64.9933364 230.093334,64.38 C230.120001,64.0599984 230.166667,63.7900011 230.233334,63.57 C230.300001,63.3499989 230.44,63.2466666 230.653334,63.26 C230.880002,63.2733334 231.043334,63.3633325 231.143334,63.53 C231.243335,63.6966675 231.300001,63.8999988 231.313334,64.14 L231.313334,64.14 Z M237.820001,68.8 C237.299998,69.1066682 236.740004,69.3433325 236.140001,69.51 C235.539998,69.6766675 234.893338,69.76 234.200001,69.76 C234.226668,70.226669 234.36,70.5966653 234.600001,70.87 C234.840002,71.1433347 235.139999,71.3066664 235.500001,71.36 C235.713335,71.3866668 235.93,71.3800002 236.150001,71.34 C236.370002,71.2999998 236.576667,71.2366671 236.770001,71.15 C236.963335,71.0633329 237.14,70.9666672 237.300001,70.86 C237.460002,70.7533328 237.6,70.6466672 237.720001,70.54 C237.840002,70.4333328 237.966667,70.3633335 238.100001,70.33 C238.233335,70.2966665 238.333334,70.2933332 238.400001,70.32 C238.586669,70.386667 238.653335,70.586665 238.600001,70.92 C238.386667,71.3466688 238.080003,71.7099985 237.680001,72.01 C237.279999,72.3100015 236.833337,72.4999996 236.340001,72.58 C235.913332,72.6600004 235.473337,72.6400006 235.020001,72.52 C234.566665,72.3999994 234.160003,72.1666684 233.800001,71.82 C233.493333,71.5133318 233.260002,71.1533354 233.100001,70.74 C232.94,70.3266646 232.840001,69.9000022 232.800001,69.46 C232.760001,69.0466646 232.796667,68.6533352 232.910001,68.28 C233.023335,67.9066648 233.2,67.5766681 233.440001,67.29 C233.680002,67.0033319 233.979999,66.7666676 234.340001,66.58 C234.700003,66.3933324 235.119999,66.2866668 235.600001,66.26 C236.173337,66.2199998 236.693332,66.3266654 237.160001,66.58 C237.62667,66.8333346 237.953333,67.1866644 238.140001,67.64 C238.246668,67.8933346 238.276668,68.1133324 238.230001,68.3 C238.183334,68.4866676 238.046669,68.6533326 237.820001,68.8 L237.820001,68.8 Z M235.520001,67.44 C235.386667,67.4666668 235.243335,67.513333 235.090001,67.58 C234.936667,67.646667 234.796668,67.7299995 234.670001,67.83 C234.543334,67.9300005 234.430001,68.0433327 234.330001,68.17 C234.23,68.2966673 234.173334,68.4399992 234.160001,68.6 C234.386669,68.6 234.636666,68.5800002 234.910001,68.54 C235.183336,68.4999998 235.45,68.4500003 235.710001,68.39 C235.970002,68.3299997 236.21,68.2600004 236.430001,68.18 C236.650002,68.0999996 236.833334,68.0133338 236.980001,67.92 C236.873334,67.6666654 236.676669,67.5100003 236.390001,67.45 C236.103333,67.3899997 235.813336,67.3866664 235.520001,67.44 L235.520001,67.44 Z M242.906668,67.52 C242.880001,67.3733326 242.853334,67.233334 242.826668,67.1 C242.800001,66.966666 242.733335,66.8800002 242.626668,66.84 C242.4,66.773333 242.160002,66.7666664 241.906668,66.82 C241.653333,66.8733336 241.420002,66.9566661 241.206668,67.07 C240.993333,67.1833339 240.813335,67.3099993 240.666668,67.45 C240.52,67.5900007 240.440001,67.7133328 240.426668,67.82 C240.386667,68.020001 240.44,68.2133324 240.586668,68.4 C240.733335,68.5866676 240.946666,68.7733324 241.226668,68.96 C241.693337,69.2400014 242.179998,69.5266652 242.686668,69.82 C243.193337,70.1133348 243.619999,70.4133318 243.966668,70.72 C244.313336,71.0266682 244.55,71.3633315 244.676668,71.73 C244.803335,72.0966685 244.773335,72.513331 244.586668,72.98 C244.44,73.3400018 244.16667,73.6333322 243.766668,73.86 C243.366666,74.0866678 242.92667,74.2633327 242.446668,74.39 C241.966665,74.5166673 241.48667,74.6033331 241.006668,74.65 C240.526665,74.6966669 240.120003,74.72 239.786668,74.72 C239.706667,74.72 239.610002,74.6900003 239.496668,74.63 C239.383334,74.5699997 239.276668,74.5000004 239.176668,74.42 C239.076667,74.3399996 238.990001,74.2566671 238.916668,74.17 C238.843334,74.0833329 238.806668,74.006667 238.806668,73.94 C238.806668,73.6999988 238.913333,73.5333338 239.126668,73.44 C239.340002,73.3466662 239.56,73.3 239.786668,73.3 C240.106669,73.3 240.449999,73.2833335 240.816668,73.25 C241.183336,73.2166665 241.533333,73.1633337 241.866668,73.09 C242.200003,73.0166663 242.5,72.9200006 242.766668,72.8 C243.033336,72.6799994 243.22,72.5266676 243.326668,72.34 C243.420001,72.1799992 243.363335,71.9900011 243.156668,71.77 C242.95,71.5499989 242.676669,71.3200012 242.336668,71.08 C241.996666,70.8399988 241.630003,70.6066678 241.236668,70.38 C240.843332,70.1533322 240.506669,69.9466676 240.226668,69.76 C239.946666,69.5733324 239.706669,69.3500013 239.506668,69.09 C239.306667,68.8299987 239.180001,68.5066686 239.126668,68.12 C239.113334,67.7733316 239.186667,67.4400016 239.346668,67.12 C239.506668,66.7999984 239.716666,66.5166679 239.976668,66.27 C240.236669,66.0233321 240.533333,65.8266674 240.866668,65.68 C241.200003,65.5333326 241.533333,65.46 241.866668,65.46 C242.440004,65.4866668 242.913332,65.6433319 243.286668,65.93 C243.660003,66.2166681 243.880001,66.6399972 243.946668,67.2 C243.946668,67.3866676 243.916668,67.5399994 243.856668,67.66 C243.796667,67.7800006 243.693335,67.8533332 243.546668,67.88 C243.36,67.9066668 243.210002,67.8833337 243.096668,67.81 C242.983334,67.7366663 242.920001,67.6400006 242.906668,67.52 L242.906668,67.52 Z M254.880001,66.1 C254.933335,66.4733352 254.976668,66.8699979 255.010001,67.29 C255.043335,67.7100021 255.070001,68.1333312 255.090001,68.56 C255.110001,68.9866688 255.120001,69.399998 255.120001,69.8 C255.120001,70.200002 255.113335,70.5599984 255.100001,70.88 C255.52667,71.1733348 255.783334,71.4333322 255.870001,71.66 C255.956668,71.8866678 255.966668,72.0866658 255.900001,72.26 C255.820001,72.5000012 255.676669,72.6233333 255.470001,72.63 C255.263333,72.6366667 255.026669,72.5666674 254.760001,72.42 C254.573334,72.553334 254.360002,72.6966659 254.120001,72.85 C253.88,73.0033341 253.626669,73.1499993 253.360001,73.29 C253.093333,73.4300007 252.826669,73.5533328 252.560001,73.66 C252.293333,73.7666672 252.046669,73.8399998 251.820001,73.88 C251.393332,73.946667 251.010003,73.8666678 250.670001,73.64 C250.329999,73.4133322 250.100002,73.0733356 249.980001,72.62 C249.900001,72.3133318 249.880001,71.9966683 249.920001,71.67 C249.960001,71.3433317 250.06,71.0300015 250.220001,70.73 C250.380002,70.4299985 250.596666,70.1600012 250.870001,69.92 C251.143336,69.6799988 251.466666,69.493334 251.840001,69.36 C251.933335,69.3199998 252.063334,69.2866668 252.230001,69.26 C252.396669,69.2333332 252.57,69.2233333 252.750001,69.23 C252.930002,69.2366667 253.113334,69.273333 253.300001,69.34 C253.486669,69.406667 253.66,69.5199992 253.820001,69.68 C253.820001,69.4533322 253.816668,69.2033347 253.810001,68.93 C253.803334,68.6566653 253.793335,68.3800014 253.780001,68.1 C253.766668,67.8199986 253.750001,67.5566679 253.730001,67.31 C253.710001,67.0633321 253.686668,66.8533342 253.660001,66.68 C253.633334,66.479999 253.556668,66.3566669 253.430001,66.31 C253.303334,66.2633331 253.146669,66.273333 252.960001,66.34 C252.64,66.4466672 252.26667,66.6533318 251.840001,66.96 C251.413332,67.2666682 251.00667,67.5933316 250.620001,67.94 C250.500001,68.0600006 250.363335,68.1133334 250.210001,68.1 C250.056667,68.0866666 249.926668,68.0266672 249.820001,67.92 C249.713334,67.8133328 249.653335,67.6900007 249.640001,67.55 C249.626668,67.4099993 249.680001,67.2600008 249.800001,67.1 C250.026669,66.8599988 250.28,66.6133346 250.560001,66.36 C250.840003,66.1066654 251.133333,65.8766677 251.440001,65.67 C251.746669,65.4633323 252.06,65.293334 252.380001,65.16 C252.700003,65.026666 253.02,64.9533334 253.340001,64.94 C253.80667,64.9266666 254.166667,65.0299989 254.420001,65.25 C254.673336,65.4700011 254.826668,65.7533316 254.880001,66.1 L254.880001,66.1 Z M252.560001,70.4 C252.386667,70.4400002 252.203335,70.5233327 252.010001,70.65 C251.816667,70.7766673 251.643335,70.9299991 251.490001,71.11 C251.336667,71.2900009 251.223335,71.4899989 251.150001,71.71 C251.076667,71.9300011 251.073334,72.1466656 251.140001,72.36 C251.166668,72.4400004 251.223334,72.4999998 251.310001,72.54 C251.396668,72.5800002 251.493334,72.5866668 251.600001,72.56 C251.920003,72.493333 252.283332,72.3633343 252.690001,72.17 C253.09667,71.9766657 253.42,71.7666678 253.660001,71.54 C253.660001,71.4599996 253.620002,71.3566673 253.540001,71.23 C253.460001,71.1033327 253.366668,70.9766673 253.260001,70.85 C253.153334,70.7233327 253.036668,70.6133338 252.910001,70.52 C252.783334,70.4266662 252.666668,70.3866666 252.560001,70.4 L252.560001,70.4 Z M257.506668,66.9 C257.546668,67.100001 257.590001,67.3233321 257.636668,67.57 C257.683335,67.8166679 257.733334,68.0699987 257.786668,68.33 C257.840002,68.5900013 257.886668,68.853332 257.926668,69.12 C257.966668,69.386668 258.000001,69.6399988 258.026668,69.88 C258.186669,69.5333316 258.36,69.1666686 258.546668,68.78 C258.733336,68.3933314 258.936667,68.0366683 259.156668,67.71 C259.376669,67.3833317 259.61,67.1133344 259.856668,66.9 C260.103336,66.6866656 260.373333,66.58 260.666668,66.58 C261.10667,66.58 261.476666,66.7399984 261.776668,67.06 C262.076669,67.3800016 262.33,67.7766643 262.536668,68.25 C262.743336,68.7233357 262.906667,69.2199974 263.026668,69.74 C263.146669,70.2600026 263.246668,70.719998 263.326668,71.12 C263.406668,71.4800018 263.24667,71.7466658 262.846668,71.92 C262.66,72.0133338 262.520002,72.026667 262.426668,71.96 C262.333334,71.893333 262.280001,71.826667 262.266668,71.76 C262.200001,71.5999992 262.116668,71.320002 262.016668,70.92 C261.916667,70.519998 261.803335,70.1133354 261.676668,69.7 C261.550001,69.2866646 261.406669,68.9266682 261.246668,68.62 C261.086667,68.3133318 260.906669,68.1733332 260.706668,68.2 C260.466667,68.2133334 260.253336,68.3933316 260.066668,68.74 C259.906667,69.0200014 259.743335,69.3299983 259.576668,69.67 C259.41,70.0100017 259.246669,70.3566649 259.086668,70.71 C258.926667,71.0633351 258.770002,71.4166649 258.616668,71.77 C258.463334,72.1233351 258.320002,72.4466652 258.186668,72.74 C258.093334,72.8333338 257.976669,72.8966665 257.836668,72.93 C257.696667,72.9633335 257.553335,72.9533336 257.406668,72.9 C257.273334,72.8599998 257.166668,72.7933338 257.086668,72.7 C257.006668,72.6066662 256.966668,72.5133338 256.966668,72.42 C256.846667,71.3799948 256.723335,70.4333376 256.596668,69.58 C256.470001,68.7266624 256.306669,67.8533378 256.106668,66.96 C256.013334,66.6533318 255.996668,66.4100009 256.056668,66.23 C256.116668,66.0499991 256.313333,65.9799998 256.646668,66.02 C257.113337,66.1000004 257.400001,66.3933308 257.506668,66.9 L257.506668,66.9 Z M267.253335,63.36 C267.213334,63.1199988 267.230001,62.900001 267.303335,62.7 C267.376668,62.499999 267.526667,62.3866668 267.753335,62.36 C267.953336,62.3333332 268.130001,62.386666 268.283335,62.52 C268.436669,62.653334 268.533334,62.8266656 268.573335,63.04 C268.840003,64.573341 269.09,66.0966591 269.323335,67.61 C269.556669,69.1233409 269.766667,70.6066594 269.953335,72.06 C270.006668,72.4466686 269.980002,72.7099993 269.873335,72.85 C269.766667,72.9900007 269.640002,73.093333 269.493335,73.16 C269.333334,73.226667 269.183335,73.226667 269.043335,73.16 C268.903334,73.093333 268.813335,72.9733342 268.773335,72.8 L268.753335,72.68 L268.673335,72.7 C268.233332,72.8600008 267.773337,72.9499999 267.293335,72.97 C266.813332,72.9900001 266.353337,72.933334 265.913335,72.8 C265.473332,72.666666 265.083336,72.4500015 264.743335,72.15 C264.403333,71.8499985 264.160002,71.466669 264.013335,71 C263.693333,69.9733282 263.893331,69.0400042 264.613335,68.2 C264.920003,67.8533316 265.299999,67.5400014 265.753335,67.26 C266.20667,66.9799986 266.753331,66.7600008 267.393335,66.6 L267.753335,66.52 L267.253335,63.36 Z M265.233335,70.5 C265.313335,70.8200016 265.46,71.0666658 265.673335,71.24 C265.886669,71.4133342 266.14,71.5299997 266.433335,71.59 C266.726669,71.6500003 267.04,71.6600002 267.373335,71.62 C267.70667,71.5799998 268.033333,71.5066672 268.353335,71.4 L268.533335,71.34 L267.973335,67.82 L267.573335,67.92 C267.293333,68.0000004 266.99667,68.1233325 266.683335,68.29 C266.37,68.4566675 266.093336,68.6533322 265.853335,68.88 C265.613333,69.1066678 265.430002,69.3599986 265.303335,69.64 C265.176667,69.9200014 265.153334,70.2066652 265.233335,70.5 L265.233335,70.5 Z M276.626668,64.14 C276.693335,65.5933406 276.806667,67.0966589 276.966668,68.65 C277.126669,70.2033411 277.300001,71.6866596 277.486668,73.1 C277.526668,73.6866696 277.36667,73.9866666 277.006668,74 C276.926668,74 276.846669,73.9700003 276.766668,73.91 C276.686668,73.8499997 276.613335,73.7733338 276.546668,73.68 C276.480001,73.5866662 276.416668,73.4866672 276.356668,73.38 C276.296668,73.2733328 276.260002,73.1800004 276.246668,73.1 C276.140001,72.4199966 276.040002,71.7000038 275.946668,70.94 C275.853334,70.1799962 275.770002,69.4166705 275.696668,68.65 C275.623334,67.8833295 275.560002,67.133337 275.506668,66.4 C275.453335,65.666663 275.420002,64.9933364 275.406668,64.38 C275.433335,64.0599984 275.480001,63.7900011 275.546668,63.57 C275.613335,63.3499989 275.753334,63.2466666 275.966668,63.26 C276.193336,63.2733334 276.356668,63.3633325 276.456668,63.53 C276.556669,63.6966675 276.613335,63.8999988 276.626668,64.14 L276.626668,64.14 Z M283.133335,68.8 C282.613332,69.1066682 282.053338,69.3433325 281.453335,69.51 C280.853332,69.6766675 280.206672,69.76 279.513335,69.76 C279.540002,70.226669 279.673334,70.5966653 279.913335,70.87 C280.153336,71.1433347 280.453333,71.3066664 280.813335,71.36 C281.026669,71.3866668 281.243334,71.3800002 281.463335,71.34 C281.683336,71.2999998 281.890001,71.2366671 282.083335,71.15 C282.276669,71.0633329 282.453334,70.9666672 282.613335,70.86 C282.773336,70.7533328 282.913334,70.6466672 283.033335,70.54 C283.153336,70.4333328 283.280001,70.3633335 283.413335,70.33 C283.546669,70.2966665 283.646668,70.2933332 283.713335,70.32 C283.900003,70.386667 283.966669,70.586665 283.913335,70.92 C283.700001,71.3466688 283.393337,71.7099985 282.993335,72.01 C282.593333,72.3100015 282.146671,72.4999996 281.653335,72.58 C281.226666,72.6600004 280.786671,72.6400006 280.333335,72.52 C279.879999,72.3999994 279.473337,72.1666684 279.113335,71.82 C278.806667,71.5133318 278.573336,71.1533354 278.413335,70.74 C278.253334,70.3266646 278.153335,69.9000022 278.113335,69.46 C278.073335,69.0466646 278.110001,68.6533352 278.223335,68.28 C278.336669,67.9066648 278.513334,67.5766681 278.753335,67.29 C278.993336,67.0033319 279.293333,66.7666676 279.653335,66.58 C280.013337,66.3933324 280.433333,66.2866668 280.913335,66.26 C281.486671,66.2199998 282.006666,66.3266654 282.473335,66.58 C282.940004,66.8333346 283.266667,67.1866644 283.453335,67.64 C283.560002,67.8933346 283.590002,68.1133324 283.543335,68.3 C283.496668,68.4866676 283.360003,68.6533326 283.133335,68.8 L283.133335,68.8 Z M280.833335,67.44 C280.700001,67.4666668 280.556669,67.513333 280.403335,67.58 C280.250001,67.646667 280.110002,67.7299995 279.983335,67.83 C279.856668,67.9300005 279.743335,68.0433327 279.643335,68.17 C279.543334,68.2966673 279.486668,68.4399992 279.473335,68.6 C279.700003,68.6 279.95,68.5800002 280.223335,68.54 C280.49667,68.4999998 280.763334,68.4500003 281.023335,68.39 C281.283336,68.3299997 281.523334,68.2600004 281.743335,68.18 C281.963336,68.0999996 282.146668,68.0133338 282.293335,67.92 C282.186668,67.6666654 281.990003,67.5100003 281.703335,67.45 C281.416667,67.3899997 281.12667,67.3866664 280.833335,67.44 L280.833335,67.44 Z M289.480002,66.1 C289.533335,66.4733352 289.576668,66.8699979 289.610002,67.29 C289.643335,67.7100021 289.670002,68.1333312 289.690002,68.56 C289.710002,68.9866688 289.720002,69.399998 289.720002,69.8 C289.720002,70.200002 289.713335,70.5599984 289.700002,70.88 C290.12667,71.1733348 290.383335,71.4333322 290.470002,71.66 C290.556669,71.8866678 290.566669,72.0866658 290.500002,72.26 C290.420001,72.5000012 290.276669,72.6233333 290.070002,72.63 C289.863334,72.6366667 289.62667,72.5666674 289.360002,72.42 C289.173334,72.553334 288.960003,72.6966659 288.720002,72.85 C288.48,73.0033341 288.22667,73.1499993 287.960002,73.29 C287.693334,73.4300007 287.42667,73.5533328 287.160002,73.66 C286.893334,73.7666672 286.646669,73.8399998 286.420002,73.88 C285.993333,73.946667 285.610003,73.8666678 285.270002,73.64 C284.93,73.4133322 284.700002,73.0733356 284.580002,72.62 C284.500001,72.3133318 284.480001,71.9966683 284.520002,71.67 C284.560002,71.3433317 284.660001,71.0300015 284.820002,70.73 C284.980002,70.4299985 285.196667,70.1600012 285.470002,69.92 C285.743336,69.6799988 286.066666,69.493334 286.440002,69.36 C286.533335,69.3199998 286.663334,69.2866668 286.830002,69.26 C286.996669,69.2333332 287.170001,69.2233333 287.350002,69.23 C287.530003,69.2366667 287.713334,69.273333 287.900002,69.34 C288.086669,69.406667 288.260001,69.5199992 288.420002,69.68 C288.420002,69.4533322 288.416668,69.2033347 288.410002,68.93 C288.403335,68.6566653 288.393335,68.3800014 288.380002,68.1 C288.366668,67.8199986 288.350002,67.5566679 288.330002,67.31 C288.310002,67.0633321 288.286668,66.8533342 288.260002,66.68 C288.233335,66.479999 288.156669,66.3566669 288.030002,66.31 C287.903334,66.2633331 287.746669,66.273333 287.560002,66.34 C287.24,66.4466672 286.86667,66.6533318 286.440002,66.96 C286.013333,67.2666682 285.60667,67.5933316 285.220002,67.94 C285.100001,68.0600006 284.963336,68.1133334 284.810002,68.1 C284.656668,68.0866666 284.526669,68.0266672 284.420002,67.92 C284.313334,67.8133328 284.253335,67.6900007 284.240002,67.55 C284.226668,67.4099993 284.280001,67.2600008 284.400002,67.1 C284.626669,66.8599988 284.88,66.6133346 285.160002,66.36 C285.440003,66.1066654 285.733333,65.8766677 286.040002,65.67 C286.34667,65.4633323 286.66,65.293334 286.980002,65.16 C287.300003,65.026666 287.62,64.9533334 287.940002,64.94 C288.406671,64.9266666 288.766667,65.0299989 289.020002,65.25 C289.273336,65.4700011 289.426668,65.7533316 289.480002,66.1 L289.480002,66.1 Z M287.160002,70.4 C286.986667,70.4400002 286.803336,70.5233327 286.610002,70.65 C286.416667,70.7766673 286.243336,70.9299991 286.090002,71.11 C285.936668,71.2900009 285.823335,71.4899989 285.750002,71.71 C285.676668,71.9300011 285.673335,72.1466656 285.740002,72.36 C285.766668,72.4400004 285.823335,72.4999998 285.910002,72.54 C285.996669,72.5800002 286.093334,72.5866668 286.200002,72.56 C286.520003,72.493333 286.883333,72.3633343 287.290002,72.17 C287.69667,71.9766657 288.02,71.7666678 288.260002,71.54 C288.260002,71.4599996 288.220002,71.3566673 288.140002,71.23 C288.060001,71.1033327 287.966669,70.9766673 287.860002,70.85 C287.753334,70.7233327 287.636669,70.6133338 287.510002,70.52 C287.383334,70.4266662 287.266669,70.3866666 287.160002,70.4 L287.160002,70.4 Z M294.206668,63.36 C294.166668,63.1199988 294.183335,62.900001 294.256668,62.7 C294.330002,62.499999 294.480001,62.3866668 294.706668,62.36 C294.906669,62.3333332 295.083334,62.386666 295.236668,62.52 C295.390003,62.653334 295.486668,62.8266656 295.526668,63.04 C295.793336,64.573341 296.043334,66.0966591 296.276668,67.61 C296.510003,69.1233409 296.720001,70.6066594 296.906668,72.06 C296.960002,72.4466686 296.933336,72.7099993 296.826668,72.85 C296.720001,72.9900007 296.593336,73.093333 296.446668,73.16 C296.286668,73.226667 296.136669,73.226667 295.996668,73.16 C295.856668,73.093333 295.766669,72.9733342 295.726668,72.8 L295.706668,72.68 L295.626668,72.7 C295.186666,72.8600008 294.726671,72.9499999 294.246668,72.97 C293.766666,72.9900001 293.306671,72.933334 292.866668,72.8 C292.426666,72.666666 292.03667,72.4500015 291.696668,72.15 C291.356667,71.8499985 291.113336,71.466669 290.966668,71 C290.646667,69.9733282 290.846665,69.0400042 291.566668,68.2 C291.873337,67.8533316 292.253333,67.5400014 292.706668,67.26 C293.160004,66.9799986 293.706665,66.7600008 294.346668,66.6 L294.706668,66.52 L294.206668,63.36 Z M292.186668,70.5 C292.266669,70.8200016 292.413334,71.0666658 292.626668,71.24 C292.840003,71.4133342 293.093334,71.5299997 293.386668,71.59 C293.680003,71.6500003 293.993333,71.6600002 294.326668,71.62 C294.660003,71.5799998 294.986667,71.5066672 295.306668,71.4 L295.486668,71.34 L294.926668,67.82 L294.526668,67.92 C294.246667,68.0000004 293.950003,68.1233325 293.636668,68.29 C293.323334,68.4566675 293.04667,68.6533322 292.806668,68.88 C292.566667,69.1066678 292.383336,69.3599986 292.256668,69.64 C292.130001,69.9200014 292.106668,70.2066652 292.186668,70.5 L292.186668,70.5 Z M301.973335,68.8 C301.453333,69.1066682 300.893338,69.3433325 300.293335,69.51 C299.693332,69.6766675 299.046672,69.76 298.353335,69.76 C298.380002,70.226669 298.513334,70.5966653 298.753335,70.87 C298.993336,71.1433347 299.293333,71.3066664 299.653335,71.36 C299.86667,71.3866668 300.083334,71.3800002 300.303335,71.34 C300.523336,71.2999998 300.730001,71.2366671 300.923335,71.15 C301.116669,71.0633329 301.293334,70.9666672 301.453335,70.86 C301.613336,70.7533328 301.753335,70.6466672 301.873335,70.54 C301.993336,70.4333328 302.120001,70.3633335 302.253335,70.33 C302.386669,70.2966665 302.486668,70.2933332 302.553335,70.32 C302.740003,70.386667 302.806669,70.586665 302.753335,70.92 C302.540001,71.3466688 302.233337,71.7099985 301.833335,72.01 C301.433333,72.3100015 300.986671,72.4999996 300.493335,72.58 C300.066666,72.6600004 299.626671,72.6400006 299.173335,72.52 C298.72,72.3999994 298.313337,72.1666684 297.953335,71.82 C297.646667,71.5133318 297.413336,71.1533354 297.253335,70.74 C297.093334,70.3266646 296.993335,69.9000022 296.953335,69.46 C296.913335,69.0466646 296.950001,68.6533352 297.063335,68.28 C297.176669,67.9066648 297.353334,67.5766681 297.593335,67.29 C297.833336,67.0033319 298.133333,66.7666676 298.493335,66.58 C298.853337,66.3933324 299.273333,66.2866668 299.753335,66.26 C300.326671,66.2199998 300.846666,66.3266654 301.313335,66.58 C301.780004,66.8333346 302.106668,67.1866644 302.293335,67.64 C302.400002,67.8933346 302.430002,68.1133324 302.383335,68.3 C302.336668,68.4866676 302.200003,68.6533326 301.973335,68.8 L301.973335,68.8 Z M299.673335,67.44 C299.540001,67.4666668 299.396669,67.513333 299.243335,67.58 C299.090001,67.646667 298.950002,67.7299995 298.823335,67.83 C298.696668,67.9300005 298.583336,68.0433327 298.483335,68.17 C298.383335,68.2966673 298.326669,68.4399992 298.313335,68.6 C298.540003,68.6 298.79,68.5800002 299.063335,68.54 C299.33667,68.4999998 299.603334,68.4500003 299.863335,68.39 C300.123336,68.3299997 300.363334,68.2600004 300.583335,68.18 C300.803336,68.0999996 300.986668,68.0133338 301.133335,67.92 C301.026668,67.6666654 300.830003,67.5100003 300.543335,67.45 C300.256667,67.3899997 299.96667,67.3866664 299.673335,67.44 L299.673335,67.44 Z M309.300002,66.6 C309.060001,66.733334 308.810003,66.8733326 308.550002,67.02 C308.290001,67.1666674 308.030003,67.3366657 307.770002,67.53 C307.510001,67.7233343 307.263336,67.9499987 307.030002,68.21 C306.796667,68.4700013 306.58667,68.7799982 306.400002,69.14 C306.133334,69.6466692 305.953336,70.1633307 305.860002,70.69 C305.766668,71.2166693 305.706669,71.7333308 305.680002,72.24 C305.680002,72.4800012 305.623336,72.7233321 305.510002,72.97 C305.396668,73.2166679 305.240003,73.34 305.040002,73.34 C304.786667,73.34 304.583336,73.2100013 304.430002,72.95 C304.276668,72.6899987 304.173336,72.4400012 304.120002,72.2 C303.893334,71.2533286 303.706669,70.3166713 303.560002,69.39 C303.413335,68.4633287 303.286669,67.5400046 303.180002,66.62 C303.180002,66.4333324 303.236668,66.3133336 303.350002,66.26 C303.463336,66.2066664 303.593335,66.1866666 303.740002,66.2 C303.900003,66.2133334 304.053335,66.253333 304.200002,66.32 C304.346669,66.386667 304.433335,66.4933326 304.460002,66.64 C304.513336,67.1333358 304.580002,67.6499973 304.660002,68.19 C304.740002,68.7300027 304.820002,69.1933314 304.900002,69.58 C304.953336,69.1266644 305.100001,68.6866688 305.340002,68.26 C305.580003,67.8333312 305.876667,67.4466684 306.230002,67.1 C306.583337,66.7533316 306.983333,66.4600012 307.430002,66.22 C307.876671,65.9799988 308.333333,65.8200004 308.800002,65.74 C309.000003,65.7133332 309.166668,65.7133332 309.300002,65.74 C309.433336,65.7666668 309.526668,65.813333 309.580002,65.88 C309.633336,65.946667 309.643335,66.0533326 309.610002,66.2 C309.576668,66.3466674 309.473336,66.4799994 309.300002,66.6 L309.300002,66.6 Z M313.406669,67.52 C313.380002,67.3733326 313.353335,67.233334 313.326669,67.1 C313.300002,66.966666 313.233336,66.8800002 313.126669,66.84 C312.900001,66.773333 312.660003,66.7666664 312.406669,66.82 C312.153334,66.8733336 311.920003,66.9566661 311.706669,67.07 C311.493334,67.1833339 311.313336,67.3099993 311.166669,67.45 C311.020001,67.5900007 310.940002,67.7133328 310.926669,67.82 C310.886668,68.020001 310.940001,68.2133324 311.086669,68.4 C311.233336,68.5866676 311.446667,68.7733324 311.726669,68.96 C312.193338,69.2400014 312.679999,69.5266652 313.186669,69.82 C313.693338,70.1133348 314.12,70.4133318 314.466669,70.72 C314.813337,71.0266682 315.050001,71.3633315 315.176669,71.73 C315.303336,72.0966685 315.273336,72.513331 315.086669,72.98 C314.940001,73.3400018 314.666671,73.6333322 314.266669,73.86 C313.866667,74.0866678 313.426671,74.2633327 312.946669,74.39 C312.466666,74.5166673 311.986671,74.6033331 311.506669,74.65 C311.026666,74.6966669 310.620004,74.72 310.286669,74.72 C310.206668,74.72 310.110003,74.6900003 309.996669,74.63 C309.883335,74.5699997 309.776669,74.5000004 309.676669,74.42 C309.576668,74.3399996 309.490002,74.2566671 309.416669,74.17 C309.343335,74.0833329 309.306669,74.006667 309.306669,73.94 C309.306669,73.6999988 309.413334,73.5333338 309.626669,73.44 C309.840003,73.3466662 310.060001,73.3 310.286669,73.3 C310.60667,73.3 310.95,73.2833335 311.316669,73.25 C311.683337,73.2166665 312.033334,73.1633337 312.366669,73.09 C312.700004,73.0166663 313.000001,72.9200006 313.266669,72.8 C313.533337,72.6799994 313.720001,72.5266676 313.826669,72.34 C313.920002,72.1799992 313.863336,71.9900011 313.656669,71.77 C313.450001,71.5499989 313.17667,71.3200012 312.836669,71.08 C312.496667,70.8399988 312.130004,70.6066678 311.736669,70.38 C311.343333,70.1533322 311.00667,69.9466676 310.726669,69.76 C310.446667,69.5733324 310.20667,69.3500013 310.006669,69.09 C309.806668,68.8299987 309.680002,68.5066686 309.626669,68.12 C309.613335,67.7733316 309.686668,67.4400016 309.846669,67.12 C310.006669,66.7999984 310.216667,66.5166679 310.476669,66.27 C310.73667,66.0233321 311.033334,65.8266674 311.366669,65.68 C311.700004,65.5333326 312.033334,65.46 312.366669,65.46 C312.940005,65.4866668 313.413333,65.6433319 313.786669,65.93 C314.160004,66.2166681 314.380002,66.6399972 314.446669,67.2 C314.446669,67.3866676 314.416669,67.5399994 314.356669,67.66 C314.296668,67.7800006 314.193336,67.8533332 314.046669,67.88 C313.860001,67.9066668 313.710003,67.8833337 313.596669,67.81 C313.483335,67.7366663 313.420002,67.6400006 313.406669,67.52 L313.406669,67.52 Z M317.013335,64.64 C317.013335,64.9600016 317.010002,65.319998 317.003335,65.72 C316.996669,66.120002 316.996669,66.5333312 317.003335,66.96 C317.010002,67.3866688 317.016669,67.8266644 317.023335,68.28 C317.030002,68.7333356 317.040002,69.1666646 317.053335,69.58 C317.186669,69.313332 317.346668,69.0500013 317.533335,68.79 C317.720003,68.5299987 317.930001,68.300001 318.163335,68.1 C318.39667,67.899999 318.643334,67.7400006 318.903335,67.62 C319.163337,67.4999994 319.446667,67.44 319.753335,67.44 C320.08667,67.44 320.383334,67.5466656 320.643335,67.76 C320.903337,67.9733344 321.130001,68.2566649 321.323335,68.61 C321.51667,68.9633351 321.680001,69.3566645 321.813335,69.79 C321.946669,70.2233355 322.056668,70.6633311 322.143335,71.11 C322.230002,71.5566689 322.293335,71.9833313 322.333335,72.39 C322.373336,72.7966687 322.406669,73.1466652 322.433335,73.44 C322.433335,73.6533344 322.380003,73.826666 322.273335,73.96 C322.166668,74.093334 322.040003,74.16 321.893335,74.16 C321.786668,74.16 321.656669,74.0900007 321.503335,73.95 C321.350001,73.8099993 321.240002,73.640001 321.173335,73.44 C321.133335,73.2799992 321.093336,73.0466682 321.053335,72.74 C321.013335,72.4333318 320.966669,72.1033351 320.913335,71.75 C320.860002,71.3966649 320.793336,71.0400018 320.713335,70.68 C320.633335,70.3199982 320.536669,69.9966681 320.423335,69.71 C320.310001,69.4233319 320.173336,69.2000008 320.013335,69.04 C319.853335,68.8799992 319.66667,68.8199998 319.453335,68.86 C319.12,68.926667 318.830003,69.159998 318.583335,69.56 C318.336667,69.960002 318.123336,70.4133308 317.943335,70.92 C317.763334,71.4266692 317.616669,71.9399974 317.503335,72.46 C317.390001,72.9800026 317.306669,73.3999984 317.253335,73.72 C317.200002,73.9600012 317.130002,74.1233329 317.043335,74.21 C316.956668,74.2966671 316.860003,74.34 316.753335,74.34 C316.646668,74.34 316.550002,74.2866672 316.463335,74.18 C316.376668,74.0733328 316.296669,73.9433341 316.223335,73.79 C316.150002,73.6366659 316.086669,73.4766675 316.033335,73.31 C315.980002,73.1433325 315.946669,73.0000006 315.933335,72.88 C315.866668,72.1599964 315.813336,71.4700033 315.773335,70.81 C315.733335,70.1499967 315.703335,69.48667 315.683335,68.82 C315.663335,68.15333 315.653335,67.4700035 315.653335,66.77 C315.653335,66.0699965 315.666669,65.320004 315.693335,64.52 C315.693335,63.85333 315.933333,63.553333 316.413335,63.62 C316.573336,63.6466668 316.713335,63.7633323 316.833335,63.97 C316.953336,64.1766677 317.013335,64.3999988 317.013335,64.64 L317.013335,64.64 Z M326.400002,65.34 C326.373335,65.473334 326.280003,65.5466666 326.120002,65.56 C325.960001,65.5733334 325.826669,65.58 325.720002,65.58 C325.386667,65.5933334 325.043337,65.6266664 324.690002,65.68 C324.336667,65.7333336 323.966671,65.8133328 323.580002,65.92 C323.420001,65.9733336 323.24667,65.9533338 323.060002,65.86 C322.873335,65.7666662 322.760002,65.5800014 322.720002,65.3 C322.720002,65.1933328 322.760002,65.106667 322.840002,65.04 C322.920003,64.973333 323.013335,64.9133336 323.120002,64.86 C323.293336,64.7799996 323.500001,64.7100003 323.740002,64.65 C323.980003,64.5899997 324.223334,64.5466668 324.470002,64.52 C324.71667,64.4933332 324.953334,64.4833333 325.180002,64.49 C325.40667,64.4966667 325.593335,64.5199998 325.740002,64.56 C325.953337,64.626667 326.123335,64.726666 326.250002,64.86 C326.376669,64.993334 326.426669,65.1533324 326.400002,65.34 L326.400002,65.34 Z M325.940002,72 C326.033336,72.2133344 326.083335,72.4433321 326.090002,72.69 C326.096669,72.9366679 326.02667,73.1066662 325.880002,73.2 C325.693335,73.3200006 325.493337,73.313334 325.280002,73.18 C325.066668,73.046666 324.906669,72.8666678 324.800002,72.64 C324.653335,72.3599986 324.540003,72.0166687 324.460002,71.61 C324.380002,71.2033313 324.320002,70.800002 324.280002,70.4 C324.240002,69.999998 324.216669,69.6266684 324.210002,69.28 C324.203335,68.9333316 324.200002,68.6733342 324.200002,68.5 C324.213336,68.3133324 324.266668,68.1400008 324.360002,67.98 C324.453336,67.8199992 324.573335,67.7266668 324.720002,67.7 C324.960003,67.7133334 325.153335,67.8233323 325.300002,68.03 C325.44667,68.2366677 325.513336,68.4933318 325.500002,68.8 C325.500002,69.0400012 325.506669,69.3066652 325.520002,69.6 C325.533336,69.8933348 325.560002,70.1866652 325.600002,70.48 C325.640002,70.7733348 325.686669,71.0566653 325.740002,71.33 C325.793336,71.6033347 325.860002,71.8266658 325.940002,72 L325.940002,72 Z M330.446669,75.68 C330.433335,75.8266674 330.366669,75.9633327 330.246669,76.09 C330.126668,76.2166673 329.993336,76.2733334 329.846669,76.26 C329.620001,76.2466666 329.446669,76.1600008 329.326669,76 C329.206668,75.8399992 329.146669,75.7066672 329.146669,75.6 C329.146669,75.0933308 329.133336,74.5633361 329.106669,74.01 C329.080002,73.4566639 329.046669,72.8866696 329.006669,72.3 C328.833335,72.3266668 328.67667,72.3100003 328.536669,72.25 C328.396668,72.1899997 328.300002,72.093334 328.246669,71.96 C328.153335,71.7333322 328.166668,71.5333342 328.286669,71.36 C328.406669,71.1866658 328.600001,71.0200008 328.866669,70.86 C328.800002,70.3666642 328.736669,69.8800024 328.676669,69.4 C328.616669,68.9199976 328.553336,68.4533356 328.486669,68 C328.473335,67.9199996 328.480002,67.846667 328.506669,67.78 C328.533336,67.713333 328.566669,67.6500003 328.606669,67.59 C328.646669,67.5299997 328.720002,67.4733336 328.826669,67.42 C329.000003,67.353333 329.196668,67.4066658 329.416669,67.58 C329.63667,67.7533342 329.786668,67.973332 329.866669,68.24 C329.906669,68.4933346 329.950002,68.7833317 329.996669,69.11 C330.043336,69.4366683 330.086669,69.7933314 330.126669,70.18 C330.40667,70.0066658 330.670001,69.820001 330.916669,69.62 C331.163337,69.419999 331.376668,69.2066678 331.556669,68.98 C331.73667,68.7533322 331.873335,68.5166679 331.966669,68.27 C332.060003,68.0233321 332.086669,67.766668 332.046669,67.5 C332.020002,67.2733322 331.920003,67.0700009 331.746669,66.89 C331.573335,66.7099991 331.300004,66.6133334 330.926669,66.6 C330.593334,66.5866666 330.263337,66.613333 329.936669,66.68 C329.610001,66.746667 329.290004,66.8333328 328.976669,66.94 C328.663334,67.0466672 328.35667,67.1733326 328.056669,67.32 C327.756667,67.4666674 327.46667,67.6133326 327.186669,67.76 C327.000001,67.8666672 326.81667,67.9100001 326.636669,67.89 C326.456668,67.8699999 326.340002,67.8066672 326.286669,67.7 C326.166668,67.433332 326.176668,67.1933344 326.316669,66.98 C326.45667,66.7666656 326.673334,66.5666676 326.966669,66.38 C327.220003,66.2333326 327.523334,66.0833341 327.876669,65.93 C328.230004,65.7766659 328.603334,65.6433339 328.996669,65.53 C329.390004,65.4166661 329.79,65.3366669 330.196669,65.29 C330.603338,65.2433331 330.993334,65.2499997 331.366669,65.31 C331.740004,65.3700003 332.076667,65.4966657 332.376669,65.69 C332.67667,65.8833343 332.920001,66.1666648 333.106669,66.54 C333.333337,67.1533364 333.396669,67.7166641 333.296669,68.23 C333.196668,68.7433359 332.99667,69.2099979 332.696669,69.63 C332.396667,70.0500021 332.030004,70.4299983 331.596669,70.77 C331.163333,71.1100017 330.726671,71.413332 330.286669,71.68 C330.353336,72.4000036 330.400002,73.1133298 330.426669,73.82 C330.453336,74.5266702 330.460002,75.146664 330.446669,75.68 L330.446669,75.68 Z" id="Notes-on-sales-and-l" fill="#5D5746" sketch:type="MSShapeGroup"></path>
        <path d="M0.464,50.24 C0.464,50.0373323 0.53866592,49.8346677 0.688,49.632 C0.83733408,49.4293323 1.00799904,49.328 1.2,49.328 C1.31733392,49.328 1.45866584,49.394666 1.624,49.528 C1.78933416,49.661334 1.9519992,49.8053326 2.112,49.96 C2.2720008,50.1146674 2.51466504,50.258666 2.84,50.392 C3.16533496,50.525334 3.53066464,50.592 3.936,50.592 C4.54400304,50.592 5.03199816,50.4480014 5.4,50.16 C5.76800184,49.8719986 5.952,49.4506694 5.952,48.896 C5.952,48.3839974 5.77333512,47.957335 5.416,47.616 C5.05866488,47.274665 4.6266692,47.0026677 4.12,46.8 C3.6133308,46.5973323 3.10400256,46.3786678 2.592,46.144 C2.07999744,45.9093322 1.64533512,45.5573357 1.288,45.088 C0.93066488,44.6186643 0.752,44.0320035 0.752,43.328 C0.752,42.7626638 0.86133224,42.2720021 1.08,41.856 C1.29866776,41.4399979 1.5946648,41.1200011 1.968,40.896 C2.3413352,40.6719989 2.73333128,40.5093338 3.144,40.408 C3.55466872,40.3066662 3.98933104,40.256 4.448,40.256 C4.73600144,40.256 5.03733176,40.2746665 5.352,40.312 C5.66666824,40.3493335 5.97866512,40.4106662 6.288,40.496 C6.59733488,40.5813338 6.85333232,40.7039992 7.056,40.864 C7.25866768,41.0240008 7.36,41.2053323 7.36,41.408 C7.36,41.6106677 7.29600064,41.8133323 7.168,42.016 C7.03999936,42.2186677 6.8693344,42.32 6.656,42.32 C6.5493328,42.32 6.40533424,42.2693338 6.224,42.168 C6.04266576,42.0666662 5.80000152,41.9653338 5.496,41.864 C5.19199848,41.7626662 4.84266864,41.712 4.448,41.712 C3.83999696,41.712 3.35466848,41.8319988 2.992,42.072 C2.62933152,42.3120012 2.448,42.6773309 2.448,43.168 C2.448,43.4880016 2.54399904,43.7626655 2.736,43.992 C2.92800096,44.2213345 3.17599848,44.4106659 3.48,44.56 C3.78400152,44.7093341 4.1226648,44.8559993 4.496,45 C4.8693352,45.1440007 5.23999816,45.311999 5.608,45.504 C5.97600184,45.696001 6.31199848,45.9173321 6.616,46.168 C6.92000152,46.4186679 7.16799904,46.7626645 7.36,47.2 C7.55200096,47.6373355 7.648,48.1439971 7.648,48.72 C7.648,49.8293389 7.31467,50.6746638 6.648,51.256 C5.98133,51.8373362 5.09867216,52.128 4,52.128 C3.01866176,52.128 2.18400344,51.9226687 1.496,51.512 C0.80799656,51.1013313 0.464,50.6773355 0.464,50.24 L0.464,50.24 Z M14.6382223,41.072 C14.6382223,40.8693323 14.6862218,40.6906674 14.7822223,40.536 C14.8782228,40.3813326 15.0168881,40.304 15.1982223,40.304 L21.8382223,40.304 C22.0195566,40.304 22.1582218,40.3786659 22.2542223,40.528 C22.3502228,40.6773341 22.3982223,40.8533323 22.3982223,41.056 C22.3982223,41.2800011 22.3475562,41.4693326 22.2462223,41.624 C22.1448885,41.7786674 22.0088898,41.856 21.8382223,41.856 L19.3742223,41.856 L19.3742223,51.44 C19.3742223,51.6106675 19.2888898,51.7466662 19.1182223,51.848 C18.9475548,51.9493338 18.7502234,52 18.5262223,52 C18.2915545,52 18.0915565,51.9493338 17.9262223,51.848 C17.7608882,51.7466662 17.6782223,51.6106675 17.6782223,51.44 L17.6782223,41.856 L15.1982223,41.856 C15.0275548,41.856 14.8915562,41.7786674 14.7902223,41.624 C14.6888885,41.4693326 14.6382223,41.2853344 14.6382223,41.072 L14.6382223,41.072 Z M29.9004447,51.44 L29.9004447,40.848 C29.9004447,40.6986659 29.9537775,40.5706672 30.0604447,40.464 C30.1671119,40.3573328 30.3004439,40.304 30.4604447,40.304 L33.5004447,40.304 C35.9537903,40.304 37.1804447,41.3919891 37.1804447,43.568 C37.1804447,44.4746712 36.97778,45.1866641 36.5724447,45.704 C36.1671093,46.2213359 35.6177815,46.5653325 34.9244447,46.736 L37.1644447,50.944 C37.2071115,51.018667 37.2284447,51.0986662 37.2284447,51.184 C37.2284447,51.3973344 37.1191124,51.5946658 36.9004447,51.776 C36.6817769,51.9573342 36.4497792,52.048 36.2044447,52.048 C35.9271099,52.048 35.7031122,51.8826683 35.5324447,51.552 L33.1964447,46.976 L31.5804447,46.976 L31.5804447,51.44 C31.5804447,51.6106675 31.4977788,51.7466662 31.3324447,51.848 C31.1671105,51.9493338 30.9671125,52 30.7324447,52 C30.5084435,52 30.3137788,51.9493338 30.1484447,51.848 C29.9831105,51.7466662 29.9004447,51.6106675 29.9004447,51.44 L29.9004447,51.44 Z M31.5804447,45.616 L33.5004447,45.616 C34.8231179,45.616 35.4844447,44.9813397 35.4844447,43.712 C35.4844447,42.4426603 34.8231179,41.808 33.5004447,41.808 L31.5804447,41.808 L31.5804447,45.616 Z M45.066667,51.44 L45.066667,40.864 C45.066667,40.6933325 45.1413329,40.5573338 45.290667,40.456 C45.4400011,40.3546662 45.6159993,40.304 45.818667,40.304 L51.514667,40.304 C51.6960012,40.304 51.8346665,40.3786659 51.930667,40.528 C52.0266675,40.6773341 52.074667,40.847999 52.074667,41.04 C52.074667,41.2533344 52.0240008,41.4346659 51.922667,41.584 C51.8213331,41.7333341 51.6853345,41.808 51.514667,41.808 L46.762667,41.808 L46.762667,45.472 L49.226667,45.472 C49.3973345,45.472 49.5333331,45.538666 49.634667,45.672 C49.7360008,45.805334 49.786667,45.967999 49.786667,46.16 C49.786667,46.3306675 49.7386675,46.482666 49.642667,46.616 C49.5466665,46.749334 49.4080012,46.816 49.226667,46.816 L46.762667,46.816 L46.762667,50.496 L51.514667,50.496 C51.6853345,50.496 51.8213331,50.5706659 51.922667,50.72 C52.0240008,50.8693341 52.074667,51.0506656 52.074667,51.264 C52.074667,51.456001 52.0266675,51.6266659 51.930667,51.776 C51.8346665,51.9253341 51.6960012,52 51.514667,52 L45.818667,52 C45.6159993,52 45.4400011,51.9493338 45.290667,51.848 C45.1413329,51.7466662 45.066667,51.6106675 45.066667,51.44 L45.066667,51.44 Z M58.8248893,41.072 C58.8248893,40.8693323 58.8728888,40.6906674 58.9688893,40.536 C59.0648898,40.3813326 59.2035551,40.304 59.3848893,40.304 L66.0248893,40.304 C66.2062236,40.304 66.3448888,40.3786659 66.4408893,40.528 C66.5368898,40.6773341 66.5848893,40.8533323 66.5848893,41.056 C66.5848893,41.2800011 66.5342232,41.4693326 66.4328893,41.624 C66.3315555,41.7786674 66.1955568,41.856 66.0248893,41.856 L63.5608893,41.856 L63.5608893,51.44 C63.5608893,51.6106675 63.4755568,51.7466662 63.3048893,51.848 C63.1342218,51.9493338 62.9368904,52 62.7128893,52 C62.4782215,52 62.2782235,51.9493338 62.1128893,51.848 C61.9475552,51.7466662 61.8648893,51.6106675 61.8648893,51.44 L61.8648893,41.856 L59.3848893,41.856 C59.2142218,41.856 59.0782232,41.7786674 58.9768893,41.624 C58.8755555,41.4693326 58.8248893,41.2853344 58.8248893,41.072 L58.8248893,41.072 Z M73.7671116,48.528 L73.7671116,43.872 C73.7671116,42.6453272 74.0951084,41.7440029 74.7511116,41.168 C75.4071149,40.5919971 76.2631064,40.304 77.3191116,40.304 C78.4071171,40.304 79.2844416,40.5733306 79.9511116,41.112 C80.6177816,41.6506694 80.9511116,42.3466624 80.9511116,43.2 C80.9511116,43.541335 80.8871123,43.7733327 80.7591116,43.896 C80.631111,44.0186673 80.4124465,44.08 80.1031116,44.08 C79.5484422,44.08 79.2657784,43.8933352 79.2551116,43.52 C79.1911113,42.378661 78.5671176,41.808 77.3831116,41.808 C76.1031052,41.808 75.4631116,42.4959931 75.4631116,43.872 L75.4631116,48.528 C75.4631116,49.9040069 76.1137718,50.592 77.4151116,50.592 C77.7991136,50.592 78.1191104,50.5360006 78.3751116,50.424 C78.6311129,50.3119994 78.8151111,50.1493344 78.9271116,49.936 C79.0391122,49.7226656 79.1164448,49.5360008 79.1591116,49.376 C79.2017785,49.2159992 79.2337782,49.0186678 79.2551116,48.784 C79.2871118,48.4106648 79.5644424,48.224 80.0871116,48.224 C80.3964465,48.224 80.6177776,48.2853327 80.7511116,48.408 C80.8844456,48.5306673 80.9511116,48.762665 80.9511116,49.104 C80.9511116,49.9893378 80.615115,50.7093306 79.9431116,51.264 C79.2711083,51.8186694 78.3911171,52.096 77.3031116,52.096 C76.2471064,52.096 75.3937816,51.8080029 74.7431116,51.232 C74.0924417,50.6559971 73.7671116,49.7546728 73.7671116,48.528 L73.7671116,48.528 Z M88.757334,51.44 L88.757334,40.848 C88.757334,40.6666658 88.8399998,40.5306671 89.005334,40.44 C89.1706681,40.3493329 89.3706661,40.304 89.605334,40.304 C89.8400018,40.304 90.0399998,40.3493329 90.205334,40.44 C90.3706681,40.5306671 90.453334,40.6666658 90.453334,40.848 L90.453334,45.264 L94.437334,45.264 L94.437334,40.848 C94.437334,40.6666658 94.5199998,40.5306671 94.685334,40.44 C94.8506681,40.3493329 95.0506661,40.304 95.285334,40.304 C95.5200018,40.304 95.7199998,40.3493329 95.885334,40.44 C96.0506681,40.5306671 96.133334,40.6666658 96.133334,40.848 L96.133334,51.44 C96.133334,51.6106675 96.0506681,51.7466662 95.885334,51.848 C95.7199998,51.9493338 95.5200018,52 95.285334,52 C95.0613328,52 94.8640015,51.9493338 94.693334,51.848 C94.5226664,51.7466662 94.437334,51.6106675 94.437334,51.44 L94.437334,46.608 L90.453334,46.608 L90.453334,51.44 C90.453334,51.6106675 90.3706681,51.7466662 90.205334,51.848 C90.0399998,51.9493338 89.8400018,52 89.605334,52 C89.3813328,52 89.1840015,51.9493338 89.013334,51.848 C88.8426664,51.7466662 88.757334,51.6106675 88.757334,51.44 L88.757334,51.44 Z M104.467556,51.44 L104.467556,40.848 C104.467556,40.6666658 104.550222,40.5306671 104.715556,40.44 C104.88089,40.3493329 105.080888,40.304 105.315556,40.304 C105.550224,40.304 105.750222,40.3493329 105.915556,40.44 C106.08089,40.5306671 106.163556,40.6666658 106.163556,40.848 L106.163556,51.44 C106.163556,51.6106675 106.08089,51.7466662 105.915556,51.848 C105.750222,51.9493338 105.550224,52 105.315556,52 C105.091555,52 104.894224,51.9493338 104.723556,51.848 C104.552889,51.7466662 104.467556,51.6106675 104.467556,51.44 L104.467556,51.44 Z M114.497779,51.44 L114.497779,40.864 C114.497779,40.4906648 114.780442,40.304 115.345779,40.304 C115.644447,40.304 115.884444,40.370666 116.065779,40.504 C116.247113,40.637334 116.433778,40.8906648 116.625779,41.264 L120.177779,48.192 L120.177779,40.848 C120.177779,40.6666658 120.260444,40.5306671 120.425779,40.44 C120.591113,40.3493329 120.791111,40.304 121.025779,40.304 C121.260446,40.304 121.460444,40.3493329 121.625779,40.44 C121.791113,40.5306671 121.873779,40.6666658 121.873779,40.848 L121.873779,51.44 C121.873779,51.6106675 121.791113,51.7466662 121.625779,51.848 C121.460444,51.9493338 121.260446,52 121.025779,52 C120.577776,52 120.24178,51.7920021 120.017779,51.376 L116.193779,44.096 L116.193779,51.44 C116.193779,51.6106675 116.111113,51.7466662 115.945779,51.848 C115.780444,51.9493338 115.580446,52 115.345779,52 C115.121778,52 114.924446,51.9493338 114.753779,51.848 C114.583111,51.7466662 114.497779,51.6106675 114.497779,51.44 L114.497779,51.44 Z M130.096001,48.528 L130.096001,43.872 C130.096001,42.6453272 130.421331,41.7440029 131.072001,41.168 C131.722671,40.5919971 132.575996,40.304 133.632001,40.304 C134.70934,40.304 135.586664,40.5733306 136.264001,41.112 C136.941338,41.6506694 137.280001,42.3679955 137.280001,43.264 C137.280001,43.5733349 137.213335,43.7866661 137.080001,43.904 C136.946667,44.0213339 136.730669,44.08 136.432001,44.08 C135.877332,44.08 135.594668,43.8933352 135.584001,43.52 C135.466667,42.378661 134.832007,41.808 133.680001,41.808 C132.421328,41.808 131.792001,42.4959931 131.792001,43.872 L131.792001,48.528 C131.792001,49.9040069 132.421328,50.592 133.680001,50.592 C134.288004,50.592 134.757333,50.421335 135.088001,50.08 C135.418669,49.738665 135.584001,49.2213368 135.584001,48.528 L135.584001,47.216 L133.968001,47.216 C133.797333,47.216 133.664001,47.149334 133.568001,47.016 C133.472,46.882666 133.424001,46.720001 133.424001,46.528 C133.424001,46.3573325 133.472,46.2026674 133.568001,46.064 C133.664001,45.9253326 133.797333,45.856 133.968001,45.856 L136.720001,45.856 C136.890668,45.856 137.026667,45.9119994 137.128001,46.024 C137.229335,46.1360006 137.280001,46.2719992 137.280001,46.432 L137.280001,48.528 C137.280001,49.7546728 136.952004,50.6559971 136.296001,51.232 C135.639998,51.8080029 134.768006,52.096 133.680001,52.096 C132.591996,52.096 131.722671,51.8080029 131.072001,51.232 C130.421331,50.6559971 130.096001,49.7546728 130.096001,48.528 L130.096001,48.528 Z M153.916446,41.072 C153.916446,40.8693323 153.964445,40.6906674 154.060446,40.536 C154.156446,40.3813326 154.295111,40.304 154.476446,40.304 L161.116446,40.304 C161.29778,40.304 161.436445,40.3786659 161.532446,40.528 C161.628446,40.6773341 161.676446,40.8533323 161.676446,41.056 C161.676446,41.2800011 161.625779,41.4693326 161.524446,41.624 C161.423112,41.7786674 161.287113,41.856 161.116446,41.856 L158.652446,41.856 L158.652446,51.44 C158.652446,51.6106675 158.567113,51.7466662 158.396446,51.848 C158.225778,51.9493338 158.028447,52 157.804446,52 C157.569778,52 157.36978,51.9493338 157.204446,51.848 C157.039111,51.7466662 156.956446,51.6106675 156.956446,51.44 L156.956446,41.856 L154.476446,41.856 C154.305778,41.856 154.169779,41.7786674 154.068446,41.624 C153.967112,41.4693326 153.916446,41.2853344 153.916446,41.072 L153.916446,41.072 Z M168.858668,48.528 L168.858668,43.872 C168.858668,42.6453272 169.183998,41.7440029 169.834668,41.168 C170.485338,40.5919971 171.354662,40.304 172.442668,40.304 C173.530673,40.304 174.402665,40.5919971 175.058668,41.168 C175.714671,41.7440029 176.042668,42.6453272 176.042668,43.872 L176.042668,48.528 C176.042668,49.7546728 175.714671,50.6559971 175.058668,51.232 C174.402665,51.8080029 173.530673,52.096 172.442668,52.096 C171.354662,52.096 170.485338,51.8080029 169.834668,51.232 C169.183998,50.6559971 168.858668,49.7546728 168.858668,48.528 L168.858668,48.528 Z M170.554668,48.528 C170.554668,49.9040069 171.183995,50.592 172.442668,50.592 C173.050671,50.592 173.52,50.421335 173.850668,50.08 C174.181336,49.738665 174.346668,49.2213368 174.346668,48.528 L174.346668,43.872 C174.346668,43.1786632 174.181336,42.661335 173.850668,42.32 C173.52,41.978665 173.050671,41.808 172.442668,41.808 C171.183995,41.808 170.554668,42.4959931 170.554668,43.872 L170.554668,48.528 Z M193.079113,50.24 C193.079113,50.0373323 193.153779,49.8346677 193.303113,49.632 C193.452447,49.4293323 193.623112,49.328 193.815113,49.328 C193.932447,49.328 194.073778,49.394666 194.239113,49.528 C194.404447,49.661334 194.567112,49.8053326 194.727113,49.96 C194.887113,50.1146674 195.129778,50.258666 195.455113,50.392 C195.780448,50.525334 196.145777,50.592 196.551113,50.592 C197.159116,50.592 197.647111,50.4480014 198.015113,50.16 C198.383114,49.8719986 198.567113,49.4506694 198.567113,48.896 C198.567113,48.3839974 198.388448,47.957335 198.031113,47.616 C197.673777,47.274665 197.241782,47.0026677 196.735113,46.8 C196.228443,46.5973323 195.719115,46.3786678 195.207113,46.144 C194.69511,45.9093322 194.260448,45.5573357 193.903113,45.088 C193.545777,44.6186643 193.367113,44.0320035 193.367113,43.328 C193.367113,42.7626638 193.476445,42.2720021 193.695113,41.856 C193.91378,41.4399979 194.209777,41.1200011 194.583113,40.896 C194.956448,40.6719989 195.348444,40.5093338 195.759113,40.408 C196.169781,40.3066662 196.604444,40.256 197.063113,40.256 C197.351114,40.256 197.652444,40.2746665 197.967113,40.312 C198.281781,40.3493335 198.593778,40.4106662 198.903113,40.496 C199.212447,40.5813338 199.468445,40.7039992 199.671113,40.864 C199.87378,41.0240008 199.975113,41.2053323 199.975113,41.408 C199.975113,41.6106677 199.911113,41.8133323 199.783113,42.016 C199.655112,42.2186677 199.484447,42.32 199.271113,42.32 C199.164445,42.32 199.020447,42.2693338 198.839113,42.168 C198.657778,42.0666662 198.415114,41.9653338 198.111113,41.864 C197.807111,41.7626662 197.457781,41.712 197.063113,41.712 C196.45511,41.712 195.969781,41.8319988 195.607113,42.072 C195.244444,42.3120012 195.063113,42.6773309 195.063113,43.168 C195.063113,43.4880016 195.159112,43.7626655 195.351113,43.992 C195.543114,44.2213345 195.791111,44.4106659 196.095113,44.56 C196.399114,44.7093341 196.737777,44.8559993 197.111113,45 C197.484448,45.1440007 197.855111,45.311999 198.223113,45.504 C198.591114,45.696001 198.927111,45.9173321 199.231113,46.168 C199.535114,46.4186679 199.783112,46.7626645 199.975113,47.2 C200.167114,47.6373355 200.263113,48.1439971 200.263113,48.72 C200.263113,49.8293389 199.929783,50.6746638 199.263113,51.256 C198.596443,51.8373362 197.713785,52.128 196.615113,52.128 C195.633774,52.128 194.799116,51.9226687 194.111113,51.512 C193.423109,51.1013313 193.079113,50.6773355 193.079113,50.24 L193.079113,50.24 Z M208.085335,51.44 L208.085335,40.864 C208.085335,40.6933325 208.160001,40.5573338 208.309335,40.456 C208.458669,40.3546662 208.634667,40.304 208.837335,40.304 L214.533335,40.304 C214.714669,40.304 214.853334,40.3786659 214.949335,40.528 C215.045335,40.6773341 215.093335,40.847999 215.093335,41.04 C215.093335,41.2533344 215.042669,41.4346659 214.941335,41.584 C214.840001,41.7333341 214.704002,41.808 214.533335,41.808 L209.781335,41.808 L209.781335,45.472 L212.245335,45.472 C212.416002,45.472 212.552001,45.538666 212.653335,45.672 C212.754669,45.805334 212.805335,45.967999 212.805335,46.16 C212.805335,46.3306675 212.757335,46.482666 212.661335,46.616 C212.565334,46.749334 212.426669,46.816 212.245335,46.816 L209.781335,46.816 L209.781335,50.496 L214.533335,50.496 C214.704002,50.496 214.840001,50.5706659 214.941335,50.72 C215.042669,50.8693341 215.093335,51.0506656 215.093335,51.264 C215.093335,51.456001 215.045335,51.6266659 214.949335,51.776 C214.853334,51.9253341 214.714669,52 214.533335,52 L208.837335,52 C208.634667,52 208.458669,51.9493338 208.309335,51.848 C208.160001,51.7466662 208.085335,51.6106675 208.085335,51.44 L208.085335,51.44 Z M222.675557,51.44 L222.675557,40.848 C222.675557,40.6666658 222.758223,40.5306671 222.923557,40.44 C223.088891,40.3493329 223.288889,40.304 223.523557,40.304 C223.758225,40.304 223.958223,40.3493329 224.123557,40.44 C224.288891,40.5306671 224.371557,40.6666658 224.371557,40.848 L224.371557,50.496 L228.531557,50.496 C228.691558,50.496 228.81689,50.5706659 228.907557,50.72 C228.998224,50.8693341 229.043557,51.0453323 229.043557,51.248 C229.043557,51.4506677 228.998224,51.6266659 228.907557,51.776 C228.81689,51.9253341 228.691558,52 228.531557,52 L223.427557,52 C223.22489,52 223.048891,51.9493338 222.899557,51.848 C222.750223,51.7466662 222.675557,51.6106675 222.675557,51.44 L222.675557,51.44 Z M236.52978,51.44 L236.52978,40.848 C236.52978,40.6666658 236.612445,40.5306671 236.77778,40.44 C236.943114,40.3493329 237.143112,40.304 237.37778,40.304 C237.612447,40.304 237.812445,40.3493329 237.97778,40.44 C238.143114,40.5306671 238.22578,40.6666658 238.22578,40.848 L238.22578,50.496 L242.38578,50.496 C242.54578,50.496 242.671112,50.5706659 242.76178,50.72 C242.852447,50.8693341 242.89778,51.0453323 242.89778,51.248 C242.89778,51.4506677 242.852447,51.6266659 242.76178,51.776 C242.671112,51.9253341 242.54578,52 242.38578,52 L237.28178,52 C237.079112,52 236.903114,51.9493338 236.75378,51.848 C236.604445,51.7466662 236.52978,51.6106675 236.52978,51.44 L236.52978,51.44 Z" id="STRETCHING-TO-SELL" fill="#005772" sketch:type="MSShapeGroup"></path>
    </g>
</svg>