<?xml version="1.0" encoding="UTF-8" standalone="no"?>
<svg width="357px" height="152px" viewBox="0 0 357 152" version="1.1" xmlns="http://www.w3.org/2000/svg" xmlns:xlink="http://www.w3.org/1999/xlink" xmlns:sketch="http://www.bohemiancoding.com/sketch/ns">
    <!-- Generator: Sketch 3.5.1 (25234) - http://www.bohemiancoding.com/sketch -->
    <title>Group</title>
    <desc>Created with Sketch.</desc>
    <defs></defs>
    <g id="Page-1" stroke="none" stroke-width="1" fill="none" fill-rule="evenodd" sketch:type="MSPage">
        <path d="M165.5,71.32 C165.406666,72.453339 165.296667,73.6099941 165.17,74.79 C165.043333,75.9700059 164.873334,77.0799948 164.66,78.12 C164.606666,78.3733346 164.533334,78.5533328 164.44,78.66 C164.346666,78.7666672 164.213334,78.8399998 164.04,78.88 C163.893333,78.9066668 163.690001,78.8600006 163.43,78.74 C163.169999,78.6199994 162.953334,78.4466678 162.78,78.22 C162.553332,77.9133318 162.310001,77.5766685 162.05,77.21 C161.789999,76.8433315 161.510001,76.4700019 161.21,76.09 C160.909998,75.7099981 160.596668,75.3333352 160.27,74.96 C159.943332,74.5866648 159.600002,74.2400016 159.24,73.92 C159.2,74.8000044 159.166667,75.6699957 159.14,76.53 C159.113333,77.3900043 159.113333,78.253329 159.14,79.12 C159.14,79.2400006 159.033334,79.3 158.82,79.3 C158.566665,79.3 158.360001,79.1700013 158.2,78.91 C158.039999,78.6499987 157.946667,78.386668 157.92,78.12 C157.88,77.853332 157.86,77.4700025 157.86,76.97 C157.86,76.4699975 157.87,75.9466694 157.89,75.4 C157.91,74.8533306 157.933333,74.3266692 157.96,73.82 C157.986667,73.3133308 158.013333,72.9133348 158.04,72.62 C158.066667,72.2999984 158.143333,72.0666674 158.27,71.92 C158.396667,71.7733326 158.519999,71.7066666 158.64,71.72 C158.906668,71.7466668 159.083333,71.8233327 159.17,71.95 C159.256667,72.0766673 159.306667,72.2333324 159.32,72.42 C159.800002,72.7666684 160.243331,73.139998 160.65,73.54 C161.056669,73.940002 161.429998,74.3466646 161.77,74.76 C162.110002,75.1733354 162.423332,75.5833313 162.71,75.99 C162.996668,76.3966687 163.266665,76.766665 163.52,77.1 C163.680001,76.299996 163.809999,75.4066716 163.91,74.42 C164.01,73.4333284 164.113333,72.4000054 164.22,71.32 C164.206667,71.186666 164.286666,71.0566673 164.46,70.93 C164.633334,70.8033327 164.793333,70.7466666 164.94,70.76 C165.313335,70.7866668 165.5,70.9733316 165.5,71.32 L165.5,71.32 Z M171.64,72.52 C172.040002,72.6666674 172.376665,72.8866652 172.65,73.18 C172.923335,73.4733348 173.133333,73.8033315 173.28,74.17 C173.426667,74.5366685 173.51,74.9133314 173.53,75.3 C173.55,75.6866686 173.506667,76.046665 173.4,76.38 C173.253333,76.7533352 173.066668,77.1199982 172.84,77.48 C172.613332,77.8400018 172.353335,78.1599986 172.06,78.44 C171.766665,78.7200014 171.433335,78.9466658 171.06,79.12 C170.686665,79.2933342 170.273336,79.38 169.82,79.38 C169.273331,79.38 168.813335,79.2533346 168.44,79 C168.066665,78.7466654 167.773334,78.420002 167.56,78.02 C167.346666,77.619998 167.21,77.1666692 167.15,76.66 C167.09,76.1533308 167.1,75.6466692 167.18,75.14 C167.233334,74.7666648 167.323333,74.4033351 167.45,74.05 C167.576667,73.6966649 167.739999,73.3833347 167.94,73.11 C168.140001,72.8366653 168.369999,72.6133342 168.63,72.44 C168.890001,72.2666658 169.186665,72.18 169.52,72.18 C169.706668,72.18 169.939999,72.2166663 170.22,72.29 C170.500001,72.3633337 170.759999,72.466666 171,72.6 C171.173334,72.4399992 171.386665,72.4133328 171.64,72.52 L171.64,72.52 Z M170.88,73.98 C170.733333,73.8866662 170.563334,73.7633341 170.37,73.61 C170.176666,73.4566659 170.006667,73.38 169.86,73.38 C169.699999,73.38 169.543334,73.4533326 169.39,73.6 C169.236666,73.7466674 169.103334,73.9166657 168.99,74.11 C168.876666,74.3033343 168.78,74.499999 168.7,74.7 C168.62,74.900001 168.566667,75.0599994 168.54,75.18 C168.5,75.380001 168.473333,75.6199986 168.46,75.9 C168.446667,76.1800014 168.466666,76.4566653 168.52,76.73 C168.573334,77.0033347 168.676666,77.2499989 168.83,77.47 C168.983334,77.6900011 169.213332,77.8466662 169.52,77.94 C169.706668,77.9933336 169.926665,77.9900003 170.18,77.93 C170.433335,77.8699997 170.683332,77.7600008 170.93,77.6 C171.176668,77.4399992 171.409999,77.226668 171.63,76.96 C171.850001,76.693332 172.019999,76.3866684 172.14,76.04 C172.273334,75.6533314 172.276667,75.2500021 172.15,74.83 C172.023333,74.4099979 171.766669,74.1066676 171.38,73.92 C171.286666,73.986667 171.193334,74.02 171.1,74.02 C171.006666,74.02 170.933334,74.0066668 170.88,73.98 L170.88,73.98 Z M179.66,74.14 C179.913335,74.1266666 180.166665,74.186666 180.42,74.32 C180.673335,74.453334 180.8,74.6599986 180.8,74.94 C180.773333,75.1666678 180.650001,75.3099997 180.43,75.37 C180.209999,75.4300003 180.033334,75.46 179.9,75.46 C179.633332,75.46 179.346668,75.4666666 179.04,75.48 C178.733332,75.4933334 178.420002,75.5133332 178.1,75.54 C178.073333,75.9800022 178.05,76.3933314 178.03,76.78 C178.01,77.1666686 177.993333,77.5099985 177.98,77.81 C177.966667,78.1100015 177.96,78.3533324 177.96,78.54 C177.96,78.7266676 177.966667,78.8266666 177.98,78.84 C178.273335,78.7866664 178.589998,78.6966673 178.93,78.57 C179.270002,78.4433327 179.609998,78.3033341 179.95,78.15 C180.290002,77.9966659 180.623332,77.8366675 180.95,77.67 C181.276668,77.5033325 181.586665,77.3466674 181.88,77.2 C182.013334,77.133333 182.136666,77.1133332 182.25,77.14 C182.363334,77.1666668 182.433333,77.2266662 182.46,77.32 C182.486667,77.4666674 182.466667,77.6466656 182.4,77.86 C182.333333,78.0733344 182.213334,78.2666658 182.04,78.44 C181.839999,78.6000008 181.576668,78.7833323 181.25,78.99 C180.923332,79.1966677 180.573335,79.3933324 180.2,79.58 C179.826665,79.7666676 179.450002,79.9299993 179.07,80.07 C178.689998,80.2100007 178.353335,80.2933332 178.06,80.32 C177.619998,80.3600002 177.286668,80.2400014 177.06,79.96 C176.833332,79.6799986 176.706667,79.3266688 176.68,78.9 C176.653333,78.4733312 176.65,77.9800028 176.67,77.42 C176.69,76.8599972 176.713333,76.2666698 176.74,75.64 C176.486665,75.6666668 176.243334,75.6899999 176.01,75.71 C175.776666,75.7300001 175.553334,75.7533332 175.34,75.78 C175.166666,75.78 174.976668,75.7400004 174.77,75.66 C174.563332,75.5799996 174.46,75.4266678 174.46,75.2 C174.46,75.1199996 174.493333,75.013334 174.56,74.88 C174.626667,74.746666 174.773332,74.646667 175,74.58 C175.546669,74.4866662 176.15333,74.406667 176.82,74.34 C176.86,73.7133302 176.906666,73.1066696 176.96,72.52 C177.013334,71.9333304 177.06,71.4000024 177.1,70.92 C177.113333,70.7599992 177.16,70.6200006 177.24,70.5 C177.32,70.3799994 177.406666,70.32 177.5,70.32 C177.726668,70.3066666 177.943332,70.3633327 178.15,70.49 C178.356668,70.6166673 178.46,70.7599992 178.46,70.92 C178.406666,71.3733356 178.356667,71.8866638 178.31,72.46 C178.263333,73.0333362 178.22,73.619997 178.18,74.22 C178.446668,74.1933332 178.703332,74.1766667 178.95,74.17 C179.196668,74.1633333 179.433332,74.1533334 179.66,74.14 L179.66,74.14 Z M188.12,74.8 C187.599997,75.1066682 187.040003,75.3433325 186.44,75.51 C185.839997,75.6766675 185.193337,75.76 184.5,75.76 C184.526667,76.226669 184.659999,76.5966653 184.9,76.87 C185.140001,77.1433347 185.439998,77.3066664 185.8,77.36 C186.013334,77.3866668 186.229999,77.3800002 186.45,77.34 C186.670001,77.2999998 186.876666,77.2366671 187.07,77.15 C187.263334,77.0633329 187.439999,76.9666672 187.6,76.86 C187.760001,76.7533328 187.899999,76.6466672 188.02,76.54 C188.140001,76.4333328 188.266666,76.3633335 188.4,76.33 C188.533334,76.2966665 188.633333,76.2933332 188.7,76.32 C188.886668,76.386667 188.953334,76.586665 188.9,76.92 C188.686666,77.3466688 188.380002,77.7099985 187.98,78.01 C187.579998,78.3100015 187.133336,78.4999996 186.64,78.58 C186.213331,78.6600004 185.773336,78.6400006 185.32,78.52 C184.866664,78.3999994 184.460002,78.1666684 184.1,77.82 C183.793332,77.5133318 183.560001,77.1533354 183.4,76.74 C183.239999,76.3266646 183.14,75.9000022 183.1,75.46 C183.06,75.0466646 183.096666,74.6533352 183.21,74.28 C183.323334,73.9066648 183.499999,73.5766681 183.74,73.29 C183.980001,73.0033319 184.279998,72.7666676 184.64,72.58 C185.000002,72.3933324 185.419998,72.2866668 185.9,72.26 C186.473336,72.2199998 186.993331,72.3266654 187.46,72.58 C187.926669,72.8333346 188.253332,73.1866644 188.44,73.64 C188.546667,73.8933346 188.576667,74.1133324 188.53,74.3 C188.483333,74.4866676 188.346668,74.6533326 188.12,74.8 L188.12,74.8 Z M185.82,73.44 C185.686666,73.4666668 185.543334,73.513333 185.39,73.58 C185.236666,73.646667 185.096667,73.7299995 184.97,73.83 C184.843333,73.9300005 184.730001,74.0433327 184.63,74.17 C184.53,74.2966673 184.473333,74.4399992 184.46,74.6 C184.686668,74.6 184.936665,74.5800002 185.21,74.54 C185.483335,74.4999998 185.749999,74.4500003 186.01,74.39 C186.270001,74.3299997 186.509999,74.2600004 186.73,74.18 C186.950001,74.0999996 187.133333,74.0133338 187.28,73.92 C187.173333,73.6666654 186.976668,73.5100003 186.69,73.45 C186.403332,73.3899997 186.113335,73.3866664 185.82,73.44 L185.82,73.44 Z M194.04,73.52 C194.013333,73.3733326 193.986667,73.233334 193.96,73.1 C193.933333,72.966666 193.866667,72.8800002 193.76,72.84 C193.533332,72.773333 193.293335,72.7666664 193.04,72.82 C192.786665,72.8733336 192.553334,72.9566661 192.34,73.07 C192.126666,73.1833339 191.946667,73.3099993 191.8,73.45 C191.653333,73.5900007 191.573333,73.7133328 191.56,73.82 C191.52,74.020001 191.573333,74.2133324 191.72,74.4 C191.866667,74.5866676 192.079999,74.7733324 192.36,74.96 C192.826669,75.2400014 193.313331,75.5266652 193.82,75.82 C194.326669,76.1133348 194.753332,76.4133318 195.1,76.72 C195.446668,77.0266682 195.683333,77.3633315 195.81,77.73 C195.936667,78.0966685 195.906668,78.513331 195.72,78.98 C195.573333,79.3400018 195.300002,79.6333322 194.9,79.86 C194.499998,80.0866678 194.060002,80.2633327 193.58,80.39 C193.099998,80.5166673 192.620002,80.6033331 192.14,80.65 C191.659998,80.6966669 191.253335,80.72 190.92,80.72 C190.84,80.72 190.743334,80.6900003 190.63,80.63 C190.516666,80.5699997 190.410001,80.5000004 190.31,80.42 C190.209999,80.3399996 190.123334,80.2566671 190.05,80.17 C189.976666,80.0833329 189.94,80.006667 189.94,79.94 C189.94,79.6999988 190.046666,79.5333338 190.26,79.44 C190.473334,79.3466662 190.693332,79.3 190.92,79.3 C191.240002,79.3 191.583331,79.2833335 191.95,79.25 C192.316669,79.2166665 192.666665,79.1633337 193,79.09 C193.333335,79.0166663 193.633332,78.9200006 193.9,78.8 C194.166668,78.6799994 194.353333,78.5266676 194.46,78.34 C194.553334,78.1799992 194.496668,77.9900011 194.29,77.77 C194.083332,77.5499989 193.810002,77.3200012 193.47,77.08 C193.129998,76.8399988 192.763335,76.6066678 192.37,76.38 C191.976665,76.1533322 191.640001,75.9466676 191.36,75.76 C191.079999,75.5733324 190.840001,75.3500013 190.64,75.09 C190.439999,74.8299987 190.313334,74.5066686 190.26,74.12 C190.246667,73.7733316 190.319999,73.4400016 190.48,73.12 C190.640001,72.7999984 190.849999,72.5166679 191.11,72.27 C191.370001,72.0233321 191.666665,71.8266674 192,71.68 C192.333335,71.5333326 192.666665,71.46 193,71.46 C193.573336,71.4866668 194.046665,71.6433319 194.42,71.93 C194.793335,72.2166681 195.013333,72.6399972 195.08,73.2 C195.08,73.3866676 195.05,73.5399994 194.99,73.66 C194.93,73.7800006 194.826667,73.8533332 194.68,73.88 C194.493332,73.9066668 194.343334,73.8833337 194.23,73.81 C194.116666,73.7366663 194.053333,73.6400006 194.04,73.52 L194.04,73.52 Z M207.28,72.52 C207.680002,72.6666674 208.016665,72.8866652 208.29,73.18 C208.563335,73.4733348 208.773333,73.8033315 208.92,74.17 C209.066667,74.5366685 209.15,74.9133314 209.17,75.3 C209.19,75.6866686 209.146667,76.046665 209.04,76.38 C208.893333,76.7533352 208.706668,77.1199982 208.48,77.48 C208.253332,77.8400018 207.993335,78.1599986 207.7,78.44 C207.406665,78.7200014 207.073335,78.9466658 206.7,79.12 C206.326665,79.2933342 205.913336,79.38 205.46,79.38 C204.913331,79.38 204.453335,79.2533346 204.08,79 C203.706665,78.7466654 203.413334,78.420002 203.2,78.02 C202.986666,77.619998 202.85,77.1666692 202.79,76.66 C202.73,76.1533308 202.74,75.6466692 202.82,75.14 C202.873334,74.7666648 202.963333,74.4033351 203.09,74.05 C203.216667,73.6966649 203.379999,73.3833347 203.58,73.11 C203.780001,72.8366653 204.009999,72.6133342 204.27,72.44 C204.530001,72.2666658 204.826665,72.18 205.16,72.18 C205.346668,72.18 205.579999,72.2166663 205.86,72.29 C206.140001,72.3633337 206.399999,72.466666 206.64,72.6 C206.813334,72.4399992 207.026665,72.4133328 207.28,72.52 L207.28,72.52 Z M206.52,73.98 C206.373333,73.8866662 206.203334,73.7633341 206.01,73.61 C205.816666,73.4566659 205.646667,73.38 205.5,73.38 C205.339999,73.38 205.183334,73.4533326 205.03,73.6 C204.876666,73.7466674 204.743334,73.9166657 204.63,74.11 C204.516666,74.3033343 204.42,74.499999 204.34,74.7 C204.26,74.900001 204.206667,75.0599994 204.18,75.18 C204.14,75.380001 204.113333,75.6199986 204.1,75.9 C204.086667,76.1800014 204.106666,76.4566653 204.16,76.73 C204.213334,77.0033347 204.316666,77.2499989 204.47,77.47 C204.623334,77.6900011 204.853332,77.8466662 205.16,77.94 C205.346668,77.9933336 205.566665,77.9900003 205.82,77.93 C206.073335,77.8699997 206.323332,77.7600008 206.57,77.6 C206.816668,77.4399992 207.049999,77.226668 207.27,76.96 C207.490001,76.693332 207.659999,76.3866684 207.78,76.04 C207.913334,75.6533314 207.916667,75.2500021 207.79,74.83 C207.663333,74.4099979 207.406669,74.1066676 207.02,73.92 C206.926666,73.986667 206.833334,74.02 206.74,74.02 C206.646666,74.02 206.573334,74.0066668 206.52,73.98 L206.52,73.98 Z M212.04,72.9 C212.08,73.100001 212.123333,73.3233321 212.17,73.57 C212.216667,73.8166679 212.266666,74.0699987 212.32,74.33 C212.373334,74.5900013 212.42,74.853332 212.46,75.12 C212.5,75.386668 212.533333,75.6399988 212.56,75.88 C212.720001,75.5333316 212.893332,75.1666686 213.08,74.78 C213.266668,74.3933314 213.469999,74.0366683 213.69,73.71 C213.910001,73.3833317 214.143332,73.1133344 214.39,72.9 C214.636668,72.6866656 214.906665,72.58 215.2,72.58 C215.640002,72.58 216.009999,72.7399984 216.31,73.06 C216.610002,73.3800016 216.863332,73.7766643 217.07,74.25 C217.276668,74.7233357 217.439999,75.2199974 217.56,75.74 C217.680001,76.2600026 217.78,76.719998 217.86,77.12 C217.94,77.4800018 217.780002,77.7466658 217.38,77.92 C217.193332,78.0133338 217.053334,78.026667 216.96,77.96 C216.866666,77.893333 216.813333,77.826667 216.8,77.76 C216.733333,77.5999992 216.65,77.320002 216.55,76.92 C216.45,76.519998 216.336667,76.1133354 216.21,75.7 C216.083333,75.2866646 215.940001,74.9266682 215.78,74.62 C215.619999,74.3133318 215.440001,74.1733332 215.24,74.2 C214.999999,74.2133334 214.786668,74.3933316 214.6,74.74 C214.439999,75.0200014 214.276667,75.3299983 214.11,75.67 C213.943332,76.0100017 213.780001,76.3566649 213.62,76.71 C213.459999,77.0633351 213.303334,77.4166649 213.15,77.77 C212.996666,78.1233351 212.853334,78.4466652 212.72,78.74 C212.626666,78.8333338 212.510001,78.8966665 212.37,78.93 C212.229999,78.9633335 212.086667,78.9533336 211.94,78.9 C211.806666,78.8599998 211.7,78.7933338 211.62,78.7 C211.54,78.6066662 211.5,78.5133338 211.5,78.42 C211.379999,77.3799948 211.256667,76.4333376 211.13,75.58 C211.003333,74.7266624 210.840001,73.8533378 210.64,72.96 C210.546666,72.6533318 210.53,72.4100009 210.59,72.23 C210.65,72.0499991 210.846665,71.9799998 211.18,72.02 C211.646669,72.1000004 211.933333,72.3933308 212.04,72.9 L212.04,72.9 Z M228.58,73.52 C228.553333,73.3733326 228.526667,73.233334 228.5,73.1 C228.473333,72.966666 228.406667,72.8800002 228.3,72.84 C228.073332,72.773333 227.833335,72.7666664 227.58,72.82 C227.326665,72.8733336 227.093334,72.9566661 226.88,73.07 C226.666666,73.1833339 226.486667,73.3099993 226.34,73.45 C226.193333,73.5900007 226.113333,73.7133328 226.1,73.82 C226.06,74.020001 226.113333,74.2133324 226.26,74.4 C226.406667,74.5866676 226.619999,74.7733324 226.9,74.96 C227.366669,75.2400014 227.853331,75.5266652 228.36,75.82 C228.866669,76.1133348 229.293332,76.4133318 229.64,76.72 C229.986668,77.0266682 230.223333,77.3633315 230.35,77.73 C230.476667,78.0966685 230.446668,78.513331 230.26,78.98 C230.113333,79.3400018 229.840002,79.6333322 229.44,79.86 C229.039998,80.0866678 228.600002,80.2633327 228.12,80.39 C227.639998,80.5166673 227.160002,80.6033331 226.68,80.65 C226.199998,80.6966669 225.793335,80.72 225.46,80.72 C225.38,80.72 225.283334,80.6900003 225.17,80.63 C225.056666,80.5699997 224.95,80.5000004 224.85,80.42 C224.749999,80.3399996 224.663334,80.2566671 224.59,80.17 C224.516666,80.0833329 224.48,80.006667 224.48,79.94 C224.48,79.6999988 224.586666,79.5333338 224.8,79.44 C225.013334,79.3466662 225.233332,79.3 225.46,79.3 C225.780002,79.3 226.123331,79.2833335 226.49,79.25 C226.856669,79.2166665 227.206665,79.1633337 227.54,79.09 C227.873335,79.0166663 228.173332,78.9200006 228.44,78.8 C228.706668,78.6799994 228.893333,78.5266676 229,78.34 C229.093334,78.1799992 229.036668,77.9900011 228.83,77.77 C228.623332,77.5499989 228.350002,77.3200012 228.01,77.08 C227.669998,76.8399988 227.303335,76.6066678 226.91,76.38 C226.516665,76.1533322 226.180001,75.9466676 225.9,75.76 C225.619999,75.5733324 225.380001,75.3500013 225.18,75.09 C224.979999,74.8299987 224.853334,74.5066686 224.8,74.12 C224.786667,73.7733316 224.859999,73.4400016 225.02,73.12 C225.180001,72.7999984 225.389999,72.5166679 225.65,72.27 C225.910001,72.0233321 226.206665,71.8266674 226.54,71.68 C226.873335,71.5333326 227.206665,71.46 227.54,71.46 C228.113336,71.4866668 228.586665,71.6433319 228.96,71.93 C229.333335,72.2166681 229.553333,72.6399972 229.62,73.2 C229.62,73.3866676 229.59,73.5399994 229.53,73.66 C229.47,73.7800006 229.366667,73.8533332 229.22,73.88 C229.033332,73.9066668 228.883334,73.8833337 228.77,73.81 C228.656666,73.7366663 228.593333,73.6400006 228.58,73.52 L228.58,73.52 Z M236.62,72.1 C236.673334,72.4733352 236.716666,72.8699979 236.75,73.29 C236.783334,73.7100021 236.81,74.1333312 236.83,74.56 C236.85,74.9866688 236.86,75.399998 236.86,75.8 C236.86,76.200002 236.853333,76.5599984 236.84,76.88 C237.266669,77.1733348 237.523333,77.4333322 237.61,77.66 C237.696667,77.8866678 237.706667,78.0866658 237.64,78.26 C237.56,78.5000012 237.416668,78.6233333 237.21,78.63 C237.003332,78.6366667 236.766668,78.5666674 236.5,78.42 C236.313332,78.553334 236.100001,78.6966659 235.86,78.85 C235.619999,79.0033341 235.366668,79.1499993 235.1,79.29 C234.833332,79.4300007 234.566668,79.5533328 234.3,79.66 C234.033332,79.7666672 233.786668,79.8399998 233.56,79.88 C233.133331,79.946667 232.750002,79.8666678 232.41,79.64 C232.069998,79.4133322 231.840001,79.0733356 231.72,78.62 C231.64,78.3133318 231.62,77.9966683 231.66,77.67 C231.7,77.3433317 231.799999,77.0300015 231.96,76.73 C232.120001,76.4299985 232.336665,76.1600012 232.61,75.92 C232.883335,75.6799988 233.206665,75.493334 233.58,75.36 C233.673334,75.3199998 233.803333,75.2866668 233.97,75.26 C234.136667,75.2333332 234.309999,75.2233333 234.49,75.23 C234.670001,75.2366667 234.853332,75.273333 235.04,75.34 C235.226668,75.406667 235.399999,75.5199992 235.56,75.68 C235.56,75.4533322 235.556667,75.2033347 235.55,74.93 C235.543333,74.6566653 235.533333,74.3800014 235.52,74.1 C235.506667,73.8199986 235.49,73.5566679 235.47,73.31 C235.45,73.0633321 235.426667,72.8533342 235.4,72.68 C235.373333,72.479999 235.296667,72.3566669 235.17,72.31 C235.043333,72.2633331 234.886668,72.273333 234.7,72.34 C234.379998,72.4466672 234.006669,72.6533318 233.58,72.96 C233.153331,73.2666682 232.746669,73.5933316 232.36,73.94 C232.239999,74.0600006 232.103334,74.1133334 231.95,74.1 C231.796666,74.0866666 231.666667,74.0266672 231.56,73.92 C231.453333,73.8133328 231.393333,73.6900007 231.38,73.55 C231.366667,73.4099993 231.419999,73.2600008 231.54,73.1 C231.766668,72.8599988 232.019999,72.6133346 232.3,72.36 C232.580001,72.1066654 232.873332,71.8766677 233.18,71.67 C233.486668,71.4633323 233.799998,71.293334 234.12,71.16 C234.440002,71.026666 234.759998,70.9533334 235.08,70.94 C235.546669,70.9266666 235.906665,71.0299989 236.16,71.25 C236.413335,71.4700011 236.566666,71.7533316 236.62,72.1 L236.62,72.1 Z M234.3,76.4 C234.126666,76.4400002 233.943334,76.5233327 233.75,76.65 C233.556666,76.7766673 233.383334,76.9299991 233.23,77.11 C233.076666,77.2900009 232.963334,77.4899989 232.89,77.71 C232.816666,77.9300011 232.813333,78.1466656 232.88,78.36 C232.906667,78.4400004 232.963333,78.4999998 233.05,78.54 C233.136667,78.5800002 233.233333,78.5866668 233.34,78.56 C233.660002,78.493333 234.023331,78.3633343 234.43,78.17 C234.836669,77.9766657 235.159999,77.7666678 235.4,77.54 C235.4,77.4599996 235.36,77.3566673 235.28,77.23 C235.2,77.1033327 235.106667,76.9766673 235,76.85 C234.893333,76.7233327 234.776667,76.6133338 234.65,76.52 C234.523333,76.4266662 234.406667,76.3866666 234.3,76.4 L234.3,76.4 Z M240.48,70.14 C240.546667,71.5933406 240.659999,73.0966589 240.82,74.65 C240.980001,76.2033411 241.153332,77.6866596 241.34,79.1 C241.38,79.6866696 241.220002,79.9866666 240.86,80 C240.78,80 240.7,79.9700003 240.62,79.91 C240.54,79.8499997 240.466667,79.7733338 240.4,79.68 C240.333333,79.5866662 240.27,79.4866672 240.21,79.38 C240.15,79.2733328 240.113333,79.1800004 240.1,79.1 C239.993333,78.4199966 239.893334,77.7000038 239.8,76.94 C239.706666,76.1799962 239.623334,75.4166705 239.55,74.65 C239.476666,73.8833295 239.413334,73.133337 239.36,72.4 C239.306666,71.666663 239.273333,70.9933364 239.26,70.38 C239.286667,70.0599984 239.333333,69.7900011 239.4,69.57 C239.466667,69.3499989 239.606666,69.2466666 239.82,69.26 C240.046668,69.2733334 240.209999,69.3633325 240.31,69.53 C240.410001,69.6966675 240.466667,69.8999988 240.48,70.14 L240.48,70.14 Z M247.82,74.8 C247.299997,75.1066682 246.740003,75.3433325 246.14,75.51 C245.539997,75.6766675 244.893337,75.76 244.2,75.76 C244.226667,76.226669 244.359999,76.5966653 244.6,76.87 C244.840001,77.1433347 245.139998,77.3066664 245.5,77.36 C245.713334,77.3866668 245.929999,77.3800002 246.15,77.34 C246.370001,77.2999998 246.576666,77.2366671 246.77,77.15 C246.963334,77.0633329 247.139999,76.9666672 247.3,76.86 C247.460001,76.7533328 247.599999,76.6466672 247.72,76.54 C247.840001,76.4333328 247.966666,76.3633335 248.1,76.33 C248.233334,76.2966665 248.333333,76.2933332 248.4,76.32 C248.586668,76.386667 248.653334,76.586665 248.6,76.92 C248.386666,77.3466688 248.080002,77.7099985 247.68,78.01 C247.279998,78.3100015 246.833336,78.4999996 246.34,78.58 C245.913331,78.6600004 245.473336,78.6400006 245.02,78.52 C244.566664,78.3999994 244.160002,78.1666684 243.8,77.82 C243.493332,77.5133318 243.260001,77.1533354 243.1,76.74 C242.939999,76.3266646 242.84,75.9000022 242.8,75.46 C242.76,75.0466646 242.796666,74.6533352 242.91,74.28 C243.023334,73.9066648 243.199999,73.5766681 243.44,73.29 C243.680001,73.0033319 243.979998,72.7666676 244.34,72.58 C244.700002,72.3933324 245.119998,72.2866668 245.6,72.26 C246.173336,72.2199998 246.693331,72.3266654 247.16,72.58 C247.626669,72.8333346 247.953332,73.1866644 248.14,73.64 C248.246667,73.8933346 248.276667,74.1133324 248.23,74.3 C248.183333,74.4866676 248.046668,74.6533326 247.82,74.8 L247.82,74.8 Z M245.52,73.44 C245.386666,73.4666668 245.243334,73.513333 245.09,73.58 C244.936666,73.646667 244.796667,73.7299995 244.67,73.83 C244.543333,73.9300005 244.430001,74.0433327 244.33,74.17 C244.229999,74.2966673 244.173333,74.4399992 244.16,74.6 C244.386668,74.6 244.636665,74.5800002 244.91,74.54 C245.183335,74.4999998 245.449999,74.4500003 245.71,74.39 C245.970001,74.3299997 246.209999,74.2600004 246.43,74.18 C246.650001,74.0999996 246.833333,74.0133338 246.98,73.92 C246.873333,73.6666654 246.676668,73.5100003 246.39,73.45 C246.103332,73.3899997 245.813335,73.3866664 245.52,73.44 L245.52,73.44 Z M253.74,73.52 C253.713333,73.3733326 253.686667,73.233334 253.66,73.1 C253.633333,72.966666 253.566667,72.8800002 253.46,72.84 C253.233332,72.773333 252.993335,72.7666664 252.74,72.82 C252.486665,72.8733336 252.253334,72.9566661 252.04,73.07 C251.826666,73.1833339 251.646667,73.3099993 251.5,73.45 C251.353333,73.5900007 251.273333,73.7133328 251.26,73.82 C251.22,74.020001 251.273333,74.2133324 251.42,74.4 C251.566667,74.5866676 251.779999,74.7733324 252.06,74.96 C252.526669,75.2400014 253.013331,75.5266652 253.52,75.82 C254.026669,76.1133348 254.453332,76.4133318 254.8,76.72 C255.146668,77.0266682 255.383333,77.3633315 255.51,77.73 C255.636667,78.0966685 255.606668,78.513331 255.42,78.98 C255.273333,79.3400018 255.000002,79.6333322 254.6,79.86 C254.199998,80.0866678 253.760002,80.2633327 253.28,80.39 C252.799998,80.5166673 252.320002,80.6033331 251.84,80.65 C251.359998,80.6966669 250.953335,80.72 250.62,80.72 C250.54,80.72 250.443334,80.6900003 250.33,80.63 C250.216666,80.5699997 250.11,80.5000004 250.01,80.42 C249.91,80.3399996 249.823334,80.2566671 249.75,80.17 C249.676666,80.0833329 249.64,80.006667 249.64,79.94 C249.64,79.6999988 249.746666,79.5333338 249.96,79.44 C250.173334,79.3466662 250.393332,79.3 250.62,79.3 C250.940002,79.3 251.283331,79.2833335 251.65,79.25 C252.016668,79.2166665 252.366665,79.1633337 252.7,79.09 C253.033335,79.0166663 253.333332,78.9200006 253.6,78.8 C253.866668,78.6799994 254.053333,78.5266676 254.16,78.34 C254.253334,78.1799992 254.196668,77.9900011 253.99,77.77 C253.783332,77.5499989 253.510002,77.3200012 253.17,77.08 C252.829998,76.8399988 252.463335,76.6066678 252.07,76.38 C251.676665,76.1533322 251.340001,75.9466676 251.06,75.76 C250.779999,75.5733324 250.540001,75.3500013 250.34,75.09 C250.139999,74.8299987 250.013334,74.5066686 249.96,74.12 C249.946667,73.7733316 250.019999,73.4400016 250.18,73.12 C250.340001,72.7999984 250.549999,72.5166679 250.81,72.27 C251.070001,72.0233321 251.366665,71.8266674 251.7,71.68 C252.033335,71.5333326 252.366665,71.46 252.7,71.46 C253.273336,71.4866668 253.746665,71.6433319 254.12,71.93 C254.493335,72.2166681 254.713333,72.6399972 254.78,73.2 C254.78,73.3866676 254.75,73.5399994 254.69,73.66 C254.63,73.7800006 254.526667,73.8533332 254.38,73.88 C254.193332,73.9066668 254.043334,73.8833337 253.93,73.81 C253.816666,73.7366663 253.753333,73.6400006 253.74,73.52 L253.74,73.52 Z M267.38,72.1 C267.433334,72.4733352 267.476667,72.8699979 267.51,73.29 C267.543333,73.7100021 267.57,74.1333312 267.59,74.56 C267.61,74.9866688 267.62,75.399998 267.62,75.8 C267.62,76.200002 267.613333,76.5599984 267.6,76.88 C268.026669,77.1733348 268.283333,77.4333322 268.37,77.66 C268.456667,77.8866678 268.466667,78.0866658 268.4,78.26 C268.32,78.5000012 268.176668,78.6233333 267.97,78.63 C267.763332,78.6366667 267.526668,78.5666674 267.26,78.42 C267.073332,78.553334 266.860001,78.6966659 266.62,78.85 C266.379999,79.0033341 266.126668,79.1499993 265.86,79.29 C265.593332,79.4300007 265.326668,79.5533328 265.06,79.66 C264.793332,79.7666672 264.546668,79.8399998 264.32,79.88 C263.893331,79.946667 263.510002,79.8666678 263.17,79.64 C262.829998,79.4133322 262.600001,79.0733356 262.48,78.62 C262.4,78.3133318 262.38,77.9966683 262.42,77.67 C262.46,77.3433317 262.559999,77.0300015 262.72,76.73 C262.880001,76.4299985 263.096665,76.1600012 263.37,75.92 C263.643335,75.6799988 263.966665,75.493334 264.34,75.36 C264.433334,75.3199998 264.563332,75.2866668 264.73,75.26 C264.896668,75.2333332 265.069999,75.2233333 265.25,75.23 C265.430001,75.2366667 265.613332,75.273333 265.8,75.34 C265.986668,75.406667 266.159999,75.5199992 266.32,75.68 C266.32,75.4533322 266.316667,75.2033347 266.31,74.93 C266.303333,74.6566653 266.293333,74.3800014 266.28,74.1 C266.266667,73.8199986 266.25,73.5566679 266.23,73.31 C266.21,73.0633321 266.186667,72.8533342 266.16,72.68 C266.133333,72.479999 266.056667,72.3566669 265.93,72.31 C265.803333,72.2633331 265.646668,72.273333 265.46,72.34 C265.139998,72.4466672 264.766669,72.6533318 264.34,72.96 C263.913331,73.2666682 263.506669,73.5933316 263.12,73.94 C262.999999,74.0600006 262.863334,74.1133334 262.71,74.1 C262.556666,74.0866666 262.426667,74.0266672 262.32,73.92 C262.213333,73.8133328 262.153333,73.6900007 262.14,73.55 C262.126667,73.4099993 262.179999,73.2600008 262.3,73.1 C262.526668,72.8599988 262.779999,72.6133346 263.06,72.36 C263.340001,72.1066654 263.633332,71.8766677 263.94,71.67 C264.246668,71.4633323 264.559998,71.293334 264.88,71.16 C265.200002,71.026666 265.519998,70.9533334 265.84,70.94 C266.306669,70.9266666 266.666665,71.0299989 266.92,71.25 C267.173335,71.4700011 267.326666,71.7533316 267.38,72.1 L267.38,72.1 Z M265.06,76.4 C264.886666,76.4400002 264.703334,76.5233327 264.51,76.65 C264.316666,76.7766673 264.143334,76.9299991 263.99,77.11 C263.836666,77.2900009 263.723334,77.4899989 263.65,77.71 C263.576666,77.9300011 263.573333,78.1466656 263.64,78.36 C263.666667,78.4400004 263.723333,78.4999998 263.81,78.54 C263.896667,78.5800002 263.993333,78.5866668 264.1,78.56 C264.420002,78.493333 264.783331,78.3633343 265.19,78.17 C265.596669,77.9766657 265.919999,77.7666678 266.16,77.54 C266.16,77.4599996 266.12,77.3566673 266.04,77.23 C265.96,77.1033327 265.866667,76.9766673 265.76,76.85 C265.653333,76.7233327 265.536667,76.6133338 265.41,76.52 C265.283333,76.4266662 265.166667,76.3866666 265.06,76.4 L265.06,76.4 Z M270.84,72.9 C270.88,73.100001 270.923333,73.3233321 270.97,73.57 C271.016667,73.8166679 271.066666,74.0699987 271.12,74.33 C271.173334,74.5900013 271.22,74.853332 271.26,75.12 C271.3,75.386668 271.333333,75.6399988 271.36,75.88 C271.520001,75.5333316 271.693332,75.1666686 271.88,74.78 C272.066668,74.3933314 272.269999,74.0366683 272.49,73.71 C272.710001,73.3833317 272.943332,73.1133344 273.19,72.9 C273.436668,72.6866656 273.706665,72.58 274,72.58 C274.440002,72.58 274.809998,72.7399984 275.11,73.06 C275.410001,73.3800016 275.663332,73.7766643 275.87,74.25 C276.076668,74.7233357 276.239999,75.2199974 276.36,75.74 C276.480001,76.2600026 276.58,76.719998 276.66,77.12 C276.74,77.4800018 276.580002,77.7466658 276.18,77.92 C275.993332,78.0133338 275.853334,78.026667 275.76,77.96 C275.666666,77.893333 275.613333,77.826667 275.6,77.76 C275.533333,77.5999992 275.45,77.320002 275.35,76.92 C275.249999,76.519998 275.136667,76.1133354 275.01,75.7 C274.883333,75.2866646 274.740001,74.9266682 274.58,74.62 C274.419999,74.3133318 274.240001,74.1733332 274.04,74.2 C273.799999,74.2133334 273.586668,74.3933316 273.4,74.74 C273.239999,75.0200014 273.076667,75.3299983 272.91,75.67 C272.743333,76.0100017 272.580001,76.3566649 272.42,76.71 C272.259999,77.0633351 272.103334,77.4166649 271.95,77.77 C271.796666,78.1233351 271.653334,78.4466652 271.52,78.74 C271.426666,78.8333338 271.310001,78.8966665 271.17,78.93 C271.029999,78.9633335 270.886667,78.9533336 270.74,78.9 C270.606666,78.8599998 270.5,78.7933338 270.42,78.7 C270.34,78.6066662 270.3,78.5133338 270.3,78.42 C270.179999,77.3799948 270.056667,76.4333376 269.93,75.58 C269.803333,74.7266624 269.640001,73.8533378 269.44,72.96 C269.346666,72.6533318 269.33,72.4100009 269.39,72.23 C269.45,72.0499991 269.646665,71.9799998 269.98,72.02 C270.446669,72.1000004 270.733333,72.3933308 270.84,72.9 L270.84,72.9 Z M281.42,69.36 C281.38,69.1199988 281.396666,68.900001 281.47,68.7 C281.543334,68.499999 281.693332,68.3866668 281.92,68.36 C282.120001,68.3333332 282.296666,68.386666 282.45,68.52 C282.603334,68.653334 282.7,68.8266656 282.74,69.04 C283.006668,70.573341 283.256666,72.0966591 283.49,73.61 C283.723334,75.1233409 283.933332,76.6066594 284.12,78.06 C284.173334,78.4466686 284.146667,78.7099993 284.04,78.85 C283.933333,78.9900007 283.806667,79.093333 283.66,79.16 C283.499999,79.226667 283.350001,79.226667 283.21,79.16 C283.069999,79.093333 282.98,78.9733342 282.94,78.8 L282.92,78.68 L282.84,78.7 C282.399998,78.8600008 281.940002,78.9499999 281.46,78.97 C280.979998,78.9900001 280.520002,78.933334 280.08,78.8 C279.639998,78.666666 279.250002,78.4500015 278.91,78.15 C278.569998,77.8499985 278.326667,77.466669 278.18,77 C277.859998,75.9733282 278.059996,75.0400042 278.78,74.2 C279.086668,73.8533316 279.466664,73.5400014 279.92,73.26 C280.373336,72.9799986 280.919997,72.7600008 281.56,72.6 L281.92,72.52 L281.42,69.36 Z M279.4,76.5 C279.48,76.8200016 279.626666,77.0666658 279.84,77.24 C280.053334,77.4133342 280.306665,77.5299997 280.6,77.59 C280.893335,77.6500003 281.206665,77.6600002 281.54,77.62 C281.873335,77.5799998 282.199998,77.5066672 282.52,77.4 L282.7,77.34 L282.14,73.82 L281.74,73.92 C281.459999,74.0000004 281.163335,74.1233325 280.85,74.29 C280.536665,74.4566675 280.260001,74.6533322 280.02,74.88 C279.779999,75.1066678 279.596667,75.3599986 279.47,75.64 C279.343333,75.9200014 279.32,76.2066652 279.4,76.5 L279.4,76.5 Z M292.46,70.14 C292.526667,71.5933406 292.639999,73.0966589 292.8,74.65 C292.960001,76.2033411 293.133332,77.6866596 293.32,79.1 C293.36,79.6866696 293.200002,79.9866666 292.84,80 C292.76,80 292.68,79.9700003 292.6,79.91 C292.52,79.8499997 292.446667,79.7733338 292.38,79.68 C292.313333,79.5866662 292.25,79.4866672 292.19,79.38 C292.13,79.2733328 292.093333,79.1800004 292.08,79.1 C291.973333,78.4199966 291.873334,77.7000038 291.78,76.94 C291.686666,76.1799962 291.603334,75.4166705 291.53,74.65 C291.456666,73.8833295 291.393334,73.133337 291.34,72.4 C291.286666,71.666663 291.253333,70.9933364 291.24,70.38 C291.266667,70.0599984 291.313333,69.7900011 291.38,69.57 C291.446667,69.3499989 291.586666,69.2466666 291.8,69.26 C292.026668,69.2733334 292.189999,69.3633325 292.29,69.53 C292.390001,69.6966675 292.446667,69.8999988 292.46,70.14 L292.46,70.14 Z M299.8,74.8 C299.279997,75.1066682 298.720003,75.3433325 298.12,75.51 C297.519997,75.6766675 296.873337,75.76 296.18,75.76 C296.206667,76.226669 296.339999,76.5966653 296.58,76.87 C296.820001,77.1433347 297.119998,77.3066664 297.48,77.36 C297.693334,77.3866668 297.909999,77.3800002 298.13,77.34 C298.350001,77.2999998 298.556666,77.2366671 298.75,77.15 C298.943334,77.0633329 299.119999,76.9666672 299.28,76.86 C299.440001,76.7533328 299.579999,76.6466672 299.7,76.54 C299.820001,76.4333328 299.946666,76.3633335 300.08,76.33 C300.213334,76.2966665 300.313333,76.2933332 300.38,76.32 C300.566668,76.386667 300.633334,76.586665 300.58,76.92 C300.366666,77.3466688 300.060002,77.7099985 299.66,78.01 C299.259998,78.3100015 298.813336,78.4999996 298.32,78.58 C297.893331,78.6600004 297.453336,78.6400006 297,78.52 C296.546664,78.3999994 296.140002,78.1666684 295.78,77.82 C295.473332,77.5133318 295.240001,77.1533354 295.08,76.74 C294.919999,76.3266646 294.82,75.9000022 294.78,75.46 C294.74,75.0466646 294.776666,74.6533352 294.89,74.28 C295.003334,73.9066648 295.179999,73.5766681 295.42,73.29 C295.660001,73.0033319 295.959998,72.7666676 296.32,72.58 C296.680002,72.3933324 297.099998,72.2866668 297.58,72.26 C298.153336,72.2199998 298.673331,72.3266654 299.14,72.58 C299.606669,72.8333346 299.933332,73.1866644 300.12,73.64 C300.226667,73.8933346 300.256667,74.1133324 300.21,74.3 C300.163333,74.4866676 300.026668,74.6533326 299.8,74.8 L299.8,74.8 Z M297.5,73.44 C297.366666,73.4666668 297.223334,73.513333 297.07,73.58 C296.916666,73.646667 296.776667,73.7299995 296.65,73.83 C296.523333,73.9300005 296.410001,74.0433327 296.31,74.17 C296.209999,74.2966673 296.153333,74.4399992 296.14,74.6 C296.366668,74.6 296.616665,74.5800002 296.89,74.54 C297.163335,74.4999998 297.429999,74.4500003 297.69,74.39 C297.950001,74.3299997 298.189999,74.2600004 298.41,74.18 C298.630001,74.0999996 298.813333,74.0133338 298.96,73.92 C298.853333,73.6666654 298.656668,73.5100003 298.37,73.45 C298.083332,73.3899997 297.793335,73.3866664 297.5,73.44 L297.5,73.44 Z M306.98,72.1 C307.033334,72.4733352 307.076667,72.8699979 307.11,73.29 C307.143334,73.7100021 307.17,74.1333312 307.19,74.56 C307.21,74.9866688 307.22,75.399998 307.22,75.8 C307.22,76.200002 307.213333,76.5599984 307.2,76.88 C307.626669,77.1733348 307.883333,77.4333322 307.97,77.66 C308.056667,77.8866678 308.066667,78.0866658 308,78.26 C307.92,78.5000012 307.776668,78.6233333 307.57,78.63 C307.363332,78.6366667 307.126668,78.5666674 306.86,78.42 C306.673332,78.553334 306.460001,78.6966659 306.22,78.85 C305.979999,79.0033341 305.726668,79.1499993 305.46,79.29 C305.193332,79.4300007 304.926668,79.5533328 304.66,79.66 C304.393332,79.7666672 304.146668,79.8399998 303.92,79.88 C303.493331,79.946667 303.110002,79.8666678 302.77,79.64 C302.429998,79.4133322 302.200001,79.0733356 302.08,78.62 C302,78.3133318 301.98,77.9966683 302.02,77.67 C302.06,77.3433317 302.159999,77.0300015 302.32,76.73 C302.480001,76.4299985 302.696665,76.1600012 302.97,75.92 C303.243335,75.6799988 303.566665,75.493334 303.94,75.36 C304.033334,75.3199998 304.163332,75.2866668 304.33,75.26 C304.496668,75.2333332 304.669999,75.2233333 304.85,75.23 C305.030001,75.2366667 305.213332,75.273333 305.4,75.34 C305.586668,75.406667 305.759999,75.5199992 305.92,75.68 C305.92,75.4533322 305.916667,75.2033347 305.91,74.93 C305.903333,74.6566653 305.893333,74.3800014 305.88,74.1 C305.866667,73.8199986 305.85,73.5566679 305.83,73.31 C305.81,73.0633321 305.786667,72.8533342 305.76,72.68 C305.733333,72.479999 305.656667,72.3566669 305.53,72.31 C305.403333,72.2633331 305.246668,72.273333 305.06,72.34 C304.739998,72.4466672 304.366669,72.6533318 303.94,72.96 C303.513331,73.2666682 303.106669,73.5933316 302.72,73.94 C302.599999,74.0600006 302.463334,74.1133334 302.31,74.1 C302.156666,74.0866666 302.026667,74.0266672 301.92,73.92 C301.813333,73.8133328 301.753333,73.6900007 301.74,73.55 C301.726667,73.4099993 301.779999,73.2600008 301.9,73.1 C302.126668,72.8599988 302.379999,72.6133346 302.66,72.36 C302.940001,72.1066654 303.233332,71.8766677 303.54,71.67 C303.846668,71.4633323 304.159998,71.293334 304.48,71.16 C304.800002,71.026666 305.119998,70.9533334 305.44,70.94 C305.906669,70.9266666 306.266665,71.0299989 306.52,71.25 C306.773335,71.4700011 306.926666,71.7533316 306.98,72.1 L306.98,72.1 Z M304.66,76.4 C304.486666,76.4400002 304.303334,76.5233327 304.11,76.65 C303.916666,76.7766673 303.743334,76.9299991 303.59,77.11 C303.436666,77.2900009 303.323334,77.4899989 303.25,77.71 C303.176666,77.9300011 303.173333,78.1466656 303.24,78.36 C303.266667,78.4400004 303.323333,78.4999998 303.41,78.54 C303.496667,78.5800002 303.593333,78.5866668 303.7,78.56 C304.020002,78.493333 304.383331,78.3633343 304.79,78.17 C305.196669,77.9766657 305.519999,77.7666678 305.76,77.54 C305.76,77.4599996 305.72,77.3566673 305.64,77.23 C305.56,77.1033327 305.466667,76.9766673 305.36,76.85 C305.253333,76.7233327 305.136667,76.6133338 305.01,76.52 C304.883333,76.4266662 304.766667,76.3866666 304.66,76.4 L304.66,76.4 Z M312.54,69.36 C312.5,69.1199988 312.516666,68.900001 312.59,68.7 C312.663334,68.499999 312.813332,68.3866668 313.04,68.36 C313.240001,68.3333332 313.416666,68.386666 313.57,68.52 C313.723334,68.653334 313.82,68.8266656 313.86,69.04 C314.126668,70.573341 314.376665,72.0966591 314.61,73.61 C314.843334,75.1233409 315.053332,76.6066594 315.24,78.06 C315.293334,78.4466686 315.266667,78.7099993 315.16,78.85 C315.053333,78.9900007 314.926667,79.093333 314.78,79.16 C314.619999,79.226667 314.470001,79.226667 314.33,79.16 C314.189999,79.093333 314.1,78.9733342 314.06,78.8 L314.04,78.68 L313.96,78.7 C313.519998,78.8600008 313.060002,78.9499999 312.58,78.97 C312.099998,78.9900001 311.640002,78.933334 311.2,78.8 C310.759998,78.666666 310.370002,78.4500015 310.03,78.15 C309.689998,77.8499985 309.446667,77.466669 309.3,77 C308.979998,75.9733282 309.179996,75.0400042 309.9,74.2 C310.206668,73.8533316 310.586664,73.5400014 311.04,73.26 C311.493336,72.9799986 312.039997,72.7600008 312.68,72.6 L313.04,72.52 L312.54,69.36 Z M310.52,76.5 C310.6,76.8200016 310.746666,77.0666658 310.96,77.24 C311.173334,77.4133342 311.426665,77.5299997 311.72,77.59 C312.013335,77.6500003 312.326665,77.6600002 312.66,77.62 C312.993335,77.5799998 313.319998,77.5066672 313.64,77.4 L313.82,77.34 L313.26,73.82 L312.86,73.92 C312.579999,74.0000004 312.283335,74.1233325 311.97,74.29 C311.656665,74.4566675 311.380001,74.6533322 311.14,74.88 C310.899999,75.1066678 310.716667,75.3599986 310.59,75.64 C310.463333,75.9200014 310.44,76.2066652 310.52,76.5 L310.52,76.5 Z M321.14,74.8 C320.619997,75.1066682 320.060003,75.3433325 319.46,75.51 C318.859997,75.6766675 318.213337,75.76 317.52,75.76 C317.546667,76.226669 317.679999,76.5966653 317.92,76.87 C318.160001,77.1433347 318.459998,77.3066664 318.82,77.36 C319.033334,77.3866668 319.249999,77.3800002 319.47,77.34 C319.690001,77.2999998 319.896666,77.2366671 320.09,77.15 C320.283334,77.0633329 320.459999,76.9666672 320.62,76.86 C320.780001,76.7533328 320.919999,76.6466672 321.04,76.54 C321.160001,76.4333328 321.286666,76.3633335 321.42,76.33 C321.553334,76.2966665 321.653333,76.2933332 321.72,76.32 C321.906668,76.386667 321.973334,76.586665 321.92,76.92 C321.706666,77.3466688 321.400002,77.7099985 321,78.01 C320.599998,78.3100015 320.153336,78.4999996 319.66,78.58 C319.233331,78.6600004 318.793336,78.6400006 318.34,78.52 C317.886664,78.3999994 317.480002,78.1666684 317.12,77.82 C316.813332,77.5133318 316.580001,77.1533354 316.42,76.74 C316.259999,76.3266646 316.16,75.9000022 316.12,75.46 C316.08,75.0466646 316.116666,74.6533352 316.23,74.28 C316.343334,73.9066648 316.519999,73.5766681 316.76,73.29 C317.000001,73.0033319 317.299998,72.7666676 317.66,72.58 C318.020002,72.3933324 318.439998,72.2866668 318.92,72.26 C319.493336,72.2199998 320.013331,72.3266654 320.48,72.58 C320.946669,72.8333346 321.273332,73.1866644 321.46,73.64 C321.566667,73.8933346 321.596667,74.1133324 321.55,74.3 C321.503333,74.4866676 321.366668,74.6533326 321.14,74.8 L321.14,74.8 Z M318.84,73.44 C318.706666,73.4666668 318.563334,73.513333 318.41,73.58 C318.256666,73.646667 318.116667,73.7299995 317.99,73.83 C317.863333,73.9300005 317.750001,74.0433327 317.65,74.17 C317.55,74.2966673 317.493333,74.4399992 317.48,74.6 C317.706668,74.6 317.956665,74.5800002 318.23,74.54 C318.503335,74.4999998 318.769999,74.4500003 319.03,74.39 C319.290001,74.3299997 319.529999,74.2600004 319.75,74.18 C319.970001,74.0999996 320.153333,74.0133338 320.3,73.92 C320.193333,73.6666654 319.996668,73.5100003 319.71,73.45 C319.423332,73.3899997 319.133335,73.3866664 318.84,73.44 L318.84,73.44 Z M329.3,72.6 C329.059999,72.733334 328.810001,72.8733326 328.55,73.02 C328.289999,73.1666674 328.030001,73.3366657 327.77,73.53 C327.509999,73.7233343 327.263334,73.9499987 327.03,74.21 C326.796666,74.4700013 326.586668,74.7799982 326.4,75.14 C326.133332,75.6466692 325.953334,76.1633307 325.86,76.69 C325.766666,77.2166693 325.706667,77.7333308 325.68,78.24 C325.68,78.4800012 325.623334,78.7233321 325.51,78.97 C325.396666,79.2166679 325.240001,79.34 325.04,79.34 C324.786665,79.34 324.583334,79.2100013 324.43,78.95 C324.276666,78.6899987 324.173334,78.4400012 324.12,78.2 C323.893332,77.2533286 323.706667,76.3166713 323.56,75.39 C323.413333,74.4633287 323.286667,73.5400046 323.18,72.62 C323.18,72.4333324 323.236666,72.3133336 323.35,72.26 C323.463334,72.2066664 323.593333,72.1866666 323.74,72.2 C323.900001,72.2133334 324.053333,72.253333 324.2,72.32 C324.346667,72.386667 324.433333,72.4933326 324.46,72.64 C324.513334,73.1333358 324.58,73.6499973 324.66,74.19 C324.74,74.7300027 324.82,75.1933314 324.9,75.58 C324.953334,75.1266644 325.099999,74.6866688 325.34,74.26 C325.580001,73.8333312 325.876665,73.4466684 326.23,73.1 C326.583335,72.7533316 326.983331,72.4600012 327.43,72.22 C327.876669,71.9799988 328.333331,71.8200004 328.8,71.74 C329.000001,71.7133332 329.166666,71.7133332 329.3,71.74 C329.433334,71.7666668 329.526666,71.813333 329.58,71.88 C329.633334,71.946667 329.643334,72.0533326 329.61,72.2 C329.576667,72.3466674 329.473334,72.4799994 329.3,72.6 L329.3,72.6 Z M334.24,73.52 C334.213333,73.3733326 334.186667,73.233334 334.16,73.1 C334.133333,72.966666 334.066667,72.8800002 333.96,72.84 C333.733332,72.773333 333.493335,72.7666664 333.24,72.82 C332.986665,72.8733336 332.753334,72.9566661 332.54,73.07 C332.326666,73.1833339 332.146667,73.3099993 332,73.45 C331.853333,73.5900007 331.773333,73.7133328 331.76,73.82 C331.72,74.020001 331.773333,74.2133324 331.92,74.4 C332.066667,74.5866676 332.279999,74.7733324 332.56,74.96 C333.026669,75.2400014 333.513331,75.5266652 334.02,75.82 C334.526669,76.1133348 334.953332,76.4133318 335.3,76.72 C335.646668,77.0266682 335.883333,77.3633315 336.01,77.73 C336.136667,78.0966685 336.106668,78.513331 335.92,78.98 C335.773333,79.3400018 335.500002,79.6333322 335.1,79.86 C334.699998,80.0866678 334.260002,80.2633327 333.78,80.39 C333.299998,80.5166673 332.820002,80.6033331 332.34,80.65 C331.859998,80.6966669 331.453335,80.72 331.12,80.72 C331.04,80.72 330.943334,80.6900003 330.83,80.63 C330.716666,80.5699997 330.61,80.5000004 330.51,80.42 C330.41,80.3399996 330.323334,80.2566671 330.25,80.17 C330.176666,80.0833329 330.14,80.006667 330.14,79.94 C330.14,79.6999988 330.246666,79.5333338 330.46,79.44 C330.673334,79.3466662 330.893332,79.3 331.12,79.3 C331.440002,79.3 331.783331,79.2833335 332.15,79.25 C332.516668,79.2166665 332.866665,79.1633337 333.2,79.09 C333.533335,79.0166663 333.833332,78.9200006 334.1,78.8 C334.366668,78.6799994 334.553333,78.5266676 334.66,78.34 C334.753334,78.1799992 334.696668,77.9900011 334.49,77.77 C334.283332,77.5499989 334.010002,77.3200012 333.67,77.08 C333.329998,76.8399988 332.963335,76.6066678 332.57,76.38 C332.176665,76.1533322 331.840001,75.9466676 331.56,75.76 C331.279999,75.5733324 331.040001,75.3500013 330.84,75.09 C330.639999,74.8299987 330.513334,74.5066686 330.46,74.12 C330.446667,73.7733316 330.519999,73.4400016 330.68,73.12 C330.840001,72.7999984 331.049999,72.5166679 331.31,72.27 C331.570001,72.0233321 331.866665,71.8266674 332.2,71.68 C332.533335,71.5333326 332.866665,71.46 333.2,71.46 C333.773336,71.4866668 334.246665,71.6433319 334.62,71.93 C334.993335,72.2166681 335.213333,72.6399972 335.28,73.2 C335.28,73.3866676 335.25,73.5399994 335.19,73.66 C335.13,73.7800006 335.026667,73.8533332 334.88,73.88 C334.693332,73.9066668 334.543334,73.8833337 334.43,73.81 C334.316666,73.7366663 334.253333,73.6400006 334.24,73.52 L334.24,73.52 Z M338.68,70.64 C338.68,70.9600016 338.676667,71.319998 338.67,71.72 C338.663333,72.120002 338.663333,72.5333312 338.67,72.96 C338.676667,73.3866688 338.683333,73.8266644 338.69,74.28 C338.696667,74.7333356 338.706667,75.1666646 338.72,75.58 C338.853334,75.313332 339.013332,75.0500013 339.2,74.79 C339.386668,74.5299987 339.596666,74.300001 339.83,74.1 C340.063335,73.899999 340.309999,73.7400006 340.57,73.62 C340.830001,73.4999994 341.113332,73.44 341.42,73.44 C341.753335,73.44 342.049999,73.5466656 342.31,73.76 C342.570001,73.9733344 342.796666,74.2566649 342.99,74.61 C343.183334,74.9633351 343.346666,75.3566645 343.48,75.79 C343.613334,76.2233355 343.723333,76.6633311 343.81,77.11 C343.896667,77.5566689 343.96,77.9833313 344,78.39 C344.04,78.7966687 344.073333,79.1466652 344.1,79.44 C344.1,79.6533344 344.046667,79.826666 343.94,79.96 C343.833333,80.093334 343.706667,80.16 343.56,80.16 C343.453333,80.16 343.323334,80.0900007 343.17,79.95 C343.016666,79.8099993 342.906667,79.640001 342.84,79.44 C342.8,79.2799992 342.76,79.0466682 342.72,78.74 C342.68,78.4333318 342.633334,78.1033351 342.58,77.75 C342.526666,77.3966649 342.46,77.0400018 342.38,76.68 C342.3,76.3199982 342.203334,75.9966681 342.09,75.71 C341.976666,75.4233319 341.840001,75.2000008 341.68,75.04 C341.519999,74.8799992 341.333334,74.8199998 341.12,74.86 C340.786665,74.926667 340.496668,75.159998 340.25,75.56 C340.003332,75.960002 339.790001,76.4133308 339.61,76.92 C339.429999,77.4266692 339.283334,77.9399974 339.17,78.46 C339.056666,78.9800026 338.973334,79.3999984 338.92,79.72 C338.866666,79.9600012 338.796667,80.1233329 338.71,80.21 C338.623333,80.2966671 338.526667,80.34 338.42,80.34 C338.313333,80.34 338.216667,80.2866672 338.13,80.18 C338.043333,80.0733328 337.963334,79.9433341 337.89,79.79 C337.816666,79.6366659 337.753334,79.4766675 337.7,79.31 C337.646666,79.1433325 337.613333,79.0000006 337.6,78.88 C337.533333,78.1599964 337.48,77.4700033 337.44,76.81 C337.4,76.1499967 337.37,75.48667 337.35,74.82 C337.33,74.15333 337.32,73.4700035 337.32,72.77 C337.32,72.0699965 337.333333,71.320004 337.36,70.52 C337.36,69.85333 337.599998,69.553333 338.08,69.62 C338.240001,69.6466668 338.379999,69.7633323 338.5,69.97 C338.620001,70.1766677 338.68,70.3999988 338.68,70.64 L338.68,70.64 Z M348.9,71.34 C348.873333,71.473334 348.780001,71.5466666 348.62,71.56 C348.459999,71.5733334 348.326667,71.58 348.22,71.58 C347.886665,71.5933334 347.543335,71.6266664 347.19,71.68 C346.836665,71.7333336 346.466669,71.8133328 346.08,71.92 C345.919999,71.9733336 345.746668,71.9533338 345.56,71.86 C345.373332,71.7666662 345.26,71.5800014 345.22,71.3 C345.22,71.1933328 345.26,71.106667 345.34,71.04 C345.42,70.973333 345.513333,70.9133336 345.62,70.86 C345.793334,70.7799996 345.999999,70.7100003 346.24,70.65 C346.480001,70.5899997 346.723332,70.5466668 346.97,70.52 C347.216668,70.4933332 347.453332,70.4833333 347.68,70.49 C347.906668,70.4966667 348.093333,70.5199998 348.24,70.56 C348.453334,70.626667 348.623333,70.726666 348.75,70.86 C348.876667,70.993334 348.926667,71.1533324 348.9,71.34 L348.9,71.34 Z M348.44,78 C348.533334,78.2133344 348.583333,78.4433321 348.59,78.69 C348.596667,78.9366679 348.526667,79.1066662 348.38,79.2 C348.193332,79.3200006 347.993334,79.313334 347.78,79.18 C347.566666,79.046666 347.406667,78.8666678 347.3,78.64 C347.153333,78.3599986 347.04,78.0166687 346.96,77.61 C346.88,77.2033313 346.82,76.800002 346.78,76.4 C346.74,75.999998 346.716667,75.6266684 346.71,75.28 C346.703333,74.9333316 346.7,74.6733342 346.7,74.5 C346.713333,74.3133324 346.766666,74.1400008 346.86,73.98 C346.953334,73.8199992 347.073333,73.7266668 347.22,73.7 C347.460001,73.7133334 347.653333,73.8233323 347.8,74.03 C347.946667,74.2366677 348.013333,74.4933318 348,74.8 C348,75.0400012 348.006667,75.3066652 348.02,75.6 C348.033333,75.8933348 348.06,76.1866652 348.1,76.48 C348.14,76.7733348 348.186666,77.0566653 348.24,77.33 C348.293334,77.6033347 348.36,77.8266658 348.44,78 L348.44,78 Z M353.78,81.68 C353.766667,81.8266674 353.700001,81.9633327 353.58,82.09 C353.459999,82.2166673 353.326667,82.2733334 353.18,82.26 C352.953332,82.2466666 352.780001,82.1600008 352.66,82 C352.539999,81.8399992 352.48,81.7066672 352.48,81.6 C352.48,81.0933308 352.466667,80.5633361 352.44,80.01 C352.413333,79.4566639 352.38,78.8866696 352.34,78.3 C352.166666,78.3266668 352.010001,78.3100003 351.87,78.25 C351.729999,78.1899997 351.633334,78.093334 351.58,77.96 C351.486666,77.7333322 351.499999,77.5333342 351.62,77.36 C351.740001,77.1866658 351.933332,77.0200008 352.2,76.86 C352.133333,76.3666642 352.07,75.8800024 352.01,75.4 C351.95,74.9199976 351.886667,74.4533356 351.82,74 C351.806667,73.9199996 351.813333,73.846667 351.84,73.78 C351.866667,73.713333 351.9,73.6500003 351.94,73.59 C351.98,73.5299997 352.053333,73.4733336 352.16,73.42 C352.333334,73.353333 352.529999,73.4066658 352.75,73.58 C352.970001,73.7533342 353.12,73.973332 353.2,74.24 C353.24,74.4933346 353.283333,74.7833317 353.33,75.11 C353.376667,75.4366683 353.42,75.7933314 353.46,76.18 C353.740001,76.0066658 354.003332,75.820001 354.25,75.62 C354.496668,75.419999 354.709999,75.2066678 354.89,74.98 C355.070001,74.7533322 355.206666,74.5166679 355.3,74.27 C355.393334,74.0233321 355.42,73.766668 355.38,73.5 C355.353333,73.2733322 355.253334,73.0700009 355.08,72.89 C354.906666,72.7099991 354.633335,72.6133334 354.26,72.6 C353.926665,72.5866666 353.596668,72.613333 353.27,72.68 C352.943332,72.746667 352.623335,72.8333328 352.31,72.94 C351.996665,73.0466672 351.690002,73.1733326 351.39,73.32 C351.089999,73.4666674 350.800001,73.6133326 350.52,73.76 C350.333332,73.8666672 350.150001,73.9100001 349.97,73.89 C349.789999,73.8699999 349.673334,73.8066672 349.62,73.7 C349.499999,73.433332 349.509999,73.1933344 349.65,72.98 C349.790001,72.7666656 350.006665,72.5666676 350.3,72.38 C350.553335,72.2333326 350.856665,72.0833341 351.21,71.93 C351.563335,71.7766659 351.936665,71.6433339 352.33,71.53 C352.723335,71.4166661 353.123331,71.3366669 353.53,71.29 C353.936669,71.2433331 354.326665,71.2499997 354.7,71.31 C355.073335,71.3700003 355.409999,71.4966657 355.71,71.69 C356.010001,71.8833343 356.253332,72.1666648 356.44,72.54 C356.666668,73.1533364 356.730001,73.7166641 356.63,74.23 C356.53,74.7433359 356.330001,75.2099979 356.03,75.63 C355.729998,76.0500021 355.363336,76.4299983 354.93,76.77 C354.496664,77.1100017 354.060002,77.413332 353.62,77.68 C353.686667,78.4000036 353.733333,79.1133298 353.76,79.82 C353.786667,80.5266702 353.793333,81.146664 353.78,81.68 L353.78,81.68 Z" id="Notes-on-sales-and-l" fill="#5D5745" sketch:type="MSShapeGroup"></path>
        <g id="Group" sketch:type="MSLayerGroup" transform="translate(69.000000, 0.000000)">
            <path d="M60,128 L69,128 L67.3674787,138.692906 L67.8720203,142.659864 L67.6346516,145 L65.8485316,144.96793 L64.5,144.96793 L61.4927885,144.96793" id="Path-21" fill="#C28F67" sketch:type="MSShapeGroup"></path>
            <path d="M58,112.975164 L60.2474975,111.605885 L66.1657533,111 L67.8234819,112.71248 C67.8234819,112.71248 68.8887545,116.997622 68.9886224,119.473832 C69.093571,122.076017 68.4379316,127.947664 68.4379316,127.947664 C68.4379316,127.947664 65.5260354,127.965526 64.0700873,127.974457 L59.9060794,128 C59.9060794,128 58.7909474,123.854166 58.6725524,121.687526 C58.5635068,119.691979 59.2237575,115.513439 59.2237575,115.513439" id="Path-20" fill="#B57B55" sketch:type="MSShapeGroup"></path>
            <path d="M31,127.885143 C31,127.885143 33.8193951,127 35.1669474,127 C36.59736,127 40,127.885143 40,127.885143 L39.4479187,130.011057 C39.4479187,130.011057 36.13676,129.826311 34.5798927,130.011057 C33.358795,130.155959 31,131 31,131" id="Path-21" fill="#DFDFDF" sketch:type="MSShapeGroup"></path>
            <path d="M35.1021426,127 C33.3640544,127 30.1525008,127.607697 30.1525008,127.607697 L30.3264358,140.552353 L29,144.290315 L29.4439389,145.392207 L30.7127523,146 L34.6937188,144.084491 L35.1021426,145.428593 L36.2743601,138.379523 L40,127.607697" id="Path-17" fill="#FFFFFF" sketch:type="MSShapeGroup"></path>
            <path d="M83,20.4236293 L88.7995728,16.8596728 L93.1990589,14.9385071 L100.062337,11.3835458 L101.015918,10.3869825 L101.652139,6.30651751 L101.168091,3.86032158 L102.905059,4.9108555 L102.938097,6.4054637 L105.035974,5.17976188 L108.329707,0 L109.160148,0.242394487 L106.654308,5.12626466 L111.068311,0.812400274 L111.799139,1.59355438 L108.116465,6.00163069 L112.392311,2.88174852 L112.900387,3.75238028 L109.193686,6.83628202 L109.193686,8.12921043 L113,6.5986218 L113,7.56819975 L109.92902,8.98185198 C109.92902,8.98185198 107.855435,11.3047362 106.654308,12.092739 C105.469731,12.8698849 102.771908,13.6772983 102.771908,13.6772983 C102.771908,13.6772983 98.1314543,18.3792386 95.449109,20.4236293 C93.6829126,21.769763 89.4262831,23.8488717 89.4262831,23.8488717 L85.2590603,27" id="Path-10" fill="#FFCBA2" sketch:type="MSShapeGroup"></path>
            <path d="M27,23.9189738 C27,23.9189738 24.758655,21.9331311 23.3814205,21.0663576 C21.736934,20.031387 17.9348369,18.2137414 17.9348369,18.2137414 L13.0876069,14.6819914 L13.3540272,11.2249174 L13.2294686,6.5504191 L12.7012913,6.5504191 L11.8169869,7.73888748 L11.5994082,10.2242824 L10.6196294,10.3049276 L8.80451056,9.10566421 L4.88453619,4 L4.10846889,4.72491745 L6.89514447,8.8996698 L6.84863442,9.57518415 L6.07133994,9.43789688 L1.82554984,5.54254509 L1.18803092,6.33845568 L5.45468305,10.8347727 L0.310721444,9.002032 L0,9.71132842 L5.13009449,12.6433833 L4.96602081,12.99746 L1.54980297,12.2400305 L1.47298163,12.9456439 L5.27661953,14.4218948 C5.27661953,14.4218948 7.26292968,16.5821692 7.45719194,16.5821692 C7.65145421,16.5821692 10.6196294,18.494412 10.6196294,18.494412 C10.6196294,18.494412 13.3666835,21.7135255 15.6659076,23.5758192 C17.4138753,24.9916137 21.2602435,27.3724917 21.2602435,27.3724917 L24.8789457,30 L25.8889131,24.3910338" id="Path-11" fill="#FFCBA2" sketch:type="MSShapeGroup"></path>
            <path d="M47.5108884,22 C47.5108884,22 46,22.152759 46,22.851888 C46,23.5510171 47.1423414,23.8819245 47.5108884,24.375 C47.8794353,24.8680755 47.2668782,25.0971521 48,25.5276693 C48.7331218,25.9581865 50,26 50,26" id="Path-9" fill="#B48159" sketch:type="MSShapeGroup"></path>
            <path d="M47.0916025,22.2645627 C47.4240477,23.9887141 49.0914584,27.521626 49.8980016,27.521626 L54.541298,27.521626 C57.1721606,27.521626 58.5630462,28.5979675 59.4084053,27.521626 C60.6578808,25.9307488 60.6307158,21.7938072 60.9632181,20.0829341 C61.1957232,18.8865914 60.2840513,13.5525857 59.4084053,12.7730746 C58.5327592,11.9935634 56.2752357,11 53.9999999,11 C52.5661635,11 52.1341007,12.1304189 50.8174817,12.7730746 C50.0621304,13.1417695 49.4007981,13.0854163 48.8614596,13.5811594 C47.1619092,15.143333 47.0916025,15.4812862 47.0916025,18.0010628" id="Oval-5" fill="#7F0505" sketch:type="MSShapeGroup"></path>
            <path d="M59.5688924,18 C59.7935487,16.7015711 60.4149787,13.8031572 59.5688921,12.9571289 C58.7228054,12.1111006 55.1984301,11 53,11" id="Oval-5" fill="#C82121" sketch:type="MSShapeGroup"></path>
            <path d="M60.3773024,21 L61,21.7362756 L60.7153892,23.2752508 C60.7153892,23.2752508 60.7153892,24.3404022 60.7153892,24.6996524 C60.7153892,25.0589025 60,24.9957221 60,24.9957221" id="Path-8" fill="#B48159" sketch:type="MSShapeGroup"></path>
            <path d="M34.1124484,113.196135 L31.5136849,119.049635 L30.9770981,127.88421 L31.010165,139.818521 L29.7751637,143.264731 L29,147 L31.0101651,147 L35.0764008,143.074972 L35.456671,144.314165 L36.406595,137.815283 L39.2899349,129.170468 L41.0049084,122.775728 L40.9097156,118.114357 L45,112 L41.8265726,112.825628" id="Path-17" fill="#C28F67" sketch:type="MSShapeGroup"></path>
            <path d="M39.8987503,72 L39.8661949,73.739114 L38.430304,75.7335979 L38.4303046,77.254871 L37.092573,80.4508139 L36.9988525,84.9593978 L37.0925727,88.058319 L36.031069,91.3751293 L36.0591851,97.3405902 L35.3760147,100.951251 L34.7214537,107.878721 L33.6599501,109.399447 L33.8794524,112.06259 C33.8794524,112.06259 32.0675292,115.378066 31.2894379,119.178385 C29.9205271,125.86436 27.8552935,135.518708 27.8828493,138.755039 C27.8890071,139.478252 26.8804941,141.324272 27.0117931,141.323201 C27.9281199,141.315726 35.7211626,143.398042 39.1627138,142.931996 C40.5203676,142.748147 43.1656729,126.297012 43.1656729,126.297012 C43.1656729,126.297012 45.1124167,118.836168 46.5336177,115.461525 C47.0049273,114.3424 46.5336177,111.996123 46.5336177,111.996123 L48.8432045,108.480416 L53.6627826,90.782931 L54.9768373,93.0287868 L55.9732301,98.2406316 L56.0057855,100.136166 L56.7215113,102.538442 L57.2383481,108.480416 L58.1264633,111.996123 L57.6005075,119.970413 C57.6005075,119.970413 57.049859,128.824367 56.721512,133.376467 C56.5182849,136.193946 56.1117509,139.886052 56.1117509,139.886052 C56.0532276,140.433064 56.4485111,140.947259 56.9936585,141.034382 L68.8674007,142.931996 L70.1318595,139.432987 C70.1318595,139.432987 70.7050459,136.374604 70.7050459,134.910698 C70.7050459,128.405649 71.4488881,114.542704 71.4488881,114.542704 L70.6162585,109.740773 L71.4488881,105.813908 L70.8875536,93.8008935 L72,84.2106255 L70.705046,74.8665396 L65.4626386,76.131895 L64.4336904,72.5542177 L50.9315811,73.8385633" id="Path-12" fill="#1E2935" sketch:type="MSShapeGroup"></path>
            <path d="M28.7826117,144.91608 L29.3810774,143 L27.1203823,144.753803 L25.7981783,147.210135 L23.7317082,148.13693 L22.065268,150.502044 L22,151.749361 C22,151.749361 32.1812865,152.313299 34.0724804,151.749361 C35.9636742,151.185422 36.0934981,148.571726 35.9636742,147.210135 C35.8041783,145.537345 35.0957147,143 35.0957147,143 L31.4075445,143.286757" id="Path-19" fill="#7F7F7F" sketch:type="MSShapeGroup"></path>
            <path d="M60.8834227,143.721808 L67.0366713,145.228232 L68.3955862,144.524504 L68.3955862,143 L72.3750828,147.263283 L76.2281568,149.013799 L77,150.493101 L75.9952731,151.458525 L63.4697116,152 L60,150.493101" id="Path-24" fill="#7F7F7F" sketch:type="MSShapeGroup"></path>
            <path d="M27.9031135,24.0113566 L26.0462441,24.6127288 L24,35.4294377 L24.7893937,37.5841884 L36.2570323,40.9087181 L24.4111426,72.4777644 L24.0662812,74.1165538 L29.9917178,78 L34.3762419,72.4258187 L48.6889872,75.7123879 L64.0976142,74.3817769 L65.2079484,77.8196882 L70.7456651,76.7118447 L70.5567887,75.3192983 L73.8409458,73.6380533 L73.5005695,49.3578983 L73.4058822,42.6568932 L74.5446225,38.0062479 L87,31.7737537 L83.8484053,21 L76.7892118,23.7466329 L75.9953329,24.6986391 L74.7858262,24.4429061 L67.4241314,26.4697903 L66.4129699,28.0516391 L59.7220605,26.8204243 L50.1302288,27.1046276 L46.6287891,28.94171 L40.9161499,26.9812564 L37.6369763,27.0761573 L36.304376,26.1241511 L34.7544931,26.4742856" id="Path-7" fill="#FFFFFF" sketch:type="MSShapeGroup"></path>
            <path d="M63,74.1026672 L64.3840539,78 L70.1202976,76.6697114 L69.8872948,75.0745342 L73,73.4238217 L71.5957221,72" id="Path-7" fill="#A2ADB1" sketch:type="MSShapeGroup"></path>
            <path d="M32.0000967,71.382905 C30.8946663,70.9298319 29.5,70 29.5,70 L26.6612046,71.382905 L24.3679428,72.298463 L24,73.6937003 C24,73.6937003 25.5871737,75.1919013 26.6612046,75.7535994 C27.6945145,76.2940012 30.3220224,77 30.3220224,77 C30.3220224,77 32.0676427,75.8871631 32.6758991,75.2700929 C33.6269686,74.3052422 35,72.2542373 35,72.2542373" id="Path-7" fill="#A3AEB2" sketch:type="MSShapeGroup"></path>
            <path d="M62.6061516,148 C61.3891888,148 60.6434149,148.265874 60.1643985,149.326611 C59.7607081,150.220545 60.1779839,150.715883 60.5834751,151.117243 C60.9889662,151.518603 62.6984054,151.834803 62.6984054,151.834803 L66.8983797,152 L76.0058442,151.168941 L77,150.215414 L75.3835498,149.812951 L70.9842929,150.313128 L66.8983797,149.678878 C66.8983797,149.678878 63.8231144,148 62.6061516,148 Z" id="Path-24" fill="#C7C7C7" sketch:type="MSShapeGroup"></path>
            <path d="M22.4885665,148.242269 C21.0473801,149.215417 23.2116646,151.386988 23.6406654,151.811381 C24.0696661,152.235774 29.8985604,151.811381 29.8985604,151.811381 L35.9180288,151.811381 C35.9180288,151.811381 36.1024643,150.929057 35.9180283,150.806781 C35.0835725,150.25356 32.8613534,149.784889 32.8613534,149.784889 L29.4684717,149.784889 C29.4684717,149.784889 24.0092478,147.215442 22.4885665,148.242269 Z" id="Path-24" fill="#C7C7C7" sketch:type="MSShapeGroup" transform="translate(29.000000, 150.000000) scale(-1, 1) translate(-29.000000, -150.000000) "></path>
        </g>
        <path d="M0.384,56.16 C0.384,55.9146654 0.4773324,55.6666679 0.664,55.416 C0.8506676,55.1653321 1.06133216,55.04 1.296,55.04 C1.43466736,55.04 1.59199912,55.1039994 1.768,55.232 C1.94400088,55.3600006 2.11466584,55.5013326 2.28,55.656 C2.44533416,55.8106674 2.68266512,55.9519994 2.992,56.08 C3.30133488,56.2080006 3.6426648,56.272 4.016,56.272 C4.52800256,56.272 4.95466496,56.1546678 5.296,55.92 C5.63733504,55.6853322 5.808,55.338669 5.808,54.88 C5.808,54.5599984 5.7146676,54.2746679 5.528,54.024 C5.3413324,53.7733321 5.09600152,53.5653342 4.792,53.4 C4.48799848,53.2346658 4.15466848,53.0746674 3.792,52.92 C3.42933152,52.7653326 3.06400184,52.592001 2.696,52.4 C2.32799816,52.207999 1.99200152,51.9920012 1.688,51.752 C1.38399848,51.5119988 1.1386676,51.192002 0.952,50.792 C0.7653324,50.391998 0.672,49.9360026 0.672,49.424 C0.672,48.8586638 0.78666552,48.3600022 1.016,47.928 C1.24533448,47.4959978 1.55199808,47.1600012 1.936,46.92 C2.32000192,46.6799988 2.73066448,46.5040006 3.168,46.392 C3.60533552,46.2799994 4.06933088,46.224 4.56,46.224 C4.83733472,46.224 5.13066512,46.2426665 5.44,46.28 C5.74933488,46.3173335 6.0773316,46.3786662 6.424,46.464 C6.7706684,46.5493338 7.05333224,46.6826658 7.272,46.864 C7.49066776,47.0453342 7.6,47.2586654 7.6,47.504 C7.6,47.7386678 7.52533408,47.9813321 7.376,48.232 C7.22666592,48.4826679 7.02400128,48.608 6.768,48.608 C6.67199952,48.608 6.4106688,48.5066677 5.984,48.304 C5.5573312,48.1013323 5.08266928,48 4.56,48 C3.98399712,48 3.53866824,48.1093322 3.224,48.328 C2.90933176,48.5466678 2.752,48.8479981 2.752,49.232 C2.752,49.5413349 2.87999872,49.8106655 3.136,50.04 C3.39200128,50.2693345 3.70933144,50.4559993 4.088,50.6 C4.46666856,50.7440007 4.87733112,50.9253322 5.32,51.144 C5.76266888,51.3626678 6.17333144,51.5999987 6.552,51.856 C6.93066856,52.1120013 7.24799872,52.4826642 7.504,52.968 C7.76000128,53.4533358 7.888,54.0213301 7.888,54.672 C7.888,55.7813389 7.53867016,56.6373303 6.84,57.24 C6.14132984,57.8426697 5.22133904,58.144 4.08,58.144 C3.0666616,58.144 2.19733696,57.9360021 1.472,57.52 C0.74666304,57.1039979 0.384,56.6506691 0.384,56.16 L0.384,56.16 Z M14.7662223,47.232 C14.7662223,46.9866654 14.8222218,46.7706676 14.9342223,46.584 C15.0462229,46.3973324 15.2088879,46.304 15.4222223,46.304 L22.1902223,46.304 C22.4035567,46.304 22.5662218,46.3973324 22.6782223,46.584 C22.7902229,46.7706676 22.8462223,46.9866654 22.8462223,47.232 C22.8462223,47.4880013 22.7875562,47.7093324 22.6702223,47.896 C22.5528884,48.0826676 22.39289,48.176 22.1902223,48.176 L19.8542223,48.176 L19.8542223,57.344 C19.8542223,57.5466677 19.7502234,57.7066661 19.5422223,57.824 C19.3342213,57.9413339 19.091557,58 18.8142223,58 C18.5262209,58 18.28089,57.9413339 18.0782223,57.824 C17.8755546,57.7066661 17.7742223,57.5466677 17.7742223,57.344 L17.7742223,48.176 L15.4222223,48.176 C15.2195546,48.176 15.0595562,48.0853342 14.9422223,47.904 C14.8248884,47.7226658 14.7662223,47.498668 14.7662223,47.232 L14.7662223,47.232 Z M30.2044447,57.344 L30.2044447,46.944 C30.2044447,46.7733325 30.268444,46.6240006 30.3964447,46.496 C30.5244453,46.3679994 30.6844437,46.304 30.8764447,46.304 L34.0444447,46.304 C36.5724573,46.304 37.8364447,47.4186555 37.8364447,49.648 C37.8364447,50.522671 37.6471132,51.226664 37.2684447,51.76 C36.8897761,52.293336 36.3804479,52.655999 35.7404447,52.848 L37.8364447,56.736 C37.8897783,56.8000003 37.9164447,56.8853328 37.9164447,56.992 C37.9164447,57.258668 37.7777794,57.5066655 37.5004447,57.736 C37.2231099,57.9653345 36.9297795,58.08 36.6204447,58.08 C36.3111098,58.08 36.0711122,57.9146683 35.9004447,57.584 L33.6284447,53.168 L32.2844447,53.168 L32.2844447,57.344 C32.2844447,57.5466677 32.1831123,57.7066661 31.9804447,57.824 C31.777777,57.9413339 31.5324461,58 31.2444447,58 C30.9671099,58 30.7244457,57.9413339 30.5164447,57.824 C30.3084436,57.7066661 30.2044447,57.5466677 30.2044447,57.344 L30.2044447,57.344 Z M32.2844447,51.536 L34.0444447,51.536 C35.1857837,51.536 35.7564447,50.9706723 35.7564447,49.84 C35.7564447,48.698661 35.1857837,48.128 34.0444447,48.128 L32.2844447,48.128 L32.2844447,51.536 Z M45.546667,57.344 L45.546667,46.96 C45.546667,46.7573323 45.6373327,46.5973339 45.818667,46.48 C46.0000012,46.3626661 46.2133324,46.304 46.458667,46.304 L52.154667,46.304 C52.3680014,46.304 52.5306664,46.3946658 52.642667,46.576 C52.7546675,46.7573342 52.810667,46.9653322 52.810667,47.2 C52.810667,47.4560013 52.7520009,47.6746658 52.634667,47.856 C52.5173331,48.0373342 52.3573347,48.128 52.154667,48.128 L47.626667,48.128 L47.626667,51.328 L50.058667,51.328 C50.2613347,51.328 50.4213331,51.4106658 50.538667,51.576 C50.6560009,51.7413342 50.714667,51.9359989 50.714667,52.16 C50.714667,52.3626677 50.6586675,52.5466658 50.546667,52.712 C50.4346664,52.8773342 50.2720014,52.96 50.058667,52.96 L47.626667,52.96 L47.626667,56.176 L52.154667,56.176 C52.3573347,56.176 52.5173331,56.2666658 52.634667,56.448 C52.7520009,56.6293342 52.810667,56.8479987 52.810667,57.104 C52.810667,57.3386678 52.7546675,57.5466658 52.642667,57.728 C52.5306664,57.9093342 52.3680014,58 52.154667,58 L46.458667,58 C46.2133324,58 46.0000012,57.9413339 45.818667,57.824 C45.6373327,57.7066661 45.546667,57.5466677 45.546667,57.344 L45.546667,57.344 Z M59.4808893,47.232 C59.4808893,46.9866654 59.5368888,46.7706676 59.6488893,46.584 C59.7608899,46.3973324 59.9235549,46.304 60.1368893,46.304 L66.9048893,46.304 C67.1182237,46.304 67.2808888,46.3973324 67.3928893,46.584 C67.5048899,46.7706676 67.5608893,46.9866654 67.5608893,47.232 C67.5608893,47.4880013 67.5022232,47.7093324 67.3848893,47.896 C67.2675554,48.0826676 67.107557,48.176 66.9048893,48.176 L64.5688893,48.176 L64.5688893,57.344 C64.5688893,57.5466677 64.4648904,57.7066661 64.2568893,57.824 C64.0488883,57.9413339 63.806224,58 63.5288893,58 C63.2408879,58 62.995557,57.9413339 62.7928893,57.824 C62.5902216,57.7066661 62.4888893,57.5466677 62.4888893,57.344 L62.4888893,48.176 L60.1368893,48.176 C59.9342216,48.176 59.7742232,48.0853342 59.6568893,47.904 C59.5395554,47.7226658 59.4808893,47.498668 59.4808893,47.232 L59.4808893,47.232 Z M74.6151116,54.432 L74.6151116,49.968 C74.6151116,48.709327 74.9564416,47.784003 75.6391116,47.192 C76.3217817,46.599997 77.2124395,46.304 78.3111116,46.304 C79.4311172,46.304 80.3457748,46.5813306 81.0551116,47.136 C81.7644485,47.6906694 82.1191116,48.4266621 82.1191116,49.344 C82.1191116,49.7386686 82.0391124,50.0079993 81.8791116,50.152 C81.7191108,50.2960007 81.4524468,50.368 81.0791116,50.368 C80.3964416,50.368 80.0497784,50.1493355 80.0391116,49.712 C80.0284449,49.5733326 80.0151117,49.4533338 79.9991116,49.352 C79.9831116,49.2506662 79.9404453,49.1173342 79.8711116,48.952 C79.801778,48.7866658 79.7137788,48.6480006 79.6071116,48.536 C79.5004444,48.4239994 79.340446,48.3280004 79.1271116,48.248 C78.9137772,48.1679996 78.6631131,48.128 78.3751116,48.128 C77.255106,48.128 76.6951116,48.7413272 76.6951116,49.968 L76.6951116,54.432 C76.6951116,55.6586728 77.2657726,56.272 78.4071116,56.272 C78.7484467,56.272 79.0337772,56.2186672 79.2631116,56.112 C79.4924461,56.0053328 79.6577778,55.8533343 79.7591116,55.656 C79.8604455,55.4586657 79.9297781,55.2826674 79.9671116,55.128 C80.0044452,54.9733326 80.0284449,54.7840011 80.0391116,54.56 C80.0711118,54.1226645 80.4124417,53.904 81.0631116,53.904 C81.4364468,53.904 81.7057775,53.9759993 81.8711116,54.12 C82.0364458,54.2640007 82.1191116,54.5333314 82.1191116,54.928 C82.1191116,55.8880048 81.7644485,56.6559971 81.0551116,57.232 C80.3457748,57.8080029 79.425784,58.096 78.2951116,58.096 C77.1964395,58.096 76.3084484,57.800003 75.6311116,57.208 C74.9537749,56.615997 74.6151116,55.690673 74.6151116,54.432 L74.6151116,54.432 Z M89.749334,57.344 L89.749334,46.944 C89.749334,46.7306656 89.8506663,46.5706672 90.053334,46.464 C90.2560016,46.3573328 90.5013325,46.304 90.789334,46.304 C91.0773354,46.304 91.3226663,46.3573328 91.525334,46.464 C91.7280016,46.5706672 91.829334,46.7306656 91.829334,46.944 L91.829334,51.12 L95.429334,51.12 L95.429334,46.944 C95.429334,46.7306656 95.5306663,46.5706672 95.733334,46.464 C95.9360016,46.3573328 96.1813325,46.304 96.469334,46.304 C96.7573354,46.304 97.0026663,46.3573328 97.205334,46.464 C97.4080016,46.5706672 97.509334,46.7306656 97.509334,46.944 L97.509334,57.344 C97.509334,57.5466677 97.405335,57.7066661 97.197334,57.824 C96.9893329,57.9413339 96.7466687,58 96.469334,58 C96.1813325,58 95.9360016,57.9413339 95.733334,57.824 C95.5306663,57.7066661 95.429334,57.5466677 95.429334,57.344 L95.429334,52.752 L91.829334,52.752 L91.829334,57.344 C91.829334,57.5466677 91.725335,57.7066661 91.517334,57.824 C91.3093329,57.9413339 91.0666687,58 90.789334,58 C90.5013325,58 90.2560016,57.9413339 90.053334,57.824 C89.8506663,57.7066661 89.749334,57.5466677 89.749334,57.344 L89.749334,57.344 Z M105.651556,57.344 L105.651556,46.944 C105.651556,46.7306656 105.752889,46.5706672 105.955556,46.464 C106.158224,46.3573328 106.403555,46.304 106.691556,46.304 C106.979558,46.304 107.224889,46.3573328 107.427556,46.464 C107.630224,46.5706672 107.731556,46.7306656 107.731556,46.944 L107.731556,57.344 C107.731556,57.5466677 107.627557,57.7066661 107.419556,57.824 C107.211555,57.9413339 106.968891,58 106.691556,58 C106.403555,58 106.158224,57.9413339 105.955556,57.824 C105.752889,57.7066661 105.651556,57.5466677 105.651556,57.344 L105.651556,57.344 Z M115.873779,57.344 L115.873779,46.96 C115.873779,46.7466656 115.975111,46.5840006 116.177779,46.472 C116.380446,46.3599994 116.625777,46.304 116.913779,46.304 C117.297781,46.304 117.591111,46.3733326 117.793779,46.512 C117.996446,46.6506674 118.220444,46.949331 118.465779,47.408 L121.553779,53.376 L121.553779,46.944 C121.553779,46.7306656 121.655111,46.5706672 121.857779,46.464 C122.060446,46.3573328 122.305777,46.304 122.593779,46.304 C122.88178,46.304 123.127111,46.3573328 123.329779,46.464 C123.532446,46.5706672 123.633779,46.7306656 123.633779,46.944 L123.633779,57.344 C123.633779,57.5466677 123.52978,57.7066661 123.321779,57.824 C123.113778,57.9413339 122.871113,58 122.593779,58 C122.028442,58 121.628446,57.7813355 121.393779,57.344 L117.953779,50.912 L117.953779,57.344 C117.953779,57.5466677 117.84978,57.7066661 117.641779,57.824 C117.433778,57.9413339 117.191113,58 116.913779,58 C116.625777,58 116.380446,57.9413339 116.177779,57.824 C115.975111,57.7066661 115.873779,57.5466677 115.873779,57.344 L115.873779,57.344 Z M131.648001,54.432 L131.648001,49.968 C131.648001,48.709327 131.986664,47.784003 132.664001,47.192 C133.341338,46.599997 134.229329,46.304 135.328001,46.304 C136.458673,46.304 137.378664,46.5813306 138.088001,47.136 C138.797338,47.6906694 139.152001,48.4373286 139.152001,49.376 C139.152001,49.7600019 139.069335,50.0213326 138.904001,50.16 C138.738667,50.2986674 138.474669,50.368 138.112001,50.368 C137.429331,50.368 137.082668,50.1493355 137.072001,49.712 C137.040001,49.2426643 136.906669,48.8613348 136.672001,48.568 C136.437333,48.2746652 136.016004,48.128 135.408001,48.128 C134.287995,48.128 133.728001,48.7413272 133.728001,49.968 L133.728001,54.432 C133.728001,55.6586728 134.282662,56.272 135.392001,56.272 C135.925337,56.272 136.338666,56.1173349 136.632001,55.808 C136.925336,55.4986651 137.072001,55.040003 137.072001,54.432 L137.072001,53.488 L135.776001,53.488 C135.573333,53.488 135.416002,53.4080008 135.304001,53.248 C135.192,53.0879992 135.136001,52.8960011 135.136001,52.672 C135.136001,52.4586656 135.194667,52.2693342 135.312001,52.104 C135.429335,51.9386658 135.584,51.856 135.776001,51.856 L138.496001,51.856 C138.698669,51.856 138.858667,51.922666 138.976001,52.056 C139.093335,52.189334 139.152001,52.3466658 139.152001,52.528 L139.152001,54.432 C139.152001,55.7013397 138.810671,56.6293304 138.128001,57.216 C137.445331,57.8026696 136.53334,58.096 135.392001,58.096 C134.250662,58.096 133.341338,57.8026696 132.664001,57.216 C131.986664,56.6293304 131.648001,55.7013397 131.648001,54.432 L131.648001,54.432 Z M155.676446,47.232 C155.676446,46.9866654 155.732445,46.7706676 155.844446,46.584 C155.956446,46.3973324 156.119111,46.304 156.332446,46.304 L163.100446,46.304 C163.31378,46.304 163.476445,46.3973324 163.588446,46.584 C163.700446,46.7706676 163.756446,46.9866654 163.756446,47.232 C163.756446,47.4880013 163.69778,47.7093324 163.580446,47.896 C163.463112,48.0826676 163.303113,48.176 163.100446,48.176 L160.764446,48.176 L160.764446,57.344 C160.764446,57.5466677 160.660447,57.7066661 160.452446,57.824 C160.244445,57.9413339 160.00178,58 159.724446,58 C159.436444,58 159.191113,57.9413339 158.988446,57.824 C158.785778,57.7066661 158.684446,57.5466677 158.684446,57.344 L158.684446,48.176 L156.332446,48.176 C156.129778,48.176 155.96978,48.0853342 155.852446,47.904 C155.735112,47.7226658 155.676446,47.498668 155.676446,47.232 L155.676446,47.232 Z M170.794668,54.432 L170.794668,49.968 C170.794668,48.6986603 171.133331,47.7706696 171.810668,47.184 C172.488005,46.5973304 173.397329,46.304 174.538668,46.304 C175.680007,46.304 176.591998,46.5973304 177.274668,47.184 C177.957338,47.7706696 178.298668,48.6986603 178.298668,49.968 L178.298668,54.432 C178.298668,55.7013397 177.957338,56.6293304 177.274668,57.216 C176.591998,57.8026696 175.680007,58.096 174.538668,58.096 C173.397329,58.096 172.488005,57.8026696 171.810668,57.216 C171.133331,56.6293304 170.794668,55.7013397 170.794668,54.432 L170.794668,54.432 Z M172.874668,54.432 C172.874668,55.6586728 173.429329,56.272 174.538668,56.272 C175.658674,56.272 176.218668,55.6586728 176.218668,54.432 L176.218668,49.968 C176.218668,48.7413272 175.658674,48.128 174.538668,48.128 C173.429329,48.128 172.874668,48.7413272 172.874668,49.968 L172.874668,54.432 Z M195.143113,56.16 C195.143113,55.9146654 195.236445,55.6666679 195.423113,55.416 C195.60978,55.1653321 195.820445,55.04 196.055113,55.04 C196.19378,55.04 196.351112,55.1039994 196.527113,55.232 C196.703113,55.3600006 196.873778,55.5013326 197.039113,55.656 C197.204447,55.8106674 197.441778,55.9519994 197.751113,56.08 C198.060447,56.2080006 198.401777,56.272 198.775113,56.272 C199.287115,56.272 199.713778,56.1546678 200.055113,55.92 C200.396448,55.6853322 200.567113,55.338669 200.567113,54.88 C200.567113,54.5599984 200.47378,54.2746679 200.287113,54.024 C200.100445,53.7733321 199.855114,53.5653342 199.551113,53.4 C199.247111,53.2346658 198.913781,53.0746674 198.551113,52.92 C198.188444,52.7653326 197.823114,52.592001 197.455113,52.4 C197.087111,52.207999 196.751114,51.9920012 196.447113,51.752 C196.143111,51.5119988 195.89778,51.192002 195.711113,50.792 C195.524445,50.391998 195.431113,49.9360026 195.431113,49.424 C195.431113,48.8586638 195.545778,48.3600022 195.775113,47.928 C196.004447,47.4959978 196.311111,47.1600012 196.695113,46.92 C197.079115,46.6799988 197.489777,46.5040006 197.927113,46.392 C198.364448,46.2799994 198.828443,46.224 199.319113,46.224 C199.596447,46.224 199.889778,46.2426665 200.199113,46.28 C200.508447,46.3173335 200.836444,46.3786662 201.183113,46.464 C201.529781,46.5493338 201.812445,46.6826658 202.031113,46.864 C202.24978,47.0453342 202.359113,47.2586654 202.359113,47.504 C202.359113,47.7386678 202.284447,47.9813321 202.135113,48.232 C201.985779,48.4826679 201.783114,48.608 201.527113,48.608 C201.431112,48.608 201.169781,48.5066677 200.743113,48.304 C200.316444,48.1013323 199.841782,48 199.319113,48 C198.74311,48 198.297781,48.1093322 197.983113,48.328 C197.668444,48.5466678 197.511113,48.8479981 197.511113,49.232 C197.511113,49.5413349 197.639111,49.8106655 197.895113,50.04 C198.151114,50.2693345 198.468444,50.4559993 198.847113,50.6 C199.225781,50.7440007 199.636444,50.9253322 200.079113,51.144 C200.521781,51.3626678 200.932444,51.5999987 201.311113,51.856 C201.689781,52.1120013 202.007111,52.4826642 202.263113,52.968 C202.519114,53.4533358 202.647113,54.0213301 202.647113,54.672 C202.647113,55.7813389 202.297783,56.6373303 201.599113,57.24 C200.900442,57.8426697 199.980452,58.144 198.839113,58.144 C197.825774,58.144 196.95645,57.9360021 196.231113,57.52 C195.505776,57.1039979 195.143113,56.6506691 195.143113,56.16 L195.143113,56.16 Z M210.293335,57.344 L210.293335,46.96 C210.293335,46.7573323 210.384001,46.5973339 210.565335,46.48 C210.746669,46.3626661 210.96,46.304 211.205335,46.304 L216.901335,46.304 C217.114669,46.304 217.277334,46.3946658 217.389335,46.576 C217.501335,46.7573342 217.557335,46.9653322 217.557335,47.2 C217.557335,47.4560013 217.498669,47.6746658 217.381335,47.856 C217.264001,48.0373342 217.104003,48.128 216.901335,48.128 L212.373335,48.128 L212.373335,51.328 L214.805335,51.328 C215.008003,51.328 215.168001,51.4106658 215.285335,51.576 C215.402669,51.7413342 215.461335,51.9359989 215.461335,52.16 C215.461335,52.3626677 215.405335,52.5466658 215.293335,52.712 C215.181334,52.8773342 215.018669,52.96 214.805335,52.96 L212.373335,52.96 L212.373335,56.176 L216.901335,56.176 C217.104003,56.176 217.264001,56.2666658 217.381335,56.448 C217.498669,56.6293342 217.557335,56.8479987 217.557335,57.104 C217.557335,57.3386678 217.501335,57.5466658 217.389335,57.728 C217.277334,57.9093342 217.114669,58 216.901335,58 L211.205335,58 C210.96,58 210.746669,57.9413339 210.565335,57.824 C210.384001,57.7066661 210.293335,57.5466677 210.293335,57.344 L210.293335,57.344 Z M224.995557,57.344 L224.995557,46.944 C224.995557,46.7306656 225.09689,46.5706672 225.299557,46.464 C225.502225,46.3573328 225.747556,46.304 226.035557,46.304 C226.323559,46.304 226.56889,46.3573328 226.771557,46.464 C226.974225,46.5706672 227.075557,46.7306656 227.075557,46.944 L227.075557,56.176 L230.979557,56.176 C231.171558,56.176 231.323557,56.2666658 231.435557,56.448 C231.547558,56.6293342 231.603557,56.8426654 231.603557,57.088 C231.603557,57.3333346 231.547558,57.5466658 231.435557,57.728 C231.323557,57.9093342 231.171558,58 230.979557,58 L225.907557,58 C225.662223,58 225.448891,57.9413339 225.267557,57.824 C225.086223,57.7066661 224.995557,57.5466677 224.995557,57.344 L224.995557,57.344 Z M238.96178,57.344 L238.96178,46.944 C238.96178,46.7306656 239.063112,46.5706672 239.26578,46.464 C239.468447,46.3573328 239.713778,46.304 240.00178,46.304 C240.289781,46.304 240.535112,46.3573328 240.73778,46.464 C240.940447,46.5706672 241.04178,46.7306656 241.04178,46.944 L241.04178,56.176 L244.94578,56.176 C245.137781,56.176 245.289779,56.2666658 245.40178,56.448 C245.51378,56.6293342 245.56978,56.8426654 245.56978,57.088 C245.56978,57.3333346 245.51378,57.5466658 245.40178,57.728 C245.289779,57.9093342 245.137781,58 244.94578,58 L239.87378,58 C239.628445,58 239.415114,57.9413339 239.23378,57.824 C239.052445,57.7066661 238.96178,57.5466677 238.96178,57.344 L238.96178,57.344 Z" id="STRETCHING-TO-SELL" fill="#005772" sketch:type="MSShapeGroup"></path>
    </g>
</svg>