<?xml version="1.0" encoding="UTF-8" standalone="no"?>
<svg width="62px" height="11px" viewBox="0 0 62 11" version="1.1" xmlns="http://www.w3.org/2000/svg" xmlns:xlink="http://www.w3.org/1999/xlink" xmlns:sketch="http://www.bohemiancoding.com/sketch/ns">
    <!-- Generator: Sketch 3.5.1 (25234) - http://www.bohemiancoding.com/sketch -->
    <title>Slice 23</title>
    <desc>Created with Sketch.</desc>
    <defs></defs>
    <g id="Page-1" stroke="none" stroke-width="1" fill="none" fill-rule="evenodd" sketch:type="MSPage">
        <path d="M61.4684046,5.66922022 C61.2616872,6.10710387 53.3231801,6.0337128 50.8573079,6.25979671 C49.4632597,6.38835422 48.2846915,6.91539078 47.3212051,6.25979671 C47.133606,5.68892252 46.9145413,5.28009977 47.0340311,4.60529595 C47.4641946,4.39842179 47.6792763,4.16199417 48.181532,4.48658959 C53.0443704,4.09303612 55.6134021,4.04328781 59.4609752,4.36886834 C59.648176,3.29460036 62.0539049,4.43290081 61.4684046,5.66922022 Z M47.0915958,8.30104247 C47.2983132,7.86315883 55.2368203,7.9365499 57.7026925,7.71046599 C59.0967407,7.58190848 60.2753089,7.05487192 61.2387953,7.71046599 C61.4263944,8.28134017 61.6454591,8.69016293 61.5259693,9.36496675 C61.0958058,9.57184091 60.8807241,9.80826853 60.3784684,9.48367311 C55.51563,9.87722658 52.9465983,9.92697489 49.0990252,9.60139436 C48.9118245,10.6756623 46.5060955,9.53736188 47.0915958,8.30104247 Z M47.0915958,0.912679476 C47.2983132,0.474795829 55.2368203,0.548186902 57.7026925,0.322102994 C59.0967407,0.193545478 60.2753089,-0.333491083 61.2387953,0.322102994 C61.4263944,0.892977175 61.6454591,1.30179993 61.5259693,1.97660375 C61.0958058,2.18347791 60.8807241,2.41990553 60.3784684,2.09531011 C55.51563,2.48886358 52.9465983,2.53861189 49.0990252,2.21303136 C48.9118245,3.28729934 46.5060955,2.14899888 47.0915958,0.912679476 Z" id="Fill-178" fill="#858B7B" sketch:type="MSShapeGroup"></path>
        <path d="M2.525,1.8 C2.54166675,2.066668 2.57083313,2.39583138 2.6125,2.7875 C2.65416687,3.17916863 2.69999975,3.58749788 2.75,4.0125 C2.80000025,4.43750212 2.85416637,4.85833125 2.9125,5.275 C2.97083362,5.69166875 3.02499975,6.07499825 3.075,6.425 C3.25833425,6.0583315 3.483332,5.608336 3.75,5.075 C4.016668,4.541664 4.29583187,4.02916912 4.5875,3.5375 C4.87916812,3.04583087 5.17916513,2.62916837 5.4875,2.2875 C5.79583487,1.94583163 6.07499875,1.775 6.325,1.775 C6.591668,1.775 6.83749888,1.90416538 7.0625,2.1625 C7.28750112,2.42083462 7.4833325,2.7333315 7.65,3.1 C7.8166675,3.4666685 7.96249937,3.85833125 8.0875,4.275 C8.21250062,4.69166875 8.31666625,5.05833175 8.4,5.375 C8.466667,5.15833225 8.55416613,4.91250138 8.6625,4.6375 C8.77083387,4.36249863 8.88749937,4.07916812 9.0125,3.7875 C9.13750063,3.49583188 9.27916587,3.20833475 9.4375,2.925 C9.59583413,2.64166525 9.76666575,2.39166775 9.95,2.175 C10.1666677,1.9416655 10.3999988,1.77083388 10.65,1.6625 C10.9000012,1.55416613 11.0833327,1.5 11.2,1.5 C11.3500008,1.5 11.5291656,1.54583288 11.7375,1.6375 C11.9458344,1.72916713 12.1583323,1.84999925 12.375,2 C12.5916677,2.15000075 12.7958324,2.32916563 12.9875,2.5375 C13.1791676,2.74583438 13.3333327,2.95833225 13.45,3.175 C13.6833345,3.62500225 13.8708326,4.116664 14.0125,4.65 C14.1541674,5.183336 14.258333,5.69166425 14.325,6.175 C14.391667,6.65833575 14.4374999,7.08749812 14.4625,7.4625 C14.4875001,7.83750188 14.5083332,8.09999925 14.525,8.25 C14.525,8.46666775 14.5000002,8.62916612 14.45,8.7375 C14.3999998,8.84583387 14.308334,8.933333 14.175,9 C13.9916658,9.08333375 13.833334,9.11250013 13.7,9.0875 C13.566666,9.06249988 13.4583337,9.00833375 13.375,8.925 C13.2916663,8.84166625 13.2250002,8.74583388 13.175,8.6375 C13.1249998,8.52916612 13.0916668,8.43333375 13.075,8.35 C13.0249998,7.96666475 12.9708336,7.575002 12.9125,7.175 C12.8541664,6.774998 12.791667,6.38750187 12.725,6.0125 C12.658333,5.63749813 12.5791671,5.28750163 12.4875,4.9625 C12.3958329,4.63749837 12.3000005,4.35000125 12.2,4.1 C12.1666665,4.033333 12.1125004,3.94583387 12.0375,3.8375 C11.9624996,3.72916612 11.8791671,3.6250005 11.7875,3.525 C11.6958329,3.4249995 11.6083338,3.341667 11.525,3.275 C11.4416663,3.208333 11.3833335,3.16666675 11.35,3.15 C11.1833325,3.15 11.0083342,3.30416512 10.825,3.6125 C10.6416658,3.92083488 10.4666675,4.2916645 10.3,4.725 C10.1333325,5.1583355 9.97916737,5.61249762 9.8375,6.0875 C9.69583262,6.56250238 9.591667,6.966665 9.525,7.3 C9.525,7.7333355 9.4416675,8.05416562 9.275,8.2625 C9.1083325,8.47083437 8.93333425,8.575 8.75,8.575 C8.56666575,8.575 8.37083437,8.50416738 8.1625,8.3625 C7.95416562,8.22083262 7.816667,8.05833425 7.75,7.875 C7.6499995,7.608332 7.54166725,7.308335 7.425,6.975 C7.30833275,6.641665 7.18750062,6.30000175 7.0625,5.95 C6.93749938,5.59999825 6.81250062,5.258335 6.6875,4.925 C6.56249938,4.591665 6.44166725,4.291668 6.325,4.025 C6.0916655,4.34166825 5.86250112,4.69166475 5.6375,5.075 C5.41249887,5.45833525 5.19583438,5.849998 4.9875,6.25 C4.77916563,6.650002 4.57916762,7.04583137 4.3875,7.4375 C4.19583238,7.82916863 4.0166675,8.1749985 3.85,8.475 C3.73333275,8.65833425 3.608334,8.82083263 3.475,8.9625 C3.341666,9.10416738 3.18333425,9.175 3,9.175 C2.866666,9.175 2.72500075,9.11250063 2.575,8.9875 C2.42499925,8.86249937 2.283334,8.70833425 2.15,8.525 C2.016666,8.34166575 1.89583387,8.1333345 1.7875,7.9 C1.67916613,7.6666655 1.60000025,7.4333345 1.55,7.2 C1.416666,6.48332975 1.30416713,5.69583762 1.2125,4.8375 C1.12083288,3.97916237 1.03333375,3.14167075 0.95,2.325 C0.93333325,2.04166525 0.970832875,1.77916787 1.0625,1.5375 C1.15416712,1.29583212 1.333332,1.13333375 1.6,1.05 C1.88333475,0.99999975 2.09999925,1.041666 2.25,1.175 C2.40000075,1.308334 2.4916665,1.51666525 2.525,1.8 L2.525,1.8 Z M21.4636365,4 C20.8136332,4.38333525 20.1136402,4.67916562 19.3636365,4.8875 C18.6136327,5.09583437 17.8053075,5.2 16.9386365,5.2 C16.97197,5.78333625 17.138635,6.24583163 17.4386365,6.5875 C17.738638,6.92916837 18.1136342,7.133333 18.5636365,7.2 C18.8303045,7.2333335 19.1011351,7.22500025 19.3761365,7.175 C19.6511379,7.12499975 19.9094686,7.04583387 20.1511365,6.9375 C20.3928044,6.82916613 20.6136355,6.708334 20.8136365,6.575 C21.0136375,6.441666 21.1886357,6.308334 21.3386365,6.175 C21.4886372,6.041666 21.646969,5.95416687 21.8136365,5.9125 C21.980304,5.87083312 22.1053027,5.8666665 22.1886365,5.9 C22.421971,5.98333375 22.5053035,6.23333125 22.4386365,6.65 C22.1719685,7.183336 21.788639,7.63749813 21.2886365,8.0125 C20.788634,8.38750187 20.2303062,8.6249995 19.6136365,8.725 C19.0803005,8.8250005 18.530306,8.80000075 17.9636365,8.65 C17.396967,8.49999925 16.8886387,8.2083355 16.4386365,7.775 C16.0553012,7.39166475 15.7636375,6.94166925 15.5636365,6.425 C15.3636355,5.90833075 15.2386367,5.37500275 15.1886365,4.825 C15.1386362,4.30833075 15.1844691,3.816669 15.3261365,3.35 C15.4678039,2.883331 15.688635,2.47083512 15.9886365,2.1125 C16.288638,1.75416488 16.6636342,1.4583345 17.1136365,1.225 C17.5636387,0.9916655 18.0886335,0.8583335 18.6886365,0.825 C19.4053067,0.77499975 20.0553002,0.90833175 20.6386365,1.225 C21.2219727,1.54166825 21.630302,1.9833305 21.8636365,2.55 C21.9969705,2.86666825 22.0344701,3.1416655 21.9761365,3.375 C21.9178029,3.6083345 21.7469712,3.81666575 21.4636365,4 L21.4636365,4 Z M18.5886365,2.3 C18.421969,2.3333335 18.2428041,2.39166625 18.0511365,2.475 C17.8594689,2.55833375 17.6844706,2.66249938 17.5261365,2.7875 C17.3678024,2.91250062 17.2261371,3.05416588 17.1011365,3.2125 C16.9761359,3.37083412 16.9053032,3.549999 16.8886365,3.75 C17.1719712,3.75 17.4844681,3.72500025 17.8261365,3.675 C18.1678049,3.62499975 18.5011349,3.56250037 18.8261365,3.4875 C19.1511381,3.41249962 19.4511351,3.3250005 19.7261365,3.225 C20.0011379,3.1249995 20.2303022,3.01666725 20.4136365,2.9 C20.2803025,2.58333175 20.0344716,2.38750037 19.6761365,2.3125 C19.3178014,2.23749962 18.955305,2.233333 18.5886365,2.3 L18.5886365,2.3 Z M24.652273,1.625 C24.7022732,1.87500125 24.7564394,2.15416512 24.814773,2.4625 C24.8731066,2.77083487 24.935606,3.08749837 25.002273,3.4125 C25.06894,3.73750162 25.1272727,4.066665 25.177273,4.4 C25.2272732,4.733335 25.2689395,5.0499985 25.302273,5.35 C25.502274,4.9166645 25.7189385,4.45833575 25.952273,3.975 C26.1856075,3.49166425 26.4397716,3.04583537 26.714773,2.6375 C26.9897744,2.22916462 27.2814381,1.891668 27.589773,1.625 C27.8981079,1.358332 28.2356045,1.225 28.602273,1.225 C29.1522757,1.225 29.6147711,1.424998 29.989773,1.825 C30.3647749,2.225002 30.6814384,2.72083037 30.939773,3.3125 C31.1981076,3.90416962 31.4022722,4.52499675 31.552273,5.175 C31.7022737,5.82500325 31.8272725,6.3999975 31.927273,6.9 C32.0272735,7.35000225 31.8272755,7.68333225 31.327273,7.9 C31.0939385,8.01666725 30.9189402,8.03333375 30.802273,7.95 C30.6856057,7.86666625 30.6189397,7.78333375 30.602273,7.7 C30.5189392,7.499999 30.4147736,7.1500025 30.289773,6.65 C30.1647724,6.1499975 30.0231071,5.64166925 29.864773,5.125 C29.7064389,4.60833075 29.527274,4.15833525 29.327273,3.775 C29.127272,3.39166475 28.9022742,3.2166665 28.652273,3.25 C28.3522715,3.26666675 28.0856075,3.4916645 27.852273,3.925 C27.652272,4.27500175 27.4481074,4.66249787 27.239773,5.0875 C27.0314386,5.51250212 26.827274,5.94583112 26.627273,6.3875 C26.427272,6.82916887 26.2314406,7.27083113 26.039773,7.7125 C25.8481054,8.15416887 25.6689405,8.5583315 25.502273,8.925 C25.3856057,9.04166725 25.2397739,9.12083313 25.064773,9.1625 C24.8897721,9.20416687 24.7106072,9.191667 24.527273,9.125 C24.3606055,9.07499975 24.2272735,8.99166725 24.127273,8.875 C24.0272725,8.75833275 23.977273,8.64166725 23.977273,8.525 C23.8272722,7.2249935 23.6731071,6.041672 23.514773,4.975 C23.3564389,3.908328 23.1522742,2.81667225 22.902273,1.7 C22.7856057,1.31666475 22.7647726,1.01250112 22.839773,0.7875 C22.9147734,0.562498875 23.1606042,0.47499975 23.577273,0.525 C24.1606092,0.6250005 24.518939,0.9916635 24.652273,1.625 L24.652273,1.625 Z M34.6659095,2.475 C34.565909,2.92500225 34.46591,3.42083062 34.3659095,3.9625 C34.265909,4.50416938 34.1950764,5.0249975 34.1534095,5.525 C34.1117426,6.0250025 34.1117426,6.474998 34.1534095,6.875 C34.1950764,7.275002 34.299242,7.5583325 34.4659095,7.725 C34.7492442,7.77500025 35.074241,7.65416813 35.4409095,7.3625 C35.807578,7.07083188 36.1659077,6.70000225 36.5159095,6.25 C36.8659112,5.79999775 37.1825747,5.31250263 37.4659095,4.7875 C37.7492442,4.26249737 37.9492422,3.800002 38.0659095,3.4 C38.1325765,3.199999 38.1909092,2.99166775 38.2409095,2.775 C38.2909097,2.55833225 38.3159095,2.3333345 38.3159095,2.1 C38.3159095,1.966666 38.4034086,1.83750062 38.5784095,1.7125 C38.7534104,1.58749937 38.8992422,1.51666675 39.0159095,1.5 C39.0992432,1.48333325 39.1950756,1.49999975 39.3034095,1.55 C39.4117434,1.60000025 39.5117424,1.67083287 39.6034095,1.7625 C39.6950766,1.85416712 39.7784091,1.96249937 39.8534095,2.0875 C39.9284099,2.21250063 39.9659095,2.341666 39.9659095,2.475 C39.999243,2.9750025 40.0492425,3.524997 40.1159095,4.125 C40.1825765,4.725003 40.2617424,5.324997 40.3534095,5.925 C40.4450766,6.525003 40.540909,7.1083305 40.6409095,7.675 C40.74091,8.2416695 40.840909,8.74999775 40.9409095,9.2 C40.9909097,9.38333425 40.9409102,9.5916655 40.7909095,9.825 C40.6409087,10.0583345 40.4742437,10.1999997 40.2909095,10.25 C40.1409087,10.2833335 39.9867436,10.266667 39.8284095,10.2 C39.6700754,10.133333 39.5492432,10.000001 39.4659095,9.8 C39.3825757,9.5666655 39.3034099,9.27916837 39.2284095,8.9375 C39.1534091,8.59583163 39.0867431,8.23750187 39.0284095,7.8625 C38.9700759,7.48749813 38.9159097,7.12916837 38.8659095,6.7875 C38.8159092,6.44583163 38.7825762,6.1583345 38.7659095,5.925 C38.5159082,6.37500225 38.2200779,6.82916438 37.8784095,7.2875 C37.5367411,7.74583562 37.1700781,8.16249812 36.7784095,8.5375 C36.3867409,8.91250188 35.9784116,9.20416563 35.5534095,9.4125 C35.1284074,9.62083437 34.6909117,9.70000025 34.2409095,9.65 C33.5742395,9.56666625 33.0659112,8.9416725 32.7159095,7.775 C32.5825755,7.308331 32.5200761,6.7916695 32.5284095,6.225 C32.5367429,5.6583305 32.5784091,5.09583612 32.6534095,4.5375 C32.7284099,3.97916387 32.8200756,3.4500025 32.9284095,2.95 C33.0367434,2.4499975 33.1325757,2.04166825 33.2159095,1.725 C33.249243,1.591666 33.315909,1.47083387 33.4159095,1.3625 C33.51591,1.25416612 33.6325755,1.2166665 33.7659095,1.25 C34.0159107,1.30000025 34.2450751,1.44999875 34.4534095,1.7 C34.6617439,1.95000125 34.7325765,2.208332 34.6659095,2.475 L34.6659095,2.475 Z" id="menu" fill="#828976" sketch:type="MSShapeGroup"></path>
    </g>
</svg>