<?xml version="1.0" encoding="UTF-8" standalone="no"?>
<svg width="203px" height="10px" viewBox="0 0 203 10" version="1.1" xmlns="http://www.w3.org/2000/svg" xmlns:xlink="http://www.w3.org/1999/xlink" xmlns:sketch="http://www.bohemiancoding.com/sketch/ns">
    <!-- Generator: Sketch 3.5.1 (25234) - http://www.bohemiancoding.com/sketch -->
    <title>Fill 199</title>
    <desc>Created with Sketch.</desc>
    <defs></defs>
    <g id="Page-1" stroke="none" stroke-width="1" fill="none" fill-rule="evenodd" sketch:type="MSPage">
        <path d="M202.690562,6.0737875 C200.401138,3.0415667 196.798834,1.46831809 192.979015,1.9708746 C191.965461,2.10462995 191.094103,2.4182408 190.146778,2.77145881 C188.120969,3.52789076 186.587976,3.5752895 184.570608,2.49031285 C182.782442,1.52870279 181.29555,0.132712484 179.155464,0.00869660139 C177.669871,-0.0770107103 176.527756,0.474243135 175.502515,1.50922385 C175.346683,1.66635392 174.780496,2.67146694 174.491558,2.79418423 C173.704609,3.12792331 172.595609,2.2968221 172.069028,1.92542375 C171.395057,1.45013775 170.945743,0.756038387 170.155547,0.421000714 C166.916201,-0.95096557 165.077389,2.44486201 162.721087,3.90058771 C159.002559,6.19910198 155.769056,0.481385411 151.658351,1.95009707 C150.224052,2.46239305 149.382562,3.64995875 148.180063,4.48820223 C145.186151,6.57439611 143.573295,4.4687233 141.144272,2.83768718 C137.939987,0.685264925 135.297994,1.59363257 132.30603,3.61294878 C130.057511,5.13035777 128.137538,6.44129006 125.415032,5.03620959 C123.621022,4.1103109 122.241264,2.52342704 120.325836,1.79686279 C116.755347,0.443726138 114.96783,3.0415667 112.001838,4.41742877 C107.904119,6.31792348 104.99981,0.10414338 100.49693,1.81893891 C98.890567,2.43057745 97.7296225,3.75254781 96.2005261,4.47846276 C93.1248024,5.93873355 91.7599784,3.48114132 89.2686227,2.30850946 C85.1780464,0.383341441 84.2294223,4.76350451 80.8322961,5.35501482 C77.2170059,5.98548299 75.1048401,0.978747538 70.9805004,2.27214879 C69.3189473,2.79353493 68.0567123,4.00512466 66.5867021,4.87453443 C63.5239643,6.68477674 61.8831887,4.94855438 59.2782059,3.54152602 C58.0711612,2.88963101 56.8329503,2.5071946 55.4778657,2.87015207 C53.0852033,3.51100902 51.798295,6.37506168 49.0868273,5.75238508 C45.7150238,4.97842208 43.8112826,1.01705611 39.9206901,2.66237677 C37.7000915,3.60191071 36.4398045,5.96016038 33.8478076,5.99911825 C31.3648928,6.03677752 29.3715485,4.22718451 27.0340763,3.61684456 C25.3264231,3.17012767 23.9180961,3.41101716 22.4136731,4.29341289 C20.630052,5.33878237 19.5690993,5.83679379 17.4692702,4.79986518 C16.7641328,4.45184155 16.2258649,3.87851158 15.4609921,3.60840369 C13.9292985,3.06688931 12.7014763,3.58373037 11.4762514,4.54728833 C10.1146738,5.61798043 8.74984984,6.64387098 6.98051329,5.40436145 C6.27732376,4.91154441 5.85463088,4.1719942 5.04885229,3.78825919 C1.77184621,2.22929513 0.345988212,5.97249704 0.00575615617,8.55345586 C-0.100079388,9.35598796 1.28682075,9.54818011 1.42901697,8.74564801 C1.71990239,7.10422313 1.78678006,6.11274537 3.55287012,5.8348459 C5.26571776,5.56603661 5.17027098,6.13612009 6.28316744,7.05812299 C7.18309421,7.80416618 8.137562,8.31646215 9.34460664,8.08141634 C10.7269617,7.81130845 11.2476985,6.59387505 12.3878655,5.98548299 C15.3733369,4.39340475 16.1875563,6.70100919 18.709429,7.24577005 C20.0489304,7.53535688 21.0585885,7.06072018 22.1961583,6.38480115 C25.2043551,4.59988146 26.6730667,5.12711128 29.7208707,6.49453248 C32.5771318,7.77624637 34.9152532,8.21776888 37.5799715,6.30753471 C39.983672,4.58429831 41.4699147,3.03312583 44.4359071,4.86479496 C45.8254044,5.72251738 47.0317998,6.95942972 48.647902,7.40095223 C49.8627382,7.73274342 50.9542079,7.59639088 52.0625592,7.01786652 C54.6337786,5.67511864 55.9284784,3.49153008 59.0918574,5.38553181 C61.9416255,7.09123717 63.9583445,8.31905934 67.1178277,6.52699737 C68.8819698,5.52707874 70.4584649,3.67593066 72.6108872,3.72917309 C75.0178342,3.78890848 76.4073315,5.97704212 78.5058621,6.87177451 C81.8211767,8.28529586 82.9970551,5.76407244 85.4890601,4.26744097 C89.0212402,2.14618501 91.6820626,7.7665069 95.6343384,6.7581474 C97.153046,6.3705166 98.3464554,5.25762014 99.6236242,4.42067526 C102.335092,2.64484573 104.206368,3.82461986 106.635391,5.35501482 C109.757215,7.32303649 111.933662,6.74516144 114.85745,4.75441434 C117.087788,3.23570675 118.977894,2.95845658 121.289394,4.50833046 C122.629544,5.40695864 123.824902,6.52115369 125.316988,7.1743473 C128.86605,8.72876627 131.408051,6.49388318 134.314957,4.71805366 C139.075609,1.80984874 140.546268,6.51531001 144.685542,7.55678371 C148.732615,8.57488268 150.48507,3.26362655 154.124384,3.99928098 C157.900051,4.76285521 159.93495,8.45930767 163.980725,5.78614857 C165.767593,4.60507584 167.490829,1.54428594 169.945824,3.00066094 C171.246368,3.77202674 171.68789,5.33358799 173.387103,5.51863787 C175.431741,5.74199631 175.776519,4.1401786 177.118617,3.12532612 C180.194341,0.799541341 183.083716,4.92907545 185.836739,5.73485404 C188.246283,6.43999147 189.914329,5.21931157 192.166094,4.59663497 C195.521665,3.66943769 198.665565,4.92517966 201.035502,7.350307 C201.845826,8.17946031 203.427515,7.05033141 202.690562,6.0737875" id="Fill-199" fill="#8D999F" sketch:type="MSShapeGroup"></path>
    </g>
</svg>