<?xml version="1.0" encoding="UTF-8" standalone="no"?>
<svg width="155px" height="33px" viewBox="0 0 155 33" version="1.1" xmlns="http://www.w3.org/2000/svg" xmlns:xlink="http://www.w3.org/1999/xlink" xmlns:sketch="http://www.bohemiancoding.com/sketch/ns">
    <!-- Generator: Sketch 3.5.1 (25234) - http://www.bohemiancoding.com/sketch -->
    <title>Rectangle 19</title>
    <desc>Created with Sketch.</desc>
    <defs></defs>
    <g id="Page-1" stroke="none" stroke-width="1" fill="none" fill-rule="evenodd" sketch:type="MSPage">
        <rect id="Rectangle-19" fill="#CCFF91" sketch:type="MSShapeGroup" x="0" y="0" width="155" height="33" rx="3"></rect>
        <path d="M145.242362,6.75402662 C145.326085,7.76863981 144.703921,9.58960623 144.237691,11.5262145 C144.117863,12.0233174 143.987047,12.535595 143.860939,13.0332212 C143.437617,14.7176151 143.029469,16.7327133 142.605624,18.3077446 C142.124219,20.0920824 141.333564,21.6671137 141.223678,23.4561609 C140.601514,23.8909951 139.413177,24.183501 138.586416,23.2049931 C138.665429,21.6409504 137.990416,20.651454 137.3311,19.4379997 C133.783355,22.6294003 129.435013,25.0212502 125.525691,27.8521204 C124.301772,28.5161452 120.47094,25.6962636 120.628443,24.8375837 C120.759259,24.120709 122.161613,24.1102437 122.637785,24.2096643 C123.008781,24.6758945 123.030235,25.4916665 123.642456,25.7171942 C125.881512,25.6486464 128.079754,23.9846598 130.423986,22.3259059 C133.024096,20.4845321 135.180476,18.8461856 136.326429,16.8007379 C138.261991,17.0414404 138.974156,18.5060625 139.842778,19.8142281 C140.988731,16.4292189 141.757409,11.9495369 142.605624,8.26051005 C138.874212,7.95230625 135.635718,7.92038701 131.051906,8.51167783 C131.783955,9.19715657 133.07119,10.0663018 134.317087,11.0238789 C135.018264,11.5623199 137.765411,12.8233914 137.205516,13.9117852 C136.980512,14.3460961 136.121832,14.2990022 135.572926,14.4141207 C131.622266,15.2518699 126.776821,19.1078187 123.76804,21.5729258 C123.008781,22.1950893 122.773834,22.7602169 122.134926,23.4561609 C121.324387,23.5822681 120.267389,23.717794 120,22.5775969 C121.522705,20.4316822 124.018685,18.9246755 126.279195,17.1769663 C128.497843,15.4658858 131.114174,13.9646351 133.814228,12.907114 C132.579843,11.7459863 131.104232,10.3535749 129.293731,9.51687223 C128.466447,9.13436463 126.661179,9.01453666 126.907637,7.75817448 C127.074559,6.9214718 130.162353,6.64885011 131.30255,6.50233557 C135.421179,5.97383669 140.370754,6.64885011 143.987047,6 C144.368508,6.28779642 144.907472,6.41861297 145.242362,6.75402662" id="Fill-124" fill="#5B8031" sketch:type="MSShapeGroup" transform="translate(132.625000, 16.976188) rotate(-330.000000) translate(-132.625000, -16.976188) "></path>
        <path d="M15.532,13.796 C15.6040004,13.7779999 15.7119993,13.7645 15.856,13.7555 C16.0000007,13.7465 16.1394993,13.7554999 16.2745,13.7825 C16.4095007,13.8095001 16.5264995,13.8544997 16.6255,13.9175 C16.7245005,13.9805003 16.7829999,14.0569996 16.801,14.147 C16.8370002,14.3630011 16.8055005,14.5564991 16.7065,14.7275 C16.6074995,14.8985009 16.4320013,15.0469994 16.18,15.173 C15.4959966,15.4970016 14.7850037,15.861498 14.047,16.2665 C13.3089963,16.671502 12.6790026,17.0359984 12.157,17.36 C12.4810016,17.5760011 12.8544979,17.8189987 13.2775,18.089 C13.7005021,18.3590014 14.1369977,18.6424985 14.587,18.9395 C15.0370023,19.2365015 15.4869978,19.5514983 15.937,19.8845 C16.3870023,20.2175017 16.809998,20.5459984 17.206,20.87 C17.5660018,21.1760015 17.6290012,21.4549987 17.395,21.707 C17.2869995,21.8330006 17.1115012,21.9229997 16.8685,21.977 C16.6254988,22.0310003 16.3960011,22.0040005 16.18,21.896 C15.783998,21.697999 15.3520023,21.4595014 14.884,21.1805 C14.4159977,20.9014986 13.9390024,20.6135015 13.453,20.3165 C12.9669976,20.0194985 12.4945023,19.7225015 12.0355,19.4255 C11.5764977,19.1284985 11.1580019,18.8540013 10.78,18.602 C10.8520004,19.2320031 10.9194997,19.8619969 10.9825,20.492 C11.0455003,21.1220032 11.1039997,21.7519969 11.158,22.382 C11.2660005,22.7240017 11.2570006,23.0029989 11.131,23.219 C11.0049994,23.4350011 10.7980014,23.5340001 10.51,23.516 C10.2039985,23.4619997 9.97900072,23.3405009 9.835,23.1515 C9.69099928,22.9624991 9.58300036,22.7150015 9.511,22.409 C9.40299946,21.6709963 9.28150068,20.798005 9.1465,19.79 C9.01149932,18.781995 8.87200072,17.7380054 8.728,16.658 C8.58399928,15.5779946 8.44450068,14.5250051 8.3095,13.499 C8.17449932,12.4729949 8.05300054,11.564004 7.945,10.772 C7.90899982,10.5199987 7.88650005,10.2455015 7.8775,9.9485 C7.86849996,9.65149852 7.96299901,9.45800045 8.161,9.368 C8.43100135,9.25999946 8.70999856,9.31849887 8.998,9.5435 C9.28600144,9.76850113 9.50199928,10.1059977 9.646,10.556 C9.79000072,11.3840041 9.93399928,12.2839951 10.078,13.256 C10.2220007,14.2280049 10.3659993,15.2539946 10.51,16.334 C10.8700018,16.1179989 11.2884976,15.8795013 11.7655,15.6185 C12.2425024,15.3574987 12.7194976,15.1055012 13.1965,14.8625 C13.6735024,14.6194988 14.1189979,14.399001 14.533,14.201 C14.9470021,14.002999 15.2799987,13.8680004 15.532,13.796 L15.532,13.796 Z M24.5645382,16.28 C23.8625347,16.6940021 23.1065422,17.0134989 22.2965382,17.2385 C21.4865341,17.4635011 20.6135429,17.576 19.6775382,17.576 C19.7135384,18.2060032 19.8935366,18.7054982 20.2175382,19.0745 C20.5415398,19.4435018 20.9465358,19.6639996 21.4325382,19.736 C21.7205396,19.7720002 22.0130367,19.7630003 22.3100382,19.709 C22.6070397,19.6549997 22.8860369,19.5695006 23.1470382,19.4525 C23.4080395,19.3354994 23.6465371,19.2050007 23.8625382,19.061 C24.0785393,18.9169993 24.2675374,18.7730007 24.4295382,18.629 C24.591539,18.4849993 24.7625373,18.3905002 24.9425382,18.3455 C25.1225391,18.3004998 25.2575377,18.2959998 25.3475382,18.332 C25.5995395,18.4220004 25.6895386,18.6919978 25.6175382,19.142 C25.3295368,19.7180029 24.9155409,20.208498 24.3755382,20.6135 C23.8355355,21.018502 23.2325415,21.2749995 22.5665382,21.383 C21.9905353,21.4910005 21.3965413,21.4640008 20.7845382,21.302 C20.1725351,21.1399992 19.6235406,20.8250023 19.1375382,20.357 C18.7235361,19.9429979 18.4085393,19.4570028 18.1925382,18.899 C17.9765371,18.3409972 17.8415385,17.765003 17.7875382,17.171 C17.7335379,16.6129972 17.7830374,16.0820025 17.9360382,15.578 C18.089039,15.0739975 18.3275366,14.6285019 18.6515382,14.2415 C18.9755398,13.8544981 19.3805358,13.5350013 19.8665382,13.283 C20.3525406,13.0309987 20.919535,12.8870002 21.5675382,12.851 C22.3415421,12.7969997 23.043535,12.9409983 23.6735382,13.283 C24.3035413,13.6250017 24.7445369,14.1019969 24.9965382,14.714 C25.1405389,15.0560017 25.1810385,15.3529987 25.1180382,15.605 C25.0550379,15.8570013 24.8705397,16.081999 24.5645382,16.28 L24.5645382,16.28 Z M21.4595382,14.444 C21.2795373,14.4800002 21.0860392,14.5429995 20.8790382,14.633 C20.6720372,14.7230005 20.4830391,14.8354993 20.3120382,14.9705 C20.1410373,15.1055007 19.9880389,15.2584991 19.8530382,15.4295 C19.7180375,15.6005009 19.6415383,15.7939989 19.6235382,16.01 C19.9295397,16.01 20.2670364,15.9830003 20.6360382,15.929 C21.00504,15.8749997 21.3650364,15.8075004 21.7160382,15.7265 C22.06704,15.6454996 22.3910367,15.5510005 22.6880382,15.443 C22.9850397,15.3349995 23.2325372,15.2180006 23.4305382,15.092 C23.2865375,14.7499983 23.0210401,14.5385004 22.6340382,14.4575 C22.2470363,14.3764996 21.8555402,14.3719996 21.4595382,14.444 L21.4595382,14.444 Z M33.0030764,16.28 C32.3010729,16.6940021 31.5450804,17.0134989 30.7350764,17.2385 C29.9250723,17.4635011 29.0520811,17.576 28.1160764,17.576 C28.1520766,18.2060032 28.3320748,18.7054982 28.6560764,19.0745 C28.980078,19.4435018 29.385074,19.6639996 29.8710764,19.736 C30.1590778,19.7720002 30.4515749,19.7630003 30.7485764,19.709 C31.0455779,19.6549997 31.3245751,19.5695006 31.5855764,19.4525 C31.8465777,19.3354994 32.0850753,19.2050007 32.3010764,19.061 C32.5170775,18.9169993 32.7060756,18.7730007 32.8680764,18.629 C33.0300772,18.4849993 33.2010755,18.3905002 33.3810764,18.3455 C33.5610773,18.3004998 33.6960759,18.2959998 33.7860764,18.332 C34.0380777,18.4220004 34.1280768,18.6919978 34.0560764,19.142 C33.768075,19.7180029 33.3540791,20.208498 32.8140764,20.6135 C32.2740737,21.018502 31.6710797,21.2749995 31.0050764,21.383 C30.4290735,21.4910005 29.8350795,21.4640008 29.2230764,21.302 C28.6110733,21.1399992 28.0620788,20.8250023 27.5760764,20.357 C27.1620743,19.9429979 26.8470775,19.4570028 26.6310764,18.899 C26.4150753,18.3409972 26.2800767,17.765003 26.2260764,17.171 C26.1720761,16.6129972 26.2215756,16.0820025 26.3745764,15.578 C26.5275772,15.0739975 26.7660748,14.6285019 27.0900764,14.2415 C27.414078,13.8544981 27.819074,13.5350013 28.3050764,13.283 C28.7910788,13.0309987 29.3580732,12.8870002 30.0060764,12.851 C30.7800803,12.7969997 31.4820732,12.9409983 32.1120764,13.283 C32.7420795,13.6250017 33.1830751,14.1019969 33.4350764,14.714 C33.5790771,15.0560017 33.6195767,15.3529987 33.5565764,15.605 C33.4935761,15.8570013 33.3090779,16.081999 33.0030764,16.28 L33.0030764,16.28 Z M29.8980764,14.444 C29.7180755,14.4800002 29.5245774,14.5429995 29.3175764,14.633 C29.1105754,14.7230005 28.9215772,14.8354993 28.7505764,14.9705 C28.5795755,15.1055007 28.4265771,15.2584991 28.2915764,15.4295 C28.1565757,15.6005009 28.0800765,15.7939989 28.0620764,16.01 C28.3680779,16.01 28.7055745,15.9830003 29.0745764,15.929 C29.4435782,15.8749997 29.8035746,15.8075004 30.1545764,15.7265 C30.5055781,15.6454996 30.8295749,15.5510005 31.1265764,15.443 C31.4235779,15.3349995 31.6710754,15.2180006 31.8690764,15.092 C31.7250757,14.7499983 31.4595783,14.5385004 31.0725764,14.4575 C30.6855745,14.3764996 30.2940784,14.3719996 29.8980764,14.444 L29.8980764,14.444 Z M39.4976146,25.568 C39.4796145,25.766001 39.3896154,25.9504991 39.2276146,26.1215 C39.0656138,26.2925009 38.8856156,26.3690001 38.6876146,26.351 C38.3816131,26.3329999 38.1476154,26.2160011 37.9856146,26 C37.8236138,25.7839989 37.7426146,25.6040007 37.7426146,25.46 C37.7426146,24.7759966 37.7246148,24.0605037 37.6886146,23.3135 C37.6526144,22.5664963 37.6076149,21.797004 37.5536146,21.005 C37.3196134,21.0410002 37.1081155,21.0185004 36.9191146,20.9375 C36.7301136,20.8564996 36.5996149,20.7260009 36.5276146,20.546 C36.401614,20.2399985 36.4196138,19.9700012 36.5816146,19.736 C36.7436154,19.5019988 37.0046128,19.2770011 37.3646146,19.061 C37.2746141,18.3949967 37.189115,17.7380032 37.1081146,17.09 C37.0271142,16.4419968 36.941615,15.8120031 36.8516146,15.2 C36.8336145,15.0919995 36.8426144,14.9930005 36.8786146,14.903 C36.9146148,14.8129995 36.9596143,14.7275004 37.0136146,14.6465 C37.0676149,14.5654996 37.1666139,14.4890004 37.3106146,14.417 C37.5446158,14.3269995 37.8101131,14.3989988 38.1071146,14.633 C38.4041161,14.8670012 38.606614,15.1639982 38.7146146,15.524 C38.7686149,15.8660017 38.8271143,16.2574978 38.8901146,16.6985 C38.9531149,17.1395022 39.0116143,17.6209974 39.0656146,18.143 C39.4436165,17.9089988 39.7991129,17.6570013 40.1321146,17.387 C40.4651163,17.1169986 40.7531134,16.8290015 40.9961146,16.523 C41.2391158,16.2169985 41.423614,15.8975017 41.5496146,15.5645 C41.6756152,15.2314983 41.7116149,14.8850018 41.6576146,14.525 C41.6216144,14.2189985 41.4866158,13.9445012 41.2526146,13.7015 C41.0186134,13.4584988 40.6496171,13.3280001 40.1456146,13.31 C39.6956123,13.2919999 39.2501168,13.3279996 38.8091146,13.418 C38.3681124,13.5080005 37.9361167,13.6249993 37.5131146,13.769 C37.0901125,13.9130007 36.6761166,14.083999 36.2711146,14.282 C35.8661126,14.480001 35.4746165,14.677999 35.0966146,14.876 C34.8446133,15.0200007 34.5971158,15.0785001 34.3541146,15.0515 C34.1111134,15.0244999 33.9536149,14.9390007 33.8816146,14.795 C33.7196138,14.4349982 33.7331136,14.1110014 33.9221146,13.823 C34.1111155,13.5349986 34.4036126,13.2650013 34.7996146,13.013 C35.1416163,12.814999 35.5511122,12.612501 36.0281146,12.4055 C36.505117,12.198499 37.0091119,12.0185008 37.5401146,11.8655 C38.0711172,11.7124992 38.6111118,11.6045003 39.1601146,11.5415 C39.7091173,11.4784997 40.2356121,11.4874996 40.7396146,11.5685 C41.2436171,11.6495004 41.6981126,11.8204987 42.1031146,12.0815 C42.5081166,12.3425013 42.8366133,12.7249975 43.0886146,13.229 C43.3946161,14.0570041 43.4801153,14.8174965 43.3451146,15.5105 C43.2101139,16.2035035 42.9401166,16.8334972 42.5351146,17.4005 C42.1301126,17.9675028 41.6351175,18.4804977 41.0501146,18.9395 C40.4651117,19.3985023 39.8756176,19.8079982 39.2816146,20.168 C39.371615,21.1400049 39.4346144,22.1029952 39.4706146,23.057 C39.5066148,24.0110048 39.5156147,24.8479964 39.4976146,25.568 L39.4976146,25.568 Z M58.777691,13.31 C58.4536894,13.4900009 58.1161927,13.678999 57.765191,13.877 C57.4141892,14.075001 57.0631927,14.3044987 56.712191,14.5655 C56.3611892,14.8265013 56.0281926,15.1324982 55.713191,15.4835 C55.3981894,15.8345018 55.1146922,16.2529976 54.862691,16.739 C54.5026892,17.4230034 54.2596916,18.1204964 54.133691,18.8315 C54.0076903,19.5425036 53.9266912,20.2399966 53.890691,20.924 C53.890691,21.2480016 53.8141917,21.5764983 53.661191,21.9095 C53.5081902,22.2425017 53.2966923,22.409 53.026691,22.409 C52.6846893,22.409 52.410192,22.2335018 52.203191,21.8825 C51.9961899,21.5314982 51.8566913,21.1940016 51.784691,20.87 C51.4786894,19.5919936 51.226692,18.3275063 51.028691,17.0765 C50.83069,15.8254937 50.6596917,14.5790062 50.515691,13.337 C50.515691,13.0849987 50.5921902,12.9230004 50.745191,12.851 C50.8981917,12.7789996 51.07369,12.7519999 51.271691,12.77 C51.4876921,12.7880001 51.69469,12.8419995 51.892691,12.932 C52.090692,13.0220005 52.2076908,13.165999 52.243691,13.364 C52.3156913,14.0300033 52.4056904,14.7274964 52.513691,15.4565 C52.6216915,16.1855036 52.7296904,16.8109974 52.837691,17.333 C52.9096913,16.7209969 53.1076894,16.1270029 53.431691,15.551 C53.7556926,14.9749971 54.1561886,14.4530023 54.633191,13.985 C55.1101934,13.5169977 55.650188,13.1210016 56.253191,12.797 C56.856194,12.4729984 57.4726878,12.2570005 58.102691,12.149 C58.3726923,12.1129998 58.5976901,12.1129998 58.777691,12.149 C58.9576919,12.1850002 59.0836906,12.2479995 59.155691,12.338 C59.2276913,12.4280005 59.2411912,12.571999 59.196191,12.77 C59.1511908,12.968001 59.0116921,13.1479992 58.777691,13.31 L58.777691,13.31 Z M65.8932292,16.28 C65.1912257,16.6940021 64.4352332,17.0134989 63.6252292,17.2385 C62.8152251,17.4635011 61.9422339,17.576 61.0062292,17.576 C61.0422294,18.2060032 61.2222276,18.7054982 61.5462292,19.0745 C61.8702308,19.4435018 62.2752267,19.6639996 62.7612292,19.736 C63.0492306,19.7720002 63.3417277,19.7630003 63.6387292,19.709 C63.9357307,19.6549997 64.2147279,19.5695006 64.4757292,19.4525 C64.7367305,19.3354994 64.9752281,19.2050007 65.1912292,19.061 C65.4072303,18.9169993 65.5962284,18.7730007 65.7582292,18.629 C65.92023,18.4849993 66.0912283,18.3905002 66.2712292,18.3455 C66.4512301,18.3004998 66.5862287,18.2959998 66.6762292,18.332 C66.9282304,18.4220004 67.0182295,18.6919978 66.9462292,19.142 C66.6582277,19.7180029 66.2442319,20.208498 65.7042292,20.6135 C65.1642265,21.018502 64.5612325,21.2749995 63.8952292,21.383 C63.3192263,21.4910005 62.7252322,21.4640008 62.1132292,21.302 C61.5012261,21.1399992 60.9522316,20.8250023 60.4662292,20.357 C60.0522271,19.9429979 59.7372303,19.4570028 59.5212292,18.899 C59.3052281,18.3409972 59.1702294,17.765003 59.1162292,17.171 C59.0622289,16.6129972 59.1117284,16.0820025 59.2647292,15.578 C59.4177299,15.0739975 59.6562276,14.6285019 59.9802292,14.2415 C60.3042308,13.8544981 60.7092267,13.5350013 61.1952292,13.283 C61.6812316,13.0309987 62.2482259,12.8870002 62.8962292,12.851 C63.670233,12.7969997 64.372226,12.9409983 65.0022292,13.283 C65.6322323,13.6250017 66.0732279,14.1019969 66.3252292,14.714 C66.4692299,15.0560017 66.5097295,15.3529987 66.4467292,15.605 C66.3837289,15.8570013 66.1992307,16.081999 65.8932292,16.28 L65.8932292,16.28 Z M62.7882292,14.444 C62.6082283,14.4800002 62.4147302,14.5429995 62.2077292,14.633 C62.0007281,14.7230005 61.81173,14.8354993 61.6407292,14.9705 C61.4697283,15.1055007 61.3167298,15.2584991 61.1817292,15.4295 C61.0467285,15.6005009 60.9702293,15.7939989 60.9522292,16.01 C61.2582307,16.01 61.5957273,15.9830003 61.9647292,15.929 C62.333731,15.8749997 62.6937274,15.8075004 63.0447292,15.7265 C63.3957309,15.6454996 63.7197277,15.5510005 64.0167292,15.443 C64.3137307,15.3349995 64.5612282,15.2180006 64.7592292,15.092 C64.6152285,14.7499983 64.3497311,14.5385004 63.9627292,14.4575 C63.5757272,14.3764996 63.1842312,14.3719996 62.7882292,14.444 L62.7882292,14.444 Z M74.5477674,12.635 C74.6197677,13.1390025 74.6782671,13.6744972 74.7232674,14.2415 C74.7682676,14.8085028 74.8042672,15.3799971 74.8312674,15.956 C74.8582675,16.5320029 74.8717674,17.0899973 74.8717674,17.63 C74.8717674,18.1700027 74.8627675,18.6559978 74.8447674,19.088 C75.4207702,19.484002 75.7672668,19.8349985 75.8842674,20.141 C76.001268,20.4470015 76.0147678,20.7169988 75.9247674,20.951 C75.8167668,21.2750016 75.6232688,21.4415 75.3442674,21.4505 C75.065266,21.4595 74.7457692,21.365001 74.3857674,21.167 C74.1337661,21.3470009 73.845769,21.540499 73.5217674,21.7475 C73.1977657,21.954501 72.8557692,22.1524991 72.4957674,22.3415 C72.1357656,22.5305009 71.7757692,22.6969993 71.4157674,22.841 C71.0557656,22.9850007 70.7227689,23.0839997 70.4167674,23.138 C69.8407645,23.2280004 69.3232697,23.1200015 68.8642674,22.814 C68.4052651,22.5079985 68.0947682,22.0490031 67.9327674,21.437 C67.8247668,21.0229979 67.7977671,20.5955022 67.8517674,20.1545 C67.9057676,19.7134978 68.0407663,19.290502 68.2567674,18.8855 C68.4727684,18.480498 68.7652655,18.1160016 69.1342674,17.792 C69.5032692,17.4679984 69.9397648,17.2160009 70.4437674,17.036 C70.569768,16.9819997 70.7452662,16.9370002 70.9702674,16.901 C71.1952685,16.8649998 71.4292662,16.8515 71.6722674,16.8605 C71.9152686,16.8695 72.1627661,16.9189996 72.4147674,17.009 C72.6667686,17.0990004 72.9007663,17.2519989 73.1167674,17.468 C73.1167674,17.1619985 73.1122674,16.8245018 73.1032674,16.4555 C73.0942673,16.0864982 73.0807675,15.7130019 73.0627674,15.335 C73.0447673,14.9569981 73.0222675,14.6015017 72.9952674,14.2685 C72.9682672,13.9354983 72.9367675,13.6520012 72.9007674,13.418 C72.8647672,13.1479986 72.7612682,12.9815003 72.5902674,12.9185 C72.4192665,12.8554997 72.2077686,12.8689995 71.9557674,12.959 C71.5237652,13.1030007 71.0197702,13.3819979 70.4437674,13.796 C69.8677645,14.2100021 69.31877,14.6509977 68.7967674,15.119 C68.6347666,15.2810008 68.4502684,15.3530001 68.2432674,15.335 C68.0362663,15.3169999 67.8607681,15.2360007 67.7167674,15.092 C67.5727666,14.9479993 67.4917675,14.7815009 67.4737674,14.5925 C67.4557673,14.4034991 67.5277666,14.2010011 67.6897674,13.985 C67.9957689,13.6609984 68.3377655,13.3280017 68.7157674,12.986 C69.0937693,12.6439983 69.4897653,12.3335014 69.9037674,12.0545 C70.3177694,11.7754986 70.7407652,11.5460009 71.1727674,11.366 C71.6047695,11.1859991 72.0367652,11.0870001 72.4687674,11.069 C73.0987705,11.0509999 73.5847657,11.1904985 73.9267674,11.4875 C74.2687691,11.7845015 74.475767,12.1669977 74.5477674,12.635 L74.5477674,12.635 Z M71.4157674,18.44 C71.1817662,18.4940003 70.9342687,18.6064991 70.6732674,18.7775 C70.4122661,18.9485009 70.1782684,19.1554988 69.9712674,19.3985 C69.7642663,19.6415012 69.6112679,19.9114985 69.5122674,20.2085 C69.4132669,20.5055015 69.4087669,20.7979986 69.4987674,21.086 C69.5347675,21.1940005 69.6112668,21.2749997 69.7282674,21.329 C69.845268,21.3830003 69.9757666,21.3920002 70.1197674,21.356 C70.5517695,21.2659995 71.0422646,21.0905013 71.5912674,20.8295 C72.1402701,20.5684987 72.5767657,20.2850015 72.9007674,19.979 C72.9007674,19.8709995 72.8467679,19.7315009 72.7387674,19.5605 C72.6307668,19.3894991 72.5047681,19.2185009 72.3607674,19.0475 C72.2167666,18.8764991 72.0592682,18.7280006 71.8882674,18.602 C71.7172665,18.4759994 71.5597681,18.4219999 71.4157674,18.44 L71.4157674,18.44 Z M81.0153056,8.936 C80.9613053,8.61199838 80.9838051,8.31500135 81.0828056,8.045 C81.1818061,7.77499865 81.384304,7.62200018 81.6903056,7.586 C81.9603069,7.54999982 82.1988045,7.6219991 82.4058056,7.802 C82.6128066,7.9820009 82.7433053,8.21599856 82.7973056,8.504 C83.1573074,10.5740104 83.494804,12.6304898 83.8098056,14.6735 C84.1248071,16.7165102 84.4083043,18.7189902 84.6603056,20.681 C84.7323059,21.2030026 84.6963063,21.5584991 84.5523056,21.7475 C84.4083048,21.9365009 84.2373066,22.0759995 84.0393056,22.166 C83.8233045,22.2560005 83.6208065,22.2560005 83.4318056,22.166 C83.2428046,22.0759995 83.1213058,21.9140012 83.0673056,21.68 L83.0403056,21.518 L82.9323056,21.545 C82.3383026,21.7610011 81.7173088,21.8824999 81.0693056,21.9095 C80.4213023,21.9365001 79.8003085,21.8600009 79.2063056,21.68 C78.6123026,21.4999991 78.0858079,21.207502 77.6268056,20.8025 C77.1678033,20.397498 76.8393066,19.8800031 76.6413056,19.25 C76.2093034,17.8639931 76.4793007,16.6040057 77.4513056,15.47 C77.8653076,15.0019977 78.3783025,14.5790019 78.9903056,14.201 C79.6023086,13.8229981 80.3403012,13.5260011 81.2043056,13.31 L81.6903056,13.202 L81.0153056,8.936 Z M78.2883056,18.575 C78.3963061,19.0070022 78.5943041,19.3399988 78.8823056,19.574 C79.170307,19.8080012 79.5123036,19.9654996 79.9083056,20.0465 C80.3043075,20.1275004 80.7273033,20.1410003 81.1773056,20.087 C81.6273078,20.0329997 82.0683034,19.9340007 82.5003056,19.79 L82.7433056,19.709 L81.9873056,14.957 L81.4473056,15.092 C81.0693037,15.2000005 80.6688077,15.3664989 80.2458056,15.5915 C79.8228034,15.8165011 79.4493072,16.0819985 79.1253056,16.388 C78.8013039,16.6940015 78.5538064,17.0359981 78.3828056,17.414 C78.2118047,17.7920019 78.180305,18.178998 78.2883056,18.575 L78.2883056,18.575 Z M89.5888438,11.609 C89.5528436,11.7890009 89.4268448,11.8879999 89.2108438,11.906 C88.9948427,11.9240001 88.8148445,11.933 88.6708438,11.933 C88.2208415,11.9510001 87.7573461,11.9959996 87.2803438,12.068 C86.8033414,12.1400004 86.3038464,12.2479993 85.7818438,12.392 C85.5658427,12.4640004 85.331845,12.4370006 85.0798438,12.311 C84.8278425,12.1849994 84.674844,11.9330019 84.6208438,11.555 C84.6208438,11.4109993 84.6748432,11.2940005 84.7828438,11.204 C84.8908443,11.1139995 85.016843,11.0330004 85.1608438,10.961 C85.3948449,10.8529995 85.6738421,10.7585004 85.9978438,10.6775 C86.3218454,10.5964996 86.6503421,10.5380002 86.9833438,10.502 C87.3163454,10.4659998 87.6358422,10.4525 87.9418438,10.4615 C88.2478453,10.4705 88.4998428,10.5019997 88.6978438,10.556 C88.9858452,10.6460004 89.2153429,10.7809991 89.3863438,10.961 C89.5573446,11.1410009 89.6248439,11.3569987 89.5888438,11.609 L89.5888438,11.609 Z M88.9678438,20.6 C89.0938444,20.8880014 89.1613437,21.1984983 89.1703438,21.5315 C89.1793438,21.8645017 89.0848448,22.0939994 88.8868438,22.22 C88.6348425,22.3820008 88.3648452,22.3730009 88.0768438,22.193 C87.7888423,22.0129991 87.5728445,21.7700015 87.4288438,21.464 C87.2308428,21.0859981 87.0778443,20.6225027 86.9698438,20.0735 C86.8618432,19.5244973 86.780844,18.9800027 86.7268438,18.44 C86.6728435,17.8999973 86.6413438,17.3960023 86.6323438,16.928 C86.6233437,16.4599977 86.6188438,16.1090012 86.6188438,15.875 C86.6368439,15.6229987 86.7088431,15.3890011 86.8348438,15.173 C86.9608444,14.9569989 87.1228428,14.8310002 87.3208438,14.795 C87.6448454,14.8130001 87.9058428,14.9614986 88.1038438,15.2405 C88.3018448,15.5195014 88.3918439,15.8659979 88.3738438,16.28 C88.3738438,16.6040016 88.3828437,16.963998 88.4008438,17.36 C88.4188439,17.756002 88.4548435,18.151998 88.5088438,18.548 C88.562844,18.944002 88.6258434,19.3264982 88.6978438,19.6955 C88.7698441,20.0645018 88.8598432,20.3659988 88.9678438,20.6 L88.9678438,20.6 Z M92.276382,13.715 C92.3303822,13.9850013 92.3888816,14.2864983 92.451882,14.6195 C92.5148823,14.9525017 92.5823816,15.2944982 92.654382,15.6455 C92.7263823,15.9965018 92.7893817,16.3519982 92.843382,16.712 C92.8973822,17.0720018 92.9423818,17.4139984 92.978382,17.738 C93.194383,17.2699977 93.4283807,16.7750026 93.680382,16.253 C93.9323832,15.7309974 94.2068805,15.2495022 94.503882,14.8085 C94.8008834,14.3674978 95.1158803,14.0030014 95.448882,13.715 C95.7818836,13.4269986 96.14638,13.283 96.542382,13.283 C97.1363849,13.283 97.6358799,13.4989978 98.040882,13.931 C98.445884,14.3630022 98.7878806,14.8984968 99.066882,15.5375 C99.3458834,16.1765032 99.5663811,16.8469965 99.728382,17.549 C99.8903828,18.2510035 100.025381,18.8719973 100.133382,19.412 C100.241382,19.8980024 100.025385,20.2579988 99.485382,20.492 C99.2333807,20.6180006 99.0443826,20.6360005 98.918382,20.546 C98.7923813,20.4559995 98.720382,20.3660004 98.702382,20.276 C98.6123815,20.0599989 98.4998826,19.6820027 98.364882,19.142 C98.2298813,18.6019973 98.0768828,18.0530028 97.905882,17.495 C97.7348811,16.9369972 97.541383,16.4510021 97.325382,16.037 C97.1093809,15.6229979 96.8663833,15.4339998 96.596382,15.47 C96.2723803,15.4880001 95.9843832,15.7309977 95.732382,16.199 C95.5163809,16.5770019 95.2958831,16.9954977 95.070882,17.4545 C94.8458808,17.9135023 94.625383,18.3814976 94.409382,18.8585 C94.1933809,19.3355024 93.981883,19.8124976 93.774882,20.2895 C93.5678809,20.7665024 93.3743829,21.202998 93.194382,21.599 C93.0683813,21.7250006 92.9108829,21.8104998 92.721882,21.8555 C92.532881,21.9005002 92.3393829,21.8870004 92.141382,21.815 C91.9613811,21.7609997 91.8173825,21.6710006 91.709382,21.545 C91.6013814,21.4189994 91.547382,21.2930006 91.547382,21.167 C91.3853811,19.762993 91.2188828,18.4850058 91.047882,17.333 C90.8768811,16.1809942 90.6563833,15.002006 90.386382,13.796 C90.2603813,13.3819979 90.2378816,13.0535012 90.318882,12.8105 C90.3998824,12.5674988 90.6653797,12.4729997 91.115382,12.527 C91.7453851,12.6350005 92.1323812,13.0309966 92.276382,13.715 L92.276382,13.715 Z M105.87192,15.173 C106.015921,15.371001 106.155419,15.6184985 106.29042,15.9155 C106.425421,16.2125015 106.52892,16.5139985 106.60092,16.82 C106.708921,17.3060024 106.830419,17.8324972 106.96542,18.3995 C107.100421,18.9665028 107.235419,19.5559969 107.37042,20.168 C107.505421,20.7800031 107.63142,21.4009968 107.74842,22.031 C107.865421,22.6610031 107.96892,23.2639971 108.05892,23.84 C108.166921,24.632004 108.108421,25.3924964 107.88342,26.1215 C107.658419,26.8505036 107.284923,27.5029971 106.76292,28.079 C106.240918,28.6550029 105.592924,29.1139983 104.81892,29.456 C104.044916,29.7980017 103.171925,29.9869998 102.19992,30.023 C101.983919,30.0049999 101.758921,29.9015009 101.52492,29.7125 C101.290919,29.5234991 101.17392,29.330001 101.17392,29.132 C101.15592,28.933999 101.250419,28.7765006 101.45742,28.6595 C101.664421,28.5424994 101.875919,28.4660002 102.09192,28.43 C102.469922,28.3939998 102.861418,28.3175006 103.26642,28.2005 C103.671422,28.0834994 104.053918,27.9170011 104.41392,27.701 C104.773922,27.4849989 105.102419,27.2240015 105.39942,26.918 C105.696422,26.6119985 105.925919,26.2520021 106.08792,25.838 C106.213921,25.5139984 106.27692,25.1135024 106.27692,24.6365 C106.27692,24.1594976 106.24542,23.6870023 106.18242,23.219 C106.11942,22.7509977 106.038421,22.3055021 105.93942,21.8825 C105.84042,21.4594979 105.754921,21.1400011 105.68292,20.924 C105.55692,21.0500006 105.399421,21.1849993 105.21042,21.329 C105.021419,21.4730007 104.809921,21.6079994 104.57592,21.734 C104.341919,21.8600006 104.085422,21.9589996 103.80642,22.031 C103.527419,22.1030004 103.243922,22.1300001 102.95592,22.112 C102.649919,22.0939999 102.366421,21.986001 102.10542,21.788 C101.844419,21.589999 101.614921,21.3335016 101.41692,21.0185 C101.218919,20.7034984 101.061421,20.3390021 100.94442,19.925 C100.82742,19.5109979 100.76892,19.0790023 100.76892,18.629 C100.80492,17.5489946 101.079418,16.5905042 101.59242,15.7535 C102.105423,14.9164958 102.928914,14.2640023 104.06292,13.796 C104.152921,13.7779999 104.274419,13.7600001 104.42742,13.742 C104.580421,13.7239999 104.737919,13.7195 104.89992,13.7285 C105.061921,13.7375 105.219419,13.7599998 105.37242,13.796 C105.525421,13.8320002 105.65592,13.8859996 105.76392,13.958 C105.961921,14.1020007 106.06092,14.3089986 106.06092,14.579 C106.06092,14.8490013 105.997921,15.0469994 105.87192,15.173 L105.87192,15.173 Z M102.46992,18.872 C102.46992,19.070001 102.48792,19.2904988 102.52392,19.5335 C102.55992,19.7765012 102.676919,19.9519995 102.87492,20.06 C103.090921,20.1860006 103.356419,20.2040004 103.67142,20.114 C103.986422,20.0239996 104.278919,19.8710011 104.54892,19.655 C104.800921,19.456999 104.96742,19.2365012 105.04842,18.9935 C105.129421,18.7504988 105.124921,18.4220021 105.03492,18.008 C104.94492,17.5939979 104.845921,17.1620023 104.73792,16.712 C104.62992,16.2619977 104.55792,15.8570018 104.52192,15.497 C104.305919,15.6050005 104.076421,15.757999 103.83342,15.956 C103.590419,16.154001 103.369921,16.4014985 103.17192,16.6985 C102.973919,16.9955015 102.807421,17.3239982 102.67242,17.684 C102.537419,18.0440018 102.46992,18.4399978 102.46992,18.872 L102.46992,18.872 Z" id="keep-reading" fill="#577C2D" sketch:type="MSShapeGroup"></path>
    </g>
</svg>