<?xml version="1.0" encoding="UTF-8" standalone="no"?>
<svg width="11px" height="24px" viewBox="0 0 11 24" version="1.1" xmlns="http://www.w3.org/2000/svg" xmlns:xlink="http://www.w3.org/1999/xlink" xmlns:sketch="http://www.bohemiancoding.com/sketch/ns">
    <!-- Generator: Sketch 3.5.1 (25234) - http://www.bohemiancoding.com/sketch -->
    <title>right-bracket</title>
    <desc>Created with Sketch.</desc>
    <defs></defs>
    <g id="Page-1" stroke="none" stroke-width="1" fill="none" fill-rule="evenodd" sketch:type="MSPage">
        <path d="M10.1457446,21.0681054 C10.1573767,21.1249367 10.1201538,21.1335777 10.0772811,21.1365688 C9.77750413,21.5932136 9.18958237,21.376191 8.77581041,21.7530724 C7.88777935,21.6503772 6.56935898,21.8873406 5.14491993,21.8899994 C4.58558001,21.8899994 3.00693197,21.8644087 2.67857318,21.5473497 C2.40737807,21.2877867 2.54995491,20.7483876 2.74703665,20.5885287 C3.06409565,20.3342833 3.40076311,20.5655968 3.77465344,20.5885287 C4.89665675,20.6569922 6.38390938,20.3372744 7.8166571,20.3831383 C7.74819362,16.692093 7.5767026,13.4208019 7.88512057,10.1066381 C8.16196558,7.1238242 8.90708746,4.03532395 7.88512057,1.40612719 C6.11803181,1.69726313 3.58654506,2.04855386 1.85634681,2.43374398 C1.27673373,2.19412182 0.769239927,1.85712201 1.0344528,1.26920025 C1.2142525,1.02359585 1.77359242,1.0890682 2.06206958,1.13194096 C2.35885541,0.515437355 3.01823177,0.261524282 3.84311691,0.172787645 C4.14289386,0.247233363 4.03720753,0.372860512 4.18576662,0.515437355 C6.53479489,0.706536854 8.33644773,-0.734519541 9.66650025,0.515437355 C9.71236413,4.07221446 9.47240963,8.3681312 9.80342719,12.4357256 C10.0490316,15.4301716 9.48670054,18.521663 10.1457446,21.0681054" id="Fill-57" fill="#78C224" sketch:type="MSShapeGroup"></path>
    </g>
</svg>