<?xml version="1.0" encoding="UTF-8" standalone="no"?>
<svg width="159px" height="34px" viewBox="0 0 159 34" version="1.1" xmlns="http://www.w3.org/2000/svg" xmlns:xlink="http://www.w3.org/1999/xlink" xmlns:sketch="http://www.bohemiancoding.com/sketch/ns">
    <!-- Generator: Sketch 3.5.1 (25234) - http://www.bohemiancoding.com/sketch -->
    <title>Rectangle 19</title>
    <desc>Created with Sketch.</desc>
    <defs></defs>
    <g id="Page-1" stroke="none" stroke-width="1" fill="none" fill-rule="evenodd" sketch:type="MSPage">
        <rect id="Rectangle-19" fill="#CCFF91" sketch:type="MSShapeGroup" x="0" y="0" width="159" height="34" rx="3"></rect>
        <path d="M148.242362,7.75402662 C148.326085,8.76863981 147.703921,10.5896062 147.237691,12.5262145 C147.117863,13.0233174 146.987047,13.535595 146.860939,14.0332212 C146.437617,15.7176151 146.029469,17.7327133 145.605624,19.3077446 C145.124219,21.0920824 144.333564,22.6671137 144.223678,24.4561609 C143.601514,24.8909951 142.413177,25.183501 141.586416,24.2049931 C141.665429,22.6409504 140.990416,21.651454 140.3311,20.4379997 C136.783355,23.6294003 132.435013,26.0212502 128.525691,28.8521204 C127.301772,29.5161452 123.47094,26.6962636 123.628443,25.8375837 C123.759259,25.120709 125.161613,25.1102437 125.637785,25.2096643 C126.008781,25.6758945 126.030235,26.4916665 126.642456,26.7171942 C128.881512,26.6486464 131.079754,24.9846598 133.423986,23.3259059 C136.024096,21.4845321 138.180476,19.8461856 139.326429,17.8007379 C141.261991,18.0414404 141.974156,19.5060625 142.842778,20.8142281 C143.988731,17.4292189 144.757409,12.9495369 145.605624,9.26051005 C141.874212,8.95230625 138.635718,8.92038701 134.051906,9.51167783 C134.783955,10.1971566 136.07119,11.0663018 137.317087,12.0238789 C138.018264,12.5623199 140.765411,13.8233914 140.205516,14.9117852 C139.980512,15.3460961 139.121832,15.2990022 138.572926,15.4141207 C134.622266,16.2518699 129.776821,20.1078187 126.76804,22.5729258 C126.008781,23.1950893 125.773834,23.7602169 125.134926,24.4561609 C124.324387,24.5822681 123.267389,24.717794 123,23.5775969 C124.522705,21.4316822 127.018685,19.9246755 129.279195,18.1769663 C131.497843,16.4658858 134.114174,14.9646351 136.814228,13.907114 C135.579843,12.7459863 134.104232,11.3535749 132.293731,10.5168722 C131.466447,10.1343646 129.661179,10.0145367 129.907637,8.75817448 C130.074559,7.9214718 133.162353,7.64885011 134.30255,7.50233557 C138.421179,6.97383669 143.370754,7.64885011 146.987047,7 C147.368508,7.28779642 147.907472,7.41861297 148.242362,7.75402662" id="Fill-124" fill="#5B8031" sketch:type="MSShapeGroup" transform="translate(135.625000, 17.976188) rotate(-330.000000) translate(-135.625000, -17.976188) "></path>
        <path d="M16.156,15.552 C16.1199998,15.353999 16.0840002,15.1650009 16.048,14.985 C16.0119998,14.8049991 15.9220007,14.6880003 15.778,14.634 C15.4719985,14.5439996 15.1480017,14.5349996 14.806,14.607 C14.4639983,14.6790004 14.1490014,14.7914992 13.861,14.9445 C13.5729986,15.0975008 13.330001,15.2684991 13.132,15.4575 C12.933999,15.6465009 12.8260001,15.8129993 12.808,15.957 C12.7539997,16.2270013 12.825999,16.4879987 13.024,16.74 C13.222001,16.9920013 13.5099981,17.2439987 13.888,17.496 C14.5180031,17.8740019 15.1749966,18.260998 15.859,18.657 C16.5430034,19.053002 17.1189977,19.4579979 17.587,19.872 C18.0550023,20.2860021 18.3744991,20.7404975 18.5455,21.2355 C18.7165009,21.7305025 18.6760013,22.2929969 18.424,22.923 C18.225999,23.4090024 17.8570027,23.8049985 17.317,24.111 C16.7769973,24.4170015 16.1830032,24.6554991 15.535,24.8265 C14.8869968,24.9975009 14.2390032,25.1144997 13.591,25.1775 C12.9429968,25.2405003 12.3940023,25.272 11.944,25.272 C11.8359995,25.272 11.7055008,25.2315004 11.5525,25.1505 C11.3994992,25.0694996 11.2555007,24.9750005 11.1205,24.867 C10.9854993,24.7589995 10.8685005,24.6465006 10.7695,24.5295 C10.6704995,24.4124994 10.621,24.3090004 10.621,24.219 C10.621,23.8949984 10.7649986,23.6700006 11.053,23.544 C11.3410014,23.4179994 11.6379985,23.355 11.944,23.355 C12.3760022,23.355 12.8394975,23.3325002 13.3345,23.2875 C13.8295025,23.2424998 14.3019978,23.1705005 14.752,23.0715 C15.2020023,22.9724995 15.6069982,22.8420008 15.967,22.68 C16.3270018,22.5179992 16.5789993,22.3110013 16.723,22.059 C16.8490006,21.8429989 16.7725014,21.5865015 16.4935,21.2895 C16.2144986,20.9924985 15.8455023,20.6820016 15.3865,20.358 C14.9274977,20.0339984 14.4325027,19.7190015 13.9015,19.413 C13.3704973,19.1069985 12.9160019,18.8280013 12.538,18.576 C12.1599981,18.3239987 11.8360014,18.0225018 11.566,17.6715 C11.2959987,17.3204982 11.1250004,16.8840026 11.053,16.362 C11.0349999,15.8939977 11.1339989,15.4440022 11.35,15.012 C11.5660011,14.5799978 11.8494982,14.1975017 12.2005,13.8645 C12.5515018,13.5314983 12.9519977,13.266001 13.402,13.068 C13.8520022,12.869999 14.3019978,12.771 14.752,12.771 C15.5260039,12.8070002 16.1649975,13.0184981 16.669,13.4055 C17.1730025,13.7925019 17.4699996,14.3639962 17.56,15.12 C17.56,15.3720013 17.5195004,15.5789992 17.4385,15.741 C17.3574996,15.9030008 17.218001,16.0019998 17.02,16.038 C16.7679987,16.0740002 16.5655008,16.0425005 16.4125,15.9435 C16.2594992,15.8444995 16.1740001,15.7140008 16.156,15.552 L16.156,15.552 Z M25.7555382,17.28 C25.0535347,17.6940021 24.2975422,18.0134989 23.4875382,18.2385 C22.6775341,18.4635011 21.8045429,18.576 20.8685382,18.576 C20.9045384,19.2060032 21.0845366,19.7054982 21.4085382,20.0745 C21.7325398,20.4435018 22.1375358,20.6639996 22.6235382,20.736 C22.9115396,20.7720002 23.2040367,20.7630003 23.5010382,20.709 C23.7980397,20.6549997 24.0770369,20.5695006 24.3380382,20.4525 C24.5990395,20.3354994 24.8375371,20.2050007 25.0535382,20.061 C25.2695393,19.9169993 25.4585374,19.7730007 25.6205382,19.629 C25.782539,19.4849993 25.9535373,19.3905002 26.1335382,19.3455 C26.3135391,19.3004998 26.4485377,19.2959998 26.5385382,19.332 C26.7905395,19.4220005 26.8805386,19.6919977 26.8085382,20.142 C26.5205368,20.7180029 26.1065409,21.208498 25.5665382,21.6135 C25.0265355,22.018502 24.4235415,22.2749995 23.7575382,22.383 C23.1815353,22.4910005 22.5875413,22.4640008 21.9755382,22.302 C21.3635351,22.1399992 20.8145406,21.8250023 20.3285382,21.357 C19.9145361,20.9429979 19.5995393,20.4570028 19.3835382,19.899 C19.1675371,19.3409972 19.0325385,18.765003 18.9785382,18.171 C18.9245379,17.6129972 18.9740374,17.0820025 19.1270382,16.578 C19.280039,16.0739975 19.5185366,15.6285019 19.8425382,15.2415 C20.1665398,14.8544981 20.5715358,14.5350013 21.0575382,14.283 C21.5435406,14.0309987 22.110535,13.8870002 22.7585382,13.851 C23.5325421,13.7969997 24.234535,13.9409983 24.8645382,14.283 C25.4945413,14.6250017 25.9355369,15.1019969 26.1875382,15.714 C26.3315389,16.0560017 26.3720385,16.3529987 26.3090382,16.605 C26.2460379,16.8570013 26.0615397,17.081999 25.7555382,17.28 L25.7555382,17.28 Z M22.6505382,15.444 C22.4705373,15.4800002 22.2770392,15.5429996 22.0700382,15.633 C21.8630372,15.7230004 21.6740391,15.8354993 21.5030382,15.9705 C21.3320373,16.1055007 21.1790389,16.2584991 21.0440382,16.4295 C20.9090375,16.6005009 20.8325383,16.7939989 20.8145382,17.01 C21.1205397,17.01 21.4580364,16.9830003 21.8270382,16.929 C22.19604,16.8749997 22.5560364,16.8075004 22.9070382,16.7265 C23.25804,16.6454996 23.5820367,16.5510005 23.8790382,16.443 C24.1760397,16.3349995 24.4235372,16.2180006 24.6215382,16.092 C24.4775375,15.7499983 24.2120401,15.5385004 23.8250382,15.4575 C23.4380363,15.3764996 23.0465402,15.3719996 22.6505382,15.444 L22.6505382,15.444 Z M34.1940764,17.28 C33.4920729,17.6940021 32.7360804,18.0134989 31.9260764,18.2385 C31.1160723,18.4635011 30.2430811,18.576 29.3070764,18.576 C29.3430766,19.2060032 29.5230748,19.7054982 29.8470764,20.0745 C30.171078,20.4435018 30.576074,20.6639996 31.0620764,20.736 C31.3500778,20.7720002 31.6425749,20.7630003 31.9395764,20.709 C32.2365779,20.6549997 32.5155751,20.5695006 32.7765764,20.4525 C33.0375777,20.3354994 33.2760753,20.2050007 33.4920764,20.061 C33.7080775,19.9169993 33.8970756,19.7730007 34.0590764,19.629 C34.2210772,19.4849993 34.3920755,19.3905002 34.5720764,19.3455 C34.7520773,19.3004998 34.8870759,19.2959998 34.9770764,19.332 C35.2290777,19.4220005 35.3190768,19.6919977 35.2470764,20.142 C34.959075,20.7180029 34.5450791,21.208498 34.0050764,21.6135 C33.4650737,22.018502 32.8620797,22.2749995 32.1960764,22.383 C31.6200735,22.4910005 31.0260795,22.4640008 30.4140764,22.302 C29.8020733,22.1399992 29.2530788,21.8250023 28.7670764,21.357 C28.3530743,20.9429979 28.0380775,20.4570028 27.8220764,19.899 C27.6060753,19.3409972 27.4710767,18.765003 27.4170764,18.171 C27.3630761,17.6129972 27.4125756,17.0820025 27.5655764,16.578 C27.7185772,16.0739975 27.9570748,15.6285019 28.2810764,15.2415 C28.605078,14.8544981 29.010074,14.5350013 29.4960764,14.283 C29.9820788,14.0309987 30.5490732,13.8870002 31.1970764,13.851 C31.9710803,13.7969997 32.6730732,13.9409983 33.3030764,14.283 C33.9330795,14.6250017 34.3740751,15.1019969 34.6260764,15.714 C34.7700771,16.0560017 34.8105767,16.3529987 34.7475764,16.605 C34.6845761,16.8570013 34.5000779,17.081999 34.1940764,17.28 L34.1940764,17.28 Z M31.0890764,15.444 C30.9090755,15.4800002 30.7155774,15.5429996 30.5085764,15.633 C30.3015754,15.7230004 30.1125772,15.8354993 29.9415764,15.9705 C29.7705755,16.1055007 29.6175771,16.2584991 29.4825764,16.4295 C29.3475757,16.6005009 29.2710765,16.7939989 29.2530764,17.01 C29.5590779,17.01 29.8965745,16.9830003 30.2655764,16.929 C30.6345782,16.8749997 30.9945746,16.8075004 31.3455764,16.7265 C31.6965781,16.6454996 32.0205749,16.5510005 32.3175764,16.443 C32.6145779,16.3349995 32.8620754,16.2180006 33.0600764,16.092 C32.9160757,15.7499983 32.6505783,15.5385004 32.2635764,15.4575 C31.8765745,15.3764996 31.4850784,15.3719996 31.0890764,15.444 L31.0890764,15.444 Z M49.3701528,13.635 C49.4421531,14.1390025 49.5006526,14.6744972 49.5456528,15.2415 C49.590653,15.8085028 49.6266526,16.3799971 49.6536528,16.956 C49.6806529,17.5320029 49.6941528,18.0899973 49.6941528,18.63 C49.6941528,19.1700027 49.6851529,19.6559978 49.6671528,20.088 C50.2431557,20.484002 50.5896522,20.8349985 50.7066528,21.141 C50.8236534,21.4470015 50.8371532,21.7169988 50.7471528,21.951 C50.6391522,22.2750016 50.4456542,22.4415 50.1666528,22.4505 C49.8876514,22.4595 49.5681546,22.365001 49.2081528,22.167 C48.9561515,22.3470009 48.6681544,22.540499 48.3441528,22.7475 C48.0201512,22.954501 47.6781546,23.1524991 47.3181528,23.3415 C46.958151,23.5305009 46.5981546,23.6969993 46.2381528,23.841 C45.878151,23.9850007 45.5451543,24.0839997 45.2391528,24.138 C44.6631499,24.2280005 44.1456551,24.1200015 43.6866528,23.814 C43.2276505,23.5079985 42.9171536,23.0490031 42.7551528,22.437 C42.6471522,22.0229979 42.6201525,21.5955022 42.6741528,21.1545 C42.7281531,20.7134978 42.8631517,20.290502 43.0791528,19.8855 C43.2951539,19.480498 43.5876509,19.1160016 43.9566528,18.792 C44.3256546,18.4679984 44.7621503,18.2160009 45.2661528,18.036 C45.3921534,17.9819997 45.5676517,17.9370002 45.7926528,17.901 C46.0176539,17.8649998 46.2516516,17.8515 46.4946528,17.8605 C46.737654,17.8695 46.9851515,17.9189996 47.2371528,18.009 C47.489154,18.0990004 47.7231517,18.2519989 47.9391528,18.468 C47.9391528,18.1619985 47.9346528,17.8245018 47.9256528,17.4555 C47.9166527,17.0864982 47.9031529,16.7130019 47.8851528,16.335 C47.8671527,15.9569981 47.8446529,15.6015017 47.8176528,15.2685 C47.7906526,14.9354983 47.759153,14.6520012 47.7231528,14.418 C47.6871526,14.1479987 47.5836536,13.9815003 47.4126528,13.9185 C47.2416519,13.8554997 47.030154,13.8689995 46.7781528,13.959 C46.3461506,14.1030007 45.8421557,14.3819979 45.2661528,14.796 C44.6901499,15.2100021 44.1411554,15.6509977 43.6191528,16.119 C43.457152,16.2810008 43.2726538,16.3530001 43.0656528,16.335 C42.8586517,16.3169999 42.6831535,16.2360007 42.5391528,16.092 C42.3951521,15.9479993 42.3141529,15.7815009 42.2961528,15.5925 C42.2781527,15.4034991 42.350152,15.2010011 42.5121528,14.985 C42.8181543,14.6609984 43.1601509,14.3280017 43.5381528,13.986 C43.9161547,13.6439983 44.3121507,13.3335014 44.7261528,13.0545 C45.1401549,12.7754986 45.5631506,12.5460009 45.9951528,12.366 C46.4271549,12.1859991 46.8591506,12.0870001 47.2911528,12.069 C47.9211559,12.0509999 48.4071511,12.1904985 48.7491528,12.4875 C49.0911545,12.7845015 49.2981524,13.1669977 49.3701528,13.635 L49.3701528,13.635 Z M46.2381528,19.44 C46.0041516,19.4940003 45.7566541,19.6064991 45.4956528,19.7775 C45.2346515,19.9485009 45.0006538,20.1554988 44.7936528,20.3985 C44.5866517,20.6415012 44.4336533,20.9114985 44.3346528,21.2085 C44.2356523,21.5055015 44.2311523,21.7979986 44.3211528,22.086 C44.357153,22.1940005 44.4336522,22.2749997 44.5506528,22.329 C44.6676534,22.3830003 44.7981521,22.3920002 44.9421528,22.356 C45.3741549,22.2659996 45.86465,22.0905013 46.4136528,21.8295 C46.9626555,21.5684987 47.3991512,21.2850015 47.7231528,20.979 C47.7231528,20.8709995 47.6691533,20.7315009 47.5611528,20.5605 C47.4531522,20.3894991 47.3271535,20.2185009 47.1831528,20.0475 C47.0391521,19.8764991 46.8816536,19.7280006 46.7106528,19.602 C46.5396519,19.4759994 46.3821535,19.4219999 46.2381528,19.44 L46.2381528,19.44 Z M53.542691,10.989 C53.6326914,12.9510098 53.7856899,14.9804895 54.001691,17.0775 C54.2176921,19.1745105 54.4516897,21.1769905 54.703691,23.085 C54.7576912,23.877004 54.5416934,24.2819999 54.055691,24.3 C53.9476904,24.3 53.8396915,24.2595004 53.731691,24.1785 C53.6236904,24.0974996 53.5246914,23.9940006 53.434691,23.868 C53.3446905,23.7419994 53.2591914,23.6070007 53.178191,23.463 C53.0971906,23.3189993 53.0476911,23.1930005 53.029691,23.085 C52.8856903,22.1669954 52.7506916,21.1950051 52.624691,20.169 C52.4986903,19.1429949 52.3861915,18.1125052 52.287191,17.0775 C52.1881905,16.0424948 52.1026913,15.0300049 52.030691,14.04 C51.9586906,13.0499951 51.9136911,12.1410041 51.895691,11.313 C51.9316912,10.8809978 51.9946905,10.5165015 52.084691,10.2195 C52.1746914,9.92249851 52.3636895,9.78299991 52.651691,9.801 C52.9576925,9.81900009 53.1781903,9.94049888 53.313191,10.1655 C53.4481917,10.3905011 53.5246909,10.6649984 53.542691,10.989 L53.542691,10.989 Z M58.1472292,10.989 C58.2372296,12.9510098 58.3902281,14.9804895 58.6062292,17.0775 C58.8222303,19.1745105 59.0562279,21.1769905 59.3082292,23.085 C59.3622294,23.877004 59.1462316,24.2819999 58.6602292,24.3 C58.5522286,24.3 58.4442297,24.2595004 58.3362292,24.1785 C58.2282286,24.0974996 58.1292296,23.9940006 58.0392292,23.868 C57.9492287,23.7419994 57.8637296,23.6070007 57.7827292,23.463 C57.7017288,23.3189993 57.6522293,23.1930005 57.6342292,23.085 C57.4902285,22.1669954 57.3552298,21.1950051 57.2292292,20.169 C57.1032285,19.1429949 56.9907297,18.1125052 56.8917292,17.0775 C56.7927287,16.0424948 56.7072295,15.0300049 56.6352292,14.04 C56.5632288,13.0499951 56.5182293,12.1410041 56.5002292,11.313 C56.5362294,10.8809978 56.5992287,10.5165015 56.6892292,10.2195 C56.7792296,9.92249851 56.9682277,9.78299991 57.2562292,9.801 C57.5622307,9.81900009 57.7827285,9.94049888 57.9177292,10.1655 C58.0527298,10.3905011 58.1292291,10.6649984 58.1472292,10.989 L58.1472292,10.989 Z M71.5953056,26.568 C71.5773055,26.766001 71.4873064,26.9504991 71.3253056,27.1215 C71.1633048,27.2925009 70.9833066,27.3690001 70.7853056,27.351 C70.479304,27.3329999 70.2453064,27.2160011 70.0833056,27 C69.9213048,26.7839989 69.8403056,26.6040007 69.8403056,26.46 C69.8403056,25.7759966 69.8223057,25.0605037 69.7863056,24.3135 C69.7503054,23.5664963 69.7053058,22.797004 69.6513056,22.005 C69.4173044,22.0410002 69.2058065,22.0185004 69.0168056,21.9375 C68.8278046,21.8564996 68.6973059,21.7260009 68.6253056,21.546 C68.4993049,21.2399985 68.5173048,20.9700012 68.6793056,20.736 C68.8413064,20.5019988 69.1023038,20.2770011 69.4623056,20.061 C69.3723051,19.3949967 69.286806,18.7380032 69.2058056,18.09 C69.1248052,17.4419968 69.039306,16.8120031 68.9493056,16.2 C68.9313055,16.0919995 68.9403054,15.9930004 68.9763056,15.903 C69.0123057,15.8129996 69.0573053,15.7275004 69.1113056,15.6465 C69.1653058,15.5654996 69.2643048,15.4890004 69.4083056,15.417 C69.6423067,15.3269995 69.9078041,15.3989988 70.2048056,15.633 C70.501807,15.8670012 70.704305,16.1639982 70.8123056,16.524 C70.8663058,16.8660017 70.9248052,17.2574978 70.9878056,17.6985 C71.0508059,18.1395022 71.1093053,18.6209974 71.1633056,19.143 C71.5413075,18.9089988 71.8968039,18.6570013 72.2298056,18.387 C72.5628072,18.1169986 72.8508043,17.8290015 73.0938056,17.523 C73.3368068,17.2169985 73.5213049,16.8975017 73.6473056,16.5645 C73.7733062,16.2314983 73.8093058,15.8850018 73.7553056,15.525 C73.7193054,15.2189985 73.5843067,14.9445012 73.3503056,14.7015 C73.1163044,14.4584988 72.7473081,14.3280001 72.2433056,14.31 C71.7933033,14.2919999 71.3478078,14.3279995 70.9068056,14.418 C70.4658034,14.5080005 70.0338077,14.6249993 69.6108056,14.769 C69.1878034,14.9130007 68.7738076,15.083999 68.3688056,15.282 C67.9638035,15.480001 67.5723075,15.677999 67.1943056,15.876 C66.9423043,16.0200007 66.6948068,16.0785001 66.4518056,16.0515 C66.2088043,16.0244999 66.0513059,15.9390007 65.9793056,15.795 C65.8173048,15.4349982 65.8308046,15.1110014 66.0198056,14.823 C66.2088065,14.5349986 66.5013036,14.2650013 66.8973056,14.013 C67.2393073,13.814999 67.6488032,13.612501 68.1258056,13.4055 C68.6028079,13.198499 69.1068029,13.0185008 69.6378056,12.8655 C70.1688082,12.7124992 70.7088028,12.6045003 71.2578056,12.5415 C71.8068083,12.4784997 72.333303,12.4874996 72.8373056,12.5685 C73.3413081,12.6495004 73.7958035,12.8204987 74.2008056,13.0815 C74.6058076,13.3425013 74.9343043,13.7249975 75.1863056,14.229 C75.4923071,15.0570041 75.5778062,15.8174965 75.4428056,16.5105 C75.3078049,17.2035035 75.0378076,17.8334972 74.6328056,18.4005 C74.2278035,18.9675028 73.7328085,19.4804977 73.1478056,19.9395 C72.5628026,20.3985023 71.9733085,20.8079982 71.3793056,21.168 C71.469306,22.1400049 71.5323054,23.1029952 71.5683056,24.057 C71.6043057,25.0110048 71.6133057,25.8479964 71.5953056,26.568 L71.5953056,26.568 Z M82.4908438,14.202 C83.0308465,14.400001 83.4853419,14.696998 83.8543438,15.093 C84.2233456,15.489002 84.5068428,15.9344975 84.7048438,16.4295 C84.9028448,16.9245025 85.0153436,17.4329974 85.0423438,17.955 C85.0693439,18.4770026 85.0108445,18.9629977 84.8668438,19.413 C84.6688428,19.9170025 84.4168453,20.4119976 84.1108438,20.898 C83.8048422,21.3840024 83.4538457,21.8159981 83.0578438,22.194 C82.6618418,22.5720019 82.2118463,22.8779988 81.7078438,23.112 C81.2038412,23.3460012 80.6458468,23.463 80.0338438,23.463 C79.2958401,23.463 78.6748463,23.2920017 78.1708438,22.95 C77.6668412,22.6079983 77.2708452,22.1670027 76.9828438,21.627 C76.6948423,21.0869973 76.5103442,20.4750034 76.4293438,19.791 C76.3483434,19.1069966 76.3618432,18.4230034 76.4698438,17.739 C76.5418441,17.2349975 76.6633429,16.7445024 76.8343438,16.2675 C77.0053446,15.7904976 77.2258424,15.3675018 77.4958438,14.9985 C77.7658451,14.6294982 78.076342,14.3280012 78.4273438,14.094 C78.7783455,13.8599988 79.1788415,13.743 79.6288438,13.743 C79.880845,13.743 80.1958419,13.7924995 80.5738438,13.8915 C80.9518457,13.9905005 81.3028421,14.1299991 81.6268438,14.31 C81.8608449,14.0939989 82.1488421,14.0579993 82.4908438,14.202 L82.4908438,14.202 Z M81.4648438,16.173 C81.2668428,16.0469994 81.0373451,15.880501 80.7763438,15.6735 C80.5153425,15.466499 80.2858448,15.363 80.0878438,15.363 C79.8718427,15.363 79.6603448,15.461999 79.4533438,15.66 C79.2463427,15.858001 79.0663445,16.0874987 78.9133438,16.3485 C78.760343,16.6095013 78.6298443,16.8749986 78.5218438,17.145 C78.4138432,17.4150014 78.3418439,17.6309992 78.3058438,17.793 C78.2518435,18.0630013 78.2158439,18.3869981 78.1978438,18.765 C78.1798437,19.1430019 78.2068434,19.5164982 78.2788438,19.8855 C78.3508441,20.2545018 78.4903427,20.5874985 78.6973438,20.8845 C78.9043448,21.1815015 79.2148417,21.3929994 79.6288438,21.519 C79.880845,21.5910004 80.1778421,21.5865004 80.5198438,21.5055 C80.8618455,21.4244996 81.1993421,21.2760011 81.5323438,21.06 C81.8653454,20.8439989 82.1803423,20.5560018 82.4773438,20.196 C82.7743452,19.8359982 83.003843,19.4220023 83.1658438,18.954 C83.3458447,18.4319974 83.3503446,17.8875028 83.1793438,17.3205 C83.0083429,16.7534972 82.6618464,16.3440013 82.1398438,16.092 C82.0138431,16.1820005 81.8878444,16.227 81.7618438,16.227 C81.6358431,16.227 81.5368441,16.2090002 81.4648438,16.173 L81.4648438,16.173 Z M91.199382,15.552 C91.1633818,15.353999 91.1273821,15.1650009 91.091382,14.985 C91.0553818,14.8049991 90.9653827,14.6880003 90.821382,14.634 C90.5153804,14.5439996 90.1913837,14.5349996 89.849382,14.607 C89.5073802,14.6790004 89.1923834,14.7914992 88.904382,14.9445 C88.6163805,15.0975008 88.3733829,15.2684991 88.175382,15.4575 C87.977381,15.6465009 87.869382,15.8129993 87.851382,15.957 C87.7973817,16.2270013 87.869381,16.4879987 88.067382,16.74 C88.2653829,16.9920013 88.5533801,17.2439987 88.931382,17.496 C89.5613851,17.8740019 90.2183785,18.260998 90.902382,18.657 C91.5863854,19.053002 92.1623796,19.4579979 92.630382,19.872 C93.0983843,20.2860021 93.4178811,20.7404975 93.588882,21.2355 C93.7598828,21.7305025 93.7193832,22.2929969 93.467382,22.923 C93.269381,23.4090024 92.9003847,23.8049985 92.360382,24.111 C91.8203793,24.4170015 91.2263852,24.6554991 90.578382,24.8265 C89.9303787,24.9975009 89.2823852,25.1144997 88.634382,25.1775 C87.9863787,25.2405003 87.4373842,25.272 86.987382,25.272 C86.8793814,25.272 86.7488827,25.2315004 86.595882,25.1505 C86.4428812,25.0694996 86.2988826,24.9750005 86.163882,24.867 C86.0288813,24.7589995 85.9118825,24.6465006 85.812882,24.5295 C85.7138815,24.4124994 85.664382,24.3090004 85.664382,24.219 C85.664382,23.8949984 85.8083805,23.6700006 86.096382,23.544 C86.3843834,23.4179994 86.6813804,23.355 86.987382,23.355 C87.4193841,23.355 87.8828795,23.3325002 88.377882,23.2875 C88.8728844,23.2424998 89.3453797,23.1705005 89.795382,23.0715 C90.2453842,22.9724995 90.6503802,22.8420008 91.010382,22.68 C91.3703838,22.5179992 91.6223812,22.3110013 91.766382,22.059 C91.8923826,21.8429989 91.8158834,21.5865015 91.536882,21.2895 C91.2578806,20.9924985 90.8888843,20.6820016 90.429882,20.358 C89.9708797,20.0339984 89.4758846,19.7190015 88.944882,19.413 C88.4138793,19.1069985 87.9593838,18.8280013 87.581382,18.576 C87.2033801,18.3239987 86.8793833,18.0225018 86.609382,17.6715 C86.3393806,17.3204982 86.1683823,16.8840026 86.096382,16.362 C86.0783819,15.8939977 86.1773809,15.4440022 86.393382,15.012 C86.609383,14.5799978 86.8928802,14.1975017 87.243882,13.8645 C87.5948837,13.5314983 87.9953797,13.266001 88.445382,13.068 C88.8953842,12.869999 89.3453797,12.771 89.795382,12.771 C90.5693858,12.8070002 91.2083794,13.0184981 91.712382,13.4055 C92.2163845,13.7925019 92.5133815,14.3639962 92.603382,15.12 C92.603382,15.3720013 92.5628824,15.5789992 92.481882,15.741 C92.4008816,15.9030008 92.2613829,16.0019998 92.063382,16.038 C91.8113807,16.0740002 91.6088827,16.0425005 91.455882,15.9435 C91.3028812,15.8444995 91.217382,15.7140008 91.199382,15.552 L91.199382,15.552 Z M100.39392,16.389 C100.735922,16.3709999 101.077918,16.4519991 101.41992,16.632 C101.761922,16.8120009 101.93292,17.0909981 101.93292,17.469 C101.89692,17.7750015 101.730422,17.9684996 101.43342,18.0495 C101.136419,18.1305004 100.897921,18.171 100.71792,18.171 C100.357918,18.171 99.9709222,18.1799999 99.5569202,18.198 C99.1429181,18.2160001 98.7199223,18.2429998 98.2879202,18.279 C98.25192,18.873003 98.2204203,19.4309974 98.1934202,19.953 C98.16642,20.4750026 98.1439202,20.938498 98.1259202,21.3435 C98.1079201,21.748502 98.0989202,22.0769987 98.0989202,22.329 C98.0989202,22.5810013 98.1079201,22.7159999 98.1259202,22.734 C98.5219221,22.6619996 98.9494179,22.5405009 99.4084202,22.3695 C99.8674224,22.1984991 100.326418,22.009501 100.78542,21.8025 C101.244422,21.595499 101.694418,21.3795011 102.13542,21.1545 C102.576422,20.9294989 102.994918,20.718001 103.39092,20.52 C103.570921,20.4299996 103.737419,20.4029998 103.89042,20.439 C104.043421,20.4750002 104.13792,20.5559994 104.17392,20.682 C104.20992,20.880001 104.182921,21.1229986 104.09292,21.411 C104.00292,21.6990014 103.840921,21.9599988 103.60692,22.194 C103.336919,22.4100011 102.981422,22.6574986 102.54042,22.9365 C102.099418,23.2155014 101.626923,23.4809987 101.12292,23.733 C100.618918,23.9850013 100.110423,24.2054991 99.5974202,24.3945 C99.0844176,24.5835009 98.6299221,24.6959998 98.2339202,24.732 C97.6399172,24.7860003 97.1899217,24.6240019 96.8839202,24.246 C96.5779186,23.8679981 96.4069203,23.3910029 96.3709202,22.815 C96.33492,22.2389971 96.33042,21.5730038 96.3574202,20.817 C96.3844203,20.0609962 96.41592,19.2600042 96.4519202,18.414 C96.1099184,18.4500002 95.7814217,18.4814999 95.4664202,18.5085 C95.1514186,18.5355001 94.8499216,18.5669998 94.5619202,18.603 C94.327919,18.603 94.0714215,18.5490005 93.7924202,18.441 C93.5134188,18.3329995 93.3739202,18.1260015 93.3739202,17.82 C93.3739202,17.7119995 93.4189197,17.5680009 93.5089202,17.388 C93.5989206,17.2079991 93.7969186,17.0730005 94.1029202,16.983 C94.8409238,16.8569994 95.6599157,16.7490005 96.5599202,16.659 C96.6139204,15.8129958 96.6769198,14.994004 96.7489202,14.202 C96.8209205,13.409996 96.8839199,12.6900032 96.9379202,12.042 C96.9559202,11.8259989 97.0189196,11.6370008 97.1269202,11.475 C97.2349207,11.3129992 97.3519195,11.232 97.4779202,11.232 C97.7839217,11.2139999 98.0764188,11.2904991 98.3554202,11.4615 C98.6344215,11.6325009 98.7739202,11.8259989 98.7739202,12.042 C98.7019198,12.6540031 98.6344205,13.3469961 98.5714202,14.121 C98.5084198,14.8950039 98.4499204,15.6869959 98.3959202,16.497 C98.755922,16.4609998 99.1024185,16.4385 99.4354202,16.4295 C99.7684218,16.4205 100.087919,16.4070001 100.39392,16.389 L100.39392,16.389 Z M109.291458,15.552 C109.255458,15.353999 109.219459,15.1650009 109.183458,14.985 C109.147458,14.8049991 109.057459,14.6880003 108.913458,14.634 C108.607457,14.5439996 108.28346,14.5349996 107.941458,14.607 C107.599457,14.6790004 107.28446,14.7914992 106.996458,14.9445 C106.708457,15.0975008 106.465459,15.2684991 106.267458,15.4575 C106.069457,15.6465009 105.961458,15.8129993 105.943458,15.957 C105.889458,16.2270013 105.961457,16.4879987 106.159458,16.74 C106.357459,16.9920013 106.645456,17.2439987 107.023458,17.496 C107.653461,17.8740019 108.310455,18.260998 108.994458,18.657 C109.678462,19.053002 110.254456,19.4579979 110.722458,19.872 C111.190461,20.2860021 111.509957,20.7404975 111.680958,21.2355 C111.851959,21.7305025 111.81146,22.2929969 111.559458,22.923 C111.361457,23.4090024 110.992461,23.8049985 110.452458,24.111 C109.912456,24.4170015 109.318462,24.6554991 108.670458,24.8265 C108.022455,24.9975009 107.374462,25.1144997 106.726458,25.1775 C106.078455,25.2405003 105.529461,25.272 105.079458,25.272 C104.971458,25.272 104.840959,25.2315004 104.687958,25.1505 C104.534958,25.0694996 104.390959,24.9750005 104.255958,24.867 C104.120958,24.7589995 104.003959,24.6465006 103.904958,24.5295 C103.805958,24.4124994 103.756458,24.3090004 103.756458,24.219 C103.756458,23.8949984 103.900457,23.6700006 104.188458,23.544 C104.47646,23.4179994 104.773457,23.355 105.079458,23.355 C105.511461,23.355 105.974956,23.3325002 106.469958,23.2875 C106.964961,23.2424998 107.437456,23.1705005 107.887458,23.0715 C108.337461,22.9724995 108.742457,22.8420008 109.102458,22.68 C109.46246,22.5179992 109.714458,22.3110013 109.858458,22.059 C109.984459,21.8429989 109.90796,21.5865015 109.628958,21.2895 C109.349957,20.9924985 108.980961,20.6820016 108.521958,20.358 C108.062956,20.0339984 107.567961,19.7190015 107.036958,19.413 C106.505956,19.1069985 106.05146,18.8280013 105.673458,18.576 C105.295456,18.3239987 104.97146,18.0225018 104.701458,17.6715 C104.431457,17.3204982 104.260459,16.8840026 104.188458,16.362 C104.170458,15.8939977 104.269457,15.4440022 104.485458,15.012 C104.701459,14.5799978 104.984957,14.1975017 105.335958,13.8645 C105.68696,13.5314983 106.087456,13.266001 106.537458,13.068 C106.987461,12.869999 107.437456,12.771 107.887458,12.771 C108.661462,12.8070002 109.300456,13.0184981 109.804458,13.4055 C110.308461,13.7925019 110.605458,14.3639962 110.695458,15.12 C110.695458,15.3720013 110.654959,15.5789992 110.573958,15.741 C110.492958,15.9030008 110.353459,16.0019998 110.155458,16.038 C109.903457,16.0740002 109.700959,16.0425005 109.547958,15.9435 C109.394958,15.8444995 109.309458,15.7140008 109.291458,15.552 L109.291458,15.552 Z" id="see-all-posts" fill="#577C2D" sketch:type="MSShapeGroup"></path>
    </g>
</svg>