<?xml version="1.0" encoding="UTF-8" standalone="no"?>
<svg width="200px" height="77px" viewBox="0 0 200 77" version="1.1" xmlns="http://www.w3.org/2000/svg" xmlns:xlink="http://www.w3.org/1999/xlink" xmlns:sketch="http://www.bohemiancoding.com/sketch/ns">
    <!-- Generator: Sketch 3.5.1 (25234) - http://www.bohemiancoding.com/sketch -->
    <title>Slice 8</title>
    <desc>Created with Sketch.</desc>
    <defs></defs>
    <g id="Page-1" stroke="none" stroke-width="1" fill="none" fill-rule="evenodd" sketch:type="MSPage">
        <path d="M190.076373,25.9741242 C189.886373,25.3641242 191.016373,24.8741242 190.317373,24.5341242 C189.737373,24.9841242 189.607373,24.4741242 188.636373,24.5341242 C188.656373,25.4741242 189.607373,25.4841242 190.076373,25.9741242 L190.076373,25.9741242 Z M194.636373,24.7741242 C193.656373,24.5341242 193.667373,24.8041242 192.476373,24.7741242 C192.056373,25.6741242 191.076373,26.6141242 191.516373,27.6541242 C192.897373,27.0341242 194.337373,26.4741242 194.636373,24.7741242 L194.636373,24.7741242 Z M194.636373,27.8941242 C193.656373,27.7941242 193.686373,28.7041242 193.197373,29.0941242 C193.556373,29.4541242 193.917373,29.8141242 194.397373,30.0541242 C194.667373,29.0141242 194.436373,28.7141242 194.636373,27.8941242 L194.636373,27.8941242 Z M199.917373,22.8541242 C200.096373,23.7541242 199.627373,24.0041242 199.676373,24.7741242 C197.956373,24.8141242 197.507373,26.1241242 196.076373,26.4541242 C196.087373,28.7941242 196.436373,30.9241242 195.837373,32.6941242 C194.056373,33.3041242 193.676373,30.7841242 192.476373,30.0541242 C190.036373,30.1341242 190.326373,33.8141242 187.917373,33.1741242 C188.016373,32.6741242 187.757373,32.5341242 187.676373,32.2141242 C188.357373,30.4941242 190.136373,29.8741242 191.036373,28.3741242 C189.627373,28.1441242 188.886373,31.9341242 186.717373,30.2941242 C187.237373,29.7941242 186.596373,29.6041242 186.717373,28.8541242 C188.067373,28.7641242 188.547373,27.8041242 189.116373,26.9341242 C187.886373,25.6041242 186.337373,24.5941242 184.317373,24.0541242 C184.177373,23.1941242 184.596373,22.8941242 184.797373,22.3741242 C187.237373,22.5641242 189.286373,22.8641242 191.516373,22.8541242 C192.817373,21.3641242 193.987373,19.5341242 194.397373,17.8141242 C194.976373,18.0141242 195.036373,17.9641242 196.076373,18.0541242 C196.476373,19.7141242 195.897373,21.1641242 196.076373,22.6141242 C196.936373,23.2341242 198.567373,21.8941242 199.917373,22.8541242 L199.917373,22.8541242 Z" id="Fill-137" fill="#A5D272" sketch:type="MSShapeGroup"></path>
        <path d="M13.0763735,56.9741242 C12.8863735,56.3641242 14.0163735,55.8741242 13.3173735,55.5341242 C12.7373735,55.9841242 12.6073735,55.4741242 11.6363735,55.5341242 C11.6563735,56.4741242 12.6073735,56.4841242 13.0763735,56.9741242 L13.0763735,56.9741242 Z M17.6363735,55.7741242 C16.6563735,55.5341242 16.6673735,55.8041242 15.4763735,55.7741242 C15.0563735,56.6741242 14.0763735,57.6141242 14.5163735,58.6541242 C15.8973735,58.0341242 17.3373735,57.4741242 17.6363735,55.7741242 L17.6363735,55.7741242 Z M17.6363735,58.8941242 C16.6563735,58.7941242 16.6863735,59.7041242 16.1973735,60.0941242 C16.5563735,60.4541242 16.9173735,60.8141242 17.3973735,61.0541242 C17.6673735,60.0141242 17.4363735,59.7141242 17.6363735,58.8941242 L17.6363735,58.8941242 Z M22.9173735,53.8541242 C23.0963735,54.7541242 22.6273735,55.0041242 22.6763735,55.7741242 C20.9563735,55.8141242 20.5073735,57.1241242 19.0763735,57.4541242 C19.0873735,59.7941242 19.4363735,61.9241242 18.8373735,63.6941242 C17.0563735,64.3041242 16.6763735,61.7841242 15.4763735,61.0541242 C13.0363735,61.1341242 13.3263735,64.8141242 10.9173735,64.1741242 C11.0163735,63.6741242 10.7573735,63.5341242 10.6763735,63.2141242 C11.3573735,61.4941242 13.1363735,60.8741242 14.0363735,59.3741242 C12.6273735,59.1441242 11.8863735,62.9341242 9.71737345,61.2941242 C10.2373735,60.7941242 9.59637345,60.6041242 9.71737345,59.8541242 C11.0673735,59.7641242 11.5473735,58.8041242 12.1163735,57.9341242 C10.8863735,56.6041242 9.33737345,55.5941242 7.31737345,55.0541242 C7.17737345,54.1941242 7.59637345,53.8941242 7.79737345,53.3741242 C10.2373735,53.5641242 12.2863735,53.8641242 14.5163735,53.8541242 C15.8173735,52.3641242 16.9873735,50.5341242 17.3973735,48.8141242 C17.9763735,49.0141242 18.0363735,48.9641242 19.0763735,49.0541242 C19.4763735,50.7141242 18.8973735,52.1641242 19.0763735,53.6141242 C19.9363735,54.2341242 21.5673735,52.8941242 22.9173735,53.8541242 L22.9173735,53.8541242 Z" id="Fill-137" fill="#A5D272" sketch:type="MSShapeGroup"></path>
        <path d="M7.59637345,18.9341242 C6.45637345,18.6041242 4.89737345,18.6141242 3.99637345,19.1741242 C5.02737345,19.9041242 4.96637345,21.7241242 6.15637345,22.2941242 C6.46637345,21.0041242 7.07637345,20.0141242 7.59637345,18.9341242 L7.59637345,18.9341242 Z M13.3573735,17.4941242 C12.6673735,16.2641242 13.8173735,12.4541242 12.3973735,11.4941242 C12.1073735,13.6841242 10.8463735,14.9041242 10.4763735,17.0141242 C11.2663735,17.3441242 12.3973735,17.3341242 13.3573735,17.4941242 L13.3573735,17.4941242 Z M13.5963735,30.2141242 C13.6473735,28.4841242 13.7973735,22.9841242 13.3573735,19.1741242 C11.8773735,19.2941242 11.0673735,18.7441242 9.51637345,18.9341242 C8.84637345,20.9841242 7.62737345,22.4841242 7.11637345,24.6941242 C8.27737345,27.1341242 9.63637345,29.3741242 10.7163735,31.8941242 C12.0163735,31.6841242 12.5873735,29.9741242 13.5963735,30.2141242 L13.5963735,30.2141242 Z M13.8373735,36.4541242 C13.9663735,34.9841242 13.5673735,32.9841242 14.0763735,31.8941242 C13.1563735,32.3341242 12.3573735,32.8941242 11.9173735,33.8141242 C12.4463735,34.8041242 12.9173735,35.8541242 13.8373735,36.4541242 L13.8373735,36.4541242 Z M17.1973735,26.8541242 C16.8573735,24.9441242 20.6163735,23.9241242 20.0763735,21.8141242 C18.7973735,21.0041242 16.5473735,19.9041242 15.0363735,20.1341242 C15.3973735,21.3941242 15.2373735,25.1341242 15.2773735,28.0541242 C16.1473735,27.8841242 15.8263735,26.5241242 16.9563735,26.6141242 C16.6863735,27.1141242 16.6963735,27.1241242 17.1973735,26.8541242 C17.1773735,27.1441242 17.5473735,27.0041242 17.1973735,26.8541242 L17.1973735,26.8541242 Z M13.8173735,38.5141242 C13.8863735,38.5641242 13.9563735,38.6141242 14.0763735,38.6141242 C13.9863735,38.5841242 13.9063735,38.5541242 13.8173735,38.5141242 L13.8173735,38.5141242 Z M13.5673735,38.3741242 C13.6473735,38.4341242 13.7263735,38.4741242 13.8063735,38.5141242 C13.7373735,38.4541242 13.6673735,38.3941242 13.5673735,38.3741242 L13.5673735,38.3741242 Z M13.5563735,38.3741242 C12.3773735,37.6741242 11.4873735,36.0241242 10.7163735,34.5341242 C9.28637345,35.0641242 9.68637345,36.2941242 7.59637345,36.9341242 C7.31737345,36.3341242 7.24637345,35.5241242 7.11637345,34.7741242 C8.22637345,34.4441242 8.94637345,33.7141242 9.75737345,33.0941242 C9.67737345,32.6441242 9.34637345,32.0341242 9.70637345,31.7641242 C9.82637345,31.7941242 9.92737345,31.7541242 9.99637345,31.6541242 C9.86637345,31.6741242 9.77737345,31.7141242 9.70637345,31.7641242 C8.94637345,31.6841242 7.49637345,29.5341242 8.31737345,29.0141242 C7.36637345,29.1541242 7.30637345,27.6341242 6.63637345,26.8541242 C4.83737345,29.6641242 3.50737345,32.6441242 2.79737345,35.9741242 C1.89737345,35.9941242 2.11637345,36.2441242 1.35737345,35.9741242 C0.0673734536,31.9241242 4.36637345,28.6341242 5.43637345,24.6941242 C4.05637345,22.2341242 2.69637345,19.7541242 0.397373454,18.2141242 C1.20637345,15.2141242 6.07637345,17.4041242 8.31737345,17.0141242 C9.93637345,13.6641242 10.8463735,10.7341242 11.9173735,7.17412416 C12.6863735,6.78412416 13.5073735,6.97412416 14.0763735,7.41412416 C14.8773735,11.3341242 14.6673735,13.9241242 15.0363735,17.4941242 C17.0073735,19.0441242 20.5763735,18.9941242 22.4763735,20.6141242 C22.4273735,24.4841242 18.8573735,26.2741242 16.7163735,28.7741242 C16.2573735,28.8741242 16.1963735,28.6941242 16.2573735,28.4841242 C16.3263735,28.3341242 16.3973735,28.1841242 16.4763735,28.0541242 C16.4173735,28.1441242 16.2973735,28.3241242 16.2573735,28.4841242 C15.1673735,30.9441242 15.3463735,35.7341242 15.7573735,39.3341242 C15.0563735,39.5941242 14.7973735,40.2941242 13.8373735,40.2941242 C13.6963735,39.1141242 13.3663735,39.3841242 13.3573735,38.3741242 C13.4363735,38.3641242 13.4963735,38.3641242 13.5563735,38.3741242 L13.5563735,38.3741242 Z" id="Fill-139" fill="#A5D272" sketch:type="MSShapeGroup"></path>
        <path d="M165.357373,51.4141242 C166.036373,51.6541242 166.377373,51.1041242 167.277373,51.1741242 C165.556373,52.8841242 165.036373,54.5041242 167.516373,55.7341242 C167.317373,56.0941242 166.917373,56.2541242 166.317373,56.2141242 C166.326373,57.6241242 167.317373,58.8441242 166.076373,59.5741242 C164.446373,58.4141242 165.667373,55.4441242 163.436373,55.2541242 C162.337373,56.3441242 160.976373,55.9441242 158.877373,56.2141242 C159.047373,55.4841242 158.627373,55.3441242 158.636373,54.7741242 C159.257373,54.5141242 159.817373,54.1941242 160.797373,54.2941242 C160.956373,53.3341242 160.156373,53.3341242 160.317373,52.3741242 C160.507373,52.1641242 160.976373,52.2341242 161.036373,51.8941242 C161.817373,52.0741242 161.886373,52.9641242 162.716373,53.0941242 C163.786373,52.1541242 163.777373,51.0141242 163.676373,49.4941242 C164.556373,48.9841242 164.846373,49.1141242 165.596373,49.7341242 C165.397373,50.3141242 165.446373,50.3741242 165.357373,51.4141242" id="Fill-140" fill="#A5D272" sketch:type="MSShapeGroup"></path>
        <path d="M150.317373,64.6141242 C149.567373,63.0741242 150.056373,61.7341242 148.877373,60.7741242 C148.297373,62.6141242 149.076373,63.9341242 150.317373,64.6141242 L150.317373,64.6141242 Z M153.917373,60.5341242 C153.277373,60.3441242 151.216373,60.6141242 150.797373,60.7741242 C151.007373,61.8441242 151.386373,62.7441242 151.516373,63.8941242 C152.806373,63.2741242 153.186373,61.7241242 153.917373,60.5341242 L153.917373,60.5341242 Z M155.596373,59.5741242 C155.226373,62.3241242 153.456373,63.6741242 152.236373,65.5741242 C152.857373,66.4141242 153.507373,67.4641242 152.716373,68.4541242 C152.447373,67.9241242 150.877373,68.6941242 151.277373,67.4941242 C149.366373,69.2241242 149.667373,72.0841242 146.716373,73.0141242 C145.976373,70.5941242 149.186373,68.8241242 150.076373,66.5341242 C149.746373,65.8241242 148.966373,65.5641242 148.636373,64.8541242 C147.866373,66.1541242 147.966373,67.6541242 147.436373,69.4141242 C146.737373,69.6341242 146.696373,69.6341242 145.996373,69.4141242 C146.966373,66.0041242 147.877373,62.4341242 145.036373,60.5341242 C144.297373,60.4541242 143.886373,61.0941242 143.357373,60.5341242 C143.417373,60.2341242 143.837373,60.2941242 143.837373,60.5341242 C144.116373,59.7941242 143.897373,59.5141242 144.317373,58.6141242 C145.366373,58.6041242 146.297373,58.7141242 146.956373,59.0941242 C147.346373,58.6841242 147.686373,58.2241242 147.676373,57.4141242 C149.127373,57.4041242 149.476373,58.4941242 150.317373,59.0941242 C151.857373,59.2241242 154.426373,58.1441242 155.596373,59.5741242 L155.596373,59.5741242 Z" id="Fill-142" fill="#A5D272" sketch:type="MSShapeGroup"></path>
        <path d="M143.277373,41.3341242 C143.507373,41.7741242 144.487373,40.9641242 145.197373,41.0941242 C143.277373,43.0441242 147.107373,42.6141242 147.116373,44.6941242 C145.337373,44.6341242 144.516373,43.6141242 143.036373,43.2541242 C141.897373,44.5541242 143.257373,47.2941242 143.036373,49.2541242 C140.897373,48.1241242 141.286373,45.6341242 140.877373,43.2541242 C139.657373,44.0441242 137.956373,43.6041242 136.797373,43.9741242 C136.516373,43.6941242 136.527373,43.1241242 136.556373,42.5341242 C137.946373,42.0741242 139.507373,42.8041242 140.877373,42.0541242 C139.866373,41.1441242 138.737373,40.3541242 137.516373,39.6541242 C137.286373,39.2041242 138.236373,38.8541242 137.516373,38.6941242 C138.806373,37.3941242 140.136373,39.3741242 140.877373,40.1341242 C141.107373,39.0741242 141.087373,38.1441242 140.877373,37.0141242 C141.786373,36.2541242 143.027373,37.4641242 142.317373,38.2141242 C142.446373,38.4841242 143.476373,38.0341242 143.996373,38.4541242 C144.417373,40.0741242 143.087373,39.9441242 143.277373,41.3341242" id="Fill-143" fill="#A5D272" sketch:type="MSShapeGroup"></path>
        <path d="M107.257216,13.8870163 C107.061762,12.185046 107.115146,10.0353399 106.797139,8.55149733 C105.662587,9.1857898 104.018306,9.77990084 103.025825,10.6667623 C100.354334,13.060427 105.513342,13.737771 107.257216,13.8870163 L107.257216,13.8870163 Z M111.304633,14.5327892 C110.909707,12.5725098 110.994088,9.96358735 110.660582,7.6330648 C109.691062,7.61297409 109.096951,7.9688667 108.268927,8.09228107 C108.288156,10.0812615 108.47213,12.1735656 108.544743,14.0707028 C109.564491,14.217078 110.445899,14.4782573 111.304633,14.5327892 L111.304633,14.5327892 Z M112.04024,26.3977894 C111.852823,23.5707393 111.553758,21.3693713 111.67258,18.2122595 C111.477126,17.9941318 111.595661,16.6050026 111.304633,15.910438 C110.442168,15.7324917 109.637391,15.4942732 108.636874,15.4512217 C109.027782,19.4062218 109.357556,22.9909788 109.556741,27.3190921 C110.599449,27.2272488 111.411975,26.9029273 112.04024,26.3977894 L112.04024,26.3977894 Z M116.087945,21.4296435 C116.314109,19.1335621 114.639117,17.4717733 112.868265,16.4643676 C112.929685,19.1708735 113.293901,22.2619729 113.328055,25.4793569 C114.562486,24.7159099 115.919183,23.1631849 116.087945,21.4296435 L116.087945,21.4296435 Z M117.467602,6.80360542 C117.728208,7.16236813 117.804839,7.52974114 117.651576,8.00043782 C117.402738,7.93442548 117.467602,8.18412432 117.283916,8.18412432 C116.083926,7.24847118 114.014296,7.15375783 112.408474,7.08200529 C112.519547,7.18819905 112.442915,7.31448352 112.408474,7.17384854 C111.607429,7.38623606 112.59991,8.65482099 112.04024,9.0135837 C112.500318,9.76842043 112.316344,11.0628363 112.408474,12.2309677 C112.485106,13.2182826 112.615409,14.2342986 112.776134,15.0838487 C116.394471,16.5935222 119.004542,21.1512436 116.179788,24.833584 C115.497565,25.7204454 114.623906,26.7135006 113.512028,27.2272488 C113.550488,28.2949266 113.370532,29.9079237 113.512028,31.3659354 C113.581198,32.0662402 113.975837,32.7722852 113.420185,33.2056705 C111.480857,33.331955 112.117159,31.5496219 112.13237,30.0772597 C112.14012,29.2391901 111.890708,28.9435696 112.13237,28.0538381 C111.64187,28.10837 110.883015,28.4671327 109.924688,28.6048976 C110.135641,29.549161 110.250445,30.8091357 109.832845,31.5496219 C108.337809,31.6328548 108.307386,30.255206 108.268927,28.8804274 C106.337348,28.6594295 104.282929,28.2949266 102.841851,26.9488489 C103.006595,26.0103257 103.74622,25.6458228 104.589456,25.3875136 C104.830832,25.792198 104.627916,26.4351007 104.405483,26.6733192 C105.271679,27.3305725 107.023303,27.6979455 108.177083,27.5027786 C108.100452,24.2452132 107.674816,19.3459497 107.349059,15.2675352 C105.045515,14.9087725 101.810624,14.5327892 101.002116,12.1391244 C100.898506,8.8471178 104.623898,8.20995524 106.797139,7.08200529 C106.781927,5.23078972 106.897018,2.95766921 106.521322,1.74648631 C107.023303,1.2155175 107.728486,1.79814814 108.177083,2.11385932 C108.173065,3.39679476 108.334078,4.86628681 108.268927,6.61991892 C108.916709,6.67445085 109.729234,6.18653357 110.476609,6.25254591 C110.357787,4.05691814 110.054991,2.63908792 109.740715,0.457810665 C110.131623,0.262643753 110.231502,0.340136498 110.752713,0.27412416 C111.822112,0.799352762 111.657082,4.65963949 111.948684,5.97701615 C113.784401,5.7158369 115.865512,6.10043052 117.191786,6.61991892 C117.253206,6.64287973 117.272149,6.96433112 117.467602,6.80360542 L117.467602,6.80360542 Z" id="Fill-181" fill="#A5D272" sketch:type="MSShapeGroup" transform="translate(109.365000, 16.743072) rotate(-20.000000) translate(-109.365000, -16.743072) "></path>
        <path d="M107.257216,13.8870163 C107.061762,12.185046 107.115146,10.0353399 106.797139,8.55149733 C105.662587,9.1857898 104.018306,9.77990084 103.025825,10.6667623 C100.354334,13.060427 105.513342,13.737771 107.257216,13.8870163 L107.257216,13.8870163 Z M111.304633,14.5327892 C110.909707,12.5725098 110.994088,9.96358735 110.660582,7.6330648 C109.691062,7.61297409 109.096951,7.9688667 108.268927,8.09228107 C108.288156,10.0812615 108.47213,12.1735656 108.544743,14.0707028 C109.564491,14.217078 110.445899,14.4782573 111.304633,14.5327892 L111.304633,14.5327892 Z M112.04024,26.3977894 C111.852823,23.5707393 111.553758,21.3693713 111.67258,18.2122595 C111.477126,17.9941318 111.595661,16.6050026 111.304633,15.910438 C110.442168,15.7324917 109.637391,15.4942732 108.636874,15.4512217 C109.027782,19.4062218 109.357556,22.9909788 109.556741,27.3190921 C110.599449,27.2272488 111.411975,26.9029273 112.04024,26.3977894 L112.04024,26.3977894 Z M116.087945,21.4296435 C116.314109,19.1335621 114.639117,17.4717733 112.868265,16.4643676 C112.929685,19.1708735 113.293901,22.2619729 113.328055,25.4793569 C114.562486,24.7159099 115.919183,23.1631849 116.087945,21.4296435 L116.087945,21.4296435 Z M117.467602,6.80360542 C117.728208,7.16236813 117.804839,7.52974114 117.651576,8.00043782 C117.402738,7.93442548 117.467602,8.18412432 117.283916,8.18412432 C116.083926,7.24847118 114.014296,7.15375783 112.408474,7.08200529 C112.519547,7.18819905 112.442915,7.31448352 112.408474,7.17384854 C111.607429,7.38623606 112.59991,8.65482099 112.04024,9.0135837 C112.500318,9.76842043 112.316344,11.0628363 112.408474,12.2309677 C112.485106,13.2182826 112.615409,14.2342986 112.776134,15.0838487 C116.394471,16.5935222 119.004542,21.1512436 116.179788,24.833584 C115.497565,25.7204454 114.623906,26.7135006 113.512028,27.2272488 C113.550488,28.2949266 113.370532,29.9079237 113.512028,31.3659354 C113.581198,32.0662402 113.975837,32.7722852 113.420185,33.2056705 C111.480857,33.331955 112.117159,31.5496219 112.13237,30.0772597 C112.14012,29.2391901 111.890708,28.9435696 112.13237,28.0538381 C111.64187,28.10837 110.883015,28.4671327 109.924688,28.6048976 C110.135641,29.549161 110.250445,30.8091357 109.832845,31.5496219 C108.337809,31.6328548 108.307386,30.255206 108.268927,28.8804274 C106.337348,28.6594295 104.282929,28.2949266 102.841851,26.9488489 C103.006595,26.0103257 103.74622,25.6458228 104.589456,25.3875136 C104.830832,25.792198 104.627916,26.4351007 104.405483,26.6733192 C105.271679,27.3305725 107.023303,27.6979455 108.177083,27.5027786 C108.100452,24.2452132 107.674816,19.3459497 107.349059,15.2675352 C105.045515,14.9087725 101.810624,14.5327892 101.002116,12.1391244 C100.898506,8.8471178 104.623898,8.20995524 106.797139,7.08200529 C106.781927,5.23078972 106.897018,2.95766921 106.521322,1.74648631 C107.023303,1.2155175 107.728486,1.79814814 108.177083,2.11385932 C108.173065,3.39679476 108.334078,4.86628681 108.268927,6.61991892 C108.916709,6.67445085 109.729234,6.18653357 110.476609,6.25254591 C110.357787,4.05691814 110.054991,2.63908792 109.740715,0.457810665 C110.131623,0.262643753 110.231502,0.340136498 110.752713,0.27412416 C111.822112,0.799352762 111.657082,4.65963949 111.948684,5.97701615 C113.784401,5.7158369 115.865512,6.10043052 117.191786,6.61991892 C117.253206,6.64287973 117.272149,6.96433112 117.467602,6.80360542 L117.467602,6.80360542 Z" id="Fill-181" fill="#A5D272" sketch:type="MSShapeGroup" transform="translate(109.365000, 16.743072) rotate(-20.000000) translate(-109.365000, -16.743072) "></path>
        <path d="M183.387157,53.8186085 C183.250118,52.6252964 183.287547,51.1180608 183.064581,50.0776858 C182.269106,50.5224109 181.116242,50.9389633 180.420378,51.5607735 C178.547301,53.2390573 182.164465,53.7139673 183.387157,53.8186085 L183.387157,53.8186085 Z M186.224946,54.2713829 C185.948049,52.8969611 186.007212,51.0677525 185.773379,49.43374 C185.093614,49.4196537 184.677061,49.6691827 184.096504,49.7557129 C184.109986,51.150258 184.238977,52.6172471 184.289889,53.9473977 C185.00487,54.0500265 185.622857,54.2331486 186.224946,54.2713829 L186.224946,54.2713829 Z M186.740706,62.5903579 C186.609301,60.6082122 186.399616,59.0647545 186.482927,56.8511908 C186.345887,56.6982537 186.428996,55.7242856 186.224946,55.2373016 C185.620241,55.1125371 185.055983,54.9455137 184.354485,54.9153287 C184.628564,57.6883204 184.859781,60.2017214 184.999437,63.236316 C185.730516,63.1719214 186.300207,62.9445281 186.740706,62.5903579 L186.740706,62.5903579 Z M189.578696,59.1070135 C189.737268,57.497149 188.562872,56.3320095 187.321264,55.6256814 C187.364328,57.5233093 187.619692,59.6905894 187.643639,61.9464121 C188.509142,61.4111321 189.460371,60.3224612 189.578696,59.1070135 L189.578696,59.1070135 Z M190.546024,48.8521764 C190.728743,49.1037178 190.782472,49.3612961 190.675014,49.6913183 C190.500545,49.6450347 190.546024,49.8201075 190.417234,49.8201075 C189.575879,49.1640877 188.124787,49.0976808 186.998888,49.0473725 C187.076766,49.1218287 187.023036,49.2103713 186.998888,49.1117671 C186.437247,49.2606795 187.133111,50.1501297 186.740706,50.401671 C187.063283,50.930914 186.934292,51.8384751 186.998888,52.6574937 C187.052618,53.3497355 187.143977,54.0621005 187.256668,54.6577504 C189.793613,55.7162363 191.623627,58.9118174 189.643091,61.4936377 C189.16476,62.1154478 188.552206,62.8117142 187.772629,63.1719214 C187.799595,63.9205084 187.673422,65.0514383 187.772629,66.0737023 C187.821127,66.5647109 188.097822,67.0597443 187.708235,67.3636062 C186.348503,67.4521488 186.794637,66.2024914 186.805302,65.1701658 C186.810735,64.5825652 186.635864,64.3752952 186.805302,63.7514727 C186.461395,63.7897069 185.929335,64.0412483 185.257417,64.1378402 C185.405324,64.7998969 185.485817,65.6833101 185.193023,66.2024914 C184.1448,66.260849 184.123469,65.2949303 184.096504,64.3310239 C182.742205,64.1760744 181.301779,63.9205084 180.291388,62.9767254 C180.406896,62.3186932 180.925473,62.0631272 181.516696,61.8820175 C181.685933,62.1657561 181.543661,62.6165182 181.387705,62.7835416 C181.995027,63.2443653 183.223152,63.5019437 184.032109,63.3651052 C183.97838,61.0811099 183.679951,57.6460614 183.451552,54.7865396 C181.836455,54.5349982 179.568357,54.2713829 179.001484,52.5930991 C178.928839,50.2849559 181.540844,49.8382184 183.064581,49.0473725 C183.053915,47.7494192 183.13461,46.1556533 182.871196,45.3064498 C183.223152,44.9341686 183.717582,45.3426717 184.032109,45.5640281 C184.029292,46.4635399 184.142184,47.4938532 184.096504,48.7233873 C184.550687,48.7616215 185.120378,48.4195253 185.644389,48.4658089 C185.561078,46.926376 185.348777,45.9322846 185.128427,44.4029133 C185.402506,44.2660748 185.472536,44.3204078 185.837975,44.2741242 C186.587769,44.6423807 186.47206,47.3489654 186.676513,48.2726252 C187.9636,48.0895031 189.422741,48.3591554 190.352639,48.7233873 C190.395702,48.7394859 190.408984,48.9648669 190.546024,48.8521764 L190.546024,48.8521764 Z" id="Fill-181" fill="#A5D272" sketch:type="MSShapeGroup" transform="translate(184.865000, 55.821091) rotate(-341.000000) translate(-184.865000, -55.821091) "></path>
        <path d="M48.1200008,4.91214834 C47.5824055,5.61171157 46.0592185,5.63583444 44.8117215,5.73921817 C42.8818919,5.89773989 40.8624631,5.99423137 39.3530607,6.40087404 C39.945794,7.84824624 41.5141252,8.75802305 41.9169771,10.1226883 C41.9927919,10.3466863 42.1030678,9.87112119 42.2474604,10.1226883 C42.6306695,11.0428034 43.6844943,11.6183062 43.8192377,12.5211908 C43.5194249,12.748635 43.4505024,12.7003892 43.0748749,12.8520187 C41.8997465,11.6837826 40.8831398,10.3570247 39.8493026,9.04749749 C39.5425975,10.3294557 40.5829824,12.2351625 40.0147165,13.0174327 C39.4667828,13.1518315 39.418537,12.7865423 39.0222327,12.7693117 C38.6741742,10.9015124 38.4605145,9.21635758 38.1951629,7.31065085 C37.2681555,8.34104201 36.4752023,9.50583202 35.8793674,10.8670511 C35.2215023,11.1427411 34.8382932,10.7154216 34.5560557,10.3708092 C34.9868212,8.87174515 36.1964108,8.15150517 36.7891442,6.81440895 C35.2249484,6.63176436 31.8267252,8.55814784 31,6.64899498 C31.1099314,6.593857 31.154731,6.47324265 31.1650694,6.31816705 C32.7950861,6.03213874 34.8937758,5.80814066 36.9545582,5.57380421 C36.3725078,4.88802547 35.869029,4.12298588 35.0526422,3.6715436 C34.7080297,2.82379703 33.3499122,2.66872143 33.3981579,1.68657601 C35.1387953,0.890521302 36.7336616,3.6577591 37.698921,4.58132041 C37.7127055,3.19253233 37.0307175,1.55217717 36.8718512,0.197850321 C37.2616078,-0.136423735 37.8229815,0.0152057338 38.2778699,0.197850321 C38.529437,0.880182929 38.8292498,1.94158921 38.8568188,3.09259472 C39.5291576,2.80656641 39.6046277,1.03870465 40.3455445,0.776799201 C40.9386224,0.566585619 41.5654724,1.10762713 41.5861492,1.52116205 C41.6068259,1.95192758 40.7866484,2.83068928 40.5109584,3.25800869 C40.0770914,3.93344905 39.7910631,4.43313707 39.4357676,4.99485533 C40.7280642,5.14303867 43.1127823,4.63990453 44.4808936,4.6640274 L44.4808936,4.91214834 C44.6015079,4.89491772 44.5084626,4.6640274 44.6463076,4.6640274 C46.1178026,4.73639601 46.8035814,4.37799908 48.1200008,4.91214834" id="Fill-175" fill="#A5D272" sketch:type="MSShapeGroup"></path>
        <path d="M148.120001,14.9121483 C147.582405,15.6117116 146.059219,15.6358344 144.811722,15.7392182 C142.881892,15.8977399 140.862463,15.9942314 139.353061,16.400874 C139.945794,17.8482462 141.514125,18.758023 141.916977,20.1226883 C141.992792,20.3466863 142.103068,19.8711212 142.24746,20.1226883 C142.630669,21.0428034 143.684494,21.6183062 143.819238,22.5211908 C143.519425,22.748635 143.450502,22.7003892 143.074875,22.8520187 C141.899747,21.6837826 140.88314,20.3570247 139.849303,19.0474975 C139.542597,20.3294557 140.582982,22.2351625 140.014717,23.0174327 C139.466783,23.1518315 139.418537,22.7865423 139.022233,22.7693117 C138.674174,20.9015124 138.460514,19.2163576 138.195163,17.3106508 C137.268155,18.341042 136.475202,19.505832 135.879367,20.8670511 C135.221502,21.1427411 134.838293,20.7154216 134.556056,20.3708092 C134.986821,18.8717451 136.196411,18.1515052 136.789144,16.8144089 C135.224948,16.6317644 131.826725,18.5581478 131,16.648995 C131.109931,16.593857 131.154731,16.4732426 131.165069,16.3181671 C132.795086,16.0321387 134.893776,15.8081407 136.954558,15.5738042 C136.372508,14.8880255 135.869029,14.1229859 135.052642,13.6715436 C134.70803,12.823797 133.349912,12.6687214 133.398158,11.686576 C135.138795,10.8905213 136.733662,13.6577591 137.698921,14.5813204 C137.712705,13.1925323 137.030718,11.5521772 136.871851,10.1978503 C137.261608,9.86357627 137.822981,10.0152057 138.27787,10.1978503 C138.529437,10.8801829 138.82925,11.9415892 138.856819,13.0925947 C139.529158,12.8065664 139.604628,11.0387046 140.345544,10.7767992 C140.938622,10.5665856 141.565472,11.1076271 141.586149,11.521162 C141.606826,11.9519276 140.786648,12.8306893 140.510958,13.2580087 C140.077091,13.933449 139.791063,14.4331371 139.435768,14.9948553 C140.728064,15.1430387 143.112782,14.6399045 144.480894,14.6640274 L144.480894,14.9121483 C144.601508,14.8949177 144.508463,14.6640274 144.646308,14.6640274 C146.117803,14.736396 146.803581,14.3779991 148.120001,14.9121483" id="Fill-175" fill="#A5D272" sketch:type="MSShapeGroup"></path>
        <path d="M100.807829,20.535654 C100.311438,21.1815988 98.9049963,21.2038728 97.7531144,21.2993326 C95.9711977,21.4457043 94.1065491,21.5348001 92.7128356,21.9102755 C93.2601386,23.246713 94.7082642,24.0867595 95.0802393,25.3468291 C95.1502432,25.5536588 95.252067,25.1145436 95.3853925,25.3468291 C95.7392303,26.1964216 96.7122841,26.7278146 96.8367001,27.5614971 C96.5598666,27.7715087 96.4962267,27.7269608 96.1493893,27.8669685 C95.0643293,26.7882725 94.125641,25.5632047 93.1710428,24.354047 C92.8878453,25.5377488 93.8484894,27.2973916 93.3237785,28.0197042 C92.8178414,28.143802 92.7732935,27.8065106 92.4073642,27.7906007 C92.0859828,26.0659598 91.8886992,24.5099647 91.6436856,22.7503219 C90.7877292,23.7017382 90.0555523,24.7772522 89.5053855,26.0341399 C88.8979428,26.2886994 88.5441051,25.8941321 88.2834998,25.5759327 C88.681249,24.1917653 89.798129,23.5267285 90.345432,22.2921148 C88.9011248,22.1234691 85.7633604,23.9022038 85,22.139379 C85.1015056,22.0884671 85.1428715,21.9770973 85.1524175,21.8339076 C86.6575008,21.5698021 88.5953352,21.3629725 90.4981677,21.1465969 C89.9607289,20.51338 89.4958395,19.8069773 88.7420251,19.3901361 C88.4238257,18.6073655 87.1698018,18.4641758 87.2143497,17.5573074 C88.821575,16.8222668 90.2942019,19.3774081 91.1854784,20.2301825 C91.1982064,18.9478389 90.5684898,17.4332097 90.4217998,16.182686 C90.7816834,15.8740325 91.3000302,16.0140403 91.7200535,16.182686 C91.952339,16.8127208 92.2291725,17.792775 92.2546285,18.8555611 C92.8754355,18.5914555 92.9451212,16.9590925 93.62925,16.717261 C94.1768712,16.5231593 94.7556759,17.0227324 94.7747679,17.4045717 C94.7938598,17.802321 94.0365452,18.6137295 93.7819857,19.0082968 C93.3813726,19.6319676 93.1172671,20.0933568 92.7892035,20.6120218 C93.9824513,20.7488476 96.1843913,20.2842764 97.4476429,20.3065504 L97.4476429,20.535654 C97.5590127,20.519744 97.4730989,20.3065504 97.6003787,20.3065504 C98.9590902,20.3733723 99.592307,20.0424449 100.807829,20.535654" id="Fill-175" fill="#A5D272" sketch:type="MSShapeGroup"></path>
        <path d="M70.8078288,61.535654 C70.3114377,62.1815988 68.9049963,62.2038728 67.7531144,62.2993326 C65.9711977,62.4457043 64.1065491,62.5348001 62.7128356,62.9102755 C63.2601386,64.246713 64.7082642,65.0867595 65.0802393,66.3468291 C65.1502432,66.5536588 65.252067,66.1145436 65.3853925,66.3468291 C65.7392303,67.1964216 66.7122841,67.7278146 66.8367001,68.5614971 C66.5598666,68.7715087 66.4962267,68.7269608 66.1493893,68.8669685 C65.0643293,67.7882725 64.125641,66.5632047 63.1710428,65.354047 C62.8878453,66.5377488 63.8484894,68.2973916 63.3237785,69.0197042 C62.8178414,69.143802 62.7732935,68.8065106 62.4073642,68.7906007 C62.0859828,67.0659598 61.8886992,65.5099647 61.6436856,63.7503219 C60.7877292,64.7017382 60.0555523,65.7772522 59.5053855,67.0341399 C58.8979428,67.2886994 58.5441051,66.8941321 58.2834998,66.5759327 C58.681249,65.1917653 59.798129,64.5267285 60.345432,63.2921148 C58.9011248,63.1234691 55.7633604,64.9022038 55,63.139379 C55.1015056,63.0884671 55.1428715,62.9770973 55.1524175,62.8339076 C56.6575008,62.5698021 58.5953352,62.3629725 60.4981677,62.1465969 C59.9607289,61.51338 59.4958395,60.8069773 58.7420251,60.3901361 C58.4238257,59.6073655 57.1698018,59.4641758 57.2143497,58.5573074 C58.821575,57.8222668 60.2942019,60.3774081 61.1854784,61.2301825 C61.1982064,59.9478389 60.5684898,58.4332097 60.4217998,57.182686 C60.7816834,56.8740325 61.3000302,57.0140403 61.7200535,57.182686 C61.952339,57.8127208 62.2291725,58.792775 62.2546285,59.8555611 C62.8754355,59.5914555 62.9451212,57.9590925 63.62925,57.717261 C64.1768712,57.5231593 64.7556759,58.0227324 64.7747679,58.4045717 C64.7938598,58.802321 64.0365452,59.6137295 63.7819857,60.0082968 C63.3813726,60.6319676 63.1172671,61.0933568 62.7892035,61.6120218 C63.9824513,61.7488476 66.1843913,61.2842764 67.4476429,61.3065504 L67.4476429,61.535654 C67.5590127,61.519744 67.4730989,61.3065504 67.6003787,61.3065504 C68.9590902,61.3733723 69.592307,61.0424449 70.8078288,61.535654" id="Fill-175" fill="#A5D272" sketch:type="MSShapeGroup"></path>
        <path d="M135.280405,67.7650361 C133.005641,67.9518918 130.625263,68.06563 128.846072,68.5449552 C129.54475,70.2510283 131.393402,71.323417 131.868259,72.9320001 C131.957625,73.1960352 132.087611,72.6354684 132.257812,72.9320001 C132.709515,74.0165751 133.951699,74.6949422 134.110526,75.7592068 C133.757125,76.027304 133.675884,75.9704349 133.233117,76.1491664 C131.847948,74.7721217 130.649635,73.2082215 129.431012,71.6646316 C129.069487,73.1757248 130.295828,75.4220543 129.625991,76.3441462 C128.980121,76.5025672 128.923252,76.0719869 128.456113,76.0516765 C128.045843,73.8500299 127.793994,71.8636735 127.481214,69.617344 C126.388515,70.8319055 125.45383,72.2048881 124.751497,73.8094091 C123.976046,74.1343754 123.524343,73.6306777 123.191659,73.2244698 C123.699419,71.4574656 125.125208,70.6084912 125.823886,69.0324047 C123.980108,68.8171145 119.974493,71.0878164 119,68.8374249 C119.12958,68.7724316 119.182387,68.6302589 119.194574,68.4474654 C121.115937,68.1103128 123.589743,67.8462777 126.018866,67.5700564 C125.332781,66.7617027 124.739311,65.8599213 123.777004,65.327789 C123.370797,64.3285176 121.769931,64.1457241 121.826801,62.9880317 C123.878556,62.0496915 125.758486,65.3115407 126.896275,66.4001777 C126.912523,64.7631601 126.108638,62.8296106 125.921376,61.2332137 C126.380797,60.8391921 127.042509,61.0179236 127.578704,61.2332137 C127.875236,62.0375053 128.228636,63.2886255 128.261133,64.6453598 C129.053645,64.3082073 129.142604,62.2243609 130.015951,61.915643 C130.715035,61.6678562 131.453927,62.3056025 131.478299,62.7930519 C131.502672,63.3008118 130.535897,64.3366418 130.210931,64.8403395 C129.699515,65.636507 129.362363,66.2255084 128.943562,66.8876272 C130.466842,67.0622965 133.2778,66.4692331 134.890445,66.4976676 L134.890445,66.7901373 C135.032618,66.7698269 134.922942,66.4976676 135.085425,66.4976676 C136.819933,66.5829713 137.628286,66.1605151 139.18,66.7901373 C138.546316,67.6147392 136.750877,67.6431738 135.280405,67.7650361 Z" id="Fill-175" fill="#A5D272" sketch:type="MSShapeGroup"></path>
        <path d="M92.7880757,58.0113682 C92.7958624,57.331065 93.1073265,56.9540295 93.1810943,56.3392976 C92.5212821,56.1876638 90.9475686,56.2532352 90.0336673,56.0442264 C90.9438803,56.7081367 91.9229431,57.3023775 92.7880757,58.0113682 L92.7880757,58.0113682 Z M97.5088064,65.191436 C96.2096731,63.8349278 95.3162629,62.0726965 93.869594,60.8637239 C93.6114066,63.2775709 93.3901031,66.2774623 93.5745227,69.1257197 C94.8121828,68.1298542 96.3654052,66.6053192 97.5088064,65.191436 L97.5088064,65.191436 Z M97.7059304,55.4540838 C97.3485663,53.3517009 97.1481637,51.421443 96.7219497,49.5526582 C96.1891821,51.3394787 95.4801914,53.314817 95.1482362,55.1590125 C96.0785303,55.1795036 96.9473513,55.2614678 97.7059304,55.4540838 L97.7059304,55.4540838 Z M98.4923773,64.5029364 C98.910395,64.0357402 99.5702071,63.8103385 99.7710195,63.1259371 C99.2136627,61.1956791 98.3817256,58.7244571 98.0005919,56.732726 C97.0580031,56.6425653 95.4019155,56.4499494 94.6564507,56.4376547 C94.5539954,57.6753148 93.9806555,58.2941449 94.1646652,59.4867246 C95.8859144,61.097322 96.8940746,62.8185711 98.4923773,64.5029364 L98.4923773,64.5029364 Z M99.4759483,65.7815786 C100.095188,66.1873016 100.828358,67.4987295 101.344323,67.3552921 C100.980402,66.5725335 100.807867,65.597159 100.361162,64.8963647 C100.148055,65.2734003 99.6767607,65.3922484 99.4759483,65.7815786 L99.4759483,65.7815786 Z M101.148019,62.044009 C102.393875,60.8309382 103.742187,59.7203227 104.688874,58.2080824 C103.000411,57.8638326 101.537349,57.2941811 99.6726624,57.1261544 C100.070189,58.7818321 100.381653,60.6055365 101.148019,62.044009 L101.148019,62.044009 Z M107.147802,58.1097253 C107.180587,58.7326536 106.467088,58.9252695 106.065874,59.2900104 C105.348686,59.9334297 104.603222,60.9170007 104.098732,61.6505807 C103.045491,62.0726965 102.566,63.0685621 101.738161,63.7160796 C101.906598,64.4783471 102.303715,65.4660162 102.722142,66.5684353 C103.111062,67.5929884 103.856937,68.9986752 103.115161,69.5191481 C100.848849,69.3265321 99.8206079,67.8962561 98.6890915,66.5684353 C96.9887433,66.929078 95.4187182,71.969879 93.5745227,69.9125765 C93.021264,70.2937102 92.4110402,70.2650227 91.9024521,69.9125765 C91.5049255,66.5315514 92.1606395,62.3390803 92.4925946,59.4867246 C91.1401846,57.8351451 88.9972294,56.597485 86.6895262,55.8475122 C86.5051066,55.786039 85.9194721,55.8475122 86.0010265,55.4540838 C84.75517,55.671289 84.6158308,54.4623164 85.9026694,54.2737987 C86.4518298,54.1918344 87.0583652,54.4910039 87.7714542,54.56887 C88.9722304,54.7000127 91.5131219,54.7491913 93.4761656,54.9622983 C94.5130133,52.1304337 95.1728254,48.9215335 96.2301642,46.1101599 C96.5908069,46.0445885 96.9432531,45.9708207 97.4104493,46.0118029 C98.7304835,48.1633643 98.6153237,52.2697729 99.2792341,55.4540838 C100.70992,56.1016013 102.385679,56.2368423 104.393803,56.732726 C105.266722,56.945833 107.106819,57.3146721 107.147802,58.1097253 L107.147802,58.1097253 Z" id="Fill-169" fill="#A5D272" sketch:type="MSShapeGroup"></path>
        <path d="M54.7880757,15.0113682 C54.7958624,14.331065 55.1073265,13.9540295 55.1810943,13.3392976 C54.5212821,13.1876638 52.9475686,13.2532352 52.0336673,13.0442264 C52.9438803,13.7081367 53.9229431,14.3023775 54.7880757,15.0113682 L54.7880757,15.0113682 Z M59.5088064,22.191436 C58.2096731,20.8349278 57.3162629,19.0726965 55.869594,17.8637239 C55.6114066,20.2775709 55.3901031,23.2774623 55.5745227,26.1257197 C56.8121828,25.1298542 58.3654052,23.6053192 59.5088064,22.191436 L59.5088064,22.191436 Z M59.7059304,12.4540838 C59.3485663,10.3517009 59.1481637,8.42144297 58.7219497,6.5526582 C58.1891821,8.33947873 57.4801914,10.314817 57.1482362,12.1590125 C58.0785303,12.1795036 58.9473513,12.2614678 59.7059304,12.4540838 L59.7059304,12.4540838 Z M60.4923773,21.5029364 C60.910395,21.0357402 61.5702071,20.8103385 61.7710195,20.1259371 C61.2136627,18.1956791 60.3817256,15.7244571 60.0005919,13.732726 C59.0580031,13.6425653 57.4019155,13.4499494 56.6564507,13.4376547 C56.5539954,14.6753148 55.9806555,15.2941449 56.1646652,16.4867246 C57.8859144,18.097322 58.8940746,19.8185711 60.4923773,21.5029364 L60.4923773,21.5029364 Z M61.4759483,22.7815786 C62.0951881,23.1873016 62.8283583,24.4987295 63.3443232,24.3552921 C62.980402,23.5725335 62.8078672,22.597159 62.3611621,21.8963647 C62.1480551,22.2734003 61.6767607,22.3922484 61.4759483,22.7815786 L61.4759483,22.7815786 Z M63.1480188,19.044009 C64.3938754,17.8309382 65.7421872,16.7203227 66.6888742,15.2080824 C65.0004108,14.8638326 63.537349,14.2941811 61.6726624,14.1261544 C62.070189,15.7818321 62.3816532,17.6055365 63.1480188,19.044009 L63.1480188,19.044009 Z M69.1478015,15.1097253 C69.1805872,15.7326536 68.4670885,15.9252695 68.0658735,16.2900104 C67.3486864,16.9334297 66.6032216,17.9170007 66.0987316,18.6505807 C65.0454911,19.0726965 64.5660003,20.0685621 63.7381614,20.7160796 C63.9065979,21.4783471 64.3037147,22.4660162 64.7221422,23.5684353 C65.1110625,24.5929884 65.8569371,25.9986752 65.1151607,26.5191481 C62.8488494,26.3265321 61.8206079,24.8962561 60.6890915,23.5684353 C58.9887433,23.929078 57.4187182,28.969879 55.5745227,26.9125765 C55.021264,27.2937102 54.4110402,27.2650227 53.9024521,26.9125765 C53.5049255,23.5315514 54.1606395,19.3390803 54.4925946,16.4867246 C53.1401846,14.8351451 50.9972294,13.597485 48.6895262,12.8475122 C48.5051066,12.786039 47.9194721,12.8475122 48.0010265,12.4540838 C46.75517,12.671289 46.6158308,11.4623164 47.9026694,11.2737987 C48.4518298,11.1918344 49.0583652,11.4910039 49.7714542,11.56887 C50.9722304,11.7000127 53.5131219,11.7491913 55.4761656,11.9622983 C56.5130133,9.13043369 57.1728254,5.92153352 58.2301642,3.11015994 C58.5908069,3.04458855 58.9432531,2.97082073 59.4104493,3.01180285 C60.7304835,5.16336426 60.6153237,9.2697729 61.2792341,12.4540838 C62.70992,13.1016013 64.3856789,13.2368423 66.3938029,13.732726 C67.2667221,13.945833 69.1068194,14.3146721 69.1478015,15.1097253 L69.1478015,15.1097253 Z" id="Fill-169" fill="#A5D272" sketch:type="MSShapeGroup"></path>
    </g>
</svg>