<?xml version="1.0" encoding="UTF-8" standalone="no"?>
<svg width="85px" height="74px" viewBox="0 0 85 74" version="1.1" xmlns="http://www.w3.org/2000/svg" xmlns:xlink="http://www.w3.org/1999/xlink" xmlns:sketch="http://www.bohemiancoding.com/sketch/ns">
    <!-- Generator: Sketch 3.5.1 (25234) - http://www.bohemiancoding.com/sketch -->
    <title>Slice 10</title>
    <desc>Created with Sketch.</desc>
    <defs></defs>
    <g id="Page-1" stroke="none" stroke-width="1" fill="none" fill-rule="evenodd" sketch:type="MSPage">
        <path d="M15.46,57.568 C15.4079997,57.2559984 15.4296662,56.9700013 15.525,56.71 C15.6203338,56.4499987 15.8153319,56.3026668 16.11,56.268 C16.3700013,56.2333332 16.5996657,56.3026658 16.799,56.476 C16.9983343,56.6493342 17.1239997,56.8746653 17.176,57.152 C17.5226684,59.1453433 17.8476652,61.1256568 18.151,63.093 C18.4543349,65.0603432 18.7273321,66.9886572 18.97,68.878 C19.0393337,69.3806692 19.0046674,69.7229991 18.866,69.905 C18.7273326,70.0870009 18.5626676,70.2213329 18.372,70.308 C18.163999,70.3946671 17.9690009,70.3946671 17.787,70.308 C17.6049991,70.2213329 17.4880003,70.0653345 17.436,69.84 L17.41,69.684 L17.306,69.71 C16.7339971,69.918001 16.1360031,70.0349999 15.512,70.061 C14.8879969,70.0870001 14.2900029,70.0133342 13.718,69.84 C13.1459971,69.6666658 12.6390022,69.3850019 12.197,68.995 C11.7549978,68.604998 11.4386676,68.1066697 11.248,67.5 C10.8319979,66.1653267 11.0919953,64.9520055 12.028,63.86 C12.4266687,63.4093311 12.9206637,63.0020018 13.51,62.638 C14.0993363,62.2739982 14.8099958,61.988001 15.642,61.78 L16.11,61.676 L15.46,57.568 Z M12.834,66.85 C12.9380005,67.2660021 13.1286653,67.5866655 13.406,67.812 C13.6833347,68.0373345 14.0126648,68.1889996 14.394,68.267 C14.7753352,68.3450004 15.1826645,68.3580003 15.616,68.306 C16.0493355,68.2539997 16.4739979,68.1586674 16.89,68.02 L17.124,67.942 L16.396,63.366 L15.876,63.496 C15.5119982,63.6000005 15.1263354,63.7603323 14.719,63.977 C14.3116646,64.1936678 13.9520016,64.4493319 13.64,64.744 C13.3279984,65.0386681 13.0896675,65.3679982 12.925,65.732 C12.7603325,66.0960018 12.7299995,66.4686648 12.834,66.85 L12.834,66.85 Z M25.2446667,61.676 C25.7646693,61.8666676 26.2023316,62.1526648 26.5576667,62.534 C26.9130019,62.9153352 27.1859991,63.3443309 27.3766667,63.821 C27.5673344,64.297669 27.6756666,64.7873308 27.7016667,65.29 C27.7276669,65.7926692 27.6713341,66.2606645 27.5326667,66.694 C27.3419991,67.1793358 27.0993349,67.6559977 26.8046667,68.124 C26.5099986,68.5920023 26.172002,69.0079982 25.7906667,69.372 C25.4093315,69.7360018 24.9760025,70.0306655 24.4906667,70.256 C24.005331,70.4813345 23.468003,70.594 22.8786667,70.594 C22.1679965,70.594 21.5700025,70.429335 21.0846667,70.1 C20.599331,69.770665 20.2180015,69.3460026 19.9406667,68.826 C19.663332,68.3059974 19.4856671,67.71667 19.4076667,67.058 C19.3296664,66.39933 19.3426662,65.74067 19.4466667,65.082 C19.5160004,64.5966642 19.6329993,64.1243356 19.7976667,63.665 C19.9623342,63.2056644 20.1746654,62.7983351 20.4346667,62.443 C20.694668,62.0876649 20.9936651,61.7973345 21.3316667,61.572 C21.6696684,61.3466655 22.0553312,61.234 22.4886667,61.234 C22.7313346,61.234 23.0346649,61.2816662 23.3986667,61.377 C23.7626686,61.4723338 24.1006652,61.6066658 24.4126667,61.78 C24.6380012,61.571999 24.9153318,61.5373326 25.2446667,61.676 L25.2446667,61.676 Z M24.2566667,63.574 C24.0659991,63.4526661 23.8450013,63.2923343 23.5936667,63.093 C23.3423322,62.8936657 23.1213344,62.794 22.9306667,62.794 C22.7226657,62.794 22.5190011,62.8893324 22.3196667,63.08 C22.1203324,63.2706676 21.9470008,63.4916654 21.7996667,63.743 C21.6523327,63.9943346 21.5266673,64.2499987 21.4226667,64.51 C21.3186662,64.7700013 21.2493336,64.9779992 21.2146667,65.134 C21.1626665,65.3940013 21.1280002,65.7059982 21.1106667,66.07 C21.0933333,66.4340018 21.1193331,66.7936649 21.1886667,67.149 C21.2580004,67.5043351 21.3923324,67.8249986 21.5916667,68.111 C21.7910011,68.3970014 22.0899981,68.6006661 22.4886667,68.722 C22.7313346,68.7913337 23.0173318,68.7870004 23.3466667,68.709 C23.6760017,68.6309996 24.0009985,68.488001 24.3216667,68.28 C24.642335,68.071999 24.9456653,67.7946684 25.2316667,67.448 C25.5176682,67.1013316 25.738666,66.7026689 25.8946667,66.252 C26.0680009,65.7493308 26.0723342,65.2250027 25.9076667,64.679 C25.7429993,64.1329973 25.4093359,63.7386679 24.9066667,63.496 C24.7853328,63.5826671 24.6640007,63.626 24.5426667,63.626 C24.4213328,63.626 24.3260004,63.6086668 24.2566667,63.574 L24.2566667,63.574 Z M40.7840002,63.782 C41.1133352,63.7646666 41.4426653,63.8426658 41.7720002,64.016 C42.1013352,64.1893342 42.2660002,64.4579982 42.2660002,64.822 C42.2313334,65.1166681 42.0710017,65.3029996 41.7850002,65.381 C41.4989988,65.4590004 41.2693344,65.498 41.0960002,65.498 C40.7493318,65.498 40.3766689,65.5066666 39.9780002,65.524 C39.5793316,65.5413334 39.1720023,65.5673332 38.7560002,65.602 C38.7213334,66.1740029 38.6910004,66.7113308 38.6650002,67.214 C38.6390001,67.7166692 38.6173337,68.162998 38.6000002,68.553 C38.5826668,68.943002 38.5740002,69.2593321 38.5740002,69.502 C38.5740002,69.7446679 38.5826668,69.8746666 38.6000002,69.892 C38.9813355,69.8226663 39.392998,69.7056675 39.8350002,69.541 C40.2770024,69.3763325 40.718998,69.1943343 41.1610002,68.995 C41.6030024,68.7956657 42.0363314,68.5876678 42.4610002,68.371 C42.885669,68.1543323 43.288665,67.9506676 43.6700002,67.76 C43.8433344,67.6733329 44.0036662,67.6473332 44.1510002,67.682 C44.2983343,67.7166668 44.3893334,67.7946661 44.4240002,67.916 C44.4586671,68.1066676 44.4326673,68.3406653 44.3460002,68.618 C44.2593331,68.8953347 44.1033347,69.1466655 43.8780002,69.372 C43.6179989,69.580001 43.275669,69.818332 42.8510002,70.087 C42.4263314,70.355668 41.971336,70.6113321 41.4860002,70.854 C41.0006645,71.0966679 40.5110027,71.3089991 40.0170002,71.491 C39.5229978,71.6730009 39.0853355,71.7813332 38.7040002,71.816 C38.1319974,71.8680003 37.6986684,71.7120018 37.4040002,71.348 C37.1093321,70.9839982 36.9446671,70.5246694 36.9100002,69.97 C36.8753334,69.4153306 36.8710001,68.7740036 36.8970002,68.046 C36.9230004,67.3179964 36.9533334,66.5466707 36.9880002,65.732 C36.6586653,65.7666668 36.3423351,65.7969999 36.0390002,65.823 C35.7356654,65.8490001 35.445335,65.8793332 35.1680002,65.914 C34.9426658,65.914 34.6956682,65.8620005 34.4270002,65.758 C34.1583322,65.6539995 34.0240002,65.4546681 34.0240002,65.16 C34.0240002,65.0559995 34.0673331,64.9173342 34.1540002,64.744 C34.2406673,64.5706658 34.4313321,64.4406671 34.7260002,64.354 C35.4366705,64.2326661 36.2253292,64.1286671 37.0920002,64.042 C37.1440005,63.2273293 37.2046666,62.4386705 37.2740002,61.676 C37.3433339,60.9133295 37.404,60.2200031 37.4560002,59.596 C37.4733337,59.387999 37.5339997,59.2060008 37.6380002,59.05 C37.7420008,58.8939992 37.8546663,58.816 37.9760002,58.816 C38.2706684,58.7986666 38.5523322,58.8723325 38.8210002,59.037 C39.0896682,59.2016675 39.2240002,59.387999 39.2240002,59.596 C39.1546666,60.1853363 39.0896672,60.8526629 39.0290002,61.598 C38.9683333,62.3433371 38.9120005,63.1059961 38.8600002,63.886 C39.2066686,63.8513332 39.540332,63.8296667 39.8610002,63.821 C40.1816685,63.8123333 40.4893321,63.7993334 40.7840002,63.782 L40.7840002,63.782 Z M46.226667,59.232 C46.226667,59.6480021 46.2223337,60.1159974 46.213667,60.636 C46.2050003,61.1560026 46.2050003,61.6933306 46.213667,62.248 C46.2223337,62.8026694 46.2310003,63.3746637 46.239667,63.964 C46.2483337,64.5533363 46.2613336,65.116664 46.278667,65.654 C46.4520012,65.3073316 46.6599991,64.9650017 46.902667,64.627 C47.1453349,64.2889983 47.4183321,63.9900013 47.721667,63.73 C48.0250018,63.4699987 48.3456653,63.2620008 48.683667,63.106 C49.0216687,62.9499992 49.3899983,62.872 49.788667,62.872 C50.2220025,62.872 50.6076653,63.0106653 50.945667,63.288 C51.2836687,63.5653347 51.5783324,63.9336644 51.829667,64.393 C52.0810016,64.8523356 52.2933328,65.3636638 52.466667,65.927 C52.6400012,66.4903361 52.7829998,67.0623304 52.895667,67.643 C53.0083342,68.2236696 53.0906667,68.7783307 53.142667,69.307 C53.1946672,69.8356693 53.2380001,70.2906648 53.272667,70.672 C53.272667,70.9493347 53.2033343,71.1746658 53.064667,71.348 C52.9259996,71.5213342 52.7613346,71.608 52.570667,71.608 C52.4319996,71.608 52.2630013,71.5170009 52.063667,71.335 C51.8643327,71.1529991 51.7213341,70.9320013 51.634667,70.672 C51.5826667,70.463999 51.5306672,70.1606687 51.478667,69.762 C51.4266667,69.3633313 51.3660007,68.9343356 51.296667,68.475 C51.2273333,68.0156644 51.1406675,67.5520023 51.036667,67.084 C50.9326665,66.6159977 50.8070011,66.1956685 50.659667,65.823 C50.5123329,65.4503315 50.334668,65.160001 50.126667,64.952 C49.9186659,64.743999 49.6760017,64.6659997 49.398667,64.718 C48.9653315,64.8046671 48.5883353,65.1079974 48.267667,65.628 C47.9469987,66.1480026 47.6696682,66.73733 47.435667,67.396 C47.2016658,68.05467 47.0110011,68.7219966 46.863667,69.398 C46.7163329,70.0740034 46.6080007,70.6199979 46.538667,71.036 C46.4693333,71.3480016 46.3783342,71.5603328 46.265667,71.673 C46.1529998,71.7856672 46.0273343,71.842 45.888667,71.842 C45.7499996,71.842 45.6243342,71.7726674 45.511667,71.634 C45.3989998,71.4953326 45.2950008,71.3263343 45.199667,71.127 C45.1043332,70.9276657 45.0220007,70.7196677 44.952667,70.503 C44.8833333,70.2863322 44.8400004,70.1000008 44.822667,69.944 C44.7359999,69.0079953 44.6666672,68.1110043 44.614667,67.253 C44.5626667,66.3949957 44.5236671,65.532671 44.497667,64.666 C44.4716669,63.799329 44.458667,62.9110046 44.458667,62.001 C44.458667,61.0909955 44.4760001,60.1160052 44.510667,59.076 C44.510667,58.209329 44.8226639,57.8193329 45.446667,57.906 C45.654668,57.9406668 45.8366662,58.092332 45.992667,58.361 C46.1486678,58.629668 46.226667,58.9199984 46.226667,59.232 L46.226667,59.232 Z M58.4293337,60.142 C58.3946669,60.3153342 58.2733348,60.4106666 58.0653337,60.428 C57.8573327,60.4453334 57.6840011,60.454 57.5453337,60.454 C57.1119982,60.4713334 56.6656694,60.5146663 56.2063337,60.584 C55.7469981,60.6533337 55.2660029,60.7573326 54.7633337,60.896 C54.5553327,60.9653337 54.3300016,60.9393339 54.0873337,60.818 C53.8446659,60.6966661 53.697334,60.4540018 53.6453337,60.09 C53.6453337,59.9513326 53.6973332,59.8386671 53.8013337,59.752 C53.9053343,59.6653329 54.0266664,59.5873337 54.1653337,59.518 C54.3906682,59.4139995 54.6593322,59.3230004 54.9713337,59.245 C55.2833353,59.1669996 55.5996655,59.1106668 55.9203337,59.076 C56.241002,59.0413332 56.5486656,59.0283333 56.8433337,59.037 C57.1380019,59.0456667 57.3806661,59.0759997 57.5713337,59.128 C57.8486685,59.2146671 58.0696662,59.3446658 58.2343337,59.518 C58.3990012,59.6913342 58.4640006,59.8993321 58.4293337,60.142 L58.4293337,60.142 Z M57.8313337,68.8 C57.9526677,69.0773347 58.017667,69.3763317 58.0263337,69.697 C58.0350004,70.0176683 57.9440014,70.2386661 57.7533337,70.36 C57.5106659,70.5160008 57.2506685,70.5073342 56.9733337,70.334 C56.695999,70.1606658 56.4880011,69.9266681 56.3493337,69.632 C56.1586661,69.2679982 56.0113343,68.8216693 55.9073337,68.293 C55.8033332,67.7643307 55.725334,67.2400026 55.6733337,66.72 C55.6213335,66.1999974 55.5910004,65.7146689 55.5823337,65.264 C55.573667,64.8133311 55.5693337,64.4753345 55.5693337,64.25 C55.5866672,64.0073321 55.6559998,63.782001 55.7773337,63.574 C55.8986677,63.365999 56.0546661,63.2446668 56.2453337,63.21 C56.5573353,63.2273334 56.8086661,63.370332 56.9993337,63.639 C57.1900014,63.907668 57.2766672,64.2413313 57.2593337,64.64 C57.2593337,64.9520016 57.2680003,65.2986648 57.2853337,65.68 C57.3026672,66.0613352 57.3373335,66.4426648 57.3893337,66.824 C57.441334,67.2053352 57.5020001,67.5736649 57.5713337,67.929 C57.6406674,68.2843351 57.7273332,68.5746655 57.8313337,68.8 L57.8313337,68.8 Z M64.1320005,62.976 C64.0973336,62.7853324 64.0626673,62.6033342 64.0280005,62.43 C63.9933336,62.2566658 63.9066678,62.1440003 63.7680005,62.092 C63.4733323,62.0053329 63.1613355,61.9966663 62.8320005,62.066 C62.5026655,62.1353337 62.1993352,62.2436659 61.9220005,62.391 C61.6446658,62.5383341 61.4106681,62.7029991 61.2200005,62.885 C61.0293329,63.0670009 60.9253339,63.2273326 60.9080005,63.366 C60.8560002,63.6260013 60.9253329,63.8773321 61.1160005,64.12 C61.3066681,64.3626679 61.5839987,64.6053321 61.9480005,64.848 C62.5546702,65.2120018 63.1873305,65.5846648 63.8460005,65.966 C64.5046704,66.3473352 65.0593316,66.7373313 65.5100005,67.136 C65.9606694,67.5346687 66.268333,67.972331 66.4330005,68.449 C66.597668,68.9256691 66.5586684,69.4673303 66.3160005,70.074 C66.1253329,70.5420023 65.7700031,70.9233319 65.2500005,71.218 C64.7299979,71.5126681 64.1580036,71.7423325 63.5340005,71.907 C62.9099974,72.0716675 62.2860036,72.184333 61.6620005,72.245 C61.0379974,72.305667 60.509336,72.336 60.0760005,72.336 C59.972,72.336 59.8463345,72.2970004 59.6990005,72.219 C59.5516664,72.1409996 59.4130011,72.0500005 59.2830005,71.946 C59.1529998,71.8419995 59.0403343,71.7336672 58.9450005,71.621 C58.8496667,71.5083328 58.8020005,71.4086671 58.8020005,71.322 C58.8020005,71.0099984 58.9406658,70.7933339 59.2180005,70.672 C59.4953352,70.5506661 59.7813323,70.49 60.0760005,70.49 C60.4920026,70.49 60.9383314,70.4683336 61.4150005,70.425 C61.8916695,70.3816665 62.346665,70.3123338 62.7800005,70.217 C63.213336,70.1216662 63.6033321,69.9960008 63.9500005,69.84 C64.2966689,69.6839992 64.5393331,69.4846679 64.6780005,69.242 C64.7993344,69.033999 64.7256685,68.7870014 64.4570005,68.501 C64.1883325,68.2149986 63.8330027,67.9160016 63.3910005,67.604 C62.9489983,67.2919984 62.4723364,66.9886681 61.9610005,66.694 C61.4496646,66.3993319 61.0120023,66.1306679 60.6480005,65.888 C60.2839987,65.6453321 59.9720018,65.3550017 59.7120005,65.017 C59.4519992,64.6789983 59.2873342,64.2586692 59.2180005,63.756 C59.2006671,63.3053311 59.2959994,62.8720021 59.5040005,62.456 C59.7120015,62.0399979 59.9849988,61.6716683 60.3230005,61.351 C60.6610022,61.0303317 61.046665,60.7746676 61.4800005,60.584 C61.913336,60.3933324 62.346665,60.298 62.7800005,60.298 C63.5253375,60.3326668 64.1406647,60.5363315 64.6260005,60.909 C65.1113362,61.2816685 65.3973334,61.8319964 65.4840005,62.56 C65.4840005,62.8026679 65.4450009,63.0019992 65.3670005,63.158 C65.2890001,63.3140008 65.1546681,63.4093332 64.9640005,63.444 C64.7213326,63.4786668 64.5263345,63.4483338 64.3790005,63.353 C64.2316664,63.2576662 64.1493339,63.1320008 64.1320005,62.976 L64.1320005,62.976 Z M77.383334,61.442 C77.5566682,61.650001 77.6346674,61.9273316 77.617334,62.274 C77.6000005,62.6206684 77.5220013,62.8893324 77.383334,63.08 C77.2099998,63.288001 76.9630022,63.4526661 76.642334,63.574 C76.3216657,63.6953339 75.8840034,63.6173347 75.329334,63.34 C75.2426669,63.3053332 75.1560011,63.2186674 75.069334,63.08 C74.9826669,62.9413326 74.9176675,62.7766676 74.874334,62.586 C74.8310004,62.3953324 74.8223338,62.1916677 74.848334,61.975 C74.8743341,61.7583322 74.9653332,61.546001 75.121334,61.338 C75.2773347,61.129999 75.4593329,60.995667 75.667334,60.935 C75.875335,60.874333 76.0876662,60.8613332 76.304334,60.896 C76.5210017,60.9306668 76.7246663,60.9999995 76.915334,61.104 C77.1060016,61.2080005 77.262,61.3206661 77.383334,61.442 L77.383334,61.442 Z M77.383334,68.384 C77.4700011,68.713335 77.4440013,68.9733324 77.305334,69.164 C77.1666666,69.3546676 76.9846684,69.4933329 76.759334,69.58 C76.5686663,69.6493337 76.3823349,69.6710001 76.200334,69.645 C76.0183331,69.6189999 75.8840011,69.5453339 75.797334,69.424 C75.5199992,69.3199995 75.3206679,69.1726676 75.199334,68.982 C75.078,68.7913324 75.0086674,68.5833345 74.991334,68.358 C74.9566671,67.8033306 75.103999,67.3743348 75.433334,67.071 C75.7626689,66.7676651 76.1786648,66.7113324 76.681334,66.902 C76.9760021,67.0233339 77.2229996,67.2139987 77.422334,67.474 C77.6216683,67.7340013 77.6086684,68.0373316 77.383334,68.384 L77.383334,68.384 Z M84.9320007,61.338 C85.0360012,62.4473389 85.0230014,63.5609944 84.8930007,64.679 C84.7630001,65.7970056 84.5853352,66.8543284 84.3600007,67.851 C84.1346663,68.8476716 83.8833354,69.748996 83.6060007,70.555 C83.328666,71.361004 83.1033349,72.0066642 82.9300007,72.492 C82.8953339,72.5786671 82.8346678,72.7173324 82.7480007,72.908 C82.6613336,73.0986676 82.5530014,73.2849991 82.4230007,73.467 C82.2930001,73.6490009 82.1413349,73.7963328 81.9680007,73.909 C81.7946665,74.0216672 81.6040018,74.0433337 81.3960007,73.974 C81.2226665,73.9219997 81.1056677,73.8266674 81.0450007,73.688 C80.9843337,73.5493326 80.9540007,73.4020008 80.9540007,73.246 C80.9540007,73.0899992 80.9756672,72.9296675 81.0190007,72.765 C81.0623343,72.6003325 81.1100005,72.4573339 81.1620007,72.336 C81.6126696,71.139994 81.9939992,69.9700057 82.3060007,68.826 C82.6180023,67.6819943 82.8953328,66.4340068 83.1380007,65.082 C83.3806686,63.6953264 83.4066683,62.5253381 83.2160007,61.572 C83.0773334,60.8439964 82.817336,60.285002 82.4360007,59.895 C82.0546655,59.5049981 81.5433373,59.1626681 80.9020007,58.868 C80.6419994,58.7466661 80.4296682,58.551668 80.2650007,58.283 C80.1003332,58.014332 80.0786668,57.7413347 80.2000007,57.464 C80.3386681,57.255999 80.5119997,57.1303336 80.7200007,57.087 C80.9280018,57.0436665 81.1446663,57.0436665 81.3700007,57.087 C81.5953352,57.1303336 81.8119997,57.2039995 82.0200007,57.308 L82.5400007,57.568 C82.8173354,57.7413342 83.0859994,57.9406655 83.3460007,58.166 C83.606002,58.3913345 83.8486663,58.6599984 84.0740007,58.972 C84.2993352,59.2840016 84.4856666,59.6349981 84.6330007,60.025 C84.7803348,60.415002 84.8800005,60.8526642 84.9320007,61.338 L84.9320007,61.338 Z" id="do-this-:)" fill="#78C224" sketch:type="MSShapeGroup"></path>
        <path d="M7.59266696,47.8161901 L8.30571938,47.8161901 C8.22847203,47.6048811 8.47150406,47.0675527 8.16310889,47.0923061 C8.03238261,47.8880351 8.169051,46.7173837 7.73527744,46.9474085 C7.52136171,47.3869311 7.78281427,47.5082828 7.59266696,47.8161901 L7.59266696,47.8161901 Z M19.7139639,3.33264355 C20.5286263,3.60976011 21.1525471,4.05713128 21.9963258,3.91162999 C21.1584892,3.7431866 20.2731158,2.98247448 19.7139639,3.33264355 L19.7139639,3.33264355 Z M35.2585066,27.2407386 C38.1647895,22.3685586 42.5857145,18.2637319 45.0992243,13.4754717 C38.8540735,10.8854281 31.705723,7.95729021 25.1337565,5.2157079 C24.8247671,4.95066614 23.9631621,5.24649863 23.7076516,4.92651655 C23.7438985,4.70313284 24.0219889,4.82388079 24.1354831,4.92651655 C23.5953459,4.22617841 22.7747414,4.43748733 22.1383421,4.05713128 C22.2993731,4.66087105 23.267936,4.45559953 23.5650412,4.92651655 C22.0854574,4.69105804 21.3426945,3.7431866 19.8571686,3.91162999 C21.6813944,6.35737981 22.4354473,9.88925749 24.5627203,12.0271 C24.3553409,12.5879743 24.3856457,13.3909482 24.1354831,13.9101644 C23.7017095,14.0007253 23.3927202,14.2180717 22.9945992,14.3454608 C20.4157263,12.9502181 15.6561014,14.7916244 12.7266444,15.7938325 C12.8805449,15.7877951 13.0891127,15.8602438 12.8692549,15.93873 C7.59266696,18.2504496 3.07072619,22.1940778 2.45868953,28.2550214 C2.25131012,30.3252451 2.63041632,32.6804339 3.02913147,34.9209122 C3.35000506,36.7321316 4.21755217,38.1388452 4.88306776,39.8474288 C5.57829387,41.6399322 5.9936469,43.5779368 7.45065068,44.7739453 C8.64441928,47.0850612 10.2903819,48.9385423 12.1567967,50.5698472 C12.5424392,49.192113 11.6273552,48.0039531 11.4425558,46.6570097 C10.926187,42.9319353 11.4615705,38.9961557 12.5834397,36.0800926 C13.2317232,32.6321348 15.347112,29.4196354 18.0032323,27.5305337 C19.5600634,25.3576742 21.9309627,23.690145 24.705925,23.1830036 C25.0327407,23.0320686 25.163467,22.6818995 25.7036042,22.7489147 C25.8646352,22.7374436 25.9240563,22.9602236 25.9894194,22.7489147 C25.8765194,22.1337038 28.1814614,22.6758622 28.2711871,23.6182999 C28.4316239,24.2643015 27.8908925,24.2045313 27.8433557,24.6325828 C28.491045,26.8730611 29.5546815,30.5437989 30.5529549,33.471333 C31.3135441,32.0223576 32.6029806,31.1107105 33.1199436,29.4142018 C33.7973434,29.1370852 34.1301012,28.5085921 34.403438,27.8209325 C34.7896747,27.7297678 34.7599642,27.2171927 35.2585066,27.2407386 L35.2585066,27.2407386 Z M47.2383815,11.4469061 C48.1594076,11.8568454 49.4666703,12.4189271 48.5218759,14.1999595 C47.9989708,14.2965578 47.8266498,14.7493627 47.380992,14.9244472 C42.0212146,22.815326 35.2299845,30.6156439 30.4097502,38.1080545 C29.8101919,38.0959797 29.3585921,37.812222 28.5564081,37.6727581 C28.895108,37.0937717 28.2355345,37.2815348 28.1279824,36.8039766 C28.6811923,34.68485 27.4386984,33.2413082 26.7024718,31.1529723 C25.8586931,28.7675965 26.0131878,26.462518 24.5627203,25.5013643 C22.6315367,26.3230541 21.3426945,27.3373369 19.7139639,28.9801129 C16.3750959,32.3489808 14.7053648,35.9231203 13.866934,41.2951968 C13.27926,45.0872863 15.2995752,49.2887114 16.434517,52.3074102 C15.7095803,53.472628 14.5811749,52.8453424 13.5823073,52.8876042 C12.6553391,52.9304697 11.8709815,53.7026528 11.0159128,53.178003 C10.4270503,51.6553713 7.45599857,50.6471259 7.30744599,48.6849716 C7.11135657,48.6559921 6.71917774,48.5648274 6.45178308,48.2514864 C0.449664337,40.3545702 -3.1922509,26.9020406 3.88538858,19.126476 C4.00957854,18.9876159 4.4433521,18.9996907 4.59784679,18.8366809 C4.782052,18.6434842 4.71015255,18.2752029 4.88306776,18.1127969 C7.79469847,15.377252 11.2173501,13.7290424 15.5788541,12.3162914 C17.1000326,11.8212248 19.0846951,11.3074422 20.7128315,11.7367012 C20.053258,8.41613244 17.1653957,4.93315769 16.2919065,0.869385274 C16.606838,0.150934943 18.0685954,0.0724487728 18.57308,0 C20.7003531,1.48519984 24.2370931,2.01709458 26.1320299,3.187746 C26.8510244,3.62907978 26.1795667,3.59225165 26.9876928,3.76733619 C31.20005,4.69709544 34.9328794,7.42599921 38.6817525,8.69385274 C41.570209,8.62744136 43.8097878,11.1933354 46.8105501,11.0122135 C46.3411239,11.4233603 47.5651972,11.2899338 47.2383815,11.4469061 L47.2383815,11.4469061 Z" id="Fill-177" fill="#78C224" sketch:type="MSShapeGroup" transform="translate(24.424780, 26.680000) scale(-1, 1) translate(-24.424780, -26.680000) "></path>
    </g>
</svg>