<?xml version="1.0" encoding="UTF-8" standalone="no"?>
<svg width="71px" height="18px" viewBox="0 0 71 18" version="1.1" xmlns="http://www.w3.org/2000/svg" xmlns:xlink="http://www.w3.org/1999/xlink" xmlns:sketch="http://www.bohemiancoding.com/sketch/ns">
    <!-- Generator: Sketch 3.5.1 (25234) - http://www.bohemiancoding.com/sketch -->
    <title>Slice 16</title>
    <desc>Created with Sketch.</desc>
    <defs></defs>
    <g id="Page-1" stroke="none" stroke-width="1" fill="none" fill-rule="evenodd" sketch:type="MSPage">
        <path d="M17.9798212,3.4868954 C17.9798212,3.4868954 19.5142354,3.36564988 20.1299992,2.9060976 C20.1299992,2.9060976 19.9828698,3.43512765 18.1360327,5.10895149 C18.1360327,5.10895149 18.7576997,14.1401529 9.28556424,16.352543 C9.28556424,16.352543 4.48160808,17.3788159 1,14.7609118 C1,14.7609118 4.64417697,15.409371 6.69445224,13.1415803 C6.69445224,13.1415803 4.04975608,13.1688265 3.21329826,10.4700921 C3.21329826,10.4700921 4.21187087,10.685791 4.80538355,10.4160538 C4.80538355,10.4160538 1.81011984,9.79529496 1.863704,6.52938583 C1.863704,6.52938583 2.67382384,7.12335262 3.40175103,7.01527609 C3.40175103,7.01527609 0.703924812,4.72114749 2.37684045,1.86075238 C2.37684045,1.86075238 5.99240892,6.13613259 10.4734978,5.88228898 C10.394938,5.57667763 10.3531605,5.25562678 10.3531605,4.92413155 C10.3531605,2.79847518 12.0773898,1.0747 14.2039544,1.0747 C15.2783622,1.0747 16.2501427,1.51472585 16.9490073,2.22448892 C17.4612355,2.23311688 18.5147546,2.14184217 19.5669114,1.38848521 C19.5669114,1.38848521 19.6273071,2.21222814 17.9798212,3.4868954 L17.9798212,3.4868954 Z" id="Stroke-1" stroke="#78C225" stroke-width="2" stroke-linecap="round" stroke-linejoin="round" sketch:type="MSShapeGroup"></path>
        <path d="M30.4324,6.568 C30.7364015,6.55199992 31.0403985,6.6239992 31.3444,6.784 C31.6484015,6.9440008 31.8004,7.19199832 31.8004,7.528 C31.7683998,7.80000136 31.6204013,7.97199964 31.3564,8.044 C31.0923987,8.11600036 30.8804008,8.152 30.7204,8.152 C30.4003984,8.152 30.0564018,8.15999992 29.6884,8.176 C29.3203982,8.19200008 28.9444019,8.21599984 28.5604,8.248 C28.5283998,8.77600264 28.5004001,9.27199768 28.4764,9.736 C28.4523999,10.2000023 28.4324001,10.6119982 28.4164,10.972 C28.4003999,11.3320018 28.3924,11.6239989 28.3924,11.848 C28.3924,12.0720011 28.4003999,12.1919999 28.4164,12.208 C28.7684018,12.1439997 29.148398,12.0360008 29.5564,11.884 C29.964402,11.7319992 30.372398,11.5640009 30.7804,11.38 C31.188402,11.1959991 31.588398,11.004001 31.9804,10.804 C32.372402,10.603999 32.7443982,10.4160009 33.0964,10.24 C33.2564008,10.1599996 33.4043993,10.1359998 33.5404,10.168 C33.6764007,10.2000002 33.7603998,10.2719994 33.7924,10.384 C33.8244002,10.5600009 33.8004004,10.7759987 33.7204,11.032 C33.6403996,11.2880013 33.496401,11.519999 33.2884,11.728 C33.0483988,11.920001 32.732402,12.1399988 32.3404,12.388 C31.948398,12.6360012 31.5284022,12.8719989 31.0804,13.096 C30.6323978,13.3200011 30.1804023,13.5159992 29.7244,13.684 C29.2683977,13.8520008 28.8644018,13.9519998 28.5124,13.984 C27.9843974,14.0320002 27.5844014,13.8880017 27.3124,13.552 C27.0403986,13.2159983 26.8884002,12.7920026 26.8564,12.28 C26.8243998,11.7679974 26.8203999,11.1760034 26.8444,10.504 C26.8684001,9.83199664 26.8963998,9.12000376 26.9284,8.368 C26.6243985,8.40000016 26.3324014,8.42799988 26.0524,8.452 C25.7723986,8.47600012 25.5044013,8.50399984 25.2484,8.536 C25.040399,8.536 24.8124012,8.48800048 24.5644,8.392 C24.3163988,8.29599952 24.1924,8.11200136 24.1924,7.84 C24.1924,7.74399952 24.2323996,7.6160008 24.3124,7.456 C24.3924004,7.2959992 24.5683986,7.1760004 24.8404,7.096 C25.4964033,6.98399944 26.224396,6.8880004 27.0244,6.808 C27.0724002,6.05599624 27.1283997,5.32800352 27.1924,4.624 C27.2564003,3.91999648 27.3123998,3.28000288 27.3604,2.704 C27.3764001,2.51199904 27.4323995,2.34400072 27.5284,2.2 C27.6244005,2.05599928 27.7283994,1.984 27.8404,1.984 C28.1124014,1.96799992 28.3723988,2.03599924 28.6204,2.188 C28.8684012,2.34000076 28.9924,2.51199904 28.9924,2.704 C28.9283997,3.24800272 28.8684003,3.86399656 28.8124,4.552 C28.7563997,5.24000344 28.7044002,5.9439964 28.6564,6.664 C28.9764016,6.63199984 29.2843985,6.61200004 29.5804,6.604 C29.8764015,6.59599996 30.1603986,6.58400008 30.4324,6.568 L30.4324,6.568 Z M42.3973231,12.448 C42.2693225,12.6240009 42.1253239,12.7399997 41.9653231,12.796 C41.8053223,12.8520003 41.6613238,12.88 41.5333231,12.88 C41.309322,12.8639999 41.1013241,12.7880007 40.9093231,12.652 C40.7173222,12.5159993 40.5973234,12.3760007 40.5493231,12.232 C40.4533227,11.9599986 40.3493237,11.6560017 40.2373231,11.32 C40.1253226,10.9839983 40.0173237,10.6440017 39.9133231,10.3 C39.8093226,9.95599828 39.7013237,9.62000164 39.5893231,9.292 C39.4773226,8.96399836 39.3733236,8.66400136 39.2773231,8.392 C38.9573215,8.9520028 38.6533246,9.51599716 38.3653231,10.084 C38.0773217,10.6520028 37.7573249,11.239997 37.4053231,11.848 C37.2453223,12.0880012 37.0613242,12.2519996 36.8533231,12.34 C36.6453221,12.4280004 36.4693239,12.4640001 36.3253231,12.448 C36.1173221,12.4319999 35.929324,12.3520007 35.7613231,12.208 C35.5933223,12.0639993 35.4613236,11.9280006 35.3653231,11.8 C35.1893223,11.5119986 35.013324,11.1400023 34.8373231,10.684 C34.6613223,10.2279977 34.4973239,9.74800252 34.3453231,9.244 C34.1933224,8.73999748 34.0533238,8.23600252 33.9253231,7.732 C33.7973225,7.22799748 33.6933235,6.776002 33.6133231,6.376 C33.5653229,6.10399864 33.5693229,5.8480012 33.6253231,5.608 C33.6813234,5.3679988 33.821322,5.23200016 34.0453231,5.2 C34.3173245,5.18399992 34.565322,5.275999 34.7893231,5.476 C35.0133243,5.676001 35.141323,5.87199904 35.1733231,6.064 C35.2373235,6.3840016 35.3133227,6.73199812 35.4013231,7.108 C35.4893236,7.48400188 35.5853226,7.86399808 35.6893231,8.248 C35.7933237,8.63200192 35.8973226,9.00799816 36.0013231,9.376 C36.1053237,9.74400184 36.2133226,10.0719986 36.3253231,10.36 C36.5653243,9.97599808 36.8333217,9.53200252 37.1293231,9.028 C37.4253246,8.52399748 37.7093218,8.03600236 37.9813231,7.564 C38.2533245,7.09199764 38.501322,6.68000176 38.7253231,6.328 C38.9493243,5.97599824 39.1253225,5.7600004 39.2533231,5.68 C39.3493236,5.61599968 39.4853223,5.61999964 39.6613231,5.692 C39.837324,5.76400036 39.9653227,5.86399936 40.0453231,5.992 C40.3973249,6.69600352 40.689322,7.4679958 40.9213231,8.308 C41.1533243,9.1480042 41.381322,9.9279964 41.6053231,10.648 C41.8293243,10.3599986 42.0693219,9.98000236 42.3253231,9.508 C42.5813244,9.03599764 42.8293219,8.53600264 43.0693231,8.008 C43.3093243,7.47999736 43.5333221,6.95200264 43.7413231,6.424 C43.9493242,5.89599736 44.1173225,5.42400208 44.2453231,5.008 C44.3733238,4.57599784 44.549322,4.36799992 44.7733231,4.384 C45.0613246,4.41600016 45.3093221,4.5119992 45.5173231,4.672 C45.7253242,4.8320008 45.8053234,4.99999912 45.7573231,5.176 C45.4053214,6.58400704 44.9493259,7.87599412 44.3893231,9.052 C43.8293203,10.2280059 43.165327,11.3599946 42.3973231,12.448 L42.3973231,12.448 Z M52.3702463,7.36 C51.7462431,7.72800184 51.0742499,8.011999 50.3542463,8.212 C49.6342427,8.412001 48.8582504,8.512 48.0262463,8.512 C48.0582464,9.0720028 48.2182448,9.51599836 48.5062463,9.844 C48.7942477,10.1720016 49.1542441,10.3679997 49.5862463,10.432 C49.8422475,10.4640002 50.1022449,10.4560002 50.3662463,10.408 C50.6302476,10.3599998 50.8782451,10.2840005 51.1102463,10.18 C51.3422474,10.0759995 51.5542453,9.96000064 51.7462463,9.832 C51.9382472,9.70399936 52.1062455,9.57600064 52.2502463,9.448 C52.394247,9.31999936 52.5462455,9.2360002 52.7062463,9.196 C52.8662471,9.1559998 52.9862459,9.15199984 53.0662463,9.184 C53.2902474,9.2640004 53.3702466,9.503998 53.3062463,9.904 C53.050245,10.4160026 52.6822487,10.8519982 52.2022463,11.212 C51.7222439,11.5720018 51.1862492,11.7999995 50.5942463,11.896 C50.0822437,11.9920005 49.554249,11.9680007 49.0102463,11.824 C48.4662435,11.6799993 47.9782484,11.4000021 47.5462463,10.984 C47.1782444,10.6159982 46.8982472,10.1840025 46.7062463,9.688 C46.5142453,9.19199752 46.3942465,8.68000264 46.3462463,8.152 C46.298246,7.65599752 46.3422456,7.18400224 46.4782463,6.736 C46.6142469,6.28799776 46.8262448,5.89200172 47.1142463,5.548 C47.4022477,5.20399828 47.7622441,4.92000112 48.1942463,4.696 C48.6262484,4.47199888 49.1302434,4.34400016 49.7062463,4.312 C50.3942497,4.26399976 51.0182435,4.39199848 51.5782463,4.696 C52.1382491,5.00000152 52.5302451,5.42399728 52.7542463,5.968 C52.8822469,6.27200152 52.9182465,6.53599888 52.8622463,6.76 C52.806246,6.98400112 52.6422476,7.18399912 52.3702463,7.36 L52.3702463,7.36 Z M49.6102463,5.728 C49.4502455,5.76000016 49.2782472,5.8159996 49.0942463,5.896 C48.9102453,5.9760004 48.742247,6.0759994 48.5902463,6.196 C48.4382455,6.3160006 48.3022469,6.45199924 48.1822463,6.604 C48.0622457,6.75600076 47.9942463,6.92799904 47.9782463,7.12 C48.2502476,7.12 48.5502446,7.09600024 48.8782463,7.048 C49.2062479,6.99999976 49.5262447,6.94000036 49.8382463,6.868 C50.1502478,6.79599964 50.4382449,6.71200048 50.7022463,6.616 C50.9662476,6.51999952 51.1862454,6.41600056 51.3622463,6.304 C51.2342456,5.99999848 50.998248,5.81200036 50.6542463,5.74 C50.3102445,5.66799964 49.962248,5.66399968 49.6102463,5.728 L49.6102463,5.728 Z M59.8711694,7.36 C59.2471663,7.72800184 58.575173,8.011999 57.8551694,8.212 C57.1351658,8.412001 56.3591736,8.512 55.5271694,8.512 C55.5591696,9.0720028 55.719168,9.51599836 56.0071694,9.844 C56.2951708,10.1720016 56.6551672,10.3679997 57.0871694,10.432 C57.3431707,10.4640002 57.6031681,10.4560002 57.8671694,10.408 C58.1311707,10.3599998 58.3791682,10.2840005 58.6111694,10.18 C58.8431706,10.0759995 59.0551684,9.96000064 59.2471694,9.832 C59.4391704,9.70399936 59.6071687,9.57600064 59.7511694,9.448 C59.8951701,9.31999936 60.0471686,9.2360002 60.2071694,9.196 C60.3671702,9.1559998 60.487169,9.15199984 60.5671694,9.184 C60.7911705,9.2640004 60.8711697,9.503998 60.8071694,9.904 C60.5511681,10.4160026 60.1831718,10.8519982 59.7031694,11.212 C59.223167,11.5720018 58.6871724,11.7999995 58.0951694,11.896 C57.5831668,11.9920005 57.0551721,11.9680007 56.5111694,11.824 C55.9671667,11.6799993 55.4791716,11.4000021 55.0471694,10.984 C54.6791676,10.6159982 54.3991704,10.1840025 54.2071694,9.688 C54.0151684,9.19199752 53.8951696,8.68000264 53.8471694,8.152 C53.7991692,7.65599752 53.8431687,7.18400224 53.9791694,6.736 C54.1151701,6.28799776 54.327168,5.89200172 54.6151694,5.548 C54.9031708,5.20399828 55.2631672,4.92000112 55.6951694,4.696 C56.1271716,4.47199888 56.6311665,4.34400016 57.2071694,4.312 C57.8951728,4.26399976 58.5191666,4.39199848 59.0791694,4.696 C59.6391722,5.00000152 60.0311683,5.42399728 60.2551694,5.968 C60.38317,6.27200152 60.4191697,6.53599888 60.3631694,6.76 C60.3071691,6.98400112 60.1431708,7.18399912 59.8711694,7.36 L59.8711694,7.36 Z M57.1111694,5.728 C56.9511686,5.76000016 56.7791703,5.8159996 56.5951694,5.896 C56.4111685,5.9760004 56.2431702,6.0759994 56.0911694,6.196 C55.9391686,6.3160006 55.80317,6.45199924 55.6831694,6.604 C55.5631688,6.75600076 55.4951695,6.92799904 55.4791694,7.12 C55.7511708,7.12 56.0511678,7.09600024 56.3791694,7.048 C56.707171,6.99999976 57.0271678,6.94000036 57.3391694,6.868 C57.651171,6.79599964 57.9391681,6.71200048 58.2031694,6.616 C58.4671707,6.51999952 58.6871685,6.41600056 58.8631694,6.304 C58.7351688,5.99999848 58.4991711,5.81200036 58.1551694,5.74 C57.8111677,5.66799964 57.4631712,5.66399968 57.1111694,5.728 L57.1111694,5.728 Z M67.0120925,6.568 C67.316094,6.55199992 67.620091,6.6239992 67.9240925,6.784 C68.228094,6.9440008 68.3800925,7.19199832 68.3800925,7.528 C68.3480924,7.80000136 68.2000938,7.97199964 67.9360925,8.044 C67.6720912,8.11600036 67.4600933,8.152 67.3000925,8.152 C66.9800909,8.152 66.6360944,8.15999992 66.2680925,8.176 C65.9000907,8.19200008 65.5240944,8.21599984 65.1400925,8.248 C65.1080924,8.77600264 65.0800926,9.27199768 65.0560925,9.736 C65.0320924,10.2000023 65.0120926,10.6119982 64.9960925,10.972 C64.9800924,11.3320018 64.9720925,11.6239989 64.9720925,11.848 C64.9720925,12.0720011 64.9800924,12.1919999 64.9960925,12.208 C65.3480943,12.1439997 65.7280905,12.0360008 66.1360925,11.884 C66.5440946,11.7319992 66.9520905,11.5640009 67.3600925,11.38 C67.7680946,11.1959991 68.1680906,11.004001 68.5600925,10.804 C68.9520945,10.603999 69.3240908,10.4160009 69.6760925,10.24 C69.8360933,10.1599996 69.9840918,10.1359998 70.1200925,10.168 C70.2560932,10.2000002 70.3400924,10.2719994 70.3720925,10.384 C70.4040927,10.5600009 70.3800929,10.7759987 70.3000925,11.032 C70.2200921,11.2880013 70.0760936,11.519999 69.8680925,11.728 C69.6280913,11.920001 69.3120945,12.1399988 68.9200925,12.388 C68.5280906,12.6360012 68.1080948,12.8719989 67.6600925,13.096 C67.2120903,13.3200011 66.7600948,13.5159992 66.3040925,13.684 C65.8480902,13.8520008 65.4440943,13.9519998 65.0920925,13.984 C64.5640899,14.0320002 64.1640939,13.8880017 63.8920925,13.552 C63.6200912,13.2159983 63.4680927,12.7920026 63.4360925,12.28 C63.4040924,11.7679974 63.4000924,11.1760034 63.4240925,10.504 C63.4480926,9.83199664 63.4760924,9.12000376 63.5080925,8.368 C63.204091,8.40000016 62.9120939,8.42799988 62.6320925,8.452 C62.3520911,8.47600012 62.0840938,8.50399984 61.8280925,8.536 C61.6200915,8.536 61.3920938,8.48800048 61.1440925,8.392 C60.8960913,8.29599952 60.7720925,8.11200136 60.7720925,7.84 C60.7720925,7.74399952 60.8120921,7.6160008 60.8920925,7.456 C60.9720929,7.2959992 61.1480912,7.1760004 61.4200925,7.096 C62.0760958,6.98399944 62.8040885,6.8880004 63.6040925,6.808 C63.6520928,6.05599624 63.7080922,5.32800352 63.7720925,4.624 C63.8360928,3.91999648 63.8920923,3.28000288 63.9400925,2.704 C63.9560926,2.51199904 64.012092,2.34400072 64.1080925,2.2 C64.204093,2.05599928 64.308092,1.984 64.4200925,1.984 C64.6920939,1.96799992 64.9520913,2.03599924 65.2000925,2.188 C65.4480938,2.34000076 65.5720925,2.51199904 65.5720925,2.704 C65.5080922,3.24800272 65.4480928,3.86399656 65.3920925,4.552 C65.3360922,5.24000344 65.2840928,5.9439964 65.2360925,6.664 C65.5560941,6.63199984 65.864091,6.61200004 66.1600925,6.604 C66.456094,6.59599996 66.7400912,6.58400008 67.0120925,6.568 L67.0120925,6.568 Z" id="tweet" fill="#78C225" sketch:type="MSShapeGroup"></path>
    </g>
</svg>